<svg version="1.1" xmlns="http://www.w3.org/2000/svg" xmlns:xlink="http://www.w3.org/1999/xlink" width="43.89489" height="43.89489" viewBox="0,0,43.89489,43.89489"><g transform="translate(-218.05255,-158.05255)"><g data-paper-data="{&quot;isPaintingLayer&quot;:true}" fill="none" fill-rule="nonzero" stroke-width="1" stroke-linecap="butt" stroke-linejoin="miter" stroke-miterlimit="10" stroke-dasharray="" stroke-dashoffset="0" style="mix-blend-mode: normal"><path d="M261.44745,180c0,11.84512 -9.60233,21.44745 -21.44745,21.44745c-6.24427,0 -11.86525,-2.66824 -15.78445,-6.92709c-1.02948,-1.11789 -1.94078,-2.34609 -2.71638,-3.66357c-1.87249,-3.18473 -2.94662,-6.89557 -2.94662,-10.85679c0,-11.84512 9.60233,-21.44745 21.44745,-21.44745c3.96209,0 7.67293,1.07412 10.85679,2.94749c1.31749,0.77473 2.54481,1.68603 3.6627,2.71638c4.25885,3.91744 6.92796,9.5393 6.92796,15.78357z" stroke="#f0cd00"/><path d="M261.44745,180c0,11.57812 -9.17338,21.01325 -20.64908,21.43257c-11.4757,-0.41932 -20.64908,-9.85445 -20.64908,-21.43257c0,-11.57812 9.17338,-21.01325 20.64908,-21.43257c11.4757,0.41932 20.64908,9.85445 20.64908,21.43257z" stroke="#ffde50"/><path d="M254.51948,164.21643l-30.30393,30.30393c-1.02948,-1.11789 -1.94078,-2.34609 -2.71638,-3.66357l29.35762,-29.35674c1.31749,0.77473 2.54481,1.68603 3.6627,2.71638z" stroke="#ffea94"/><path d="M259.96801,172.15899l-27.8099,27.8099c-1.96879,-0.77386 -3.79576,-1.83047 -5.43014,-3.11995l30.12097,-30.12097c1.28947,1.63438 2.34609,3.46136 3.11907,5.43102z" stroke="#ffea94"/><path d="M256.66598,180c0,9.20402 -7.46196,16.66598 -16.66598,16.66598c-3.20574,0 -6.19963,-0.90517 -8.74093,-2.4739c-1.10739,-0.68282 -2.12811,-1.49257 -3.04379,-2.40824c-0.67319,-0.67231 -1.28947,-1.40328 -1.8401,-2.18326c-0.7581,-1.07412 -1.39277,-2.24191 -1.88212,-3.48237c-0.72484,-1.83398 -1.13278,-3.82815 -1.15729,-5.91337c-0.00175,-0.06828 -0.00175,-0.13656 -0.00175,-0.20484c0,-9.20402 7.46109,-16.66598 16.66598,-16.66598c0.06828,0 0.13744,0 0.20572,0.00175c2.08522,0.02451 4.07852,0.43333 5.91249,1.15729c1.24045,0.49023 2.40824,1.12402 3.48237,1.88212c0.77999,0.55151 1.51008,1.16692 2.18326,1.8401c0.91567,0.9148 1.72542,1.9364 2.40824,3.04379c1.56873,2.5413 2.4739,5.53519 2.4739,8.74093z" stroke="#faa300"/><path d="M251.78384,168.21528l-23.56856,23.56856c-0.67319,-0.67231 -1.28947,-1.40328 -1.8401,-2.18326c-0.7581,-1.07412 -1.39277,-2.24191 -1.88212,-3.48237c-0.72484,-1.83398 -1.13278,-3.82815 -1.15729,-5.91337c-0.00175,-0.06828 -0.00175,-0.13656 -0.00175,-0.20484c0,-9.20402 7.46109,-16.66598 16.66598,-16.66598c0.06828,0 0.13744,0 0.20572,0.00175c2.08522,0.02451 4.07852,0.43333 5.91249,1.15729c1.24045,0.49023 2.40824,1.12402 3.48237,1.88212c0.77999,0.55151 1.51008,1.16692 2.18326,1.8401z" stroke="#ffbd00"/><path d="M256.66554,180c0,9.20402 -7.46196,16.66598 -16.66598,16.66598c-0.31602,0 -0.62942,-0.00875 -0.94106,-0.02626c8.76632,-0.4876 15.72404,-7.75172 15.72404,-16.63972c0,-8.888 -6.95773,-16.15212 -15.72404,-16.63972c0.31164,-0.01751 0.62504,-0.02626 0.94106,-0.02626c9.20402,0 16.66598,7.46196 16.66598,16.66598z" stroke="#f68e00"/><path d="M242.8006,180.58039c1.1256,1.1256 1.69636,2.62806 1.69636,4.46571c0,3.121 -2.14973,5.74862 -5.04602,6.48177v1.33473c0,0.9057 -0.7342,1.6399 -1.6399,1.6399c-0.9057,0 -1.6399,-0.7342 -1.6399,-1.6399v-1.33473c-2.89628,-0.73315 -5.04602,-3.36086 -5.04602,-6.48177c0,-0.9057 0.7342,-1.6399 1.6399,-1.6399c0.9057,0 1.6399,0.7342 1.6399,1.6399c0,1.28396 0.71433,2.40386 1.76622,2.98417v-6.76006c-1.46158,-0.44532 -2.55198,-1.05276 -3.37285,-1.87363c-1.12586,-1.12586 -1.67316,-2.57903 -1.67316,-4.44251c0,-3.12091 2.14973,-5.74862 5.04602,-6.48177v-1.33473c0,-0.9057 0.7342,-1.6399 1.6399,-1.6399c0.9057,0 1.6399,0.7342 1.6399,1.6399v1.33482c2.89628,0.73306 5.04602,3.36086 5.04602,6.48177c0,0.9057 -0.7342,1.6399 -1.6399,1.6399c-0.9057,0 -1.6399,-0.7342 -1.6399,-1.6399c0,-1.28396 -0.71433,-2.40395 -1.76622,-2.98426v6.74947c1.42761,0.42956 2.53159,1.04287 3.34965,1.86103zM236.17124,177.77516v-5.80534c-1.05189,0.58039 -1.76622,1.7003 -1.76622,2.98426c0,1.25052 0.38071,1.79169 0.71249,2.12338c0.26122,0.26131 0.61138,0.49285 1.05373,0.6977zM241.21716,185.0461c0,-1.22583 -0.34097,-2.17538 -1.76622,-2.83912v5.82329c1.05189,-0.58031 1.76622,-1.70021 1.76622,-2.98417z" stroke="#f68e00"/><path d="M244.98929,180.58039c1.1256,1.1256 1.69636,2.62806 1.69636,4.46571c0,3.121 -2.14973,5.74862 -5.04602,6.48177v1.33473c0,0.9057 -0.7342,1.6399 -1.6399,1.6399c-0.9057,0 -1.6399,-0.7342 -1.6399,-1.6399v-1.33473c-2.89628,-0.73315 -5.04602,-3.36086 -5.04602,-6.48177c0,-0.9057 0.7342,-1.6399 1.6399,-1.6399c0.9057,0 1.6399,0.7342 1.6399,1.6399c0,1.28396 0.71433,2.40386 1.76622,2.98417v-6.76006c-1.46158,-0.44532 -2.55198,-1.05276 -3.37285,-1.87363c-1.12586,-1.12586 -1.67316,-2.57903 -1.67316,-4.44251c0,-3.12091 2.14973,-5.74862 5.04602,-6.48177v-1.33473c0,-0.9057 0.7342,-1.6399 1.6399,-1.6399c0.9057,0 1.6399,0.7342 1.6399,1.6399v1.33482c2.89628,0.73306 5.04602,3.36086 5.04602,6.48177c0,0.9057 -0.7342,1.6399 -1.6399,1.6399c-0.9057,0 -1.6399,-0.7342 -1.6399,-1.6399c0,-1.28396 -0.71433,-2.40395 -1.76622,-2.98426v6.74947c1.42752,0.42956 2.53159,1.04287 3.34965,1.86103zM238.35984,177.77516v-5.80534c-1.05189,0.58039 -1.76622,1.7003 -1.76622,2.98426c0,1.25052 0.38071,1.79169 0.71249,2.12338c0.26131,0.26131 0.61147,0.49285 1.05373,0.6977zM243.40585,185.0461c0,-1.22583 -0.34097,-2.17538 -1.76622,-2.83912v5.82329c1.05189,-0.58031 1.76613,-1.70021 1.76622,-2.98417z" stroke="#ffea94"/></g></g></svg>