<svg version="1.1" xmlns="http://www.w3.org/2000/svg" xmlns:xlink="http://www.w3.org/1999/xlink" width="20.09378" height="16.99401" viewBox="0,0,20.09378,16.99401"><g transform="translate(-229.95311,-171.5039)"><g data-paper-data="{&quot;isPaintingLayer&quot;:true}" fill="#ffc010" fill-rule="nonzero" stroke="#ffc010" stroke-width="1" stroke-linecap="butt" stroke-linejoin="miter" stroke-miterlimit="10" stroke-dasharray="" stroke-dashoffset="0" style="mix-blend-mode: normal"><g><path d="M240.11786,172.00391c7.05998,0.02357 7.1307,0.02357 7.60215,0.28287c0.63646,0.3418 1.34363,1.04898 1.60294,1.62651c0.20036,0.43609 0.22394,0.88397 0.22394,6.1053v5.63385l-0.28287,0.56574c-0.33001,0.64825 -0.96647,1.23756 -1.65008,1.55579c-0.45967,0.20036 -0.96647,0.22394 -8.68649,0.22394c-6.21137,0 -8.22683,-0.03536 -8.3329,-0.14144c-0.10608,-0.10608 -0.14144,-0.80147 -0.14144,-2.4044c0,-1.90937 0.03536,-2.29832 0.18858,-2.45155c0.16501,-0.16501 0.95469,-0.18858 6.89498,-0.18858c5.77528,0 6.7064,-0.02357 6.7064,-0.16501c0,-0.15322 -0.82504,-0.17679 -5.68099,-0.21216l-5.69278,-0.03536l-0.56574,-0.29466c-0.67182,-0.3418 -1.30828,-1.01362 -1.62651,-1.69723c-0.18858,-0.4243 -0.22394,-0.80147 -0.22394,-3.19408c0,-2.28654 0.03536,-2.80513 0.20036,-3.28837c0.28287,-0.80147 1.16684,-1.67365 1.82687,-1.81509c0.30645,-0.07072 3.35909,-0.11786 7.63751,-0.10608zM240.05892,172.59322c-7.83788,-0.03536 -7.70823,-0.04715 -8.38005,0.71897c-0.56574,0.64825 -0.63646,1.07255 -0.63646,3.88948c0,3.09979 0.09429,3.41802 1.23756,4.23128c0.35358,0.2593 0.44788,0.2593 6.42353,0.31823l6.06994,0.05894l0.03536,0.78968l0.03536,0.80147h-6.90676h-6.89498v2.00367v2.00367h7.99111c7.49608,0 8.00289,-0.02357 8.46255,-0.22394c0.58931,-0.27108 1.30828,-1.09612 1.42613,-1.65008c0.05894,-0.23573 0.09429,-2.81692 0.09429,-5.72813c0,-4.95024 -0.01179,-5.3274 -0.22394,-5.71635c-0.30645,-0.57753 -0.64825,-0.93111 -1.19042,-1.21399c-0.47145,-0.2593 -0.55396,-0.2593 -7.54322,-0.28287z"/><path d="M235.28548,176.56519h4.77344h4.77344v0.82504v0.82504h-4.77344h-4.77344v-0.82504zM240.03535,177.17809c-4.11341,-0.02357 -4.16056,-0.02357 -4.16056,0.21216c0,0.23573 0.04715,0.23573 4.16056,0.21216c3.59482,-0.03536 4.14878,-0.05894 4.14878,-0.21216c0,-0.15322 -0.55396,-0.17679 -4.14878,-0.21216z"/></g></g></g></svg>