<svg version="1.1" xmlns="http://www.w3.org/2000/svg" xmlns:xlink="http://www.w3.org/1999/xlink" width="68.56529" height="67.22468" viewBox="0,0,68.56529,67.22468"><g transform="translate(-205.71735,-146.38766)"><g data-paper-data="{&quot;isPaintingLayer&quot;:true}" fill-rule="nonzero" stroke-linecap="butt" stroke-linejoin="miter" stroke-miterlimit="10" stroke-dasharray="" stroke-dashoffset="0" style="mix-blend-mode: normal"><path d="M272.07124,180.40729c1.1484,0.22614 1.89629,1.33912 1.67151,2.48615l-0.8378,4.26665c-0.23158,1.18109 -1.40314,1.93852 -2.5856,1.64835c-1.10753,-0.27109 -1.77913,-1.40314 -1.5598,-2.52157l0.02316,-0.11443l-5.52267,0.25202c-0.1662,0.00681 -0.31059,0.11716 -0.36236,0.27654c-0.53947,1.62928 -1.24921,3.18228 -2.1088,4.63446c-0.08718,0.14712 -0.07356,0.33375 0.03678,0.46454l2.44256,2.90165c0.48497,-0.46181 1.11843,-0.70157 1.7587,-0.70157c0.53947,0 1.08437,0.17029 1.54618,0.52447c1.11843,0.85551 1.33094,2.45619 0.47544,3.57597l-0.70838,0.92498c-0.83099,1.0871 -2.3799,1.37862 -3.50786,0.60076c-0.9713,-0.66888 -1.32277,-1.87177 -0.97131,-2.91663l-3.51875,-1.54618c-0.15938,-0.06948 -0.3433,-0.0286 -0.45909,0.09945c-1.62928,1.78867 -3.52556,3.32804 -5.62619,4.55681c-0.14441,0.08446 -0.22205,0.24793 -0.19481,0.41277l0.90046,5.49269l0.77922,-0.31196c1.11843,-0.44682 2.39079,0.12533 2.78994,1.27645c0.37326,1.07756 -0.21251,2.25593 -1.271,2.67824l-3.98193,1.59386c-1.11706,0.44682 -2.38943,-0.12533 -2.78858,-1.27645c-0.37326,-1.07756 0.21251,-2.25593 1.27101,-2.6796l0.10762,-0.04223l-3.21224,-4.50096c-0.09672,-0.13622 -0.26701,-0.19617 -0.42911,-0.15394c-1.91945,0.49723 -3.93288,0.76424 -6.00899,0.76424c-1.64291,0 -3.24495,-0.16756 -4.79385,-0.48361c-0.16348,-0.03269 -0.33103,0.03679 -0.42094,0.1771l-3.21361,5.04178l0.11307,0.04087c1.04623,0.38144 1.69467,1.36909 1.69467,2.42076c0,0.29425 -0.0504,0.59259 -0.15666,0.88412c0,1.50804 -1.1593,2.31995 -2.57606,1.80229l-3.94924,-1.43992c-1.3214,-0.48089 -2.01072,-1.93171 -1.55435,-3.2572c0.46862,-1.36636 2.0257,-2.05567 3.38253,-1.56117l0.09127,0.03269l0.65389,-5.90819c0.01907,-0.16619 -0.06812,-0.32422 -0.2166,-0.40187c-2.50114,-1.29144 -4.7448,-3.012 -6.63428,-5.06495c-0.11443,-0.12397 -0.2929,-0.16483 -0.44819,-0.1008l-4.81973,1.97666c0.54491,1.01898 0.2384,2.31042 -0.75606,2.96431c-1.03805,0.6825 -2.43984,0.36509 -3.14822,-0.65389l-1.23423,-1.77777c-0.69067,-0.9931 -0.52993,-2.37718 0.42094,-3.12643c1.01353,-0.79829 2.45891,-0.59123 3.2177,0.41277l3.39479,-3.83616c0.11307,-0.12805 0.13214,-0.31333 0.04904,-0.46182c-1.39361,-2.51203 -2.3472,-5.30197 -2.75725,-8.26493c-0.02316,-0.16619 -0.14441,-0.30106 -0.30651,-0.33784l-5.42458,-1.2533l-0.00545,0.63618c-0.00545,0.63618 -0.26701,1.21243 -0.68795,1.62792c-0.41958,0.41686 -0.99719,0.67297 -1.63473,0.67297c-1.26692,0 -2.29271,-1.03397 -2.28045,-2.30089l0.03542,-3.94106c0.0109,-1.28871 1.0762,-2.37444 2.36355,-2.34039c1.2492,0.03269 2.2464,1.05985 2.23959,2.31314l5.38508,-1.26283c0.16348,-0.03814 0.28472,-0.17301 0.30651,-0.33921c0.4223,-3.13323 1.45355,-6.07439 2.96976,-8.70085c0.08446,-0.14712 0.06948,-0.33103 -0.04087,-0.46181l-2.56789,-3.01608l-0.22341,0.29425c-0.69204,0.91545 -2.01344,1.07484 -2.90573,0.3324c-0.83644,-0.69749 -0.93861,-1.94806 -0.28199,-2.81583l1.71102,-2.26137c0.39778,-0.52447 1.00127,-0.80102 1.61293,-0.80102c0.42367,0 0.85142,0.13351 1.21651,0.40868c0.84598,0.6389 1.04487,1.81319 0.48633,2.69322l3.59096,1.55299c0.15803,0.06812 0.34057,0.02724 0.45773,-0.09945c1.69467,-1.85815 3.6795,-3.44656 5.88366,-4.69576c0.14441,-0.0831 0.22478,-0.2452 0.20026,-0.41004l-0.82691,-5.50496l-0.78467,0.30243c-1.12251,0.43184 -2.38807,-0.15802 -2.77087,-1.31323c-0.35964,-1.08301 0.24248,-2.25321 1.30642,-2.66189l4.00237,-1.53937c1.12387,-0.43184 2.38807,0.15666 2.77087,1.31323c0.35964,1.08165 -0.24112,2.25183 -1.30642,2.66189l-0.10762,0.04087l3.14958,4.54183c0.09536,0.13759 0.26429,0.20025 0.4264,0.16075c1.82817,-0.44818 3.73672,-0.68522 5.70248,-0.68522h0.00273c0.17165,0 0.32558,-0.10489 0.38279,-0.26701l1.04351,-2.91799c-1.20834,-0.37871 -2.01345,-1.57071 -1.85951,-2.87032c0.17573,-1.47262 1.58569,-2.51885 3.05831,-2.33357l1.43311,0.17982c1.46035,0.18391 2.55562,1.49169 2.39624,2.95614c-0.12533,1.14022 -0.94541,2.02843 -1.9862,2.30088l0.36237,3.1632c0.01907,0.17029 0.14576,0.30924 0.31468,0.34602c2.42212,0.53265 4.70666,1.43311 6.79094,2.63873c0.14576,0.0831 0.32558,0.07084 0.455,-0.03542l4.3225,-3.50786l-0.65662,-0.52175c-0.94405,-0.74925 -1.07756,-2.1374 -0.27654,-3.05422c0.74925,-0.8596 2.06385,-0.93589 2.95614,-0.22614l3.358,2.66598c0.94405,0.74789 1.07756,2.13741 0.27654,3.05422c-0.74925,0.85824 -2.06385,0.93452 -2.95614,0.22614l-0.09127,-0.0722l-2.31451,5.02543c-0.07083,0.15122 -0.03814,0.32967 0.07902,0.44955c1.62928,1.66879 3.01608,3.57597 4.10317,5.66298c0.07902,0.15122 0.24385,0.23704 0.41277,0.21388l3.28172,-0.45909c-0.48224,-1.34593 0.23295,-2.83762 1.60885,-3.28853c1.31187,-0.43048 2.72592,0.29834 3.20816,1.5925l0.75606,2.02706c0.47679,1.2819 -0.09537,2.74908 -1.34866,3.29398c-1.20153,0.52175 -2.55699,0.0504 -3.20271,-1.0149l-2.72319,1.84724c-0.14304,0.09672 -0.20707,0.27382 -0.16075,0.44001c0.55989,2.02979 0.85959,4.16584 0.85959,6.37273c0,0.36918 -0.00817,0.73563 -0.02588,1.09936c-0.00681,0.16756 0.08719,0.3215 0.23976,0.38825l5.1058,2.23005l0.16075,-0.82417c0.22614,-1.1484 1.33912,-1.89629 2.48615,-1.67151z" fill="none" stroke="#e594f7" stroke-width="1"/><path d="M247.21842,167.42479c0,-1.55732 1.5099,-2.81977 3.37246,-2.81977c1.86255,0 3.37245,1.26245 3.37245,2.81977c0,1.55732 -1.5099,2.81978 -3.37245,2.81978c-1.86255,0 -3.37246,-1.26246 -3.37246,-2.81978z" fill="none" stroke="#d361ed" stroke-width="1"/><path d="M234.73453,184.98467c0,-2.03582 1.65037,-3.68618 3.68619,-3.68618c2.03582,0 3.68618,1.65036 3.68618,3.68618c0,2.03582 -1.65036,3.68618 -3.68618,3.68618c-2.03582,0 -3.68619,-1.65036 -3.68619,-3.68618z" fill="none" stroke="#d361ed" stroke-width="1"/><path d="M250.14759,183.06427c0,-1.45763 1.18165,-2.63927 2.63927,-2.63927c1.45763,0 2.63927,1.18165 2.63927,2.63927c0,1.45763 -1.18165,2.63927 -2.63927,2.63927c-1.45763,0 -2.63927,-1.18164 -2.63927,-2.63927z" fill="none" stroke="#eab1fa" stroke-width="1"/><path d="M240.47352,195.94431c0,-1.41716 1.14883,-2.56599 2.56598,-2.56599c1.41716,0 2.56599,1.14883 2.56599,2.56599c0,1.41716 -1.14883,2.56599 -2.56599,2.56599c-1.41716,0 -2.56598,-1.14883 -2.56598,-2.56599z" fill="none" stroke="#eab1fa" stroke-width="1"/><path d="M240.80047,203.06588c-0.19222,0.00449 -0.38865,0.00695 -0.58196,0.00695c-1.64291,0 -3.24495,-0.16756 -4.79385,-0.48361c-0.16348,-0.03269 -0.33103,0.03678 -0.42094,0.17709l-3.21361,5.04179l0.11307,0.04087c1.04623,0.38144 1.69467,1.36909 1.69467,2.42076c0,0.29425 -0.05041,0.59259 -0.15667,0.88412c0,1.50804 -1.15929,2.31995 -2.57606,1.80229l-3.94924,-1.43993c-1.3214,-0.48089 -2.01072,-1.9317 -1.55435,-3.2572c0.46862,-1.36636 2.0257,-2.05568 3.38253,-1.56117l0.09127,0.03269l0.65389,-5.90819c0.01907,-0.16619 -0.06812,-0.32422 -0.2166,-0.40187c-2.50114,-1.29144 -4.74481,-3.01199 -6.63428,-5.06494c-0.11443,-0.12397 -0.29289,-0.16483 -0.44819,-0.10081l-4.81973,1.97666c0.54491,1.01898 0.2384,2.31042 -0.75606,2.96431c-1.03805,0.6825 -2.43983,0.36509 -3.14822,-0.65389l-1.23423,-1.77777c-0.69067,-0.9931 -0.52993,-2.37717 0.42094,-3.12642c1.01353,-0.79829 2.45891,-0.59123 3.21769,0.41277l3.39479,-3.83616c0.11307,-0.12805 0.13214,-0.31333 0.04904,-0.46182c-1.39361,-2.51203 -2.34719,-5.30197 -2.75724,-8.26493c-0.02316,-0.16619 -0.14441,-0.30107 -0.30651,-0.33785l-5.42458,-1.25329l-0.00545,0.63618c-0.00545,0.63618 -0.26701,1.21242 -0.68795,1.62792c-0.41958,0.41686 -0.99719,0.67297 -1.63473,0.67297c-1.26692,0 -2.29271,-1.03397 -2.28045,-2.30088l0.03542,-3.94106c0.0109,-1.28871 1.0762,-2.37445 2.36355,-2.34039c1.2492,0.03269 2.24639,1.05985 2.23958,2.31314l5.38508,-1.26283c0.16348,-0.03814 0.28472,-0.17301 0.30651,-0.3392c0.4223,-3.13323 1.45355,-6.07439 2.96976,-8.70085c0.08446,-0.14712 0.06948,-0.33103 -0.04087,-0.46181l-2.56789,-3.01608l-0.22341,0.29425c-0.69204,0.91545 -2.01345,1.07483 -2.90574,0.33239c-0.83644,-0.69749 -0.93861,-1.94806 -0.28199,-2.81582l1.71102,-2.26138c0.39778,-0.52447 1.00127,-0.80102 1.61293,-0.80102c0.42367,0 0.85142,0.13351 1.21651,0.40868c0.84598,0.6389 1.04487,1.81319 0.48633,2.69322l3.59096,1.553c0.15803,0.06812 0.34057,0.02724 0.45772,-0.09945c1.69467,-1.85815 3.67951,-3.44656 5.88367,-4.69576c0.14441,-0.0831 0.22478,-0.2452 0.20026,-0.41004l-0.82691,-5.50496l-0.78466,0.30243c-1.12251,0.43184 -2.38807,-0.15802 -2.77087,-1.31323c-0.35964,-1.08301 0.24248,-2.25321 1.30642,-2.66189l4.00237,-1.53937c1.12387,-0.43184 2.38807,0.15666 2.77087,1.31323c0.35964,1.08165 -0.24112,2.25184 -1.30642,2.66189l-0.10762,0.04087l3.14958,4.54182c0.09536,0.13759 0.26429,0.20025 0.4264,0.16075c0.76532,-0.18772 1.54714,-0.33866 2.33903,-0.45037c-6.78263,5.16425 -11.1633,13.32578 -11.1633,22.5086c0,10.85897 6.12765,20.28865 15.10872,25.0246z" fill="none" stroke="#dc7cf2" stroke-width="1"/><path d="M224.31053,189.80631c0,-1.47628 1.19677,-2.67306 2.67306,-2.67306c1.47628,0 2.67306,1.19677 2.67306,2.67306c0,1.47628 -1.19677,2.67306 -2.67306,2.67306c-1.47628,0 -2.67306,-1.19677 -2.67306,-2.67306z" fill="none" stroke="#d361ed" stroke-width="1"/><path d="M246.76683,178.04129h-0.90319c-0.56439,0 -1.0217,-0.45745 -1.0217,-1.0217c0,-0.56426 0.45731,-1.0217 1.0217,-1.0217h0.90319c0.56439,0 1.0217,0.45745 1.0217,1.0217c0,0.56426 -0.45731,1.0217 -1.0217,1.0217z" fill="none" stroke="#eab1fa" stroke-width="1"/><path d="M234.73439,195.90072h-0.92798c-0.56439,0 -1.0217,-0.45745 -1.0217,-1.0217c0,-0.56426 0.45731,-1.0217 1.0217,-1.0217h0.92798c0.56439,0 1.02171,0.45745 1.02171,1.0217c0,0.56426 -0.45732,1.0217 -1.02171,1.0217z" fill="none" stroke="#eab1fa" stroke-width="1"/><path d="M225.20432,181.02168h-0.89393c-0.56439,0 -1.02171,-0.45745 -1.02171,-1.0217c0,-0.56426 0.45732,-1.0217 1.02171,-1.0217h0.89393c0.56439,0 1.0217,0.45745 1.0217,1.0217c0,0.56426 -0.45731,1.0217 -1.0217,1.0217z" fill="none" stroke="#d361ed" stroke-width="1"/><path d="M243.35079,163.1463h-1.24403c-0.56439,0 -1.0217,-0.45745 -1.0217,-1.0217c0,-0.56426 0.45731,-1.0217 1.0217,-1.0217h1.24403c0.56439,0 1.0217,0.45745 1.0217,1.0217c0,0.56426 -0.45731,1.0217 -1.0217,1.0217z" fill="none" stroke="#eab1fa" stroke-width="1"/><path d="M251.52131,192.57473h-1.37372c-0.56439,0 -1.0217,-0.45745 -1.0217,-1.0217c0,-0.56426 0.45731,-1.0217 1.0217,-1.0217h1.37372c0.56439,0 1.02171,0.45745 1.02171,1.0217c0,0.56426 -0.45745,1.0217 -1.02171,1.0217z" fill="none" stroke="#d361ed" stroke-width="1"/><path d="M226.77621,174.5939c-2.00904,-2.54781 -1.1646,-6.56334 1.88612,-8.96894c3.05071,-2.4056 7.15246,-2.2903 9.1615,0.25751c2.00904,2.54781 1.1646,6.56334 -1.88612,8.96894c-3.05071,2.4056 -7.15246,2.2903 -9.1615,-0.25751z" fill="none" stroke="#d361ed" stroke-width="1"/><text transform="translate(234.28,186) scale(0.5,0.5)" font-size="40" xml:space="preserve" fill-opacity="0" fill="#000000" fill-rule="nonzero" stroke="#ffffff" stroke-width="2" stroke-linecap="butt" stroke-linejoin="miter" stroke-miterlimit="10" stroke-dasharray="" stroke-dashoffset="0" font-family="Sans Serif" font-weight="normal" text-anchor="start" style="mix-blend-mode: normal"><tspan x="0" dy="0">3</tspan></text></g></g></svg>