<svg version="1.1" xmlns="http://www.w3.org/2000/svg" xmlns:xlink="http://www.w3.org/1999/xlink" width="266.13113" height="72.98874" viewBox="0,0,266.13113,72.98874"><g transform="translate(-311.50371,25.56564)"><g data-paper-data="{&quot;isPaintingLayer&quot;:true}" fill-rule="nonzero" stroke="#ffc010" stroke-linecap="butt" stroke-linejoin="miter" stroke-miterlimit="10" stroke-dasharray="" stroke-dashoffset="0" style="mix-blend-mode: normal"><path d="M356.79873,46.4231l-43.50923,-70.98874h263.34535v70.98874z" data-paper-data="{&quot;index&quot;:null}" fill="#000000" stroke-width="2"/><g fill="#ffc010" stroke-width="1"><path d="M391.25861,16.56912c4.27219,-0.00958 6.51365,0.01916 6.63818,0.08621c0.17242,0.09579 0.182,0.22032 0.182,1.99241c0,1.35063 -0.02874,1.92536 -0.11495,2.01157c-0.08621,0.08621 -1.45599,0.11495 -5.55577,0.11495c-5.37377,0 -5.44082,0 -5.44082,0.19158c0,0.19158 0.06705,0.19158 4.57872,0.19158c4.21472,0 4.59787,0.01916 4.95229,0.182c0.55558,0.24905 0.97705,0.64179 1.29315,1.19736l0.28736,0.48852v2.29894c0,2.03072 -0.02874,2.34683 -0.182,2.69167c-0.25863,0.56516 -0.71842,1.0441 -1.274,1.32189l-0.4981,0.24905h-7.33744c-5.57492,0 -7.36617,-0.02874 -7.45238,-0.11495c-0.16284,-0.16284 -0.16284,-3.82198 0,-3.98482c0.08621,-0.08621 1.59968,-0.11495 6.22629,-0.11495c5.2684,0 6.11134,-0.01916 6.11134,-0.1341c0,-0.12452 -0.66095,-0.14368 -4.56914,-0.17242c-5.10556,-0.02874 -4.9044,-0.00958 -5.68029,-0.71842c-0.22989,-0.20116 -0.51726,-0.58431 -0.63221,-0.84294c-0.22032,-0.45979 -0.22989,-0.57473 -0.22989,-2.68209c0,-2.10736 0.00958,-2.22231 0.22989,-2.68209c0.27779,-0.60347 0.9962,-1.25484 1.58052,-1.42726c0.364,-0.11495 1.61884,-0.14368 6.88723,-0.14368zM397.59984,17.03849l-6.29334,0.00958c-3.46756,0.00958 -6.46576,0.0479 -6.65733,0.07664c-0.46937,0.09579 -0.97705,0.4502 -1.30273,0.91957l-0.25863,0.38316v2.4043v2.4043l0.26821,0.34484c0.14368,0.19158 0.42148,0.46936 0.61305,0.61305l0.34484,0.26821l4.94272,0.04789l4.94271,0.04789l0.02874,0.64179l0.02874,0.65136h-6.28376h-6.27418v1.62841v1.62841h7.16502c6.71482,0 7.1746,-0.01916 7.5386,-0.182c0.41189,-0.182 0.95789,-0.74716 1.11116,-1.13031c0.11495,-0.30652 0.11495,-4.5404 0,-4.84693c-0.14368,-0.364 -0.67052,-0.91957 -1.07284,-1.13031c-0.34484,-0.17242 -0.60347,-0.182 -5.16303,-0.182h-4.78945v-0.67052v-0.67052h5.55577h5.55577v-1.62841z"/><path d="M403.98897,16.68407c0.03832,0.04789 0.08621,1.07284 0.10537,2.27978l0.02874,2.19357h3.35261h3.34304v-2.1361c0,-1.16863 0.04789,-2.19357 0.09579,-2.2702c0.07663,-0.11495 0.43105,-0.15326 2.04031,-0.17242c1.70504,-0.02874 1.98283,-0.00958 2.11694,0.12452c0.1341,0.14368 0.15326,0.76631 0.15326,6.40829c0,4.73198 -0.02874,6.27418 -0.11495,6.36039c-0.08621,0.08621 -0.67052,0.11495 -2.04988,0.11495c-1.63799,0 -1.96367,-0.01916 -2.0882,-0.15326c-0.1341,-0.12452 -0.15326,-0.46937 -0.15326,-2.25105v-2.09778h-3.35262h-3.35261v2.09778c0,1.78168 -0.01916,2.12652 -0.15326,2.25105c-0.12452,0.1341 -0.45021,0.15326 -2.0882,0.15326c-1.37937,0 -1.96368,-0.02874 -2.04988,-0.11495c-0.08621,-0.08621 -0.11495,-1.63799 -0.11495,-6.41786c0,-5.89102 0.00958,-6.30292 0.17242,-6.39871c0.19158,-0.11495 3.98482,-0.08621 4.10935,0.02874zM403.58665,17.08639l-1.69547,-0.02874l-1.70504,-0.01916v6.03471v6.03471h1.7242h1.7242v-2.29894v-2.29894h3.83156h3.83156v2.29894v2.29894h1.7242h1.7242v-6.03471v-6.03471l-1.69546,0.01916l-1.70505,0.02874l-0.02874,2.2702l-0.01916,2.27978h-3.83156h-3.83156l-0.01916,-2.27978z"/><path d="M424.85182,16.58828c5.77608,0.01916 5.84314,0.01916 6.22629,0.22989c0.51726,0.27779 1.05368,0.83336 1.31231,1.3602c0.22032,0.44063 0.22032,0.45979 0.22032,4.94271v4.50209l-0.25863,0.47895c-0.3161,0.59389 -0.76632,1.03452 -1.32189,1.28357c-0.42147,0.19158 -0.60347,0.20116 -6.35082,0.20116c-5.81439,0 -5.91977,0 -6.34123,-0.20116c-0.51726,-0.23947 -1.11115,-0.8142 -1.35062,-1.31231c-0.17242,-0.32568 -0.182,-0.68968 -0.21074,-4.89482l-0.02874,-4.54998l0.24905,-0.4981c0.30652,-0.62263 0.98663,-1.24526 1.57094,-1.42726c0.364,-0.11495 1.43684,-0.1341 6.28376,-0.11495zM418.79796,17.13428c-0.61305,0.14368 -1.1782,0.66095 -1.42726,1.29315c-0.12452,0.32568 -0.1341,1.02495 -0.11495,4.84693l0.02874,4.46377l0.26821,0.39274c0.15326,0.21073 0.45021,0.50768 0.66094,0.66094l0.39273,0.26821l5.90061,0.02874c5.20135,0.01916 5.9485,0.00958 6.30292,-0.12452c0.42147,-0.16284 1.02494,-0.75673 1.1782,-1.15905c0.05747,-0.1341 0.09579,-2.17441 0.09579,-4.73198c0.00958,-4.32009 0,-4.51166 -0.182,-4.87566c-0.26821,-0.51726 -0.81421,-0.93873 -1.36978,-1.06326c-0.546,-0.11495 -11.24563,-0.11495 -11.73416,0z"/><path d="M420.685,20.29532h4.02314h4.02314v2.77789v2.77789h-4.02314h-4.02314v-2.77789zM428.15655,20.77426h-3.4963h-3.4963v2.29894v2.29894h3.4963h3.4963v-2.29894z"/><path d="M440.8007,16.58828c7.07881,0.01916 6.61902,-0.02874 7.42365,0.78547c0.74715,0.73758 0.76631,0.84294 0.76631,3.4963c0,2.22231 -0.00958,2.36599 -0.21073,2.72999c-0.29695,0.546 -0.76632,0.9962 -1.32189,1.25484l-0.47894,0.22989h-4.23388h-4.24345v2.13609c0,1.53263 -0.02874,2.16483 -0.11495,2.25105c-0.08621,0.08621 -0.67052,0.11495 -2.04989,0.11495c-1.638,0 -1.96368,-0.01916 -2.0882,-0.15326c-0.1341,-0.12452 -0.15326,-0.63221 -0.15326,-4.0423c0,-2.28936 0.03832,-3.95609 0.09579,-4.0423c0.07663,-0.12452 0.78547,-0.14368 5.2684,-0.17242c5.07682,-0.01916 5.17261,-0.02874 5.17261,-0.21073c0,-0.19158 -0.08621,-0.19158 -5.17261,-0.19158c-5.00977,0 -5.17261,-0.00958 -5.2684,-0.182c-0.10537,-0.21073 -0.1341,-3.63998 -0.01916,-3.80283c0.03832,-0.05747 0.1341,-0.1341 0.21073,-0.16284c0.07663,-0.02874 2.96946,-0.04789 6.41787,-0.03832zM447.07489,17.08639l-6.1784,-0.02874c-3.41009,-0.00958 -6.21671,0 -6.25502,0.03832c-0.03832,0.03832 -0.06705,0.77589 -0.06705,1.638v1.56136h5.2684h5.2684v0.67052v0.67052h-5.2684h-5.2684v3.73577v3.73577h1.72421h1.7242v-2.25105v-2.25105h4.44461h4.44461l0.50768,-0.26821c0.37358,-0.19158 0.59389,-0.39274 0.80463,-0.73758l0.28737,-0.45979l0.02874,-2.11693c0.01916,-1.36978 -0.00958,-2.24147 -0.07663,-2.48094c-0.12452,-0.43105 -0.546,-0.93873 -1.03453,-1.23568z"/></g></g></g></svg>