<svg version="1.1" xmlns="http://www.w3.org/2000/svg" xmlns:xlink="http://www.w3.org/1999/xlink" width="105.80241" height="15.76647" viewBox="0,0,105.80241,15.76647"><g transform="translate(-187.15102,-172.10912)"><g data-paper-data="{&quot;isPaintingLayer&quot;:true}" fill="#ffc910" fill-rule="nonzero" stroke="#ffc910" stroke-width="0.5" stroke-linecap="butt" stroke-linejoin="miter" stroke-miterlimit="10" stroke-dasharray="" stroke-dashoffset="0" style="mix-blend-mode: normal"><g><path d="M195.88774,172.39695c3.65356,-0.00819 5.57045,0.01638 5.67694,0.07373c0.14745,0.08192 0.15564,0.18842 0.15564,1.7039c0,1.15505 -0.02458,1.64656 -0.0983,1.72028c-0.07373,0.07373 -1.24516,0.0983 -4.75126,0.0983c-4.59562,0 -4.65296,0 -4.65296,0.16383c0,0.16383 0.05734,0.16384 3.9157,0.16384c3.60441,0 3.93208,0.01638 4.23518,0.15564c0.47513,0.21299 0.83557,0.54885 1.1059,1.02398l0.24576,0.41778v1.96604c0,1.73667 -0.02457,2.007 -0.15564,2.30191c-0.22118,0.48332 -0.61439,0.89291 -1.08951,1.13047l-0.42598,0.21299h-6.27494c-4.76765,0 -6.29952,-0.02458 -6.37325,-0.0983c-0.13926,-0.13926 -0.13926,-3.26854 0,-3.4078c0.07373,-0.07373 1.36804,-0.0983 5.32469,-0.0983c4.50551,0 5.22639,-0.01638 5.22639,-0.11469c0,-0.10649 -0.56524,-0.12288 -3.90751,-0.14745c-4.36625,-0.02458 -4.19422,-0.00819 -4.85776,-0.61439c-0.1966,-0.17203 -0.44236,-0.4997 -0.54066,-0.72088c-0.18841,-0.39321 -0.1966,-0.49151 -0.1966,-2.29371c0,-1.8022 0.00819,-1.90051 0.1966,-2.29371c0.23756,-0.51609 0.85195,-1.07313 1.35165,-1.22058c0.31129,-0.0983 1.38442,-0.12288 5.88993,-0.12288zM201.31074,172.79835l-5.38203,0.0082c-2.96544,0.00819 -5.52949,0.04095 -5.69333,0.06553c-0.4014,0.08192 -0.83557,0.38502 -1.11409,0.78642l-0.22118,0.32767v2.05615v2.05615l0.22937,0.29491c0.12288,0.16383 0.36044,0.4014 0.52428,0.52428l0.29491,0.22937l4.22699,0.04096l4.22698,0.04096l0.02458,0.54885l0.02458,0.55704h-5.37384h-5.36565v1.39261v1.39262h6.12749c5.76705,0 6.13568,-0.0082 6.45517,-0.15565c0.4014,-0.18022 0.91749,-0.76184 0.97483,-1.1059c0.03277,-0.13926 0.04095,-1.1059 0.02457,-2.14626l-0.02457,-1.89231l-0.22937,-0.29491c-0.12288,-0.16383 -0.36044,-0.4014 -0.52428,-0.52428l-0.29491,-0.22937l-4.2106,-0.02458l-4.20241,-0.02457v-0.56524v-0.57343h4.75126h4.75126v-1.39262z"/><path d="M204.98068,172.38876c1.46634,0 1.58103,0.0082 1.73667,0.16384c0.15564,0.15564 0.16383,0.27033 0.16383,1.96604v1.80221h2.85895h2.86714l0.02457,-1.87593c0.01638,-1.03217 0.05734,-1.9087 0.09011,-1.94966c0.04096,-0.03277 0.81918,-0.07373 1.73667,-0.09011c1.44176,-0.02458 1.67933,-0.00819 1.79401,0.10649c0.11469,0.12288 0.13107,0.65534 0.13107,5.48033c0,4.04677 -0.02458,5.36565 -0.0983,5.43938c-0.07373,0.07373 -0.57343,0.0983 -1.75305,0.0983c-1.4008,0 -1.67933,-0.01639 -1.78582,-0.13107c-0.11469,-0.10649 -0.13107,-0.4014 -0.13107,-1.92508v-1.79402h-2.86714h-2.86714v1.79402c0,1.52368 -0.01639,1.81858 -0.13107,1.92508c-0.10649,0.11469 -0.38501,0.13107 -1.78582,0.13107c-1.17962,0 -1.67933,-0.02458 -1.75305,-0.0983c-0.07373,-0.07373 -0.0983,-1.4008 -0.0983,-5.48853c0,-5.03798 0.00819,-5.39023 0.14745,-5.46395c0.08192,-0.04915 0.79461,-0.09011 1.72028,-0.09011zM206.43064,172.83931l-1.44996,-0.02457l-1.45815,-0.01639v5.16085v5.16086h1.47453h1.47453v-1.96604v-1.96604h3.27673h3.27674v1.96604v1.96604h1.47453h1.47453v-5.16086v-5.16085l-1.44996,0.01639l-1.45815,0.02457l-0.02458,1.94147l-0.01638,1.94966h-3.27674h-3.27673l-0.01639,-1.94966z"/><path d="M224.61651,172.41334c4.93968,0.01638 4.99702,0.01638 5.32469,0.1966c0.44236,0.23756 0.9011,0.71269 1.12228,1.16324c0.18841,0.37682 0.18841,0.39321 0.18841,4.22699v3.85016l-0.22118,0.41778c-0.27033,0.50789 -0.74546,0.95025 -1.22058,1.13047c-0.32767,0.12288 -0.85195,0.13107 -5.43938,0.11469c-4.83318,-0.02458 -5.09532,-0.03277 -5.39842,-0.18022c-0.44236,-0.22118 -0.85195,-0.65535 -1.08132,-1.14686l-0.1966,-0.41778v-3.8174v-3.8092l0.21298,-0.42598c0.26214,-0.52428 0.84376,-1.04855 1.33527,-1.2042c0.31129,-0.0983 1.22878,-0.11469 5.37384,-0.0983zM219.61949,172.83931c-0.04096,0.01638 -0.18841,0.04915 -0.31129,0.07373c-0.13107,0.03277 -0.39321,0.2048 -0.58981,0.38502c-0.63077,0.58162 -0.62258,0.50789 -0.59801,4.83318l0.02458,3.8174l0.24576,0.35225c0.13107,0.18841 0.3932,0.44236 0.57343,0.56524l0.32767,0.21298l5.03798,0.02458c4.43997,0.01638 5.07894,0.00819 5.38203,-0.10649c0.36044,-0.13926 0.87653,-0.64716 1.0076,-0.99121c0.04915,-0.11469 0.08192,-1.85136 0.08192,-4.04677c0.00819,-3.69452 0,-3.85835 -0.15564,-4.16964c-0.22118,-0.41778 -0.67992,-0.7946 -1.12228,-0.9011c-0.31948,-0.08192 -9.66637,-0.13107 -9.90393,-0.04915z"/><path d="M221.05306,175.58358h3.44057h3.44057v2.37563v2.37563h-3.44057h-3.44057v-2.37563zM227.44269,175.99317h-2.99002h-2.99002v1.96604v1.96604h2.99002h2.99002v-1.96604z"/><path d="M239.48468,172.41334c4.60381,0.01638 4.98064,0.02457 5.25097,0.16383c0.48332,0.23756 0.91749,0.66354 1.13866,1.08951l0.2048,0.4014v3.93208c0,3.87474 0,3.94027 -0.18022,4.25975c-0.25395,0.46694 -0.65535,0.85195 -1.13047,1.07313l-0.40959,0.19661h-5.03798h-5.03798l-0.40959,-0.19661c-0.22118,-0.0983 -0.54885,-0.34406 -0.72088,-0.54066c-0.6062,-0.66354 -0.58981,-0.52428 -0.61439,-4.57924c-0.01638,-2.36744 0.00819,-3.78463 0.06554,-4.04676c0.15564,-0.74546 0.89291,-1.51549 1.62199,-1.68752c0.16383,-0.04096 2.53127,-0.07373 5.25915,-0.06554zM239.48468,172.82293c-3.27674,-0.00819 -5.06255,0.01638 -5.27554,0.07373c-0.50789,0.13926 -1.07313,0.75365 -1.18781,1.28612c-0.12288,0.58162 -0.12288,6.97125 0,7.55287c0.10649,0.48332 0.4997,0.97483 0.98302,1.22877c0.3031,0.14745 0.54066,0.15565 5.3165,0.15565c4.83318,0 5.0134,-0.0082 5.32469,-0.16384c0.38502,-0.1966 0.68811,-0.48332 0.87652,-0.84376c0.13107,-0.23756 0.14745,-0.61439 0.17203,-3.97304c0.01638,-2.49032 -0.00819,-3.8092 -0.06554,-4.03857c-0.0983,-0.36863 -0.55704,-0.91749 -0.93387,-1.12228c-0.22937,-0.12288 -0.72907,-0.13926 -5.21001,-0.15564z"/><path d="M235.88028,175.58358h3.44057h3.44057v2.37563v2.37563h-3.44057h-3.44057v-2.37563zM242.35183,175.99317h-3.03098h-3.03098v1.96604v1.96604h3.03098h3.03098v-1.96604z"/><path d="M260.42301,172.50345c0.14745,0.10649 0.15564,0.22937 0.15564,1.67114c0,1.18781 -0.02458,1.58102 -0.11469,1.67933c-0.0983,0.12288 -0.36863,0.13926 -2.35106,0.13926h-2.24457v3.63717c0,3.20301 -0.01638,3.65356 -0.13107,3.76824c-0.18841,0.1966 -3.31769,0.1966 -3.50611,0c-0.11469,-0.11469 -0.13107,-0.56523 -0.13107,-3.76824v-3.63717h-2.22818c-1.26974,0 -2.29371,-0.03277 -2.35925,-0.08192c-0.10649,-0.06554 -0.12288,-0.34405 -0.12288,-1.67932c0,-1.49911 0.00819,-1.62199 0.15564,-1.72848c0.23756,-0.17203 12.64,-0.17203 12.87756,0zM260.12811,172.79835h-6.14388h-6.14388v1.39261v1.39262h2.33467h2.33467v3.76824v3.76824h1.47453h1.47453v-3.76824v-3.76824h2.33467h2.33467v-1.39262z"/><path d="M273.69379,172.51164c0.4997,0.14745 1.02398,0.58162 1.32708,1.08951l0.22118,0.38502v2.04796c0,1.8022 -0.01638,2.08073 -0.14745,2.3101c-0.24576,0.45055 -0.63896,0.84376 -1.07313,1.07313l-0.41779,0.22118h-3.75186c-3.24397,0 -3.76005,-0.01638 -3.82559,-0.12288c-0.12288,-0.18841 -0.10649,-2.97364 0.01639,-3.09651c0.07373,-0.07373 0.8028,-0.0983 2.78522,-0.0983c2.62958,0 2.68692,0 2.68692,-0.16384c0,-0.16383 -0.05734,-0.16383 -2.94906,-0.16383h-2.94906v1.96604v1.96604h4.70211c4.16964,0 4.7185,0.01639 4.83319,0.13107c0.10649,0.10649 0.13107,0.37682 0.13107,1.7039c0,1.11409 -0.02458,1.59741 -0.0983,1.67114c-0.07373,0.07373 -1.49091,0.0983 -5.85716,0.0983c-5.64417,0 -5.76705,0 -6.1193,-0.17203c-0.43417,-0.1966 -0.9011,-0.65535 -1.13866,-1.09771c-0.17203,-0.31948 -0.18022,-0.41779 -0.2048,-4.12868c-0.02458,-4.4072 -0.03276,-4.34167 0.67992,-5.05436c0.3031,-0.3031 0.54885,-0.46694 0.82738,-0.55704c0.598,-0.18022 9.71551,-0.18841 10.32171,-0.00819zM268.72953,172.82293c-2.67873,-0.00819 -4.99702,0.01639 -5.13628,0.05734c-0.49151,0.11469 -0.9093,0.47512 -1.17963,1.00759c-0.15564,0.29491 -0.15564,0.48332 -0.13926,4.18603l0.02458,3.87474l0.24576,0.35225c0.13107,0.18841 0.38501,0.45055 0.56523,0.56524l0.32767,0.21298l5.7179,0.02458l5.7179,0.01639v-1.39262v-1.39261h-4.83318h-4.83318v-2.37563v-2.37563h3.35865h3.35865v0.57343v0.57343h-2.78522h-2.78522v1.22877v1.22878h3.60441c3.39142,0 3.62898,-0.00819 3.9157,-0.15564c0.39321,-0.2048 0.71269,-0.54066 0.86833,-0.92568c0.18841,-0.44236 0.18841,-3.70271 0,-4.14507c-0.14745,-0.35225 -0.54066,-0.79461 -0.89291,-0.98302c-0.22118,-0.12288 -0.74546,-0.13926 -5.1199,-0.15564z"/><path d="M282.32798,172.41334l5.36565,0.01638l0.39321,0.2048c0.46694,0.23756 0.90929,0.7045 1.13047,1.17962c0.13107,0.29491 0.15564,0.54885 0.15564,2.21999c0,2.09711 -0.04915,2.31829 -0.598,2.89172c-0.31129,0.32767 -0.95025,0.67173 -1.24516,0.67173c-0.11469,0 -0.2048,0.01639 -0.2048,0.03277c0,0.04096 1.2042,1.72028 3.76824,5.25097c1.81039,2.49851 1.68752,2.28552 1.52368,2.53947l-0.13107,0.2048h-1.76944c-0.99121,0 -1.82678,-0.03277 -1.91689,-0.08192c-0.08192,-0.04096 -1.46634,-1.82678 -3.08013,-3.97304l-2.92448,-3.89112h-1.22059h-1.21239v1.82678c0,1.31069 -0.02458,1.85136 -0.0983,1.92508c-0.07373,0.07373 -0.57343,0.0983 -1.75305,0.0983c-1.4008,0 -1.67932,-0.01639 -1.78582,-0.13107c-0.11469,-0.10649 -0.13107,-0.54066 -0.13107,-3.44057c0,-2.12988 0.03277,-3.37503 0.08192,-3.48153c0.08192,-0.14745 0.22118,-0.15564 4.50551,-0.15564c4.36625,0 4.42359,0 4.42359,-0.16384c0,-0.16383 -0.05734,-0.16383 -4.42359,-0.16383c-4.28433,0 -4.42359,-0.0082 -4.50551,-0.15565c-0.09011,-0.18022 -0.11469,-3.11289 -0.01638,-3.25215c0.03277,-0.04915 0.11469,-0.11469 0.18022,-0.13926c0.06554,-0.02458 2.53947,-0.04096 5.48853,-0.03277zM282.4099,172.81474c-2.9081,-0.01638 -5.3165,0 -5.34927,0.03277c-0.03277,0.03277 -0.05734,0.66354 -0.05734,1.4008v1.33527h4.50551h4.50551v0.57343v0.57343h-4.50551h-4.50551v3.19481v3.19482h1.47453h1.47453v-1.96604v-1.96604h1.49911h1.49091l3.02278,4.014l3.02279,4.014h1.63017c1.28612,0 1.62198,-0.02458 1.57283,-0.10649c-0.04096,-0.04915 -1.32708,-1.84317 -2.87533,-3.97304c-1.54826,-2.12988 -2.8098,-3.89112 -2.8098,-3.90751c0,-0.02458 0.25394,-0.04096 0.56523,-0.04096c0.67173,0 0.87653,-0.06553 1.26974,-0.41778c0.58981,-0.51609 0.62258,-0.65535 0.62258,-2.73607c0,-1.54006 -0.02457,-1.89231 -0.13107,-2.11349c-0.17203,-0.33586 -0.58162,-0.77003 -0.89291,-0.94206c-0.22118,-0.12288 -0.77822,-0.13926 -5.52949,-0.16383z"/></g></g></g></svg>