<svg version="1.1" xmlns="http://www.w3.org/2000/svg" xmlns:xlink="http://www.w3.org/1999/xlink" width="129.44638" height="13.29002" viewBox="0,0,129.44638,13.29002"><g transform="translate(-174.77681,-172.855)"><g data-paper-data="{&quot;isPaintingLayer&quot;:true}" fill-rule="nonzero" stroke="#ffc710" stroke-width="0" stroke-linecap="butt" stroke-linejoin="miter" stroke-miterlimit="10" stroke-dasharray="" stroke-dashoffset="0" style="mix-blend-mode: normal"><path d="M179.62032,172.85748c5.12213,0 5.02926,-0.00714 5.60791,0.50007c0.1786,0.16431 0.41434,0.46435 0.51436,0.67152l0.18574,0.37862l-0.02143,1.70738c-0.02143,1.49306 -0.03572,1.7431 -0.15716,1.9717c-0.1786,0.37148 -0.62151,0.80011 -1.00728,0.97871c-0.30719,0.14288 -0.41434,0.15002 -3.50048,0.15002h-3.17901v1.59308c0,1.14301 -0.02143,1.61451 -0.08573,1.6788c-0.10716,0.10716 -2.89325,0.12145 -3.05756,0.01429c-0.09287,-0.05715 -0.10716,-0.48578 -0.12859,-2.99327c-0.02143,-2.86468 -0.01429,-2.93612 0.12859,-3.079c0.14288,-0.14288 0.22146,-0.14288 3.92911,-0.14288c3.73623,0 3.78624,0 3.78624,-0.14288c0,-0.14288 -0.05001,-0.14288 -3.81481,-0.14288c-3.37904,0 -3.8291,-0.01429 -3.92911,-0.1143c-0.09287,-0.09287 -0.1143,-0.32862 -0.1143,-1.42877c0,-1.2216 0.00714,-1.32161 0.14288,-1.45734c0.14288,-0.14288 0.23575,-0.14288 4.70065,-0.14288zM179.84892,173.22896c-2.54321,-0.00714 -4.63635,0 -4.66493,0.02857c-0.02857,0.02857 -0.05001,0.57865 -0.05001,1.2216v1.16445h3.92911h3.92911v0.50007v0.50007l-3.90768,0.01429l-3.91482,0.02143l-0.02143,2.76467l-0.01429,2.77181h1.28589h1.28589v-1.6788v-1.67166l3.41476,-0.02143l3.41476,-0.02143l0.30004,-0.20003c0.16431,-0.10716 0.38577,-0.32862 0.49293,-0.49293l0.20003,-0.2929l0.02143,-1.65023c0.02143,-1.35733 0,-1.69309 -0.09287,-1.93598c-0.12145,-0.32862 -0.45006,-0.7001 -0.77868,-0.87869c-0.20003,-0.10716 -0.67866,-0.12145 -4.82924,-0.14288z" fill="#ffc910"/><path d="M184.71345,173.33642c0.32862,0.17859 0.66331,0.55741 0.78476,0.88603c0.09287,0.24289 0.12089,0.5926 0.09946,1.94993l-0.0194,1.66549l-0.20018,0.29587c-0.10716,0.16431 -0.32943,0.39153 -0.49374,0.49869l-0.3007,0.2029l-3.43472,0.04987l-3.39728,-0.03961l-0.01168,1.65507l-0.05952,1.75839l-1.29346,-0.00546l-1.29086,-0.005l0.00469,-2.78873l0.01987,-2.79027l3.92561,-0.04379l3.99222,-0.00092l-0.08926,-0.45562l0.00362,-0.4948l-3.86352,0.01167l-3.90893,-0.02403l-0.0889,-1.20938c0,-0.64295 0.02608,-1.19933 0.05465,-1.2279c0.02858,-0.02857 2.15404,-0.0527 4.69725,-0.04556c4.15058,0.02143 4.66999,0.04999 4.87002,0.15715z" data-paper-data="{&quot;noHover&quot;:false,&quot;origItem&quot;:[&quot;Path&quot;,{&quot;applyMatrix&quot;:true,&quot;segments&quot;:[[[179.84892,173.22896],[4.15058,0.02143],[-2.54321,-0.00714]],[[175.18399,173.25753],[0.02858,-0.02857],[-0.02857,0.02857]],[[175.13398,174.47913],[0,-0.64295],[0,0]],[175.13398,175.64358],[179.06309,175.64358],[182.9922,175.64358],[182.9922,176.14365],[182.9922,176.64372],[179.08452,176.65801],[175.1697,176.67944],[175.14827,179.44411],[175.13398,182.21592],[176.41987,182.21592],[177.70576,182.21592],[177.70576,180.53712],[177.70576,178.86546],[181.12052,178.84403],[184.53528,178.8226],[[184.83532,178.62257],[0,0],[0.16431,-0.10716]],[[185.32825,178.12964],[-0.10716,0.16431],[0,0]],[185.52828,177.83674],[[185.54971,176.18651],[0,0],[0.02143,-1.35733]],[[185.45684,174.25053],[0.09287,0.24289],[-0.12145,-0.32862]],[[184.67816,173.37184],[0.32862,0.17859],[-0.20003,-0.10716]]],&quot;closed&quot;:true,&quot;fillColor&quot;:[1,0.78824,0.06275],&quot;strokeColor&quot;:[1,0.78039,0.06275],&quot;strokeWidth&quot;:0}]}" fill="#000000"/><path d="M194.06517,172.93606c1.00728,0.12145 1.52878,0.44292 1.91455,1.17159l0.19288,0.35719l0.02143,3.95769c0.01429,2.90754 0,3.97912 -0.06429,4.05056c-0.12859,0.15716 -2.93612,0.14288 -3.09328,-0.01429c-0.08573,-0.08573 -0.1143,-0.26432 -0.1143,-0.7501v-0.6358h-1.96456h-1.95741l-0.53579,0.67866c-0.30004,0.37148 -0.60008,0.70724 -0.67866,0.7501c-0.08573,0.04286 -0.77153,0.07144 -1.75024,0.07144h-1.61451l-0.1143,-0.1786c-0.06429,-0.10002 -0.08573,-0.21432 -0.05715,-0.26432c0.02857,-0.05001 1.47878,-1.99313 3.21473,-4.32203c3.12186,-4.172 3.17187,-4.2363 3.57907,-4.43633c0.46435,-0.23575 0.91441,-0.35719 1.63594,-0.43577c0.71439,-0.08573 0.72867,-0.08573 1.3859,0zM191.77199,173.42898c-0.7501,0.20717 -0.66438,0.10716 -3.93626,4.48633c-1.69309,2.2646 -3.10757,4.16486 -3.14329,4.20772c-0.05715,0.07144 0.23575,0.09287 1.42877,0.09287h1.50021l0.5858,-0.7501l0.59294,-0.7501h2.23602h2.24317v0.7501v0.7501h1.28589h1.28589v-3.70051c0,-4.20058 0.00714,-4.15772 -0.54293,-4.70065c-0.21432,-0.22146 -0.41434,-0.33576 -0.68581,-0.41434c-0.72867,-0.20003 -2.05028,-0.18574 -2.85039,0.02857z" fill="#ffc910"/><path d="M191.78847,173.38177c0.80011,-0.21431 2.14067,-0.21668 2.86934,-0.01665c0.27147,0.07858 0.47552,0.19746 0.68984,0.41892c0.55007,0.54293 0.55299,0.53768 0.55299,4.73826l-0.01052,3.7249l-1.29028,0.00479l-1.29261,0.00541l-0.05931,-0.83049l0.06696,-0.67604l-2.26624,0.01325l-2.27061,-0.00357l-0.59502,0.74901l-0.58705,0.74939l-1.50874,-0.00636c-1.19302,0 -1.49125,-0.02721 -1.4341,-0.09865c0.03572,-0.04286 1.43963,-1.97038 3.13272,-4.23498c3.27188,-4.37917 3.2525,-4.33001 4.0026,-4.53718z" data-paper-data="{&quot;noHover&quot;:false,&quot;origItem&quot;:[&quot;Path&quot;,{&quot;applyMatrix&quot;:true,&quot;segments&quot;:[[[191.77199,173.42898],[0,0],[-0.7501,0.20717]],[[187.83573,177.91531],[3.27188,-4.37917],[-1.69309,2.2646]],[[184.69244,182.12303],[0.03572,-0.04286],[-0.05715,0.07144]],[[186.12121,182.2159],[-1.19302,0],[0,0]],[187.62142,182.2159],[188.20722,181.4658],[188.80016,180.7157],[191.03618,180.7157],[193.27935,180.7157],[193.27935,181.4658],[193.27935,182.2159],[194.56524,182.2159],[195.85113,182.2159],[[195.85113,178.51539],[0,0],[0,-4.20058]],[[195.3082,173.81474],[0.55007,0.54293],[-0.21432,-0.22146]],[[194.62239,173.4004],[0.27147,0.07858],[-0.72867,-0.20003]],[[191.772,173.42897],[0.80011,-0.21431],[0,0]]],&quot;closed&quot;:true,&quot;fillColor&quot;:[1,0.78824,0.06275],&quot;strokeColor&quot;:[1,0.78039,0.06275],&quot;strokeWidth&quot;:0}]}" fill="#000000"/><path d="M193.14361,176.00077c0.12859,0.07144 0.13573,0.16431 0.13573,1.32161v1.25017h-1.43591c-1.35733,0 -1.43591,-0.00714 -1.34304,-0.12145c0.60723,-0.77153 1.81454,-2.18602 1.99313,-2.32889c0.24289,-0.20717 0.42149,-0.23575 0.65009,-0.12145zM192.85786,176.28652c-0.06429,0 -0.54293,0.52864 -1.35733,1.47878l-0.37862,0.45006h0.90012h0.90012v-0.96442c0,-0.52864 -0.02857,-0.96442 -0.06429,-0.96442z" fill="#ffc910"/><path d="M199.42305,172.86462c0.90727,-0.01429 1.51449,0.45721 5.93653,4.61492l0.47149,0.45006l0.04286,-0.7001c0.02857,-0.37862 0.05001,-1.48592 0.05001,-2.45748c0,-1.67166 0.00714,-1.77167 0.13573,-1.84311c0.08573,-0.04286 0.69295,-0.07144 1.48592,-0.07144c1.05729,0 1.37876,0.02143 1.49306,0.10002c0.12859,0.10002 0.13573,0.23575 0.15716,4.02198c0.01429,2.64322 0,4.02913 -0.05715,4.27916c-0.09287,0.45006 -0.37862,0.79297 -0.86441,1.06443c-0.30719,0.16431 -0.49293,0.21432 -0.96442,0.23575c-0.49293,0.02857 -0.62151,0.00714 -0.89298,-0.12859c-0.85012,-0.42863 -2.14315,-1.51449 -4.70779,-3.95055l-1.03586,-0.98585l-0.03572,2.47177c-0.02857,2.09315 -0.05001,2.47891 -0.14288,2.53606c-0.05715,0.03572 -0.74296,0.07144 -1.51449,0.07144c-1.17873,0 -1.42162,-0.01429 -1.51449,-0.1143c-0.10002,-0.10002 -0.1143,-0.57865 -0.1143,-4.17915c0,-4.44347 -0.00714,-4.35774 0.41434,-4.80066c0.2286,-0.24289 0.62151,-0.45721 0.99299,-0.54293c0.15002,-0.03572 0.45006,-0.06429 0.66438,-0.07144zM198.85154,173.27896c-0.50721,0.10716 -0.91441,0.42149 -1.06443,0.8144c-0.05001,0.13573 -0.07858,1.52878 -0.07858,4.16486v3.95769h1.28589h1.28589v-2.79324v-2.79324l1.07158,1.02157c3.13614,2.99327 4.32917,4.03627 5.02926,4.38632c0.39291,0.20003 1.00014,0.23575 1.50021,0.10002c0.37148,-0.10002 0.82154,-0.53579 0.88584,-0.85012c0.02857,-0.13573 0.04286,-2.00742 0.02857,-4.16486l-0.02857,-3.90768h-1.24303h-1.24303l-0.01429,2.81467l-0.02143,2.80753l-1.28589,-1.20731c-3.36475,-3.16472 -4.22915,-3.92197 -4.77923,-4.21487c-0.30719,-0.15716 -0.93584,-0.22146 -1.32876,-0.13573z" fill="#ffc910"/><path d="M198.81632,173.24348c0.39292,-0.08573 1.02771,-0.02662 1.3349,0.13054c0.55008,0.2929 1.49349,1.08828 4.85824,4.253l1.18913,1.19232l0.02463,-2.76555l0.03002,-2.79761l1.30533,-0.07778l1.24735,0.00465l0.03956,3.93398c0.01429,2.15744 -0.00775,4.06164 -0.03632,4.19737c-0.0643,0.31433 -0.52018,0.75746 -0.89166,0.85748c-0.50007,0.13573 -1.11414,0.10598 -1.50705,-0.09405c-0.70009,-0.35005 -1.9724,-1.43528 -5.10854,-4.42855l-0.97465,-1.00269l-0.00359,2.7512l-0.0158,2.77641l-1.34784,0.07801l-1.29034,-0.00481l-0.01093,-3.98433c0,-2.63608 0.03665,-4.06161 0.08666,-4.19734c0.15002,-0.39291 0.56368,-0.71511 1.07089,-0.82227z" data-paper-data="{&quot;noHover&quot;:false,&quot;origItem&quot;:[&quot;Path&quot;,{&quot;applyMatrix&quot;:true,&quot;segments&quot;:[[[198.85154,173.27896],[0,0],[-0.50721,0.10716]],[[197.78711,174.09336],[0.15002,-0.39291],[-0.05001,0.13573]],[[197.70853,178.25822],[0,-2.63608],[0,0]],[197.70853,182.21591],[198.99442,182.21591],[200.28031,182.21591],[200.28031,179.42267],[200.28031,176.62943],[[201.35189,177.651],[0,0],[3.13614,2.99327]],[[206.38115,182.03732],[-0.70009,-0.35005],[0.39291,0.20003]],[[207.88136,182.13734],[-0.50007,0.13573],[0.37148,-0.10002]],[[208.7672,181.28722],[-0.0643,0.31433],[0.02857,-0.13573]],[[208.79577,177.12236],[0.01429,2.15744],[0,0]],[208.7672,173.21468],[207.52417,173.21468],[206.28114,173.21468],[206.26685,176.02935],[206.24542,178.83688],[[204.95953,177.62957],[0,0],[-3.36475,-3.16472]],[[200.1803,173.4147],[0.55008,0.2929],[-0.30719,-0.15716]],[[198.85154,173.27897],[0.39292,-0.08573],[0,0]]],&quot;closed&quot;:true,&quot;fillColor&quot;:[1,0.78824,0.06275],&quot;strokeColor&quot;:[1,0.78039,0.06275],&quot;strokeWidth&quot;:0}]}" fill="#000000"/><path d="M215.62528,172.87176c5.01498,0.02143 5.0507,0.02143 5.33645,0.1786c0.37862,0.20003 0.78582,0.61437 0.96442,0.98585c0.13573,0.28575 0.14288,0.42863 0.14288,3.68622c0,3.13614 -0.01429,3.40761 -0.13573,3.67908c-0.19288,0.42149 -0.53579,0.77868 -0.95013,0.98585l-0.37148,0.18574h-5.03641c-3.05756,0 -5.08642,-0.02857 -5.15071,-0.07144c-0.09287,-0.05715 -0.10716,-0.47864 -0.10716,-3.07185c0,-2.59322 0.01429,-3.0147 0.10716,-3.07185c0.16431,-0.10716 2.95041,-0.09287 3.05756,0.01429c0.06429,0.06429 0.08573,0.51436 0.08573,1.57165v1.48592h2.6075h2.6075v-1.71452v-1.71452h-4.122c-2.47177,0 -4.172,-0.02857 -4.2363,-0.07144c-0.08573,-0.05715 -0.1143,-0.31433 -0.12859,-1.42162c-0.02143,-1.29303 -0.01429,-1.36447 0.12859,-1.50735c0.15002,-0.15002 0.15716,-0.15002 5.20072,-0.12859zM215.44668,173.21467h-4.73637v1.21445v1.21445h4.25058h4.25058v2.07171v2.07171h-3.00041h-3.00041v-1.57165v-1.57165h-1.25017h-1.25017v2.7861v2.7861h4.91496c4.59349,0 4.92925,-0.01429 5.19357,-0.13573c0.30719,-0.13573 0.71439,-0.55722 0.82869,-0.84297c0.03572,-0.10002 0.06429,-1.62165 0.06429,-3.51477c0,-3.31474 0,-3.33618 -0.15716,-3.6505c-0.19288,-0.37862 -0.6358,-0.70724 -1.06443,-0.79297c-0.17145,-0.02857 -2.44319,-0.05715 -5.04355,-0.06429z" fill="#ffc910"/><path d="M215.43831,173.16537c2.60036,0.00714 4.91518,0.04903 5.08663,0.0776c0.42863,0.08573 0.87815,0.42217 1.07103,0.80079c0.15716,0.31432 0.16585,0.36399 0.16585,3.67873c0,1.89312 -0.03661,3.44187 -0.07233,3.54189c-0.1143,0.28575 -0.52716,0.71444 -0.83435,0.85017c-0.26432,0.12144 -0.64283,0.15093 -5.23632,0.15093l-4.9472,-0.01792l-0.00904,-2.80288l-0.00134,-2.81054l1.25076,-0.00266l1.34574,0.02904l0.00223,1.54661l-0.00817,1.55146l2.95927,-0.02159l2.95927,0.02159l-0.00886,-2.0433l0.00886,-2.0433l-4.1836,0.0144l-4.22962,-0.02519l-0.08972,-1.25772l0.00423,-1.22047l4.7667,-0.01763z" data-paper-data="{&quot;noHover&quot;:false,&quot;origItem&quot;:[&quot;Path&quot;,{&quot;applyMatrix&quot;:true,&quot;segments&quot;:[[215.44668,173.21467],[210.71031,173.21467],[210.71031,174.42912],[210.71031,175.64357],[214.96089,175.64357],[219.21147,175.64357],[219.21147,177.71528],[219.21147,179.78699],[216.21106,179.78699],[213.21065,179.78699],[213.21065,178.21534],[213.21065,176.64369],[211.96048,176.64369],[210.71031,176.64369],[210.71031,179.42979],[210.71031,182.21589],[[215.62527,182.21589],[0,0],[4.59349,0]],[[220.81884,182.08016],[-0.26432,0.12144],[0.30719,-0.13573]],[[221.64753,181.23719],[-0.1143,0.28575],[0.03572,-0.10002]],[[221.71182,177.72242],[0,1.89312],[0,-3.31474]],[[221.55466,174.07192],[0.15716,0.31432],[-0.19288,-0.37862]],[[220.49023,173.27895],[0.42863,0.08573],[-0.17145,-0.02857]],[[215.44668,173.21466],[2.60036,0.00714],[0,0]]],&quot;closed&quot;:true,&quot;fillColor&quot;:[1,0.78824,0.06275],&quot;strokeColor&quot;:[1,0.78039,0.06275],&quot;strokeWidth&quot;:0}]}" fill="#000000"/><path d="M229.04141,172.86462c3.48619,-0.00714 4.20058,0.00714 4.50776,0.10002c0.46435,0.13573 0.99299,0.60723 1.20731,1.07158c0.16431,0.34291 0.17145,0.42863 0.17145,2.00027c0,1.57165 -0.00714,1.65737 -0.17145,2.00027c-0.08573,0.19288 -0.30004,0.47864 -0.47149,0.62866c-0.57865,0.52864 -0.46435,0.51436 -3.96483,0.53579c-2.46463,0.01429 -3.17901,0 -3.32189,-0.07858l-0.1786,-0.09287l-0.02143,-1.2716c-0.01429,-0.87869 0.00714,-1.30732 0.06429,-1.37162c0.06429,-0.07858 0.5215,-0.10002 2.42891,-0.10002c2.30032,0 2.35032,0 2.35032,-0.14288c0,-0.14288 -0.05001,-0.14288 -2.57178,-0.14288h-2.57178v1.71452v1.71452h4.07913c2.6718,0 4.122,0.02857 4.21487,0.07144c0.12859,0.07144 0.13573,0.16431 0.13573,1.48592c0,1.00728 -0.02143,1.43591 -0.08573,1.50021c-0.06429,0.06429 -1.29303,0.08573 -5.08642,0.08573h-5.00783l-0.35719,-0.17145c-0.20717,-0.09287 -0.49293,-0.31433 -0.66438,-0.50721c-0.50721,-0.57865 -0.51436,-0.64294 -0.51436,-4.172c0,-2.05743 0.02857,-3.21473 0.07858,-3.40047c0.16431,-0.60008 0.77153,-1.21445 1.35733,-1.37876c0.14288,-0.04286 1.90026,-0.07858 4.39346,-0.07858zM224.89084,173.25039c-0.03572,0.01429 -0.15716,0.04286 -0.27146,0.06429c-0.27146,0.06429 -0.75725,0.5215 -0.91441,0.86441c-0.12145,0.26432 -0.13573,0.54293 -0.13573,3.57192v3.28617l0.21432,0.37148c0.15716,0.27861 0.31433,0.43577 0.59294,0.59294l0.37148,0.21432h4.91496h4.90782v-1.21445v-1.21445h-4.21487h-4.21487v-2.07171v-2.07171h2.92898h2.92898v0.50007v0.50007h-2.42891h-2.42891v1.07158v1.07158h3.13614c1.77167,0 3.21473,-0.02857 3.31474,-0.06429c0.27146,-0.10716 0.68581,-0.50007 0.84297,-0.80011c0.12145,-0.25003 0.13573,-0.42863 0.13573,-1.89312c0,-1.61451 0,-1.61451 -0.18574,-1.96456c-0.21432,-0.38577 -0.60008,-0.68581 -1.00728,-0.78582c-0.24289,-0.05715 -8.32258,-0.08573 -8.48688,-0.02857z" fill="#ffc910"/><path d="M224.85668,173.21392c0.1643,-0.05716 8.31297,-0.02795 8.55586,0.0292c0.4072,0.10001 0.79934,0.40761 1.01366,0.79338c0.18574,0.35005 0.19233,0.3637 0.19233,1.97821c0,1.46449 -0.01212,1.65967 -0.13357,1.9097c-0.15716,0.30004 -0.57266,0.70189 -0.84412,0.80905c-0.10001,0.03572 -1.55445,0.08659 -3.32612,0.08659l-3.2173,-0.00891l-0.00627,-1.09588l0.00631,-1.09584l2.4937,-0.021l2.45475,0.02812l-0.09099,-0.45919l0.00324,-0.49484l-2.88817,0.02111l-2.88817,-0.02111l0.00919,2.04285l-0.00916,2.04282l4.14764,-0.01362l4.19446,0.02486l0.08973,1.25769l-0.00423,1.22047l-4.93999,0.01792l-4.95614,-0.01352l-0.37377,-0.21667c-0.27861,-0.15717 -0.43985,-0.31941 -0.59701,-0.59802l-0.21613,-0.37427l-0.00719,-3.3117c0,-3.02899 0.02254,-3.33543 0.14399,-3.59975c0.15716,-0.34291 0.64914,-0.80776 0.9206,-0.87205c0.1143,-0.02143 0.23713,-0.05135 0.27285,-0.06564z" data-paper-data="{&quot;noHover&quot;:false,&quot;origItem&quot;:[&quot;Path&quot;,{&quot;applyMatrix&quot;:true,&quot;segments&quot;:[[[224.89084,173.25039],[0,0],[-0.03572,0.01429]],[[224.61938,173.31468],[0.1143,-0.02143],[-0.27146,0.06429]],[[223.70497,174.17909],[0.15716,-0.34291],[-0.12145,0.26432]],[[223.56924,177.75101],[0,-3.02899],[0,0]],[223.56924,181.03718],[[223.78356,181.40866],[0,0],[0.15716,0.27861]],[[224.3765,182.0016],[-0.27861,-0.15717],[0,0]],[224.74798,182.21592],[229.66294,182.21592],[234.57076,182.21592],[234.57076,181.00147],[234.57076,179.78702],[230.35589,179.78702],[226.14102,179.78702],[226.14102,177.71531],[226.14102,175.6436],[229.07,175.6436],[231.99898,175.6436],[231.99898,176.14367],[231.99898,176.64374],[229.57007,176.64374],[227.14116,176.64374],[227.14116,177.71532],[227.14116,178.7869],[[230.2773,178.7869],[0,0],[1.77167,0]],[[233.59204,178.72261],[-0.10001,0.03572],[0.27146,-0.10716]],[[234.43501,177.9225],[-0.15716,0.30004],[0.12145,-0.25003]],[[234.57074,176.02938],[0,1.46449],[0,-1.61451]],[[234.385,174.06482],[0.18574,0.35005],[-0.21432,-0.38577]],[[233.37772,173.279],[0.4072,0.10001],[-0.24289,-0.05715]],[[224.89084,173.25043],[0.1643,-0.05716],[0,0]]],&quot;closed&quot;:true,&quot;fillColor&quot;:[1,0.78824,0.06275],&quot;strokeColor&quot;:[1,0.78039,0.06275],&quot;strokeWidth&quot;:0}]}" fill="#000000"/><path d="M239.36426,173.1218c0.72867,0.33576 0.99299,0.67152 2.41462,3.0147c0.72153,1.18588 1.32876,2.1503 1.35019,2.1503c0.02857,-0.00714 0.31433,-0.44292 0.64294,-0.98585c2.24317,-3.72909 2.24317,-3.72909 3.08614,-4.14343c0.50007,-0.25003 0.56436,-0.26432 1.21445,-0.25718c0.55008,0 0.7501,0.02857 1.05014,0.16431c0.39291,0.17145 0.83583,0.60008 0.95013,0.90727c0.10716,0.28575 0.09287,8.4083 -0.01429,8.51546c-0.10716,0.10716 -2.89325,0.12145 -3.05756,0.01429c-0.09287,-0.05715 -0.1143,-0.37862 -0.14288,-1.95741l-0.03572,-1.90026l-1.00014,1.50735c-1.12873,1.70023 -1.50735,2.13601 -2.00742,2.30746c-0.69295,0.23575 -1.47163,0.1143 -1.91455,-0.30004c-0.33576,-0.31433 -1.40734,-1.78596 -1.97884,-2.71466l-0.52864,-0.86441l-0.02143,1.90026c-0.00714,1.25732 -0.04286,1.93598 -0.09287,2.00027c-0.06429,0.07144 -0.41434,0.09287 -1.53593,0.09287c-1.2216,0 -1.46449,-0.01429 -1.55736,-0.1143c-0.10002,-0.10002 -0.1143,-0.56436 -0.1143,-4.07199c0,-2.77181 0.02143,-4.06485 0.08573,-4.29345c0.13573,-0.54293 0.7001,-1.02871 1.36447,-1.16445c0.57865,-0.12145 1.34304,-0.04286 1.84311,0.19288zM237.56402,173.27896c-0.34291,0.07144 -0.74296,0.32862 -0.93584,0.60008l-0.16431,0.2286l-0.02143,4.05056l-0.02143,4.0577h1.29303h1.28589v-2.52177v-2.51463l0.50721,0.85726c0.61437,1.043 1.8574,2.91469 2.32889,3.50048c0.42863,0.52864 0.70724,0.67866 1.26446,0.67866c0.68581,0 0.95013,-0.17145 1.57165,-1.02157c0.72153,-0.99299 1.83597,-2.70752 2.2003,-3.38618l0.30719,-0.55722l0.02143,2.47891l0.01429,2.48606h1.28589h1.28589l-0.01429,-4.10771l-0.02143,-4.10057l-0.27861,-0.28575c-0.36434,-0.37148 -0.65009,-0.46435 -1.43591,-0.47149c-0.56436,0 -0.69295,0.02143 -1.05014,0.20003c-0.23575,0.1143 -0.53579,0.34291 -0.71439,0.54293c-0.17145,0.19288 -0.94299,1.41448 -1.72167,2.70752l-1.42162,2.35747l-1.4502,-2.40033c-0.79297,-1.32876 -1.57879,-2.54321 -1.7431,-2.71466c-0.16431,-0.17145 -0.47864,-0.39291 -0.7001,-0.49293c-0.43577,-0.20003 -1.17873,-0.27861 -1.67166,-0.17145z" fill="#ffc910"/><path d="M237.52501,173.24767c0.49293,-0.10716 1.24133,-0.03436 1.6771,0.16567c0.22146,0.10002 0.60147,0.39687 0.76578,0.56832c0.16431,0.17145 0.95806,1.37752 1.75103,2.70628l1.40922,2.3204l1.38173,-2.27862c0.77868,-1.29304 1.55868,-2.50539 1.73013,-2.69827c0.1786,-0.20002 0.54463,-0.50374 0.78038,-0.61804c0.35719,-0.1786 0.48919,-0.19661 1.05355,-0.19661c0.78582,0.00714 1.07687,0.107 1.44121,0.47848l0.27992,0.28795l0.0277,4.12785l0.00587,4.13272l-1.28896,0.00409l-1.35807,-0.06887l-0.02544,-2.47117l-0.02619,-2.45116l-0.20754,0.55259c-0.36433,0.67866 -1.50817,2.43763 -2.2297,3.43062c-0.62152,0.85012 -0.90647,1.026 -1.59228,1.026c-0.55722,0 -0.85157,-0.15257 -1.2802,-0.68121c-0.47149,-0.58579 -1.74856,-2.50059 -2.36293,-3.54359l-0.40783,-0.85503l-0.00449,2.48642l-0.01135,2.5065l-1.35802,0.06893l-1.29612,-0.00412l0.01303,-4.08234l0.02741,-4.07773l0.16523,-0.23021c0.19288,-0.27146 0.59692,-0.5344 0.93983,-0.60584z" data-paper-data="{&quot;noHover&quot;:false,&quot;origItem&quot;:[&quot;Path&quot;,{&quot;applyMatrix&quot;:true,&quot;segments&quot;:[[[237.56402,173.27896],[0,0],[-0.34291,0.07144]],[[236.62818,173.87904],[0.19288,-0.27146],[0,0]],[236.46387,174.10764],[236.44244,178.1582],[236.42101,182.2159],[237.71404,182.2159],[238.99993,182.2159],[238.99993,179.69413],[238.99993,177.1795],[[239.50714,178.03676],[0,0],[0.61437,1.043]],[[241.83603,181.53724],[-0.47149,-0.58579],[0.42863,0.52864]],[[243.10049,182.2159],[-0.55722,0],[0.68581,0]],[[244.67214,181.19433],[-0.62152,0.85012],[0.72153,-0.99299]],[[246.87244,177.80815],[-0.36433,0.67866],[0,0]],[247.17963,177.25093],[247.20106,179.72984],[247.21535,182.2159],[248.50124,182.2159],[249.78713,182.2159],[249.77284,178.10819],[249.75141,174.00762],[[249.4728,173.72187],[0,0],[-0.36434,-0.37148]],[[248.03689,173.25038],[0.78582,0.00714],[-0.56436,0]],[[246.98675,173.45041],[0.35719,-0.1786],[-0.23575,0.1143]],[[246.27236,173.99334],[0.1786,-0.20002],[-0.17145,0.19288]],[[244.55069,176.70086],[0.77868,-1.29304],[0,0]],[243.12907,179.05833],[[241.67887,176.658],[0,0],[-0.79297,-1.32876]],[[239.93577,173.94334],[0.16431,0.17145],[-0.16431,-0.17145]],[[239.23567,173.45041],[0.22146,0.10002],[-0.43577,-0.20003]],[[237.56401,173.27896],[0.49293,-0.10716],[0,0]]],&quot;closed&quot;:true,&quot;fillColor&quot;:[1,0.78824,0.06275],&quot;strokeColor&quot;:[1,0.78039,0.06275],&quot;strokeWidth&quot;:0}]}" fill="#000000"/><path d="M252.91613,172.85748c1.80025,0 1.65737,-0.13573 1.65737,1.60022c0,1.10015 -0.02143,1.3359 -0.1143,1.42877c-0.09287,0.10002 -0.33576,0.1143 -1.55736,0.1143c-1.02871,0 -1.46449,-0.02143 -1.52878,-0.08573c-0.06429,-0.06429 -0.08573,-0.49293 -0.08573,-1.50021c0,-1.26446 0.01429,-1.41448 0.12859,-1.47878c0.07144,-0.04286 0.69295,-0.07858 1.50021,-0.07858zM254.18059,173.25039l-1.26446,-0.02143l-1.2716,-0.01429v1.21445v1.21445h1.28589h1.28589l-0.01429,-1.20017z" fill="#ffc910"/><path d="M254.25202,174.44396l0.00064,1.23394l-1.32224,0.01567l-1.32224,-0.01567l-0.01365,-1.24878l0.01365,-1.24878l1.30736,-0.00138l1.30143,0.03713z" data-paper-data="{&quot;noHover&quot;:false,&quot;origItem&quot;:[&quot;Path&quot;,{&quot;applyMatrix&quot;:true,&quot;segments&quot;:[[254.18059,173.25039],[252.91613,173.22896],[251.64453,173.21467],[251.64453,174.42912],[251.64453,175.64357],[252.93042,175.64357],[254.21631,175.64357],[254.20202,174.4434]],&quot;closed&quot;:true,&quot;fillColor&quot;:[1,0.78824,0.06275],&quot;strokeColor&quot;:[1,0.78039,0.06275],&quot;strokeWidth&quot;:0}]}" fill="#000000"/><path d="M261.48874,172.87891c3.86482,0.01429 4.45776,0.02857 4.51491,0.12145c0.10716,0.16431 0.09287,2.80753 -0.01429,2.91469c-0.06429,0.06429 -0.99299,0.08573 -3.75052,0.08573h-3.66479v1.71452v1.71452h3.63621c3.21473,0 3.6505,0.01429 3.75052,0.1143c0.09287,0.09287 0.1143,0.32862 0.1143,1.48592c0,0.97156 -0.02143,1.39305 -0.08573,1.45734c-0.06429,0.06429 -1.18588,0.08573 -4.62206,0.08573h-4.54348l-0.35719,-0.17145c-0.19288,-0.08573 -0.47864,-0.30004 -0.62866,-0.47149c-0.52864,-0.57865 -0.51436,-0.45721 -0.53579,-3.99341c-0.01429,-2.06457 0.00714,-3.30045 0.05715,-3.52906c0.13573,-0.65009 0.77868,-1.32161 1.41448,-1.47163c0.14288,-0.03572 2.2646,-0.05715 4.71494,-0.05715zM265.71789,173.21467l-4.33631,0.00714c-2.39319,0.00714 -4.45061,0.03572 -4.57206,0.06429c-0.27861,0.06429 -0.67152,0.35005 -0.87155,0.62866c-0.27861,0.40005 -0.30004,0.7001 -0.27861,4.01484c0.02143,3.51477 0.00714,3.36475 0.50007,3.83624c0.47864,0.46435 0.31433,0.45006 5.165,0.45006h4.39346v-1.21445v-1.21445h-3.75052h-3.75052v-2.07171v-2.07171h3.75052h3.75052v-1.21445z" fill="#ffc910"/><path d="M265.75975,174.40179l-0.0881,1.26082l-3.73059,0.02349l-3.68591,-0.01038l0.0117,2.03957l-0.0117,2.03957l3.68591,-0.01038l3.73059,0.02349l0.0881,1.26082l-0.0046,1.22044l-4.4237,0.01617c-4.85067,0 -4.73065,-0.00187 -5.20929,-0.46622c-0.49293,-0.47149 -0.49134,-0.35268 -0.51277,-3.86745c-0.02143,-3.31474 0.01092,-3.64817 0.28953,-4.04822c0.20003,-0.27861 0.59905,-0.57075 0.87766,-0.63504c0.12145,-0.02857 2.21945,-0.06893 4.61264,-0.07607l4.36593,0.00894z" data-paper-data="{&quot;noHover&quot;:false,&quot;origItem&quot;:[&quot;Path&quot;,{&quot;applyMatrix&quot;:true,&quot;segments&quot;:[[265.71789,173.21467],[[261.38158,173.22181],[0,0],[-2.39319,0.00714]],[[256.80952,173.2861],[0.12145,-0.02857],[-0.27861,0.06429]],[[255.93797,173.91476],[0.20003,-0.27861],[-0.27861,0.40005]],[[255.65936,177.9296],[-0.02143,-3.31474],[0.02143,3.51477]],[[256.15943,181.76584],[-0.49293,-0.47149],[0.47864,0.46435]],[[261.32443,182.2159],[-4.85067,0],[0,0]],[265.71789,182.2159],[265.71789,181.00145],[265.71789,179.787],[261.96737,179.787],[258.21685,179.787],[258.21685,177.71529],[258.21685,175.64358],[261.96737,175.64358],[265.71789,175.64358],[265.71789,174.42913]],&quot;closed&quot;:true,&quot;fillColor&quot;:[1,0.78824,0.06275],&quot;strokeColor&quot;:[1,0.78039,0.06275],&quot;strokeWidth&quot;:0}]}" fill="#000000"/><path d="M279.00544,172.87891l4.67922,0.01429l0.30004,0.16431c0.45006,0.23575 0.75725,0.52864 0.95013,0.92156c0.17145,0.32862 0.1786,0.40005 0.20003,2.00027c0.02143,1.82882 0,1.97884 -0.45006,2.50749c-0.25003,0.30004 -0.86441,0.65723 -1.13587,0.65723c-0.12859,0 -0.18574,0.02857 -0.16431,0.09287c0.01429,0.05001 1.06443,1.50735 2.32889,3.2433c1.44306,1.99313 2.29317,3.22187 2.29317,3.32903c0,0.32147 -0.07858,0.33576 -1.71452,0.33576c-1.24303,0 -1.57165,-0.02143 -1.69309,-0.10716c-0.07858,-0.05715 -1.26446,-1.59308 -2.62893,-3.40761c-1.36447,-1.82168 -2.53606,-3.35046 -2.60036,-3.40047c-0.08573,-0.07144 -0.36434,-0.08573 -1.07872,-0.07144l-0.96442,0.02143l-0.03572,1.6288c-0.02857,1.34304 -0.05715,1.63594 -0.14288,1.69309c-0.16431,0.10716 -2.95041,0.09287 -3.05756,-0.01429c-0.12145,-0.12145 -0.12145,-5.99368 0,-6.11513c0.06429,-0.06429 1.03586,-0.08573 3.92911,-0.08573c3.79338,0 3.84339,0 3.84339,-0.14288c0,-0.14288 -0.05001,-0.14288 -3.84339,-0.14288c-2.89325,0 -3.86482,-0.02143 -3.92911,-0.08573c-0.09287,-0.09287 -0.12145,-2.74323 -0.02857,-2.88611c0.02857,-0.04286 0.10002,-0.10002 0.15716,-0.12145c0.05715,-0.02143 2.21459,-0.03572 4.78637,-0.02857zM278.84828,173.21467h-4.48633v1.21445v1.21445h3.92911h3.92911v0.50007v0.50007h-3.92911h-3.92911v2.7861v2.7861h1.28589h1.28589v-1.67166c0,-1.62165 0.00714,-1.67166 0.14288,-1.70738c0.08573,-0.02143 0.67152,-0.03572 1.30732,-0.02857l1.1573,0.01429l2.61465,3.46476l2.6075,3.46476l1.4502,0.02143c1.1573,0.01429 1.43591,0 1.39305,-0.07144c-0.03572,-0.05001 -1.16445,-1.60736 -2.50749,-3.46476c-1.35019,-1.8574 -2.45034,-3.37904 -2.45034,-3.39332c0,-0.01429 0.22146,-0.02857 0.50007,-0.03572c0.75725,-0.02143 1.27875,-0.36434 1.55021,-1.00014c0.1143,-0.27861 0.13573,-3.05756 0.02143,-3.45762c-0.12145,-0.42149 -0.59294,-0.90012 -1.02157,-1.02871c-0.30719,-0.09287 -1.043,-0.10716 -4.85067,-0.10716z" fill="#ffc910"/><path d="M278.83216,173.16734c3.80767,0 4.5797,0.01585 4.88689,0.10872c0.42863,0.12859 0.90938,0.61253 1.03083,1.03402c0.1143,0.40006 0.10902,3.19878 -0.00528,3.47739c-0.27146,0.6358 -0.88612,1.01457 -1.64337,1.036c-0.27861,0.00715 -0.40588,-0.012 -0.40588,0.00229c0,0.01428 1.09522,1.58192 2.44541,3.43932c1.34304,1.8574 2.46664,3.42122 2.50236,3.47123c0.04286,0.07144 -0.24023,0.08996 -1.39753,0.07567l-1.45635,-0.01705l-2.61402,-3.46145l-2.67929,-3.53201l-1.06365,0.01963c-0.6358,-0.00715 -1.22062,0.00267 -1.30635,0.0241c-0.13574,0.03572 -0.14377,0.0649 -0.14377,1.68655l-0.00689,1.65631l-1.37196,0.05055l-1.28759,-0.00371l-0.00374,-2.80559l0.00408,-2.80537l3.9407,-0.01657l3.98329,-0.00955l-0.03711,-0.40725l0.00202,-0.49938l-3.8852,-0.00665l-3.91455,-0.01583l-0.08293,-1.26997l0.00343,-1.21848l4.5065,-0.01293z" data-paper-data="{&quot;noHover&quot;:false,&quot;origItem&quot;:[&quot;Path&quot;,{&quot;applyMatrix&quot;:true,&quot;segments&quot;:[[278.84828,173.21467],[274.36195,173.21467],[274.36195,174.42912],[274.36195,175.64357],[278.29106,175.64357],[282.22017,175.64357],[282.22017,176.14364],[282.22017,176.64371],[278.29106,176.64371],[274.36195,176.64371],[274.36195,179.42981],[274.36195,182.21591],[275.64784,182.21591],[276.93373,182.21591],[[276.93373,180.54425],[0,0],[0,-1.62165]],[[277.07661,178.83687],[-0.13574,0.03572],[0.08573,-0.02143]],[[278.38393,178.8083],[-0.6358,-0.00715],[0,0]],[279.54123,178.82259],[282.15588,182.28735],[284.76338,185.75211],[[286.21358,185.77354],[0,0],[1.1573,0.01429]],[[287.60663,185.7021],[0.04286,0.07144],[-0.03572,-0.05001]],[[285.09914,182.23734],[1.34304,1.8574],[-1.35019,-1.8574]],[[282.6488,178.84402],[0,0.01428],[0,-0.01429]],[[283.14887,178.8083],[-0.27861,0.00715],[0.75725,-0.02143]],[[284.69908,177.80816],[-0.27146,0.6358],[0.1143,-0.27861]],[[284.72051,174.35054],[0.1143,0.40006],[-0.12145,-0.42149]],[[283.69894,173.32183],[0.42863,0.12859],[-0.30719,-0.09287]],[[278.84827,173.21467],[3.80767,0],[0,0]]],&quot;closed&quot;:true,&quot;fillColor&quot;:[1,0.78824,0.06275],&quot;strokeColor&quot;:[1,0.78039,0.06275],&quot;strokeWidth&quot;:0}]}" fill="#000000"/><path d="M287.72092,172.86462c1.09301,-0.00714 1.35733,0.01429 1.48592,0.10716c0.15002,0.10716 0.15716,0.14288 0.15716,1.45734c0,1.12873 -0.02143,1.36447 -0.1143,1.45734c-0.09287,0.10002 -0.33576,0.1143 -1.55736,0.1143c-1.02871,0 -1.46449,-0.02143 -1.52878,-0.08573c-0.06429,-0.06429 -0.08573,-0.49293 -0.08573,-1.50021c0,-1.40734 0,-1.42162 0.16431,-1.48592c0.08573,-0.03572 0.7501,-0.06429 1.47878,-0.06429zM289.00682,173.21467h-1.28589h-1.28589v1.21445v1.21445h1.28589h1.28589v-1.21445z" fill="#ffc910"/><path d="M289.05682,174.42912l-0.01365,1.24878l-1.32224,0.01567l-1.32224,-0.01567l-0.01365,-1.24878l0.01365,-1.24878l1.32224,-0.01567l1.32224,0.01567z" data-paper-data="{&quot;noHover&quot;:false,&quot;origItem&quot;:[&quot;Path&quot;,{&quot;applyMatrix&quot;:true,&quot;segments&quot;:[[289.00682,173.21467],[287.72093,173.21467],[286.43504,173.21467],[286.43504,174.42912],[286.43504,175.64357],[287.72093,175.64357],[289.00682,175.64357],[289.00682,174.42912]],&quot;closed&quot;:true,&quot;fillColor&quot;:[1,0.78824,0.06275],&quot;strokeColor&quot;:[1,0.78039,0.06275],&quot;strokeWidth&quot;:0}]}" fill="#000000"/><path d="M292.40729,172.88605c0.46435,0.01429 0.66438,0.05715 0.99299,0.22146c0.82154,0.40005 0.9287,0.53579 2.70752,3.47905l1.06443,1.76453l0.64294,-1.05014c0.35719,-0.57865 0.95013,-1.55021 1.31447,-2.15744c0.76439,-1.26446 1.15016,-1.70023 1.80739,-2.02171c0.42863,-0.21432 0.51436,-0.2286 1.17873,-0.2286c0.6358,0 0.75725,0.02143 1.12158,0.20003c0.45721,0.2286 0.80725,0.60008 0.91441,0.97871c0.04286,0.15002 0.07144,1.87883 0.07144,4.26487c0,3.55049 -0.01429,4.02198 -0.1143,4.122c-0.09287,0.10002 -0.33576,0.1143 -1.55736,0.1143c-1.02871,0 -1.46449,-0.02143 -1.52878,-0.08573c-0.06429,-0.06429 -0.08573,-0.60723 -0.08573,-2.00742v-1.92169l-1.00014,1.50021c-1.17159,1.76453 -1.57879,2.24317 -2.05028,2.40033c-0.60723,0.20717 -1.37162,0.12859 -1.82168,-0.18574c-0.26432,-0.18574 -1.40019,-1.70738 -2.05028,-2.76467l-0.54293,-0.87869l-0.03572,1.90026c-0.02857,1.58593 -0.05001,1.91455 -0.14288,1.9717c-0.16431,0.10716 -2.95041,0.09287 -3.05756,-0.01429c-0.06429,-0.06429 -0.08573,-1.10015 -0.08573,-4.21487c0,-3.96483 0.00714,-4.14343 0.14288,-4.40775c0.22146,-0.43577 0.7001,-0.79297 1.26446,-0.93584c0.15002,-0.03572 0.52864,-0.05715 0.85012,-0.04286zM290.82135,173.72902c-0.31433,0.34291 -0.31433,0.30719 -0.31433,4.47919v4.00769h1.28589h1.28589l0.01429,-2.46463l0.02143,-2.47177l0.42863,0.73582c0.50007,0.86441 1.87883,2.94326 2.35747,3.55049c0.38577,0.48578 0.7001,0.65009 1.2716,0.65009c0.48578,-0.00714 0.88584,-0.19288 1.2216,-0.57865c0.34291,-0.40005 2.11458,-3.07185 2.5575,-3.85767l0.33576,-0.60008l0.00714,2.51463v2.52177h1.28589h1.28589l-0.01429,-4.0577l-0.02143,-4.06485l-0.20003,-0.25718c-0.33576,-0.43577 -0.68581,-0.57865 -1.47878,-0.57865c-0.5858,-0.00714 -0.73582,0.02143 -1.07158,0.1786c-0.55008,0.25718 -0.90012,0.64294 -1.50021,1.65023c-0.2929,0.48578 -0.95013,1.57165 -1.46449,2.42176l-0.93584,1.55021l-1.42877,-2.37175c-0.77868,-1.30018 -1.5645,-2.51463 -1.73595,-2.70037c-0.17145,-0.18574 -0.48578,-0.42863 -0.7001,-0.52864c-0.80725,-0.40005 -2.00742,-0.26432 -2.4932,0.27146z" fill="#ffc910"/><path d="M290.77897,173.70246c0.48578,-0.53578 1.69469,-0.68196 2.50194,-0.28191c0.21432,0.10001 0.59463,0.41802 0.76608,0.60376c0.17145,0.18574 0.96547,1.3913 1.74415,2.69148l1.38847,2.29253l0.88684,-1.48904c0.51436,-0.85011 1.18671,-1.91014 1.47961,-2.39592c0.60009,-1.00729 1.01737,-1.46707 1.56745,-1.72425c0.33576,-0.15717 0.48934,-0.18216 1.07514,-0.17502c0.79297,0 1.14866,0.15049 1.48442,0.58626l0.20109,0.25903l0.02744,4.09208l0.00588,4.08234l-1.28896,0.0041l-1.35803,-0.06892l-0.01134,-2.50651l-0.01164,-2.48644l-0.2362,0.59431c-0.44292,0.78582 -2.24985,3.50462 -2.59276,3.90467c-0.33576,0.38577 -0.75071,0.57373 -1.23649,0.58087c-0.5715,0 -0.90153,-0.16689 -1.2873,-0.65267c-0.47864,-0.60723 -1.89138,-2.72947 -2.39145,-3.59388l-0.32908,-0.73446l-0.02635,2.44416l-0.02535,2.44994l-1.35803,0.06892l-1.28896,-0.0041l-0.00839,-4.03197c0,-4.172 0.00751,-4.16648 0.32184,-4.50939z" data-paper-data="{&quot;noHover&quot;:false,&quot;origItem&quot;:[&quot;Path&quot;,{&quot;applyMatrix&quot;:true,&quot;segments&quot;:[[[290.82135,173.72902],[0,0],[-0.31433,0.34291]],[[290.50702,178.20821],[0,-4.172],[0,0]],[290.50702,182.2159],[291.79291,182.2159],[293.0788,182.2159],[293.09309,179.75127],[293.11452,177.2795],[[293.54315,178.01532],[0,0],[0.50007,0.86441]],[[295.90062,181.56581],[-0.47864,-0.60723],[0.38577,0.48578]],[[297.17222,182.2159],[-0.5715,0],[0.48578,-0.00714]],[[298.39382,181.63725],[-0.33576,0.38577],[0.34291,-0.40005]],[[300.95132,177.77958],[-0.44292,0.78582],[0,0]],[301.28708,177.1795],[301.29422,179.69413],[301.29422,182.2159],[302.58011,182.2159],[303.866,182.2159],[303.85171,178.1582],[303.83028,174.09335],[[303.63025,173.83617],[0,0],[-0.33576,-0.43577]],[[302.15147,173.25752],[0.79297,0],[-0.5858,-0.00714]],[[301.07989,173.43612],[0.33576,-0.15717],[-0.55008,0.25718]],[[299.57968,175.08635],[0.60009,-1.00729],[-0.2929,0.48578]],[[298.11519,177.50811],[0.51436,-0.85011],[0,0]],[297.17935,179.05832],[[295.75058,176.68657],[0,0],[-0.77868,-1.30018]],[[294.01463,173.9862],[0.17145,0.18574],[-0.17145,-0.18574]],[[293.31453,173.45756],[0.21432,0.10001],[-0.80725,-0.40005]],[[290.82133,173.72902],[0.48578,-0.53578],[0,0]]],&quot;closed&quot;:true,&quot;fillColor&quot;:[1,0.78824,0.06275],&quot;strokeColor&quot;:[1,0.78039,0.06275],&quot;strokeWidth&quot;:0}]}" fill="#000000"/><path d="M252.95185,176.29366c1.25017,-0.00714 1.34304,0 1.47878,0.13573c0.14288,0.14288 0.15002,0.21432 0.12859,3.079c-0.02143,2.50749 -0.03572,2.93612 -0.12859,2.99327c-0.16431,0.10716 -2.95041,0.09287 -3.05756,-0.01429c-0.06429,-0.06429 -0.08573,-0.84297 -0.08573,-3.07185v-2.99327l0.16431,-0.06429c0.08573,-0.03572 0.75725,-0.06429 1.50021,-0.06429zM254.18059,176.67943l-1.26446,-0.02143l-1.2716,-0.01429v2.7861v2.7861h1.28589h1.28589l-0.01429,-2.77181z" fill="#ffc910"/><path d="M254.25202,179.44466l-0.01475,2.81665l-1.30684,0.0046l-1.30684,-0.0046l-0.02905,-2.8315l0.02905,-2.8315l1.2923,0.00969l1.28541,0.02591z" data-paper-data="{&quot;noHover&quot;:false,&quot;origItem&quot;:[&quot;Path&quot;,{&quot;applyMatrix&quot;:true,&quot;segments&quot;:[[254.18059,176.67943],[252.91613,176.658],[251.64453,176.64371],[251.64453,179.42981],[251.64453,182.21591],[252.93042,182.21591],[254.21631,182.21591],[254.20202,179.4441]],&quot;closed&quot;:true,&quot;fillColor&quot;:[1,0.78824,0.06275],&quot;strokeColor&quot;:[1,0.78039,0.06275],&quot;strokeWidth&quot;:0}]}" fill="#000000"/><path d="M289.24256,176.42225c0.10716,0.08573 0.12145,0.38577 0.12145,3.0147c0,2.55035 -0.01429,2.92898 -0.1143,3.02184c-0.09287,0.10002 -0.33576,0.1143 -1.55736,0.1143c-1.02871,0 -1.46449,-0.02143 -1.52878,-0.08573c-0.06429,-0.06429 -0.08573,-0.84297 -0.08573,-3.07185v-2.99327l0.16431,-0.06429c0.25718,-0.10716 2.86468,-0.05715 3.00041,0.06429zM289.00682,176.64371h-1.28589h-1.28589v2.7861v2.7861h1.28589h1.28589v-2.7861z" fill="#ffc910"/><path d="M289.05682,179.42981l-0.02905,2.8315l-1.30684,0.0046l-1.30684,-0.0046l-0.02905,-2.8315l0.02905,-2.8315l1.30684,-0.0046l1.30684,0.0046z" data-paper-data="{&quot;noHover&quot;:false,&quot;origItem&quot;:[&quot;Path&quot;,{&quot;applyMatrix&quot;:true,&quot;segments&quot;:[[289.00682,176.64371],[287.72093,176.64371],[286.43504,176.64371],[286.43504,179.42981],[286.43504,182.21591],[287.72093,182.21591],[289.00682,182.21591],[289.00682,179.42981]],&quot;closed&quot;:true,&quot;fillColor&quot;:[1,0.78824,0.06275],&quot;strokeColor&quot;:[1,0.78039,0.06275],&quot;strokeWidth&quot;:0}]}" fill="#000000"/></g></g></svg>