<svg version="1.1" xmlns="http://www.w3.org/2000/svg" xmlns:xlink="http://www.w3.org/1999/xlink" width="171.69439" height="56.50188" viewBox="-0.25,-0.25,171.69439,56.50188"><g transform="translate(-344.75,-195.74812)"><g data-paper-data="{&quot;isPaintingLayer&quot;:true}" fill-rule="nonzero" stroke="#ffc010" stroke-width="1" stroke-linecap="butt" stroke-linejoin="miter" stroke-miterlimit="10" stroke-dasharray="" stroke-dashoffset="0" style="mix-blend-mode: normal"><g><path d="M369.50859,196.00492c19.85166,-0.02985 19.46358,-0.0597 22.00101,2.20906c2.83595,2.53743 2.74639,1.97024 2.74639,18.15009v14.12005l-0.77615,1.55231c-0.71645,1.40305 -2.0598,2.89566 -3.28373,3.58225c-0.44778,0.26867 0,1.13438 3.85092,7.19436c2.41802,3.79122 4.38826,7.0451 4.38826,7.22421c0,0.20896 -0.20896,0.62689 -0.50749,0.92542c-0.44778,0.47763 -1.07468,0.53734 -7.01525,0.53734c-5.82116,0 -6.56746,-0.0597 -7.01525,-0.53734c-0.29852,-0.26867 -2.53743,-3.64196 -5.01516,-7.46303l-4.47782,-6.92569h-11.64232c-10.68706,0 -11.73188,-0.0597 -12.86626,-0.56719c-1.73142,-0.80601 -3.34344,-2.29861 -4.1793,-3.94048l-0.71645,-1.4329v-14.26931c0,-13.67227 0.02985,-14.26931 0.59704,-15.46339c1.07468,-2.20906 3.34344,-4.11959 5.52264,-4.65693c0.50749,-0.11941 8.77652,-0.20896 18.3889,-0.23882zM388.1363,197.61693l-17.91127,-0.0597c-9.8512,-0.02985 -18.3292,0.0597 -18.86654,0.17911c-1.52246,0.38808 -2.8658,1.31349 -3.82107,2.68669l-0.89556,1.28364l-0.08956,14.29916c-0.0597,13.64242 -0.0597,14.32901 0.50749,15.40369c0.29852,0.62689 0.95527,1.49261 1.4329,1.94039c1.79113,1.70157 2.00009,1.73142 14.92606,1.73142l11.88114,0.02985l4.77634,7.43318l4.77634,7.43318l5.91072,0.02985c3.22403,0 5.88087,-0.0597 5.88087,-0.14926c0,-0.08956 -2.08965,-3.40314 -4.65693,-7.37347c-4.56737,-7.07495 -4.83604,-7.67199 -3.52255,-7.70185c0.71645,0 2.8061,-1.85083 3.5524,-3.07477l0.77615,-1.34335l-0.08956,-14.26931l-0.08956,-14.29916l-0.86571,-1.28364c-0.47763,-0.71645 -1.49261,-1.64187 -2.23891,-2.08965z" fill="#ffc010"/><path d="M357.23937,207.61739h12.38863h12.38863v8.65711v8.65711h-0.7463c-0.62689,0 -1.16423,-0.65675 -3.46285,-4.1793l-2.71654,-4.1793h-5.79131c-3.19418,0 -5.79131,0.0597 -5.79131,0.14926c0,0.08956 1.04482,1.79113 2.32846,3.79122c1.28364,2.02994 2.44787,3.85092 2.56728,4.03004c0.17911,0.29852 -1.01497,0.38808 -5.46294,0.38808h-5.70175v-8.65711zM380.52402,209.11h-10.89602h-10.89602v7.16451v7.16451h3.43299c1.88068,0 3.43299,-0.08956 3.43299,-0.20896c0,-0.08956 -0.89556,-1.58216 -1.97024,-3.28373c-1.07468,-1.67172 -1.91054,-3.31358 -1.85083,-3.58225c0.20896,-1.07468 1.3732,-1.28364 7.31377,-1.28364c3.13447,0 6.05998,0.11941 6.50776,0.29852c0.50749,0.17911 1.49261,1.40305 2.83595,3.4927l2.08965,3.19418v-6.47791z" fill="#ffc010"/><path d="M406.01772,196.93034l5.97042,0.08956l0.38808,0.7463c0.29852,0.56719 0.38808,3.79122 0.38808,13.34389v12.62744h10.5975h10.5975v-12.62744c0,-9.55268 0.08956,-12.7767 0.38808,-13.34389l0.38808,-0.7463l5.73161,-0.08956c3.61211,-0.02985 5.97042,0.02985 6.32865,0.23882c0.59704,0.29852 0.59704,0.6866 0.59704,16.80674c0,15.37384 -0.0597,16.56792 -0.56719,17.7023c-0.80601,1.79113 -2.38817,3.40314 -4.05989,4.1793l-1.49261,0.71645h-17.91127c-17.37393,0 -17.94112,-0.02985 -19.25461,-0.62689c-1.73142,-0.77615 -3.16432,-2.14935 -4.05989,-3.91063l-0.71645,-1.40305v-16.53807c0,-12.59759 0.08956,-16.59778 0.35823,-16.86644c0.26867,-0.26867 1.94039,-0.35823 6.32865,-0.29852zM411.27169,198.36324h-5.22412c-4.08974,0 -5.28382,0.08956 -5.40323,0.38808c-0.08956,0.23882 -0.11941,7.46303 -0.0597,16.06044c0.08956,13.88123 0.14926,15.73206 0.59704,16.53807c0.65675,1.25379 1.97024,2.47773 3.28373,3.16432c1.04482,0.53734 2.00009,0.56719 18.80683,0.56719c16.47837,0 17.79186,-0.0597 18.89639,-0.56719c1.28364,-0.56719 2.98521,-2.32846 3.46285,-3.52255c0.14926,-0.41793 0.26867,-7.52273 0.26867,-16.68733v-15.94103h-5.22412h-5.22412v13.43345v13.43345h-12.09011h-12.09011v-13.43345z" fill="#ffc010"/><path d="M459.06493,196.87063c3.34344,0 5.91072,0.11941 6.26894,0.29852c0.53734,0.29852 0.56719,0.83586 0.56719,19.49343c0,14.53798 -0.08956,19.28447 -0.35823,19.55313c-0.26867,0.26867 -2.0598,0.35823 -6.23909,0.35823c-4.95545,0 -5.97042,-0.0597 -6.3585,-0.47763c-0.41793,-0.41793 -0.47763,-2.56728 -0.47763,-19.37402c0,-16.80674 0.0597,-18.95609 0.47763,-19.37402c0.38808,-0.38808 1.3732,-0.47763 6.11968,-0.47763zM464.40845,198.36324h-5.22412h-5.22412v18.35905v18.35905h5.22412h5.22412v-18.35905z" fill="#ffc010"/><path d="M493.06648,196.87063c16.92615,0 22.35923,0.08956 22.6279,0.35823c0.50749,0.50749 0.50749,11.61247 0,12.11996c-0.26867,0.26867 -2.50758,0.35823 -8.20933,0.35823h-7.85111v13.07523c0,9.76164 -0.08956,13.16478 -0.35823,13.43345c-0.26867,0.26867 -2.0598,0.35823 -6.23909,0.35823c-4.95545,0 -5.97042,-0.0597 -6.3585,-0.47763c-0.41793,-0.41793 -0.47763,-2.02994 -0.47763,-13.43345v-12.95582h-7.82125c-4.41811,0 -8.06007,-0.11941 -8.29889,-0.29852c-0.35823,-0.23882 -0.44778,-1.22394 -0.44778,-5.97042c0,-5.31368 0.02985,-5.76146 0.56719,-6.14954c0.50749,-0.35823 4.08974,-0.41793 22.86672,-0.41793zM514.70927,198.5125l-21.70249,-0.08956l-21.73234,-0.0597v4.9256v4.9256h8.20933h8.20933v13.43345v13.43345h5.22412h5.22412v-13.43345v-13.43345h8.35859h8.35859l-0.0597,-4.86589z" fill="#ffc010"/></g></g></g></svg>