<svg version="1.1" xmlns="http://www.w3.org/2000/svg" xmlns:xlink="http://www.w3.org/1999/xlink" width="538.67335" height="426.92492" viewBox="0,0,538.67335,426.92492"><g transform="translate(36.95357,33.46246)"><g data-paper-data="{&quot;isPaintingLayer&quot;:true}" fill-rule="nonzero" stroke-linecap="butt" stroke-linejoin="miter" stroke-miterlimit="10" stroke-dasharray="" stroke-dashoffset="0" style="mix-blend-mode: normal"><path d="M-14.5045,392.46246v-424.92492h509.00901v424.92492z" fill="#000000" stroke="#000000" stroke-width="2"/><g fill="#000000" stroke="#d00fff" stroke-width="4"><path d="M-27.08234,180.09263l11.72064,-17.89139l147.45965,96.60071l-11.72064,17.89139z"/><path d="M-34.18462,224.9294l57.09083,-87.14837l23.66279,15.50148l-57.09083,87.14837z"/><path d="M-17.3128,207.39301l30.88133,-47.13993l82.77645,59.91892l-25.66297,39.17418z"/><path d="M-27.18582,167.24005c12.07621,-18.43417 36.80976,-23.58831 55.24393,-11.5121c18.43417,12.07621 23.58831,36.80976 11.5121,55.24393c-12.07621,18.43417 -36.80976,23.58831 -55.24393,11.5121c-18.43417,-12.07621 -23.58831,-36.80976 -11.5121,-55.24393z"/></g><g fill="#000000" stroke="#ffc910" stroke-width="4"><path d="M126.56409,18.89676l28.22457,-24.48382l61.20954,70.56142l-28.22457,24.48382z"/><path d="M122.31351,-14.51358c15.23372,-13.21472 38.29575,-11.57799 51.51047,3.65574c13.21472,15.23372 11.57799,38.29575 -3.65574,51.51047c-15.23372,13.21472 -38.29575,11.57799 -51.51047,-3.65574c-13.21472,-15.23372 -11.57799,-38.29575 3.65574,-51.51047z"/></g><g fill="#000000" stroke="#22ff0f" stroke-width="4"><path d="M394.31428,43.74165l104.65016,65.25755l-17.71893,28.41493l-104.65016,-65.25755z"/><path d="M423.0857,68.46916l41.01336,25.57503l-63.93759,102.5334l-41.01336,-25.57503z"/><path d="M462.77366,50.49666c22.13625,13.80368 28.89114,42.93877 15.08745,65.07502c-13.80368,22.13625 -42.93877,28.89114 -65.07502,15.08745c-22.13625,-13.80368 -28.89114,-42.93877 -15.08745,-65.07502c13.80368,-22.13625 42.93877,-28.89114 65.07502,-15.08745z"/></g><g stroke="#b88f0b" stroke-width="3.5"><path d="M39.7069,153.37967c17.00057,-1.19513 16.69066,-1.19716 18.72957,0.35128c0.63112,0.50368 1.48356,1.44452 1.86387,2.10879l0.70482,1.21332l0.32725,5.67187c0.27724,4.96053 0.28816,5.79376 -0.06157,6.58083c-0.5061,1.27463 -1.87613,2.80061 -3.11485,3.48341c-0.98624,0.5459 -1.34021,0.5946 -11.58324,1.31468l-10.55127,0.74175l0.37171,5.2875c0.2667,3.7937 0.30558,5.36363 0.10717,5.59201c-0.33067,0.38067 -9.57448,1.07817 -10.14484,0.76084c-0.32157,-0.16801 -0.46901,-1.58732 -1.12521,-9.90479c-0.73953,-9.503 -0.73251,-9.74177 -0.29162,-10.24934c0.44089,-0.50756 0.7017,-0.5259 13.00755,-1.39099c12.40071,-0.87176 12.56669,-0.88343 12.53336,-1.35766c-0.03334,-0.47422 -0.19932,-0.46256 -12.69486,0.41587c-11.21518,0.78842 -12.71228,0.846 -13.06755,0.5374c-0.32991,-0.28657 -0.45604,-1.06403 -0.71274,-4.71548c-0.28503,-4.05454 -0.28467,-4.38815 0.13419,-4.87031c0.44089,-0.50756 0.74913,-0.52923 15.56832,-1.57101zM40.5523,154.55929c-8.44269,0.5697 -15.38824,1.08179 -15.47644,1.18328c-0.08816,0.10149 -0.03097,1.93223 0.11905,4.06621l0.2717,3.86486l13.04089,-0.91677l13.04089,-0.91677l0.11668,1.65975l0.11668,1.65975l-12.96642,0.9592l-12.98846,0.98456l0.57395,9.18106l0.59931,9.20309l4.26792,-0.30003l4.26792,-0.30003l-0.39171,-5.57201l-0.39004,-5.54831l11.32874,-0.86788l11.32874,-0.86788l0.94917,-0.73392c0.52035,-0.39401 1.20371,-1.18071 1.52104,-1.75107l0.59557,-1.01882l-0.31392,-5.48218c-0.24557,-4.51004 -0.39504,-5.61944 -0.75996,-6.40393c-0.47977,-1.06237 -1.65712,-2.21865 -2.78949,-2.73472c-0.68891,-0.309 -2.28084,-0.24475 -16.06179,0.65257z" fill="#ffc910"/><path d="M56.72296,153.78093c1.13237,0.51607 2.33161,1.6953 2.81139,2.75767c0.36491,0.78449 0.53951,1.93866 0.78508,6.44869l0.32421,5.53236l-0.59537,1.02871c-0.31733,0.57036 -1.00204,1.37637 -1.52239,1.77038l-0.95069,0.7436l-11.38835,0.96693l-11.28496,0.66121l0.34741,5.49597l0.21273,5.85006l-4.29432,0.28368l-4.28559,0.2846l-0.63512,-9.25701l-0.5851,-9.26566l13.01905,-1.06129l13.25014,-0.93455l-0.40257,-1.4914l-0.10344,-1.64311l-12.82047,0.9402l-12.97951,0.8323l-0.57724,-3.99324c-0.15002,-2.13398 -0.19328,-3.98671 -0.10512,-4.0882c0.08819,-0.10149 7.13706,-0.67751 15.57974,-1.24721c13.78095,-0.89732 15.51156,-0.92372 16.20047,-0.61472z" data-paper-data="{&quot;noHover&quot;:false,&quot;origItem&quot;:[&quot;Path&quot;,{&quot;applyMatrix&quot;:true,&quot;segments&quot;:[[[179.84892,173.22896],[4.15058,0.02143],[-2.54321,-0.00714]],[[175.18399,173.25753],[0.02858,-0.02857],[-0.02857,0.02857]],[[175.13398,174.47913],[0,-0.64295],[0,0]],[175.13398,175.64358],[179.06309,175.64358],[182.9922,175.64358],[182.9922,176.14365],[182.9922,176.64372],[179.08452,176.65801],[175.1697,176.67944],[175.14827,179.44411],[175.13398,182.21592],[176.41987,182.21592],[177.70576,182.21592],[177.70576,180.53712],[177.70576,178.86546],[181.12052,178.84403],[184.53528,178.8226],[[184.83532,178.62257],[0,0],[0.16431,-0.10716]],[[185.32825,178.12964],[-0.10716,0.16431],[0,0]],[185.52828,177.83674],[[185.54971,176.18651],[0,0],[0.02143,-1.35733]],[[185.45684,174.25053],[0.09287,0.24289],[-0.12145,-0.32862]],[[184.67816,173.37184],[0.32862,0.17859],[-0.20003,-0.10716]]],&quot;closed&quot;:true,&quot;fillColor&quot;:[1,0.78824,0.06275],&quot;strokeColor&quot;:[1,0.78039,0.06275],&quot;strokeWidth&quot;:0}]}" fill="#000000"/><path d="M87.66831,150.27011c3.37154,0.16807 5.17743,1.11336 6.62784,3.44184l0.72352,1.14052l0.99456,13.13074c0.72584,9.64692 0.92844,13.20687 0.73172,13.45898c-0.39013,0.55162 -9.71177,1.1593 -10.27006,0.67432c-0.30454,-0.26454 -0.44104,-0.85062 -0.55439,-2.46294l-0.14835,-2.11025l-6.52046,0.45839l-6.49673,0.45672l-1.61996,2.37752c-0.90917,1.30297 -1.82667,2.48737 -2.07748,2.64796c-0.27454,0.16226 -2.54407,0.41713 -5.79245,0.64549l-5.35863,0.37671l-0.42104,-0.56611c-0.23672,-0.31697 -0.33455,-0.69133 -0.25136,-0.86395c0.08316,-0.17265 4.44308,-6.96032 9.66138,-15.09509c9.38815,-14.57546 9.53913,-14.80055 10.84397,-15.55946c1.48619,-0.89081 2.95162,-1.39889 5.32808,-1.82805c2.35109,-0.45123 2.39848,-0.45456 4.59986,-0.32337zM80.17216,152.44119c-2.44128,0.86262 -2.1801,0.51069 -12.01783,15.80876c-5.09105,7.91135 -9.34238,14.54843 -9.45094,14.69902c-0.17301,0.25045 0.80413,0.25323 4.76382,-0.02513l4.97926,-0.35004l1.76928,-2.6263l1.79297,-2.62796l7.42145,-0.52172l7.44518,-0.52339l0.17502,2.48961l0.17502,2.48961l4.26792,-0.30003l4.26792,-0.30003l-0.86343,-12.28215c-0.98011,-13.94191 -0.94641,-13.80132 -2.8988,-15.47498c-0.76301,-0.68503 -1.45355,-1.01773 -2.37291,-1.21519c-2.46516,-0.49389 -6.84831,-0.13809 -9.4539,0.7599z" fill="#ffc910"/><path d="M80.21582,152.28065c2.6056,-0.89799 7.05442,-1.21865 9.51958,-0.72476c0.91936,0.19747 1.62434,0.54443 2.38735,1.22946c1.95239,1.67366 1.96085,1.65556 2.94096,15.59746l0.8342,12.36556l-4.28138,0.31696l-4.28897,0.31956l-0.39063,-2.74259l0.0645,-2.25943l-7.51866,0.57275l-7.53709,0.51795l-1.80013,2.62483l-1.77359,2.62423l-5.00906,0.33092c-3.95968,0.27836 -4.95587,0.25764 -4.78286,0.00719c0.10856,-0.15059 4.31845,-6.87568 9.4095,-14.78703c9.83773,-15.29807 9.78488,-15.13039 12.22615,-15.99301z" data-paper-data="{&quot;noHover&quot;:false,&quot;origItem&quot;:[&quot;Path&quot;,{&quot;applyMatrix&quot;:true,&quot;segments&quot;:[[[191.77199,173.42898],[0,0],[-0.7501,0.20717]],[[187.83573,177.91531],[3.27188,-4.37917],[-1.69309,2.2646]],[[184.69244,182.12303],[0.03572,-0.04286],[-0.05715,0.07144]],[[186.12121,182.2159],[-1.19302,0],[0,0]],[187.62142,182.2159],[188.20722,181.4658],[188.80016,180.7157],[191.03618,180.7157],[193.27935,180.7157],[193.27935,181.4658],[193.27935,182.2159],[194.56524,182.2159],[195.85113,182.2159],[[195.85113,178.51539],[0,0],[0,-4.20058]],[[195.3082,173.81474],[0.55007,0.54293],[-0.21432,-0.22146]],[[194.62239,173.4004],[0.27147,0.07858],[-0.72867,-0.20003]],[[191.772,173.42897],[0.80011,-0.21431],[0,0]]],&quot;closed&quot;:true,&quot;fillColor&quot;:[1,0.78824,0.06275],&quot;strokeColor&quot;:[1,0.78039,0.06275],&quot;strokeWidth&quot;:0}]}" fill="#000000"/><path d="M85.32469,160.65704c0.44346,0.20711 0.48883,0.51368 0.75886,4.35481l0.2917,4.14937l-4.76585,0.33504c-4.50504,0.3167 -4.76751,0.31134 -4.48595,-0.08973c1.8354,-2.70242 5.51248,-7.67888 6.07189,-8.19474c0.75782,-0.74428 1.34394,-0.88081 2.12934,-0.55478zM84.44295,161.67213c-0.21338,0.015 -1.67866,1.88126 -4.16,5.22484l-1.15164,1.58211l2.98754,-0.21002l2.98754,-0.21002l-0.22503,-3.20095c-0.12335,-1.75458 -0.31985,-3.19429 -0.43841,-3.18595z" fill="#ffc910"/><path d="M105.43467,148.78286c3.00793,-0.25912 5.13334,1.16413 20.78038,13.93196l1.66991,1.38376l-0.0211,-2.33366c0.00648,-1.26332 -0.18072,-4.9435 -0.40741,-8.16815c-0.39004,-5.54831 -0.38968,-5.88191 0.02045,-6.14903c0.27454,-0.16226 2.28326,-0.3988 4.91516,-0.58382c3.50919,-0.24669 4.58116,-0.25058 4.97887,-0.0164c0.45013,0.30197 0.5055,0.75079 1.46006,13.31245c0.66416,8.76963 0.94011,13.37286 0.80876,14.21605c-0.20323,1.51544 -1.07163,2.72024 -2.62065,3.73458c-0.98124,0.61703 -1.58605,0.82635 -3.14594,1.00749c-1.62939,0.20984 -2.06115,0.16871 -2.99384,-0.21844c-2.9216,-1.22429 -7.46658,-4.5266 -16.54713,-12.01359l-3.66809,-3.03038l0.45817,8.21225c0.39356,6.95392 0.41241,8.23928 0.11751,8.45063c-0.18135,0.13189 -2.44925,0.41047 -5.00999,0.59048c-3.91226,0.27503 -4.72175,0.28427 -5.05333,-0.02599c-0.35531,-0.30863 -0.51438,-1.89389 -1.35448,-13.84411c-1.03678,-14.74807 -1.04048,-14.46186 0.25509,-16.03027c0.70206,-0.8595 1.95614,-1.66251 3.1691,-2.0337c0.48959,-0.15356 1.47877,-0.31839 2.18844,-0.39213zM103.63448,150.29142c-1.65845,0.47401 -2.93662,1.6123 -3.34287,2.95139c-0.13432,0.46216 0.0959,5.09242 0.71096,13.84168l0.92344,13.13574l4.26792,-0.30003l4.26792,-0.30003l-0.65174,-9.27088l-0.65174,-9.27088l3.79498,3.14061c11.10739,9.20305 15.31047,12.38644 17.71578,13.38492c1.35076,0.57223 3.37451,0.5491 5.0026,-0.01807c1.20962,-0.41865 2.60171,-1.97 2.74178,-3.02828c0.06316,-0.45716 -0.32613,-6.67271 -0.87695,-13.83002l-1.00659,-12.96309l-4.12567,0.29003l-4.12567,0.29003l0.60931,9.34534l0.58395,9.32331l-4.54962,-3.70708c-11.90617,-9.71875 -14.95183,-12.03041 -16.84591,-12.87421c-1.05625,-0.44995 -3.15777,-0.51668 -4.44188,-0.14046z" fill="#ffc910"/><path d="M103.50931,150.18187c1.28412,-0.37622 3.4048,-0.32815 4.46105,0.1218c1.89408,0.8438 5.21088,3.26358 17.11705,12.98233l4.22497,3.6799l-0.56353,-9.18473l-0.55312,-9.29239l4.3143,-0.56272l4.14109,-0.27561l1.04921,13.04782c0.55082,7.1573 0.92197,13.48257 0.85881,13.93973c-0.14007,1.05828 -1.54976,2.63541 -2.75938,3.05406c-1.62808,0.56717 -3.67315,0.61171 -5.02391,0.03948c-2.4053,-0.99848 -6.88137,-4.30354 -17.98876,-13.50659l-3.46886,-3.10056l0.63001,9.13219l0.59537,9.21871l-4.45534,0.57341l-4.28382,0.28511l-0.96593,-13.22161c-0.61507,-8.74926 -0.82604,-13.48921 -0.69173,-13.95137c0.40625,-1.33909 1.70402,-2.505 3.36247,-2.97902z" data-paper-data="{&quot;noHover&quot;:false,&quot;origItem&quot;:[&quot;Path&quot;,{&quot;applyMatrix&quot;:true,&quot;segments&quot;:[[[198.85154,173.27896],[0,0],[-0.50721,0.10716]],[[197.78711,174.09336],[0.15002,-0.39291],[-0.05001,0.13573]],[[197.70853,178.25822],[0,-2.63608],[0,0]],[197.70853,182.21591],[198.99442,182.21591],[200.28031,182.21591],[200.28031,179.42267],[200.28031,176.62943],[[201.35189,177.651],[0,0],[3.13614,2.99327]],[[206.38115,182.03732],[-0.70009,-0.35005],[0.39291,0.20003]],[[207.88136,182.13734],[-0.50007,0.13573],[0.37148,-0.10002]],[[208.7672,181.28722],[-0.0643,0.31433],[0.02857,-0.13573]],[[208.79577,177.12236],[0.01429,2.15744],[0,0]],[208.7672,173.21468],[207.52417,173.21468],[206.28114,173.21468],[206.26685,176.02935],[206.24542,178.83688],[[204.95953,177.62957],[0,0],[-3.36475,-3.16472]],[[200.1803,173.4147],[0.55008,0.2929],[-0.30719,-0.15716]],[[198.85154,173.27897],[0.39292,-0.08573],[0,0]]],&quot;closed&quot;:true,&quot;fillColor&quot;:[1,0.78824,0.06275],&quot;strokeColor&quot;:[1,0.78039,0.06275],&quot;strokeWidth&quot;:0}]}" fill="#000000"/><path d="M159.21221,145.02613c16.64993,-1.099 16.76849,-1.10734 17.75358,-0.65236c1.30333,0.57557 2.75152,1.85577 3.43098,3.04705c0.51717,0.91675 0.57424,1.3893 1.33432,12.20138c0.73175,10.40898 0.74766,11.31334 0.40794,12.24269c-0.54183,1.44395 -1.59662,2.70949 -2.9235,3.49377l-1.18962,0.70316l-16.71606,1.17513c-10.14817,0.71341 -16.88871,1.09198 -17.1121,0.96469c-0.32157,-0.16801 -0.46735,-1.56362 -1.07241,-10.1706c-0.60507,-8.60701 -0.65598,-10.00925 -0.36108,-10.22061c0.52035,-0.39401 9.77087,-0.99665 10.15151,-0.66598c0.22838,0.19838 0.40456,1.68718 0.65125,5.19637l0.34671,4.93183l8.6544,-0.6084l8.6544,-0.6084l-0.40004,-5.69057l-0.40004,-5.69057l-13.6811,0.96177c-8.20391,0.57673 -13.85371,0.87862 -14.07713,0.75133c-0.29788,-0.16968 -0.45271,-1.01661 -0.7585,-4.68841c-0.37283,-4.28662 -0.3658,-4.5254 0.07509,-5.03296c0.46292,-0.53293 0.48662,-0.53459 17.23141,-1.64027zM158.69947,146.20594l-15.72022,1.10512l0.28336,4.03081l0.28336,4.03081l14.10786,-0.99178l14.10786,-0.99178l0.48339,6.87609l0.48339,6.87609l-9.95849,0.70008l-9.95849,0.70008l-0.36671,-5.21637l-0.36671,-5.21637l-4.14937,0.2917l-4.14937,0.2917l0.65007,9.24719l0.65007,9.24719l16.31296,-1.14679c15.24599,-1.07179 16.35706,-1.19756 17.20601,-1.66229c0.98791,-0.52217 2.24108,-2.01612 2.55377,-2.99121c0.09522,-0.34031 -0.16499,-5.39733 -0.60671,-11.68067c-0.77342,-11.00176 -0.77842,-11.07292 -1.37338,-12.0795c-0.72852,-1.21165 -2.27527,-2.19901 -3.71791,-2.38354c-0.57572,-0.05482 -8.12239,0.38038 -16.75476,0.96342z" fill="#ffc910"/><path d="M158.66018,146.04426c8.63237,-0.58304 16.32513,-0.98411 16.90085,-0.92929c1.44264,0.18453 3.01312,1.1963 3.74164,2.40796c0.59496,1.00657 0.63539,1.1694 1.40881,12.17117c0.44172,6.28335 0.68157,11.43226 0.58635,11.77256c-0.31269,0.97509 -1.58297,2.49426 -2.57088,3.01643c-0.84895,0.46474 -2.09836,0.65093 -17.34436,1.72272l-16.42415,1.09484l-0.68399,-9.30077l-0.66022,-9.32799l4.15071,-0.30066l4.47334,-0.21761l0.36827,5.13274l0.33488,5.15127l9.81691,-0.76214l9.82698,-0.61882l-0.50616,-6.77973l-0.44735,-6.78387l-13.88219,1.02394l-14.04417,0.90328l-0.59124,-4.15349l-0.27073,-4.05178l15.81677,-1.17072z" data-paper-data="{&quot;noHover&quot;:false,&quot;origItem&quot;:[&quot;Path&quot;,{&quot;applyMatrix&quot;:true,&quot;segments&quot;:[[215.44668,173.21467],[210.71031,173.21467],[210.71031,174.42912],[210.71031,175.64357],[214.96089,175.64357],[219.21147,175.64357],[219.21147,177.71528],[219.21147,179.78699],[216.21106,179.78699],[213.21065,179.78699],[213.21065,178.21534],[213.21065,176.64369],[211.96048,176.64369],[210.71031,176.64369],[210.71031,179.42979],[210.71031,182.21589],[[215.62527,182.21589],[0,0],[4.59349,0]],[[220.81884,182.08016],[-0.26432,0.12144],[0.30719,-0.13573]],[[221.64753,181.23719],[-0.1143,0.28575],[0.03572,-0.10002]],[[221.71182,177.72242],[0,1.89312],[0,-3.31474]],[[221.55466,174.07192],[0.15716,0.31432],[-0.19288,-0.37862]],[[220.49023,173.27895],[0.42863,0.08573],[-0.17145,-0.02857]],[[215.44668,173.21466],[2.60036,0.00714],[0,0]]],&quot;closed&quot;:true,&quot;fillColor&quot;:[1,0.78824,0.06275],&quot;strokeColor&quot;:[1,0.78039,0.06275],&quot;strokeWidth&quot;:0}]}" fill="#000000"/><path d="M203.73928,141.87209c11.56915,-0.83712 13.94357,-0.95641 14.98479,-0.71981c1.57287,0.34215 3.43746,1.78373 4.25714,3.27492c0.62536,1.0998 0.66906,1.38264 1.03577,6.59898c0.36671,5.21637 0.36301,5.50255 -0.10233,6.67899c-0.23954,0.66018 -0.88417,1.65863 -1.41821,2.19656c-1.79722,1.88959 -1.42118,1.81553 -13.03443,2.70341c-8.17688,0.62249 -10.55127,0.74175 -11.04383,0.51428l-0.61445,-0.26657l-0.36783,-4.21549c-0.25245,-2.91308 -0.28134,-4.34072 -0.10665,-4.56747c0.19505,-0.27581 1.70754,-0.45365 8.03832,-0.8987c7.63486,-0.53673 7.80081,-0.54839 7.76748,-1.02262c-0.03334,-0.47422 -0.19932,-0.46256 -8.56919,0.12584l-8.53585,0.60007l0.40004,5.69057l0.40004,5.69057l13.53881,-0.95177c8.86782,-0.6234 13.68776,-0.86695 14.006,-0.74633c0.44346,0.20711 0.48883,0.51368 0.7972,4.90016c0.23503,3.34321 0.26391,4.77085 0.0655,4.99926c-0.19838,0.22838 -4.27162,0.58624 -16.86204,1.47134l-16.6212,1.16846l-1.22553,-0.48571c-0.70928,-0.2599 -1.7094,-0.92826 -2.32345,-1.52843c-1.81847,-1.80222 -1.8572,-2.01393 -2.68062,-13.72703c-0.48005,-6.8287 -0.65526,-10.67649 -0.53261,-11.30464c0.40534,-2.03003 2.27738,-4.21083 4.18333,-4.89287c0.46422,-0.17559 6.28871,-0.70419 14.56375,-1.28592zM190.05337,144.12092c-0.11522,0.05576 -0.51162,0.17892 -0.88599,0.27672c-0.88599,0.27672 -2.39167,1.90757 -2.83328,3.08237c-0.34142,0.90563 -0.32381,1.83368 0.38293,11.88703l0.76675,10.90694l0.79801,1.18295c0.58663,0.88805 1.14495,1.373 2.10634,1.82964l1.28296,0.62466l16.31296,-1.14679l16.28927,-1.14513l-0.28336,-4.03081l-0.28336,-4.03081l-13.98933,0.98344l-13.98933,0.98344l-0.48339,-6.87609l-0.48339,-6.87609l9.72141,-0.68341l9.72141,-0.68341l0.11668,1.65975l0.11668,1.65975l-8.06166,0.56673l-8.06166,0.56673l0.25003,3.55662l0.25003,3.55662l10.40898,-0.73175c5.88025,-0.41338 10.66316,-0.84491 10.98676,-0.9868c0.87598,-0.41901 2.15955,-1.81977 2.61117,-2.85229c0.34476,-0.8582 0.35048,-1.45431 0.00878,-6.31502c-0.37671,-5.35863 -0.37671,-5.35863 -1.07486,-6.47712c-0.80135,-1.23038 -2.15171,-2.13622 -3.52656,-2.37314c-0.8195,-0.13301 -27.643,1.65734 -28.17499,1.88539z" fill="#ffc910"/><path d="M189.93149,144.00784c0.53198,-0.22805 27.58458,-2.03241 28.40408,-1.8994c1.37485,0.23693 2.74815,1.16637 3.5495,2.39675c0.69816,1.11849 0.72321,1.16226 1.09992,6.52089c0.34171,4.86071 0.34702,5.51134 0.00226,6.36954c-0.45161,1.03252 -1.73691,2.46322 -2.6129,2.88223c-0.3236,0.14189 -5.13908,0.65009 -11.01933,1.06347l-10.68044,0.72111l-0.27651,-3.63581l-0.23475,-3.63861l8.2718,-0.65155l8.15398,-0.47943l-0.40914,-1.50284l-0.10471,-1.64315l-9.58103,0.74395l-9.59089,0.60382l0.50715,6.77816l0.44624,6.78234l13.76302,-1.01296l13.92739,-0.89617l0.59127,4.15339l0.27073,4.05178l-16.39186,1.21211l-16.4528,1.11153l-1.29111,-0.63193c-0.96139,-0.45665 -1.53441,-0.95751 -2.12104,-1.84556l-0.80467,-1.19179l-0.79657,-10.99c-0.70675,-10.05335 -0.70344,-11.07569 -0.36201,-11.98132c0.44161,-1.1748 1.96605,-2.83245 2.85204,-3.10917c0.37437,-0.0978 0.77506,-0.22576 0.89029,-0.28153z" data-paper-data="{&quot;noHover&quot;:false,&quot;origItem&quot;:[&quot;Path&quot;,{&quot;applyMatrix&quot;:true,&quot;segments&quot;:[[[224.89084,173.25039],[0,0],[-0.03572,0.01429]],[[224.61938,173.31468],[0.1143,-0.02143],[-0.27146,0.06429]],[[223.70497,174.17909],[0.15716,-0.34291],[-0.12145,0.26432]],[[223.56924,177.75101],[0,-3.02899],[0,0]],[223.56924,181.03718],[[223.78356,181.40866],[0,0],[0.15716,0.27861]],[[224.3765,182.0016],[-0.27861,-0.15717],[0,0]],[224.74798,182.21592],[229.66294,182.21592],[234.57076,182.21592],[234.57076,181.00147],[234.57076,179.78702],[230.35589,179.78702],[226.14102,179.78702],[226.14102,177.71531],[226.14102,175.6436],[229.07,175.6436],[231.99898,175.6436],[231.99898,176.14367],[231.99898,176.64374],[229.57007,176.64374],[227.14116,176.64374],[227.14116,177.71532],[227.14116,178.7869],[[230.2773,178.7869],[0,0],[1.77167,0]],[[233.59204,178.72261],[-0.10001,0.03572],[0.27146,-0.10716]],[[234.43501,177.9225],[-0.15716,0.30004],[0.12145,-0.25003]],[[234.57074,176.02938],[0,1.46449],[0,-1.61451]],[[234.385,174.06482],[0.18574,0.35005],[-0.21432,-0.38577]],[[233.37772,173.279],[0.4072,0.10001],[-0.24289,-0.05715]],[[224.89084,173.25043],[0.1643,-0.05716],[0,0]]],&quot;closed&quot;:true,&quot;fillColor&quot;:[1,0.78824,0.06275],&quot;strokeColor&quot;:[1,0.78039,0.06275],&quot;strokeWidth&quot;:0}]}" fill="#000000"/><path d="M238.06127,140.31708c2.49683,0.94438 3.45246,1.99711 8.71764,9.44252c2.67149,3.76763 4.91194,6.8269 4.98306,6.8219c0.09316,-0.03036 0.93993,-1.54341 1.90392,-3.42209c6.57508,-12.9004 6.57508,-12.9004 9.27626,-14.4723c1.60142,-0.94654 1.81146,-1.00897 3.9708,-1.13696c1.82574,-0.12835 2.49628,-0.08019 3.5238,0.30033c1.34409,0.47737 2.91417,1.79667 3.36521,2.78958c0.42234,0.92341 2.27012,27.88584 1.93946,28.26651c-0.33067,0.38067 -9.57448,1.07817 -10.14484,0.76084c-0.32157,-0.16801 -0.46771,-1.22999 -0.93094,-6.46339l-0.56194,-6.29871l-2.9678,5.23632c-3.34959,5.9065 -4.50457,7.44121 -6.12432,8.12694c-2.24492,0.94415 -4.85773,0.72274 -6.42448,-0.54913c-1.18774,-0.96493 -5.08773,-5.59931 -7.20126,-8.54836l-1.95627,-2.74567l0.37226,6.31204c0.26967,4.17477 0.30946,6.4356 0.15848,6.66065c-0.19671,0.25211 -1.35354,0.40492 -5.07615,0.66661c-4.05454,0.28503 -4.86404,0.29428 -5.19561,-0.01599c-0.35531,-0.30863 -0.51105,-1.84647 -1.32947,-13.48844c-0.64674,-9.19976 -0.87731,-13.49641 -0.71724,-14.27015c0.32381,-1.83368 2.08364,-3.57769 4.25704,-4.18323c1.89223,-0.53811 4.44761,-0.45562 6.16237,0.21013zM232.12287,141.25874c-1.12146,0.31712 -2.38924,1.26406 -2.96608,2.21005l-0.49201,0.79707l0.87398,13.44898l0.87564,13.47268l4.29162,-0.3017l4.26792,-0.30003l-0.5884,-8.36986l-0.58673,-8.34617l1.88347,2.72694c2.28248,3.31841 6.84487,9.2406 8.54644,11.07485c1.54599,1.65457 2.50571,2.08748 4.35515,1.95747c2.27623,-0.16002 3.11352,-0.79074 4.97801,-3.75734c2.1631,-3.46413 5.46193,-9.41476 6.5128,-11.75227l0.88956,-1.92111l0.64952,8.22261l0.62749,8.24801l4.26792,-0.30003l4.26792,-0.30003l-1.00587,-13.63033l-1.0279,-13.60497l-0.99139,-0.88341c-1.29594,-1.14795 -2.26602,-1.38951 -4.87586,-1.22986c-1.87314,0.13168 -2.29493,0.23281 -3.43879,0.90893c-0.7558,0.43437 -1.6983,1.26315 -2.24441,1.96869c-0.52405,0.68018 -2.79979,4.91475 -5.08256,9.38809l-4.16836,8.15625l-5.37334,-7.62843c-2.94194,-4.22519 -5.83347,-8.07265 -6.41883,-8.60336c-0.58536,-0.53071 -1.6803,-1.19241 -2.43868,-1.4727c-1.49301,-0.56223 -3.97726,-0.64969 -5.58832,-0.17901z" fill="#ffc910"/><path d="M231.98609,141.16399c1.61105,-0.47068 4.11201,-0.40368 5.60502,0.15855c0.75837,0.2803 2.08891,1.17689 2.67426,1.7076c0.58536,0.53071 3.50126,4.34851 6.44319,8.5737l5.21867,7.3727l4.05436,-7.88523c2.28277,-4.47334 4.58875,-8.67918 5.1128,-9.35936c0.54611,-0.70555 1.69011,-1.79901 2.44591,-2.23339c1.14386,-0.67612 1.57777,-0.7667 3.4509,-0.89838c2.60984,-0.15966 3.59914,0.10387 4.89508,1.25182l0.99625,0.89041l1.05508,13.69405l0.98376,13.71531l-4.27716,0.31432l-4.52356,0.08829l-0.66103,-8.19598l-0.65885,-8.12939l-0.5599,1.88249c-1.05088,2.33751 -4.43692,8.4425 -6.60001,11.90662c-1.8645,2.9666 -2.76922,3.61684 -5.04545,3.77686c-1.84944,0.13001 -2.862,-0.30769 -4.40798,-1.96226c-1.70158,-1.83425 -6.387,-7.89158 -8.66948,-11.20999l-1.55311,-2.74272l0.56525,8.25358l0.54716,8.32183l-4.49124,0.54564l-4.30284,0.28875l-0.90927,-13.5525l-0.86047,-13.54056l0.49469,-0.80263c0.57684,-0.94599 1.85651,-1.91297 2.97798,-2.2301z" data-paper-data="{&quot;noHover&quot;:false,&quot;origItem&quot;:[&quot;Path&quot;,{&quot;applyMatrix&quot;:true,&quot;segments&quot;:[[[237.56402,173.27896],[0,0],[-0.34291,0.07144]],[[236.62818,173.87904],[0.19288,-0.27146],[0,0]],[236.46387,174.10764],[236.44244,178.1582],[236.42101,182.2159],[237.71404,182.2159],[238.99993,182.2159],[238.99993,179.69413],[238.99993,177.1795],[[239.50714,178.03676],[0,0],[0.61437,1.043]],[[241.83603,181.53724],[-0.47149,-0.58579],[0.42863,0.52864]],[[243.10049,182.2159],[-0.55722,0],[0.68581,0]],[[244.67214,181.19433],[-0.62152,0.85012],[0.72153,-0.99299]],[[246.87244,177.80815],[-0.36433,0.67866],[0,0]],[247.17963,177.25093],[247.20106,179.72984],[247.21535,182.2159],[248.50124,182.2159],[249.78713,182.2159],[249.77284,178.10819],[249.75141,174.00762],[[249.4728,173.72187],[0,0],[-0.36434,-0.37148]],[[248.03689,173.25038],[0.78582,0.00714],[-0.56436,0]],[[246.98675,173.45041],[0.35719,-0.1786],[-0.23575,0.1143]],[[246.27236,173.99334],[0.1786,-0.20002],[-0.17145,0.19288]],[[244.55069,176.70086],[0.77868,-1.29304],[0,0]],[243.12907,179.05833],[[241.67887,176.658],[0,0],[-0.79297,-1.32876]],[[239.93577,173.94334],[0.16431,0.17145],[-0.16431,-0.17145]],[[239.23567,173.45041],[0.22146,0.10002],[-0.43577,-0.20003]],[[237.56401,173.27896],[0.49293,-0.10716],[0,0]]],&quot;closed&quot;:true,&quot;fillColor&quot;:[1,0.78824,0.06275],&quot;strokeColor&quot;:[1,0.78039,0.06275],&quot;strokeWidth&quot;:0}]}" fill="#000000"/><path d="M282.97882,136.27777c5.97511,-0.42005 5.46921,-0.8372 5.87426,4.92449c0.25669,3.65145 0.24057,4.43891 -0.046,4.76882c-0.2849,0.35364 -1.08773,0.45771 -5.14228,0.74274c-3.41433,0.24003 -4.86571,0.27058 -5.09409,0.07216c-0.22838,-0.19838 -0.39956,-1.61605 -0.63458,-4.95926c-0.29503,-4.1968 -0.28261,-4.69805 0.08176,-4.93814c0.22711,-0.15892 2.2816,-0.42249 4.96093,-0.61085zM287.26731,137.28682l-4.2018,0.22391l-4.22383,0.24927l0.28336,4.03081l0.28336,4.03081l4.26792,-0.30003l4.26792,-0.30003l-0.32746,-3.98008z" fill="#ffc910"/><path d="M287.78288,141.23166l0.29004,4.09535l-4.38492,0.36052l-4.39223,0.25651l-0.33668,-4.14157l-0.24607,-4.14794l4.33886,-0.30962l4.32817,-0.18042z" data-paper-data="{&quot;noHover&quot;:false,&quot;origItem&quot;:[&quot;Path&quot;,{&quot;applyMatrix&quot;:true,&quot;segments&quot;:[[254.18059,173.25039],[252.91613,173.22896],[251.64453,173.21467],[251.64453,174.42912],[251.64453,175.64357],[252.93042,175.64357],[254.21631,175.64357],[254.20202,174.4434]],&quot;closed&quot;:true,&quot;fillColor&quot;:[1,0.78824,0.06275],&quot;strokeColor&quot;:[1,0.78039,0.06275],&quot;strokeWidth&quot;:0}]}" fill="#000000"/><path d="M311.4367,134.34867c12.83084,-0.85434 14.80216,-0.94529 15.01352,-0.65035c0.39401,0.52035 0.96331,9.29664 0.63265,9.67732c-0.19838,0.22838 -3.27577,0.51623 -12.42813,1.15964l-12.1636,0.8551l0.40004,5.69057l0.40004,5.69057l12.06874,-0.84843c10.66983,-0.75008 12.1195,-0.80433 12.47481,-0.49573c0.32991,0.28657 0.45604,1.06403 0.72607,4.90516c0.22669,3.22465 0.25391,4.62859 0.0555,4.85698c-0.19838,0.22838 -3.91598,0.56124 -15.32081,1.36299l-15.08001,1.06012l-1.22553,-0.48571c-0.66018,-0.23954 -1.65863,-0.88417 -2.19656,-1.41821c-1.88959,-1.79722 -1.81386,-1.39749 -2.71008,-13.12929c-0.52915,-6.84906 -0.74639,-10.956 -0.63374,-11.72644c0.29881,-2.18935 2.2761,-4.56817 4.35135,-5.21444c0.46589,-0.15189 7.50297,-0.71808 15.63575,-1.28981zM325.55177,134.4763l-14.39073,1.03548c-7.94143,0.58209 -14.76343,1.157 -15.15986,1.28017c-0.90972,0.27839 -2.14713,1.31851 -2.74603,2.28991c-0.83138,1.39279 -0.83249,2.39367 0.01205,13.39043c0.89122,11.66067 0.80879,11.16608 2.55485,12.61597c1.69697,1.42952 1.14829,1.42043 17.24787,0.28863l14.58208,-1.02511l-0.28336,-4.03081l-0.28336,-4.03081l-12.44814,0.8751l-12.44814,0.8751l-0.48339,-6.87609l-0.48339,-6.87609l12.44814,-0.8751l12.44814,-0.8751l-0.28336,-4.03081z" fill="#ffc910"/><path d="M325.9677,138.40663l0.00178,4.20527l-12.37651,0.94841l-12.23612,0.82557l0.51472,6.76669l0.43705,6.77215l12.23127,-0.89447l12.38747,-0.79248l0.58659,4.16416l0.26949,4.05177l-14.67868,1.08584c-16.09958,1.13179 -15.70167,1.09758 -17.39864,-0.33194c-1.74607,-1.44988 -1.71307,-1.05592 -2.60429,-12.71659c-0.84455,-10.99676 -0.81497,-12.11098 0.0164,-13.50377c0.5989,-0.97139 1.8551,-2.03412 2.76482,-2.31251c0.39643,-0.12316 7.35037,-0.74664 15.2918,-1.32873l14.4928,-0.98902z" data-paper-data="{&quot;noHover&quot;:false,&quot;origItem&quot;:[&quot;Path&quot;,{&quot;applyMatrix&quot;:true,&quot;segments&quot;:[[265.71789,173.21467],[[261.38158,173.22181],[0,0],[-2.39319,0.00714]],[[256.80952,173.2861],[0.12145,-0.02857],[-0.27861,0.06429]],[[255.93797,173.91476],[0.20003,-0.27861],[-0.27861,0.40005]],[[255.65936,177.9296],[-0.02143,-3.31474],[0.02143,3.51477]],[[256.15943,181.76584],[-0.49293,-0.47149],[0.47864,0.46435]],[[261.32443,182.2159],[-4.85067,0],[0,0]],[265.71789,182.2159],[265.71789,181.00145],[265.71789,179.787],[261.96737,179.787],[258.21685,179.787],[258.21685,177.71529],[258.21685,175.64358],[261.96737,175.64358],[265.71789,175.64358],[265.71789,174.42913]],&quot;closed&quot;:true,&quot;fillColor&quot;:[1,0.78824,0.06275],&quot;strokeColor&quot;:[1,0.78039,0.06275],&quot;strokeWidth&quot;:0}]}" fill="#000000"/><path d="M369.57538,130.26155l15.53387,-1.04436l1.03418,0.47534c1.54878,0.67745 2.63669,1.57789 3.36855,2.83701c0.64573,1.0507 0.68612,1.28611 1.13063,6.59231c0.49784,6.06493 0.46172,6.56786 -0.9087,8.42748c-0.75985,1.05418 -2.71566,2.38306 -3.61665,2.4464c-0.4268,0.03 -0.60981,0.13816 -0.52368,0.34658c0.0591,0.16265 3.88459,4.7546 8.48644,10.22126c5.25463,6.27858 8.36288,10.15847 8.38788,10.51413c0.07501,1.06697 -0.18247,1.13274 -5.61222,1.51445c-4.12567,0.29003 -5.22137,0.29558 -5.64444,0.03938c-0.27415,-0.17135 -4.56851,-4.99247 -9.52062,-10.6966c-4.95378,-5.72787 -9.19905,-10.52859 -9.42413,-10.67957c-0.30121,-0.21711 -1.22926,-0.19953 -3.59699,0.01458l-3.19595,0.29615l0.26149,5.41439c0.21854,4.46427 0.19203,5.44309 -0.07918,5.65278c-0.52035,0.39401 -9.77087,0.99665 -10.15151,0.66598c-0.43144,-0.37476 -1.80159,-19.86494 -1.42683,-20.29638c0.19838,-0.22838 3.41806,-0.52624 13.02088,-1.20131c12.59039,-0.8851 12.75638,-0.89677 12.72304,-1.37099c-0.03334,-0.47422 -0.19932,-0.46256 -12.78971,0.42254c-9.60282,0.67507 -12.8325,0.83064 -13.06089,0.63223c-0.32991,-0.28657 -1.04317,-9.07656 -0.76823,-9.57246c0.08482,-0.14892 0.30863,-0.35531 0.49328,-0.43977c0.18468,-0.08446 7.34198,-0.63528 15.8795,-1.21162zM369.1321,131.41262l-14.89032,1.04678l0.28336,4.03081l0.28336,4.03081l13.04089,-0.91677l13.04089,-0.91677l0.11668,1.65975l0.11668,1.65975l-13.04089,0.91677l-13.04089,0.91677l0.65007,9.24719l0.65007,9.24719l4.26792,-0.30003l4.26792,-0.30003l-0.39004,-5.54831c-0.37838,-5.38233 -0.36635,-5.54998 0.07585,-5.70021c0.27954,-0.09113 2.22047,-0.27524 4.33239,-0.39986l3.84446,-0.2226l9.48656,10.88962l9.46283,10.89129l4.81828,-0.26724c3.84446,-0.2226 4.76585,-0.33504 4.60692,-0.56215c-0.13022,-0.15765 -4.2399,-5.0632 -9.13089,-10.91462c-4.91472,-5.84975 -8.92121,-10.64345 -8.92454,-10.69084c-0.00333,-0.04743 0.72837,-0.1465 1.65142,-0.23524c2.50835,-0.24781 4.15922,-1.50763 4.91185,-3.68121c0.31436,-0.95139 -0.26292,-10.17984 -0.73563,-11.48099c-0.50144,-1.37061 -2.17802,-2.84919 -3.63066,-3.17597c-1.04125,-0.23656 -3.48677,-0.11231 -16.12459,0.77612z" fill="#ffc910"/><path d="M369.06756,131.25929c12.63782,-0.88843 15.20392,-1.01596 16.24517,-0.7794c1.45264,0.32678 3.16119,1.82083 3.66263,3.19144c0.47271,1.30115 1.1082,10.59145 0.79385,11.54284c-0.75264,2.17359 -2.70434,3.57416 -5.21269,3.82197c-0.92305,0.08874 -1.34993,0.05487 -1.3466,0.1023c0.00333,0.0474 4.00419,4.99492 8.91891,10.84467c4.89099,5.85142 8.98515,10.77964 9.11537,10.93729c0.15892,0.22711 -0.77634,0.35463 -4.62081,0.57723l-4.83767,0.28322l-9.4837,-10.87878l-9.71679,-11.09774l-3.52572,0.31333c-2.11192,0.12462 -4.05067,0.29367 -4.33021,0.3848c-0.44219,0.15023 -0.46204,0.24895 -0.08366,5.63128l0.36359,5.49897l-4.5418,0.48789l-4.27443,0.28812l-0.66703,-9.311l-0.64103,-9.3121l13.07549,-0.97447l13.21848,-0.96111l-0.21819,-1.34302l-0.10981,-1.65794l-12.8967,0.88445l-12.99625,0.86083l-0.57157,-4.19574l-0.27292,-4.04499l14.95425,-1.0944z" data-paper-data="{&quot;noHover&quot;:false,&quot;origItem&quot;:[&quot;Path&quot;,{&quot;applyMatrix&quot;:true,&quot;segments&quot;:[[278.84828,173.21467],[274.36195,173.21467],[274.36195,174.42912],[274.36195,175.64357],[278.29106,175.64357],[282.22017,175.64357],[282.22017,176.14364],[282.22017,176.64371],[278.29106,176.64371],[274.36195,176.64371],[274.36195,179.42981],[274.36195,182.21591],[275.64784,182.21591],[276.93373,182.21591],[[276.93373,180.54425],[0,0],[0,-1.62165]],[[277.07661,178.83687],[-0.13574,0.03572],[0.08573,-0.02143]],[[278.38393,178.8083],[-0.6358,-0.00715],[0,0]],[279.54123,178.82259],[282.15588,182.28735],[284.76338,185.75211],[[286.21358,185.77354],[0,0],[1.1573,0.01429]],[[287.60663,185.7021],[0.04286,0.07144],[-0.03572,-0.05001]],[[285.09914,182.23734],[1.34304,1.8574],[-1.35019,-1.8574]],[[282.6488,178.84402],[0,0.01428],[0,-0.01429]],[[283.14887,178.8083],[-0.27861,0.00715],[0.75725,-0.02143]],[[284.69908,177.80816],[-0.27146,0.6358],[0.1143,-0.27861]],[[284.72051,174.35054],[0.1143,0.40006],[-0.12145,-0.42149]],[[283.69894,173.32183],[0.42863,0.12859],[-0.30719,-0.09287]],[[278.84827,173.21467],[3.80767,0],[0,0]]],&quot;closed&quot;:true,&quot;fillColor&quot;:[1,0.78824,0.06275],&quot;strokeColor&quot;:[1,0.78039,0.06275],&quot;strokeWidth&quot;:0}]}" fill="#000000"/><path d="M398.4991,128.18056c3.62608,-0.27873 4.50837,-0.26927 4.95684,0.00896c0.52293,0.32066 0.55496,0.43756 0.86166,4.8003c0.26336,3.7463 0.24724,4.53373 -0.03933,4.86364c-0.2849,0.35364 -1.08773,0.45771 -5.14228,0.74274c-3.41433,0.24003 -4.86571,0.27058 -5.09409,0.07216c-0.22838,-0.19838 -0.39956,-1.61605 -0.63458,-4.95926c-0.32837,-4.67102 -0.3317,-4.71842 0.19865,-4.97017c0.27621,-0.13856 2.47461,-0.3884 4.89313,-0.55842zM402.84873,129.04236l-4.26792,0.30003l-4.26792,0.30003l0.28336,4.03081l0.28336,4.03081l4.26792,-0.30003l4.26792,-0.30003l-0.28336,-4.03081z" fill="#ffc910"/><path d="M403.29805,133.0615l0.24607,4.14794l-4.38492,0.36052l-4.39223,0.25651l-0.33668,-4.14157l-0.24607,-4.14794l4.38492,-0.36052l4.39223,-0.25651z" data-paper-data="{&quot;noHover&quot;:false,&quot;origItem&quot;:[&quot;Path&quot;,{&quot;applyMatrix&quot;:true,&quot;segments&quot;:[[289.00682,173.21467],[287.72093,173.21467],[286.43504,173.21467],[286.43504,174.42912],[286.43504,175.64357],[287.72093,175.64357],[289.00682,175.64357],[289.00682,174.42912]],&quot;closed&quot;:true,&quot;fillColor&quot;:[1,0.78824,0.06275],&quot;strokeColor&quot;:[1,0.78039,0.06275],&quot;strokeWidth&quot;:0}]}" fill="#000000"/><path d="M414.05836,127.15823c1.54453,-0.06092 2.21844,0.03467 3.34745,0.50334c2.82007,1.1361 3.20741,1.56162 9.79813,10.91538l3.9446,5.60819l1.88892,-3.63548c1.05051,-2.00391 2.79182,-5.3669 3.85939,-7.46734c2.24201,-4.37515 3.42072,-5.9115 5.52709,-7.13186c1.37263,-0.81135 1.65384,-0.87875 3.85892,-1.03376c2.11025,-0.14835 2.51835,-0.10556 3.76924,0.40221c1.57084,0.65205 2.81931,1.80334 3.26333,3.03502c0.17726,0.48792 0.67549,6.21925 1.23222,14.13862c0.82843,11.78423 0.89101,13.35246 0.58241,13.70776c-0.2849,0.35364 -1.08773,0.45771 -5.14228,0.74274c-3.41433,0.24003 -4.86571,0.27058 -5.09409,0.07216c-0.22838,-0.19838 -0.42622,-1.99542 -0.75293,-6.64271l-0.44838,-6.37817l-2.96947,5.21262c-3.47684,6.12991 -4.71668,7.81355 -6.24491,8.44518c-1.96708,0.82929 -4.52246,0.74683 -6.08957,-0.19143c-0.92063,-0.55481 -5.04567,-5.34017 -7.45004,-8.69767l-2.00703,-2.78973l0.32483,6.31538c0.27522,5.27044 0.28073,6.36614 -0.01417,6.57749c-0.52035,0.39401 -9.77087,0.99665 -10.15151,0.66598c-0.22838,-0.19838 -0.54124,-3.63144 -1.26799,-13.96933c-0.9251,-13.15944 -0.94308,-13.75389 -0.55422,-14.66285c0.63336,-1.49801 2.13864,-2.79525 3.97844,-3.40113c0.48959,-0.15356 1.74124,-0.31303 2.81158,-0.34061zM408.99125,130.32613c-0.96326,1.21147 -0.9716,1.09292 0.00184,14.93997l0.9351,13.3017l4.26792,-0.30003l4.26792,-0.30003l-0.52764,-8.18355l-0.5056,-8.20891l1.59433,2.34221c1.86144,2.75233 6.92266,9.33042 8.65297,11.23417c1.39373,1.52231 2.47535,1.99432 4.37218,1.86098c1.61066,-0.13704 2.89514,-0.84687 3.91953,-2.2056c1.04479,-1.40779 6.30164,-10.68899 7.58835,-13.40051l0.97439,-2.07003l0.61043,8.3445l0.5884,8.36986l4.26792,-0.30003l4.26792,-0.30003l-0.9942,-13.46435l-1.01957,-13.48641l-0.72392,-0.80692c-1.21608,-1.368 -2.41125,-1.76055 -5.04315,-1.57552c-1.94596,0.11299 -2.43722,0.24281 -3.51495,0.84281c-1.76573,0.98194 -2.83752,2.34397 -4.59422,5.82722c-0.8588,1.68067 -2.78681,5.43807 -4.29564,8.37963l-2.74439,5.36357l-5.29554,-7.53857c-2.88784,-4.13367 -5.77937,-7.98112 -6.39176,-8.5576c-0.61239,-0.57648 -1.71234,-1.3093 -2.44701,-1.59123c-2.77264,-1.13943 -6.72439,-0.4089 -8.2117,1.48272z" fill="#ffc910"/><path d="M408.84439,130.24786c1.48731,-1.89162 5.46563,-2.65887 8.23827,-1.51944c0.73467,0.28193 2.07114,1.24868 2.68353,1.82516c0.61239,0.57648 3.52906,4.39251 6.4169,8.52618l5.1433,7.28504l2.59603,-5.14911c1.50883,-2.94157 3.49305,-6.61673 4.35186,-8.29739c1.7567,-3.48326 3.03439,-5.10665 4.80012,-6.08859c1.07773,-0.6 1.58164,-0.71877 3.5276,-0.83176c2.6319,-0.18502 3.84757,0.23147 5.06364,1.59947l0.72787,0.81281l1.04587,13.57539l0.97204,13.54809l-4.27716,0.31436l-4.52344,0.08812l-0.62247,-8.31657l-0.61879,-8.24989l-0.64529,2.02765c-1.28672,2.71152 -6.64963,12.15694 -7.69442,13.56473c-1.02439,1.35873 -2.35777,2.0794 -3.96843,2.21644c-1.89683,0.13335 -3.03116,-0.34356 -4.42489,-1.86588c-1.73031,-1.90374 -6.91443,-8.61792 -8.77588,-11.37025l-1.2636,-2.36092l0.48283,8.11842l0.4875,8.13737l-4.49128,0.54561l-4.27907,0.28714l-0.96861,-13.38032c-0.97344,-13.84705 -0.94723,-13.83048 0.01604,-15.04195z" data-paper-data="{&quot;noHover&quot;:false,&quot;origItem&quot;:[&quot;Path&quot;,{&quot;applyMatrix&quot;:true,&quot;segments&quot;:[[[290.82135,173.72902],[0,0],[-0.31433,0.34291]],[[290.50702,178.20821],[0,-4.172],[0,0]],[290.50702,182.2159],[291.79291,182.2159],[293.0788,182.2159],[293.09309,179.75127],[293.11452,177.2795],[[293.54315,178.01532],[0,0],[0.50007,0.86441]],[[295.90062,181.56581],[-0.47864,-0.60723],[0.38577,0.48578]],[[297.17222,182.2159],[-0.5715,0],[0.48578,-0.00714]],[[298.39382,181.63725],[-0.33576,0.38577],[0.34291,-0.40005]],[[300.95132,177.77958],[-0.44292,0.78582],[0,0]],[301.28708,177.1795],[301.29422,179.69413],[301.29422,182.2159],[302.58011,182.2159],[303.866,182.2159],[303.85171,178.1582],[303.83028,174.09335],[[303.63025,173.83617],[0,0],[-0.33576,-0.43577]],[[302.15147,173.25752],[0.79297,0],[-0.5858,-0.00714]],[[301.07989,173.43612],[0.33576,-0.15717],[-0.55008,0.25718]],[[299.57968,175.08635],[0.60009,-1.00729],[-0.2929,0.48578]],[[298.11519,177.50811],[0.51436,-0.85011],[0,0]],[297.17935,179.05832],[[295.75058,176.68657],[0,0],[-0.77868,-1.30018]],[[294.01463,173.9862],[0.17145,0.18574],[-0.17145,-0.18574]],[[293.31453,173.45756],[0.21432,0.10001],[-0.80725,-0.40005]],[[290.82133,173.72902],[0.48578,-0.53578],[0,0]]],&quot;closed&quot;:true,&quot;fillColor&quot;:[1,0.78824,0.06275],&quot;strokeColor&quot;:[1,0.78039,0.06275],&quot;strokeWidth&quot;:0}]}" fill="#000000"/><path d="M283.89914,147.67426c4.1477,-0.3154 4.45761,-0.31337 4.9398,0.10545c0.50756,0.44089 0.54793,0.67633 1.14521,10.18933c0.51394,8.32747 0.56652,9.75344 0.27162,9.9648c-0.52035,0.39401 -9.77087,0.99665 -10.15151,0.66598c-0.22838,-0.19838 -0.48123,-2.77785 -1.00129,-10.1756l-0.69841,-9.93479l0.53035,-0.25172c0.27621,-0.13856 2.49834,-0.39007 4.96426,-0.56342zM288.06739,148.66795l-4.2018,0.22391l-4.22383,0.24927l0.65007,9.24719l0.65007,9.24719l4.26792,-0.30003l4.26792,-0.30003l-0.69417,-9.19642z" fill="#ffc910"/><path d="M288.94968,157.8292l0.60825,9.35202l-4.33638,0.32019l-4.33853,0.28965l-0.75708,-9.39109l-0.56425,-9.40465l4.29146,-0.26937l4.27238,-0.21392z" data-paper-data="{&quot;noHover&quot;:false,&quot;origItem&quot;:[&quot;Path&quot;,{&quot;applyMatrix&quot;:true,&quot;segments&quot;:[[254.18059,176.67943],[252.91613,176.658],[251.64453,176.64371],[251.64453,179.42981],[251.64453,182.21591],[252.93042,182.21591],[254.21631,182.21591],[254.20202,179.4441]],&quot;closed&quot;:true,&quot;fillColor&quot;:[1,0.78824,0.06275],&quot;strokeColor&quot;:[1,0.78039,0.06275],&quot;strokeWidth&quot;:0}]}" fill="#000000"/><path d="M404.37958,139.63345c0.37567,0.25954 0.49311,1.25205 1.10651,9.97758c0.59507,8.46472 0.63598,9.72474 0.32571,10.05629c-0.2849,0.35364 -1.08773,0.45771 -5.14228,0.74274c-3.41433,0.24003 -4.86571,0.27058 -5.09409,0.07216c-0.22838,-0.19838 -0.48123,-2.77785 -1.00129,-10.1756l-0.69841,-9.93479l0.53035,-0.25172c0.82859,-0.41568 9.49466,-0.85809 9.97349,-0.4867zM403.64882,140.42349l-4.26792,0.30003l-4.26792,0.30003l0.65007,9.24719l0.65007,9.24719l4.26792,-0.30003l4.26792,-0.30003l-0.65007,-9.24719z" fill="#ffc910"/><path d="M404.46485,149.65901l0.56425,9.40465l-4.33638,0.32019l-4.33853,0.28965l-0.75708,-9.39109l-0.56425,-9.40465l4.33638,-0.32019l4.33853,-0.28965z" data-paper-data="{&quot;noHover&quot;:false,&quot;origItem&quot;:[&quot;Path&quot;,{&quot;applyMatrix&quot;:true,&quot;segments&quot;:[[289.00682,176.64371],[287.72093,176.64371],[286.43504,176.64371],[286.43504,179.42981],[286.43504,182.21591],[287.72093,182.21591],[289.00682,182.21591],[289.00682,179.42981]],&quot;closed&quot;:true,&quot;fillColor&quot;:[1,0.78824,0.06275],&quot;strokeColor&quot;:[1,0.78039,0.06275],&quot;strokeWidth&quot;:0}]}" fill="#000000"/></g><g stroke="#ffc910" stroke-width="2"><path d="M39.7069,150.37967c17.00057,-1.19513 16.69066,-1.19716 18.72957,0.35128c0.63112,0.50368 1.48356,1.44452 1.86387,2.10879l0.70482,1.21332l0.32725,5.67187c0.27724,4.96053 0.28816,5.79376 -0.06157,6.58083c-0.5061,1.27463 -1.87613,2.80061 -3.11485,3.48341c-0.98624,0.5459 -1.34021,0.5946 -11.58324,1.31468l-10.55127,0.74175l0.37171,5.2875c0.2667,3.7937 0.30558,5.36363 0.10717,5.59201c-0.33067,0.38067 -9.57448,1.07817 -10.14484,0.76084c-0.32157,-0.16801 -0.46901,-1.58732 -1.12521,-9.90479c-0.73953,-9.503 -0.73251,-9.74177 -0.29162,-10.24934c0.44089,-0.50756 0.7017,-0.5259 13.00755,-1.39099c12.40071,-0.87176 12.56669,-0.88343 12.53336,-1.35766c-0.03334,-0.47422 -0.19932,-0.46256 -12.69486,0.41587c-11.21518,0.78842 -12.71228,0.846 -13.06755,0.5374c-0.32991,-0.28657 -0.45604,-1.06403 -0.71274,-4.71548c-0.28503,-4.05454 -0.28467,-4.38815 0.13419,-4.87031c0.44089,-0.50756 0.74913,-0.52923 15.56832,-1.57101zM40.5523,151.55929c-8.44269,0.5697 -15.38824,1.08179 -15.47644,1.18328c-0.08816,0.10149 -0.03097,1.93223 0.11905,4.06621l0.2717,3.86486l13.04089,-0.91677l13.04089,-0.91677l0.11668,1.65975l0.11668,1.65975l-12.96642,0.9592l-12.98846,0.98456l0.57395,9.18106l0.59931,9.20309l4.26792,-0.30003l4.26792,-0.30003l-0.39171,-5.57201l-0.39004,-5.54831l11.32874,-0.86788l11.32874,-0.86788l0.94917,-0.73392c0.52035,-0.39401 1.20371,-1.18071 1.52104,-1.75107l0.59557,-1.01882l-0.31392,-5.48218c-0.24557,-4.51004 -0.39504,-5.61944 -0.75996,-6.40393c-0.47977,-1.06237 -1.65712,-2.21865 -2.78949,-2.73472c-0.68891,-0.309 -2.28084,-0.24475 -16.06179,0.65257z" fill="#ffc910"/><path d="M56.72296,150.78093c1.13237,0.51607 2.33161,1.6953 2.81139,2.75767c0.36491,0.78449 0.53951,1.93866 0.78508,6.44869l0.32421,5.53236l-0.59537,1.02871c-0.31733,0.57036 -1.00204,1.37637 -1.52239,1.77038l-0.95069,0.7436l-11.38835,0.96693l-11.28496,0.66121l0.34741,5.49597l0.21273,5.85006l-4.29432,0.28368l-4.28559,0.2846l-0.63512,-9.25701l-0.5851,-9.26566l13.01905,-1.06129l13.25014,-0.93455l-0.40257,-1.4914l-0.10344,-1.64311l-12.82047,0.9402l-12.97951,0.8323l-0.57724,-3.99324c-0.15002,-2.13398 -0.19328,-3.98671 -0.10512,-4.0882c0.08819,-0.10149 7.13706,-0.67751 15.57974,-1.24721c13.78095,-0.89732 15.51156,-0.92372 16.20047,-0.61472z" data-paper-data="{&quot;noHover&quot;:false,&quot;origItem&quot;:[&quot;Path&quot;,{&quot;applyMatrix&quot;:true,&quot;segments&quot;:[[[179.84892,173.22896],[4.15058,0.02143],[-2.54321,-0.00714]],[[175.18399,173.25753],[0.02858,-0.02857],[-0.02857,0.02857]],[[175.13398,174.47913],[0,-0.64295],[0,0]],[175.13398,175.64358],[179.06309,175.64358],[182.9922,175.64358],[182.9922,176.14365],[182.9922,176.64372],[179.08452,176.65801],[175.1697,176.67944],[175.14827,179.44411],[175.13398,182.21592],[176.41987,182.21592],[177.70576,182.21592],[177.70576,180.53712],[177.70576,178.86546],[181.12052,178.84403],[184.53528,178.8226],[[184.83532,178.62257],[0,0],[0.16431,-0.10716]],[[185.32825,178.12964],[-0.10716,0.16431],[0,0]],[185.52828,177.83674],[[185.54971,176.18651],[0,0],[0.02143,-1.35733]],[[185.45684,174.25053],[0.09287,0.24289],[-0.12145,-0.32862]],[[184.67816,173.37184],[0.32862,0.17859],[-0.20003,-0.10716]]],&quot;closed&quot;:true,&quot;fillColor&quot;:[1,0.78824,0.06275],&quot;strokeColor&quot;:[1,0.78039,0.06275],&quot;strokeWidth&quot;:0}]}" fill="#000000"/><path d="M87.66831,147.27011c3.37154,0.16807 5.17743,1.11336 6.62784,3.44184l0.72352,1.14052l0.99456,13.13074c0.72584,9.64692 0.92844,13.20687 0.73172,13.45898c-0.39013,0.55162 -9.71177,1.1593 -10.27006,0.67432c-0.30454,-0.26454 -0.44104,-0.85062 -0.55439,-2.46294l-0.14835,-2.11025l-6.52046,0.45839l-6.49673,0.45672l-1.61996,2.37752c-0.90917,1.30297 -1.82667,2.48737 -2.07748,2.64796c-0.27454,0.16226 -2.54407,0.41713 -5.79245,0.64549l-5.35863,0.37671l-0.42104,-0.56611c-0.23672,-0.31697 -0.33455,-0.69133 -0.25136,-0.86395c0.08316,-0.17265 4.44308,-6.96032 9.66138,-15.09509c9.38815,-14.57546 9.53913,-14.80055 10.84397,-15.55946c1.48619,-0.89081 2.95162,-1.39889 5.32808,-1.82805c2.35109,-0.45123 2.39848,-0.45456 4.59986,-0.32337zM80.17216,149.44119c-2.44128,0.86262 -2.1801,0.51069 -12.01783,15.80876c-5.09105,7.91135 -9.34238,14.54843 -9.45094,14.69902c-0.17301,0.25045 0.80413,0.25323 4.76382,-0.02513l4.97926,-0.35004l1.76928,-2.6263l1.79297,-2.62796l7.42145,-0.52172l7.44518,-0.52339l0.17502,2.48961l0.17502,2.48961l4.26792,-0.30003l4.26792,-0.30003l-0.86343,-12.28215c-0.98011,-13.94191 -0.94641,-13.80132 -2.8988,-15.47498c-0.76301,-0.68503 -1.45355,-1.01773 -2.37291,-1.21519c-2.46516,-0.49389 -6.84831,-0.13809 -9.4539,0.7599z" fill="#ffc910"/><path d="M80.21582,149.28065c2.6056,-0.89799 7.05442,-1.21865 9.51958,-0.72476c0.91936,0.19747 1.62434,0.54443 2.38735,1.22946c1.95239,1.67366 1.96085,1.65556 2.94096,15.59746l0.8342,12.36556l-4.28138,0.31696l-4.28897,0.31956l-0.39063,-2.74259l0.0645,-2.25943l-7.51866,0.57275l-7.53709,0.51795l-1.80013,2.62483l-1.77359,2.62423l-5.00906,0.33092c-3.95968,0.27836 -4.95587,0.25764 -4.78286,0.00719c0.10856,-0.15059 4.31845,-6.87568 9.4095,-14.78703c9.83773,-15.29807 9.78488,-15.13039 12.22615,-15.99301z" data-paper-data="{&quot;noHover&quot;:false,&quot;origItem&quot;:[&quot;Path&quot;,{&quot;applyMatrix&quot;:true,&quot;segments&quot;:[[[191.77199,173.42898],[0,0],[-0.7501,0.20717]],[[187.83573,177.91531],[3.27188,-4.37917],[-1.69309,2.2646]],[[184.69244,182.12303],[0.03572,-0.04286],[-0.05715,0.07144]],[[186.12121,182.2159],[-1.19302,0],[0,0]],[187.62142,182.2159],[188.20722,181.4658],[188.80016,180.7157],[191.03618,180.7157],[193.27935,180.7157],[193.27935,181.4658],[193.27935,182.2159],[194.56524,182.2159],[195.85113,182.2159],[[195.85113,178.51539],[0,0],[0,-4.20058]],[[195.3082,173.81474],[0.55007,0.54293],[-0.21432,-0.22146]],[[194.62239,173.4004],[0.27147,0.07858],[-0.72867,-0.20003]],[[191.772,173.42897],[0.80011,-0.21431],[0,0]]],&quot;closed&quot;:true,&quot;fillColor&quot;:[1,0.78824,0.06275],&quot;strokeColor&quot;:[1,0.78039,0.06275],&quot;strokeWidth&quot;:0}]}" fill="#000000"/><path d="M85.32469,157.65704c0.44346,0.20711 0.48883,0.51368 0.75886,4.35481l0.2917,4.14937l-4.76585,0.33504c-4.50504,0.3167 -4.76751,0.31134 -4.48595,-0.08973c1.8354,-2.70242 5.51248,-7.67888 6.07189,-8.19474c0.75782,-0.74428 1.34394,-0.88081 2.12934,-0.55478zM84.44295,158.67213c-0.21338,0.015 -1.67866,1.88126 -4.16,5.22484l-1.15164,1.58211l2.98754,-0.21002l2.98754,-0.21002l-0.22503,-3.20095c-0.12335,-1.75458 -0.31985,-3.19429 -0.43841,-3.18595z" fill="#ffc910"/><path d="M105.43467,145.78286c3.00793,-0.25912 5.13334,1.16413 20.78038,13.93196l1.66991,1.38376l-0.0211,-2.33366c0.00648,-1.26332 -0.18072,-4.9435 -0.40741,-8.16815c-0.39004,-5.54831 -0.38968,-5.88191 0.02045,-6.14903c0.27454,-0.16226 2.28326,-0.3988 4.91516,-0.58382c3.50919,-0.24669 4.58116,-0.25058 4.97887,-0.0164c0.45013,0.30197 0.5055,0.75079 1.46006,13.31245c0.66416,8.76963 0.94011,13.37286 0.80876,14.21605c-0.20323,1.51544 -1.07163,2.72024 -2.62065,3.73458c-0.98124,0.61703 -1.58605,0.82635 -3.14594,1.00749c-1.62939,0.20984 -2.06115,0.16871 -2.99384,-0.21844c-2.9216,-1.22429 -7.46658,-4.5266 -16.54713,-12.01359l-3.66809,-3.03038l0.45817,8.21225c0.39356,6.95392 0.41241,8.23928 0.11751,8.45063c-0.18135,0.13189 -2.44925,0.41047 -5.00999,0.59048c-3.91226,0.27503 -4.72175,0.28427 -5.05333,-0.02599c-0.35531,-0.30863 -0.51438,-1.89389 -1.35448,-13.84411c-1.03678,-14.74807 -1.04048,-14.46186 0.25509,-16.03027c0.70206,-0.8595 1.95614,-1.66251 3.1691,-2.0337c0.48959,-0.15356 1.47877,-0.31839 2.18844,-0.39213zM103.63448,147.29142c-1.65845,0.47401 -2.93662,1.6123 -3.34287,2.95139c-0.13432,0.46216 0.0959,5.09242 0.71096,13.84168l0.92344,13.13574l4.26792,-0.30003l4.26792,-0.30003l-0.65174,-9.27088l-0.65174,-9.27088l3.79498,3.14061c11.10739,9.20305 15.31047,12.38644 17.71578,13.38492c1.35076,0.57223 3.37451,0.5491 5.0026,-0.01807c1.20962,-0.41865 2.60171,-1.97 2.74178,-3.02828c0.06316,-0.45716 -0.32613,-6.67271 -0.87695,-13.83002l-1.00659,-12.96309l-4.12567,0.29003l-4.12567,0.29003l0.60931,9.34534l0.58395,9.32331l-4.54962,-3.70708c-11.90617,-9.71875 -14.95183,-12.03041 -16.84591,-12.87421c-1.05625,-0.44995 -3.15777,-0.51668 -4.44188,-0.14046z" fill="#ffc910"/><path d="M103.50931,147.18187c1.28412,-0.37622 3.4048,-0.32815 4.46105,0.1218c1.89408,0.8438 5.21088,3.26358 17.11705,12.98233l4.22497,3.6799l-0.56353,-9.18473l-0.55312,-9.29239l4.3143,-0.56272l4.14109,-0.27561l1.04921,13.04782c0.55082,7.1573 0.92197,13.48257 0.85881,13.93973c-0.14007,1.05828 -1.54976,2.63541 -2.75938,3.05406c-1.62808,0.56717 -3.67315,0.61171 -5.02391,0.03948c-2.4053,-0.99848 -6.88137,-4.30354 -17.98876,-13.50659l-3.46886,-3.10056l0.63001,9.13219l0.59537,9.21871l-4.45534,0.57341l-4.28382,0.28511l-0.96593,-13.22161c-0.61507,-8.74926 -0.82604,-13.48921 -0.69173,-13.95137c0.40625,-1.33909 1.70402,-2.505 3.36247,-2.97902z" data-paper-data="{&quot;noHover&quot;:false,&quot;origItem&quot;:[&quot;Path&quot;,{&quot;applyMatrix&quot;:true,&quot;segments&quot;:[[[198.85154,173.27896],[0,0],[-0.50721,0.10716]],[[197.78711,174.09336],[0.15002,-0.39291],[-0.05001,0.13573]],[[197.70853,178.25822],[0,-2.63608],[0,0]],[197.70853,182.21591],[198.99442,182.21591],[200.28031,182.21591],[200.28031,179.42267],[200.28031,176.62943],[[201.35189,177.651],[0,0],[3.13614,2.99327]],[[206.38115,182.03732],[-0.70009,-0.35005],[0.39291,0.20003]],[[207.88136,182.13734],[-0.50007,0.13573],[0.37148,-0.10002]],[[208.7672,181.28722],[-0.0643,0.31433],[0.02857,-0.13573]],[[208.79577,177.12236],[0.01429,2.15744],[0,0]],[208.7672,173.21468],[207.52417,173.21468],[206.28114,173.21468],[206.26685,176.02935],[206.24542,178.83688],[[204.95953,177.62957],[0,0],[-3.36475,-3.16472]],[[200.1803,173.4147],[0.55008,0.2929],[-0.30719,-0.15716]],[[198.85154,173.27897],[0.39292,-0.08573],[0,0]]],&quot;closed&quot;:true,&quot;fillColor&quot;:[1,0.78824,0.06275],&quot;strokeColor&quot;:[1,0.78039,0.06275],&quot;strokeWidth&quot;:0}]}" fill="#000000"/><path d="M159.21221,142.02613c16.64993,-1.099 16.76849,-1.10734 17.75358,-0.65236c1.30333,0.57557 2.75152,1.85577 3.43098,3.04705c0.51717,0.91675 0.57424,1.3893 1.33432,12.20138c0.73175,10.40898 0.74766,11.31334 0.40794,12.24269c-0.54183,1.44395 -1.59662,2.70949 -2.9235,3.49377l-1.18962,0.70316l-16.71606,1.17513c-10.14817,0.71341 -16.88871,1.09198 -17.1121,0.96469c-0.32157,-0.16801 -0.46735,-1.56362 -1.07241,-10.1706c-0.60507,-8.60701 -0.65598,-10.00925 -0.36108,-10.22061c0.52035,-0.39401 9.77087,-0.99665 10.15151,-0.66598c0.22838,0.19838 0.40456,1.68718 0.65125,5.19637l0.34671,4.93183l8.6544,-0.6084l8.6544,-0.6084l-0.40004,-5.69057l-0.40004,-5.69057l-13.6811,0.96177c-8.20391,0.57673 -13.85371,0.87862 -14.07713,0.75133c-0.29788,-0.16968 -0.45271,-1.01661 -0.7585,-4.68841c-0.37283,-4.28662 -0.3658,-4.5254 0.07509,-5.03296c0.46292,-0.53293 0.48662,-0.53459 17.23141,-1.64027zM158.69947,143.20594l-15.72022,1.10512l0.28336,4.03081l0.28336,4.03081l14.10786,-0.99178l14.10786,-0.99178l0.48339,6.87609l0.48339,6.87609l-9.95849,0.70008l-9.95849,0.70008l-0.36671,-5.21637l-0.36671,-5.21637l-4.14937,0.2917l-4.14937,0.2917l0.65007,9.24719l0.65007,9.24719l16.31296,-1.14679c15.24599,-1.07179 16.35706,-1.19756 17.20601,-1.66229c0.98791,-0.52217 2.24108,-2.01612 2.55377,-2.99121c0.09522,-0.34031 -0.16499,-5.39733 -0.60671,-11.68067c-0.77342,-11.00176 -0.77842,-11.07292 -1.37338,-12.0795c-0.72852,-1.21165 -2.27527,-2.19901 -3.71791,-2.38354c-0.57572,-0.05482 -8.12239,0.38038 -16.75476,0.96342z" fill="#ffc910"/><path d="M158.66018,143.04426c8.63237,-0.58304 16.32513,-0.98411 16.90085,-0.92929c1.44264,0.18453 3.01312,1.1963 3.74164,2.40796c0.59496,1.00657 0.63539,1.1694 1.40881,12.17117c0.44172,6.28335 0.68157,11.43226 0.58635,11.77256c-0.31269,0.97509 -1.58297,2.49426 -2.57088,3.01643c-0.84895,0.46474 -2.09836,0.65093 -17.34436,1.72272l-16.42415,1.09484l-0.68399,-9.30077l-0.66022,-9.32799l4.15071,-0.30066l4.47334,-0.21761l0.36827,5.13274l0.33488,5.15127l9.81691,-0.76214l9.82698,-0.61882l-0.50616,-6.77973l-0.44735,-6.78387l-13.88219,1.02394l-14.04417,0.90328l-0.59124,-4.15349l-0.27073,-4.05178l15.81677,-1.17072z" data-paper-data="{&quot;noHover&quot;:false,&quot;origItem&quot;:[&quot;Path&quot;,{&quot;applyMatrix&quot;:true,&quot;segments&quot;:[[215.44668,173.21467],[210.71031,173.21467],[210.71031,174.42912],[210.71031,175.64357],[214.96089,175.64357],[219.21147,175.64357],[219.21147,177.71528],[219.21147,179.78699],[216.21106,179.78699],[213.21065,179.78699],[213.21065,178.21534],[213.21065,176.64369],[211.96048,176.64369],[210.71031,176.64369],[210.71031,179.42979],[210.71031,182.21589],[[215.62527,182.21589],[0,0],[4.59349,0]],[[220.81884,182.08016],[-0.26432,0.12144],[0.30719,-0.13573]],[[221.64753,181.23719],[-0.1143,0.28575],[0.03572,-0.10002]],[[221.71182,177.72242],[0,1.89312],[0,-3.31474]],[[221.55466,174.07192],[0.15716,0.31432],[-0.19288,-0.37862]],[[220.49023,173.27895],[0.42863,0.08573],[-0.17145,-0.02857]],[[215.44668,173.21466],[2.60036,0.00714],[0,0]]],&quot;closed&quot;:true,&quot;fillColor&quot;:[1,0.78824,0.06275],&quot;strokeColor&quot;:[1,0.78039,0.06275],&quot;strokeWidth&quot;:0}]}" fill="#000000"/><path d="M203.73928,138.87209c11.56915,-0.83712 13.94357,-0.95641 14.98479,-0.71981c1.57287,0.34215 3.43746,1.78373 4.25714,3.27492c0.62536,1.0998 0.66906,1.38264 1.03577,6.59898c0.36671,5.21637 0.36301,5.50255 -0.10233,6.67899c-0.23954,0.66018 -0.88417,1.65863 -1.41821,2.19656c-1.79722,1.88959 -1.42118,1.81553 -13.03443,2.70341c-8.17688,0.62249 -10.55127,0.74175 -11.04383,0.51428l-0.61445,-0.26657l-0.36783,-4.21549c-0.25245,-2.91308 -0.28134,-4.34072 -0.10665,-4.56747c0.19505,-0.27581 1.70754,-0.45365 8.03832,-0.8987c7.63486,-0.53673 7.80081,-0.54839 7.76748,-1.02262c-0.03334,-0.47422 -0.19932,-0.46256 -8.56919,0.12584l-8.53585,0.60007l0.40004,5.69057l0.40004,5.69057l13.53881,-0.95177c8.86782,-0.6234 13.68776,-0.86695 14.006,-0.74633c0.44346,0.20711 0.48883,0.51368 0.7972,4.90016c0.23503,3.34321 0.26391,4.77085 0.0655,4.99926c-0.19838,0.22838 -4.27162,0.58624 -16.86204,1.47134l-16.6212,1.16846l-1.22553,-0.48571c-0.70928,-0.2599 -1.7094,-0.92826 -2.32345,-1.52843c-1.81847,-1.80222 -1.8572,-2.01393 -2.68062,-13.72703c-0.48005,-6.8287 -0.65526,-10.67649 -0.53261,-11.30464c0.40534,-2.03003 2.27738,-4.21083 4.18333,-4.89287c0.46422,-0.17559 6.28871,-0.70419 14.56375,-1.28592zM190.05337,141.12092c-0.11522,0.05576 -0.51162,0.17892 -0.88599,0.27672c-0.88599,0.27672 -2.39167,1.90757 -2.83328,3.08237c-0.34142,0.90563 -0.32381,1.83368 0.38293,11.88703l0.76675,10.90694l0.79801,1.18295c0.58663,0.88805 1.14495,1.373 2.10634,1.82964l1.28296,0.62466l16.31296,-1.14679l16.28927,-1.14513l-0.28336,-4.03081l-0.28336,-4.03081l-13.98933,0.98344l-13.98933,0.98344l-0.48339,-6.87609l-0.48339,-6.87609l9.72141,-0.68341l9.72141,-0.68341l0.11668,1.65975l0.11668,1.65975l-8.06166,0.56673l-8.06166,0.56673l0.25003,3.55662l0.25003,3.55662l10.40898,-0.73175c5.88025,-0.41338 10.66316,-0.84491 10.98676,-0.9868c0.87598,-0.41901 2.15955,-1.81977 2.61117,-2.85229c0.34476,-0.8582 0.35048,-1.45431 0.00878,-6.31502c-0.37671,-5.35863 -0.37671,-5.35863 -1.07486,-6.47712c-0.80135,-1.23038 -2.15171,-2.13622 -3.52656,-2.37314c-0.8195,-0.13301 -27.643,1.65734 -28.17499,1.88539z" fill="#ffc910"/><path d="M189.93149,141.00784c0.53198,-0.22805 27.58458,-2.03241 28.40408,-1.8994c1.37485,0.23693 2.74815,1.16637 3.5495,2.39675c0.69816,1.11849 0.72321,1.16226 1.09992,6.52089c0.34171,4.86071 0.34702,5.51134 0.00226,6.36954c-0.45161,1.03252 -1.73691,2.46322 -2.6129,2.88223c-0.3236,0.14189 -5.13908,0.65009 -11.01933,1.06347l-10.68044,0.72111l-0.27651,-3.63581l-0.23475,-3.63861l8.2718,-0.65155l8.15398,-0.47943l-0.40914,-1.50284l-0.10471,-1.64315l-9.58103,0.74395l-9.59089,0.60382l0.50715,6.77816l0.44624,6.78234l13.76302,-1.01296l13.92739,-0.89617l0.59127,4.15339l0.27073,4.05178l-16.39186,1.21211l-16.4528,1.11153l-1.29111,-0.63193c-0.96139,-0.45665 -1.53441,-0.95751 -2.12104,-1.84556l-0.80467,-1.19179l-0.79657,-10.99c-0.70675,-10.05335 -0.70344,-11.07569 -0.36201,-11.98132c0.44161,-1.1748 1.96605,-2.83245 2.85204,-3.10917c0.37437,-0.0978 0.77506,-0.22576 0.89029,-0.28153z" data-paper-data="{&quot;noHover&quot;:false,&quot;origItem&quot;:[&quot;Path&quot;,{&quot;applyMatrix&quot;:true,&quot;segments&quot;:[[[224.89084,173.25039],[0,0],[-0.03572,0.01429]],[[224.61938,173.31468],[0.1143,-0.02143],[-0.27146,0.06429]],[[223.70497,174.17909],[0.15716,-0.34291],[-0.12145,0.26432]],[[223.56924,177.75101],[0,-3.02899],[0,0]],[223.56924,181.03718],[[223.78356,181.40866],[0,0],[0.15716,0.27861]],[[224.3765,182.0016],[-0.27861,-0.15717],[0,0]],[224.74798,182.21592],[229.66294,182.21592],[234.57076,182.21592],[234.57076,181.00147],[234.57076,179.78702],[230.35589,179.78702],[226.14102,179.78702],[226.14102,177.71531],[226.14102,175.6436],[229.07,175.6436],[231.99898,175.6436],[231.99898,176.14367],[231.99898,176.64374],[229.57007,176.64374],[227.14116,176.64374],[227.14116,177.71532],[227.14116,178.7869],[[230.2773,178.7869],[0,0],[1.77167,0]],[[233.59204,178.72261],[-0.10001,0.03572],[0.27146,-0.10716]],[[234.43501,177.9225],[-0.15716,0.30004],[0.12145,-0.25003]],[[234.57074,176.02938],[0,1.46449],[0,-1.61451]],[[234.385,174.06482],[0.18574,0.35005],[-0.21432,-0.38577]],[[233.37772,173.279],[0.4072,0.10001],[-0.24289,-0.05715]],[[224.89084,173.25043],[0.1643,-0.05716],[0,0]]],&quot;closed&quot;:true,&quot;fillColor&quot;:[1,0.78824,0.06275],&quot;strokeColor&quot;:[1,0.78039,0.06275],&quot;strokeWidth&quot;:0}]}" fill="#000000"/><path d="M238.06127,137.31708c2.49683,0.94438 3.45246,1.99711 8.71764,9.44252c2.67149,3.76763 4.91194,6.8269 4.98306,6.8219c0.09316,-0.03036 0.93993,-1.54341 1.90392,-3.42209c6.57508,-12.9004 6.57508,-12.9004 9.27626,-14.4723c1.60142,-0.94654 1.81146,-1.00897 3.9708,-1.13696c1.82574,-0.12835 2.49628,-0.08019 3.5238,0.30033c1.34409,0.47737 2.91417,1.79667 3.36521,2.78958c0.42234,0.92341 2.27012,27.88584 1.93946,28.26651c-0.33067,0.38067 -9.57448,1.07817 -10.14484,0.76084c-0.32157,-0.16801 -0.46771,-1.22999 -0.93094,-6.46339l-0.56194,-6.29871l-2.9678,5.23632c-3.34959,5.9065 -4.50457,7.44121 -6.12432,8.12694c-2.24492,0.94415 -4.85773,0.72274 -6.42448,-0.54913c-1.18774,-0.96493 -5.08773,-5.59931 -7.20126,-8.54836l-1.95627,-2.74567l0.37226,6.31204c0.26967,4.17477 0.30946,6.4356 0.15848,6.66065c-0.19671,0.25211 -1.35354,0.40492 -5.07615,0.66661c-4.05454,0.28503 -4.86404,0.29428 -5.19561,-0.01599c-0.35531,-0.30863 -0.51105,-1.84647 -1.32947,-13.48844c-0.64674,-9.19976 -0.87731,-13.49641 -0.71724,-14.27015c0.32381,-1.83368 2.08364,-3.57769 4.25704,-4.18323c1.89223,-0.53811 4.44761,-0.45562 6.16237,0.21013zM232.12287,138.25874c-1.12146,0.31712 -2.38924,1.26406 -2.96608,2.21005l-0.49201,0.79707l0.87398,13.44898l0.87564,13.47268l4.29162,-0.3017l4.26792,-0.30003l-0.5884,-8.36986l-0.58673,-8.34617l1.88347,2.72694c2.28248,3.31841 6.84487,9.2406 8.54644,11.07485c1.54599,1.65457 2.50571,2.08748 4.35515,1.95747c2.27623,-0.16002 3.11352,-0.79074 4.97801,-3.75734c2.1631,-3.46413 5.46193,-9.41476 6.5128,-11.75227l0.88956,-1.92111l0.64952,8.22261l0.62749,8.24801l4.26792,-0.30003l4.26792,-0.30003l-1.00587,-13.63033l-1.0279,-13.60497l-0.99139,-0.88341c-1.29594,-1.14795 -2.26602,-1.38951 -4.87586,-1.22986c-1.87314,0.13168 -2.29493,0.23281 -3.43879,0.90893c-0.7558,0.43437 -1.6983,1.26315 -2.24441,1.96869c-0.52405,0.68018 -2.79979,4.91475 -5.08256,9.38809l-4.16836,8.15625l-5.37334,-7.62843c-2.94194,-4.22519 -5.83347,-8.07265 -6.41883,-8.60336c-0.58536,-0.53071 -1.6803,-1.19241 -2.43868,-1.4727c-1.49301,-0.56223 -3.97726,-0.64969 -5.58832,-0.17901z" fill="#ffc910"/><path d="M231.98609,138.16399c1.61105,-0.47068 4.11201,-0.40368 5.60502,0.15855c0.75837,0.2803 2.08891,1.17689 2.67426,1.7076c0.58536,0.53071 3.50126,4.34851 6.44319,8.5737l5.21867,7.3727l4.05436,-7.88523c2.28277,-4.47334 4.58875,-8.67918 5.1128,-9.35936c0.54611,-0.70555 1.69011,-1.79901 2.44591,-2.23339c1.14386,-0.67612 1.57777,-0.7667 3.4509,-0.89838c2.60984,-0.15966 3.59914,0.10387 4.89508,1.25182l0.99625,0.89041l1.05508,13.69405l0.98376,13.71531l-4.27716,0.31432l-4.52356,0.08829l-0.66103,-8.19598l-0.65885,-8.12939l-0.5599,1.88249c-1.05088,2.33751 -4.43692,8.4425 -6.60001,11.90662c-1.8645,2.9666 -2.76922,3.61684 -5.04545,3.77686c-1.84944,0.13001 -2.862,-0.30769 -4.40798,-1.96226c-1.70158,-1.83425 -6.387,-7.89158 -8.66948,-11.20999l-1.55311,-2.74272l0.56525,8.25358l0.54716,8.32183l-4.49124,0.54564l-4.30284,0.28875l-0.90927,-13.5525l-0.86047,-13.54056l0.49469,-0.80263c0.57684,-0.94599 1.85651,-1.91297 2.97798,-2.2301z" data-paper-data="{&quot;noHover&quot;:false,&quot;origItem&quot;:[&quot;Path&quot;,{&quot;applyMatrix&quot;:true,&quot;segments&quot;:[[[237.56402,173.27896],[0,0],[-0.34291,0.07144]],[[236.62818,173.87904],[0.19288,-0.27146],[0,0]],[236.46387,174.10764],[236.44244,178.1582],[236.42101,182.2159],[237.71404,182.2159],[238.99993,182.2159],[238.99993,179.69413],[238.99993,177.1795],[[239.50714,178.03676],[0,0],[0.61437,1.043]],[[241.83603,181.53724],[-0.47149,-0.58579],[0.42863,0.52864]],[[243.10049,182.2159],[-0.55722,0],[0.68581,0]],[[244.67214,181.19433],[-0.62152,0.85012],[0.72153,-0.99299]],[[246.87244,177.80815],[-0.36433,0.67866],[0,0]],[247.17963,177.25093],[247.20106,179.72984],[247.21535,182.2159],[248.50124,182.2159],[249.78713,182.2159],[249.77284,178.10819],[249.75141,174.00762],[[249.4728,173.72187],[0,0],[-0.36434,-0.37148]],[[248.03689,173.25038],[0.78582,0.00714],[-0.56436,0]],[[246.98675,173.45041],[0.35719,-0.1786],[-0.23575,0.1143]],[[246.27236,173.99334],[0.1786,-0.20002],[-0.17145,0.19288]],[[244.55069,176.70086],[0.77868,-1.29304],[0,0]],[243.12907,179.05833],[[241.67887,176.658],[0,0],[-0.79297,-1.32876]],[[239.93577,173.94334],[0.16431,0.17145],[-0.16431,-0.17145]],[[239.23567,173.45041],[0.22146,0.10002],[-0.43577,-0.20003]],[[237.56401,173.27896],[0.49293,-0.10716],[0,0]]],&quot;closed&quot;:true,&quot;fillColor&quot;:[1,0.78824,0.06275],&quot;strokeColor&quot;:[1,0.78039,0.06275],&quot;strokeWidth&quot;:0}]}" fill="#000000"/><path d="M282.97882,133.27777c5.97511,-0.42005 5.46921,-0.8372 5.87426,4.92449c0.25669,3.65145 0.24057,4.43891 -0.046,4.76882c-0.2849,0.35364 -1.08773,0.45771 -5.14228,0.74274c-3.41433,0.24003 -4.86571,0.27058 -5.09409,0.07216c-0.22838,-0.19838 -0.39956,-1.61605 -0.63458,-4.95926c-0.29503,-4.1968 -0.28261,-4.69805 0.08176,-4.93814c0.22711,-0.15892 2.2816,-0.42249 4.96093,-0.61085zM287.26731,134.28682l-4.2018,0.22391l-4.22383,0.24927l0.28336,4.03081l0.28336,4.03081l4.26792,-0.30003l4.26792,-0.30003l-0.32746,-3.98008z" fill="#ffc910"/><path d="M287.78288,138.23166l0.29004,4.09535l-4.38492,0.36052l-4.39223,0.25651l-0.33668,-4.14157l-0.24607,-4.14794l4.33886,-0.30962l4.32817,-0.18042z" data-paper-data="{&quot;noHover&quot;:false,&quot;origItem&quot;:[&quot;Path&quot;,{&quot;applyMatrix&quot;:true,&quot;segments&quot;:[[254.18059,173.25039],[252.91613,173.22896],[251.64453,173.21467],[251.64453,174.42912],[251.64453,175.64357],[252.93042,175.64357],[254.21631,175.64357],[254.20202,174.4434]],&quot;closed&quot;:true,&quot;fillColor&quot;:[1,0.78824,0.06275],&quot;strokeColor&quot;:[1,0.78039,0.06275],&quot;strokeWidth&quot;:0}]}" fill="#000000"/><path d="M311.4367,131.34867c12.83084,-0.85434 14.80216,-0.94529 15.01352,-0.65035c0.39401,0.52035 0.96331,9.29664 0.63265,9.67732c-0.19838,0.22838 -3.27577,0.51623 -12.42813,1.15964l-12.1636,0.8551l0.40004,5.69057l0.40004,5.69057l12.06874,-0.84843c10.66983,-0.75008 12.1195,-0.80433 12.47481,-0.49573c0.32991,0.28657 0.45604,1.06403 0.72607,4.90516c0.22669,3.22465 0.25391,4.62859 0.0555,4.85698c-0.19838,0.22838 -3.91598,0.56124 -15.32081,1.36299l-15.08001,1.06012l-1.22553,-0.48571c-0.66018,-0.23954 -1.65863,-0.88417 -2.19656,-1.41821c-1.88959,-1.79722 -1.81386,-1.39749 -2.71008,-13.12929c-0.52915,-6.84906 -0.74639,-10.956 -0.63374,-11.72644c0.29881,-2.18935 2.2761,-4.56817 4.35135,-5.21444c0.46589,-0.15189 7.50297,-0.71808 15.63575,-1.28981zM325.55177,131.4763l-14.39073,1.03548c-7.94143,0.58209 -14.76343,1.157 -15.15986,1.28017c-0.90972,0.27839 -2.14713,1.31851 -2.74603,2.28991c-0.83138,1.39279 -0.83249,2.39367 0.01205,13.39043c0.89122,11.66067 0.80879,11.16608 2.55485,12.61597c1.69697,1.42952 1.14829,1.42043 17.24787,0.28863l14.58208,-1.02511l-0.28336,-4.03081l-0.28336,-4.03081l-12.44814,0.8751l-12.44814,0.8751l-0.48339,-6.87609l-0.48339,-6.87609l12.44814,-0.8751l12.44814,-0.8751l-0.28336,-4.03081z" fill="#ffc910"/><path d="M325.9677,135.40663l0.00178,4.20527l-12.37651,0.94841l-12.23612,0.82557l0.51472,6.76669l0.43705,6.77215l12.23127,-0.89447l12.38747,-0.79248l0.58659,4.16416l0.26949,4.05177l-14.67868,1.08584c-16.09958,1.13179 -15.70167,1.09758 -17.39864,-0.33194c-1.74607,-1.44988 -1.71307,-1.05592 -2.60429,-12.71659c-0.84455,-10.99676 -0.81497,-12.11098 0.0164,-13.50377c0.5989,-0.97139 1.8551,-2.03412 2.76482,-2.31251c0.39643,-0.12316 7.35037,-0.74664 15.2918,-1.32873l14.4928,-0.98902z" data-paper-data="{&quot;noHover&quot;:false,&quot;origItem&quot;:[&quot;Path&quot;,{&quot;applyMatrix&quot;:true,&quot;segments&quot;:[[265.71789,173.21467],[[261.38158,173.22181],[0,0],[-2.39319,0.00714]],[[256.80952,173.2861],[0.12145,-0.02857],[-0.27861,0.06429]],[[255.93797,173.91476],[0.20003,-0.27861],[-0.27861,0.40005]],[[255.65936,177.9296],[-0.02143,-3.31474],[0.02143,3.51477]],[[256.15943,181.76584],[-0.49293,-0.47149],[0.47864,0.46435]],[[261.32443,182.2159],[-4.85067,0],[0,0]],[265.71789,182.2159],[265.71789,181.00145],[265.71789,179.787],[261.96737,179.787],[258.21685,179.787],[258.21685,177.71529],[258.21685,175.64358],[261.96737,175.64358],[265.71789,175.64358],[265.71789,174.42913]],&quot;closed&quot;:true,&quot;fillColor&quot;:[1,0.78824,0.06275],&quot;strokeColor&quot;:[1,0.78039,0.06275],&quot;strokeWidth&quot;:0}]}" fill="#000000"/><path d="M369.57538,127.26155l15.53387,-1.04436l1.03418,0.47534c1.54878,0.67745 2.63669,1.57789 3.36855,2.83701c0.64573,1.0507 0.68612,1.28611 1.13063,6.59231c0.49784,6.06493 0.46172,6.56786 -0.9087,8.42748c-0.75985,1.05418 -2.71566,2.38306 -3.61665,2.4464c-0.4268,0.03 -0.60981,0.13816 -0.52368,0.34658c0.0591,0.16265 3.88459,4.7546 8.48644,10.22126c5.25463,6.27858 8.36288,10.15847 8.38788,10.51413c0.07501,1.06697 -0.18247,1.13274 -5.61222,1.51445c-4.12567,0.29003 -5.22137,0.29558 -5.64444,0.03938c-0.27415,-0.17135 -4.56851,-4.99247 -9.52062,-10.6966c-4.95378,-5.72787 -9.19905,-10.52859 -9.42413,-10.67957c-0.30121,-0.21711 -1.22926,-0.19953 -3.59699,0.01458l-3.19595,0.29615l0.26149,5.41439c0.21854,4.46427 0.19203,5.44309 -0.07918,5.65278c-0.52035,0.39401 -9.77087,0.99665 -10.15151,0.66598c-0.43144,-0.37476 -1.80159,-19.86494 -1.42683,-20.29638c0.19838,-0.22838 3.41806,-0.52624 13.02088,-1.20131c12.59039,-0.8851 12.75638,-0.89677 12.72304,-1.37099c-0.03334,-0.47422 -0.19932,-0.46256 -12.78971,0.42254c-9.60282,0.67507 -12.8325,0.83064 -13.06089,0.63223c-0.32991,-0.28657 -1.04317,-9.07656 -0.76823,-9.57246c0.08482,-0.14892 0.30863,-0.35531 0.49328,-0.43977c0.18468,-0.08446 7.34198,-0.63528 15.8795,-1.21162zM369.1321,128.41262l-14.89032,1.04678l0.28336,4.03081l0.28336,4.03081l13.04089,-0.91677l13.04089,-0.91677l0.11668,1.65975l0.11668,1.65975l-13.04089,0.91677l-13.04089,0.91677l0.65007,9.24719l0.65007,9.24719l4.26792,-0.30003l4.26792,-0.30003l-0.39004,-5.54831c-0.37838,-5.38233 -0.36635,-5.54998 0.07585,-5.70021c0.27954,-0.09113 2.22047,-0.27524 4.33239,-0.39986l3.84446,-0.2226l9.48656,10.88962l9.46283,10.89129l4.81828,-0.26724c3.84446,-0.2226 4.76585,-0.33504 4.60692,-0.56215c-0.13022,-0.15765 -4.2399,-5.0632 -9.13089,-10.91462c-4.91472,-5.84975 -8.92121,-10.64345 -8.92454,-10.69084c-0.00333,-0.04743 0.72837,-0.1465 1.65142,-0.23524c2.50835,-0.24781 4.15922,-1.50763 4.91185,-3.68121c0.31436,-0.95139 -0.26292,-10.17984 -0.73563,-11.48099c-0.50144,-1.37061 -2.17802,-2.84919 -3.63066,-3.17597c-1.04125,-0.23656 -3.48677,-0.11231 -16.12459,0.77612z" fill="#ffc910"/><path d="M369.06756,128.25929c12.63782,-0.88843 15.20392,-1.01596 16.24517,-0.7794c1.45264,0.32678 3.16119,1.82083 3.66263,3.19144c0.47271,1.30115 1.1082,10.59145 0.79385,11.54284c-0.75264,2.17359 -2.70434,3.57416 -5.21269,3.82197c-0.92305,0.08874 -1.34993,0.05487 -1.3466,0.1023c0.00333,0.0474 4.00419,4.99492 8.91891,10.84467c4.89099,5.85142 8.98515,10.77964 9.11537,10.93729c0.15892,0.22711 -0.77634,0.35463 -4.62081,0.57723l-4.83767,0.28322l-9.4837,-10.87878l-9.71679,-11.09774l-3.52572,0.31333c-2.11192,0.12462 -4.05067,0.29367 -4.33021,0.3848c-0.44219,0.15023 -0.46204,0.24895 -0.08366,5.63128l0.36359,5.49897l-4.5418,0.48789l-4.27443,0.28812l-0.66703,-9.311l-0.64103,-9.3121l13.07549,-0.97447l13.21848,-0.96111l-0.21819,-1.34302l-0.10981,-1.65794l-12.8967,0.88445l-12.99625,0.86083l-0.57157,-4.19574l-0.27292,-4.04499l14.95425,-1.0944z" data-paper-data="{&quot;noHover&quot;:false,&quot;origItem&quot;:[&quot;Path&quot;,{&quot;applyMatrix&quot;:true,&quot;segments&quot;:[[278.84828,173.21467],[274.36195,173.21467],[274.36195,174.42912],[274.36195,175.64357],[278.29106,175.64357],[282.22017,175.64357],[282.22017,176.14364],[282.22017,176.64371],[278.29106,176.64371],[274.36195,176.64371],[274.36195,179.42981],[274.36195,182.21591],[275.64784,182.21591],[276.93373,182.21591],[[276.93373,180.54425],[0,0],[0,-1.62165]],[[277.07661,178.83687],[-0.13574,0.03572],[0.08573,-0.02143]],[[278.38393,178.8083],[-0.6358,-0.00715],[0,0]],[279.54123,178.82259],[282.15588,182.28735],[284.76338,185.75211],[[286.21358,185.77354],[0,0],[1.1573,0.01429]],[[287.60663,185.7021],[0.04286,0.07144],[-0.03572,-0.05001]],[[285.09914,182.23734],[1.34304,1.8574],[-1.35019,-1.8574]],[[282.6488,178.84402],[0,0.01428],[0,-0.01429]],[[283.14887,178.8083],[-0.27861,0.00715],[0.75725,-0.02143]],[[284.69908,177.80816],[-0.27146,0.6358],[0.1143,-0.27861]],[[284.72051,174.35054],[0.1143,0.40006],[-0.12145,-0.42149]],[[283.69894,173.32183],[0.42863,0.12859],[-0.30719,-0.09287]],[[278.84827,173.21467],[3.80767,0],[0,0]]],&quot;closed&quot;:true,&quot;fillColor&quot;:[1,0.78824,0.06275],&quot;strokeColor&quot;:[1,0.78039,0.06275],&quot;strokeWidth&quot;:0}]}" fill="#000000"/><path d="M398.4991,125.18056c3.62608,-0.27873 4.50837,-0.26927 4.95684,0.00896c0.52293,0.32066 0.55496,0.43756 0.86166,4.8003c0.26336,3.7463 0.24724,4.53373 -0.03933,4.86364c-0.2849,0.35364 -1.08773,0.45771 -5.14228,0.74274c-3.41433,0.24003 -4.86571,0.27058 -5.09409,0.07216c-0.22838,-0.19838 -0.39956,-1.61605 -0.63458,-4.95926c-0.32837,-4.67102 -0.3317,-4.71842 0.19865,-4.97017c0.27621,-0.13856 2.47461,-0.3884 4.89313,-0.55842zM402.84873,126.04236l-4.26792,0.30003l-4.26792,0.30003l0.28336,4.03081l0.28336,4.03081l4.26792,-0.30003l4.26792,-0.30003l-0.28336,-4.03081z" fill="#ffc910"/><path d="M403.29805,130.0615l0.24607,4.14794l-4.38492,0.36052l-4.39223,0.25651l-0.33668,-4.14157l-0.24607,-4.14794l4.38492,-0.36052l4.39223,-0.25651z" data-paper-data="{&quot;noHover&quot;:false,&quot;origItem&quot;:[&quot;Path&quot;,{&quot;applyMatrix&quot;:true,&quot;segments&quot;:[[289.00682,173.21467],[287.72093,173.21467],[286.43504,173.21467],[286.43504,174.42912],[286.43504,175.64357],[287.72093,175.64357],[289.00682,175.64357],[289.00682,174.42912]],&quot;closed&quot;:true,&quot;fillColor&quot;:[1,0.78824,0.06275],&quot;strokeColor&quot;:[1,0.78039,0.06275],&quot;strokeWidth&quot;:0}]}" fill="#000000"/><path d="M414.05836,124.15823c1.54453,-0.06092 2.21844,0.03467 3.34745,0.50334c2.82007,1.1361 3.20741,1.56162 9.79813,10.91538l3.9446,5.60819l1.88892,-3.63548c1.05051,-2.00391 2.79182,-5.3669 3.85939,-7.46734c2.24201,-4.37515 3.42072,-5.9115 5.52709,-7.13186c1.37263,-0.81135 1.65384,-0.87875 3.85892,-1.03376c2.11025,-0.14835 2.51835,-0.10556 3.76924,0.40221c1.57084,0.65205 2.81931,1.80334 3.26333,3.03502c0.17726,0.48792 0.67549,6.21925 1.23222,14.13862c0.82843,11.78423 0.89101,13.35246 0.58241,13.70776c-0.2849,0.35364 -1.08773,0.45771 -5.14228,0.74274c-3.41433,0.24003 -4.86571,0.27058 -5.09409,0.07216c-0.22838,-0.19838 -0.42622,-1.99542 -0.75293,-6.64271l-0.44838,-6.37817l-2.96947,5.21262c-3.47684,6.12991 -4.71668,7.81355 -6.24491,8.44518c-1.96708,0.82929 -4.52246,0.74683 -6.08957,-0.19143c-0.92063,-0.55481 -5.04567,-5.34017 -7.45004,-8.69767l-2.00703,-2.78973l0.32483,6.31538c0.27522,5.27044 0.28073,6.36614 -0.01417,6.57749c-0.52035,0.39401 -9.77087,0.99665 -10.15151,0.66598c-0.22838,-0.19838 -0.54124,-3.63144 -1.26799,-13.96933c-0.9251,-13.15944 -0.94308,-13.75389 -0.55422,-14.66285c0.63336,-1.49801 2.13864,-2.79525 3.97844,-3.40113c0.48959,-0.15356 1.74124,-0.31303 2.81158,-0.34061zM408.99125,127.32613c-0.96326,1.21147 -0.9716,1.09292 0.00184,14.93997l0.9351,13.3017l4.26792,-0.30003l4.26792,-0.30003l-0.52764,-8.18355l-0.5056,-8.20891l1.59433,2.34221c1.86144,2.75233 6.92266,9.33042 8.65297,11.23417c1.39373,1.52231 2.47535,1.99432 4.37218,1.86098c1.61066,-0.13704 2.89514,-0.84687 3.91953,-2.2056c1.04479,-1.40779 6.30164,-10.68899 7.58835,-13.40051l0.97439,-2.07003l0.61043,8.3445l0.5884,8.36986l4.26792,-0.30003l4.26792,-0.30003l-0.9942,-13.46435l-1.01957,-13.48641l-0.72392,-0.80692c-1.21608,-1.368 -2.41125,-1.76055 -5.04315,-1.57552c-1.94596,0.11299 -2.43722,0.24281 -3.51495,0.84281c-1.76573,0.98194 -2.83752,2.34397 -4.59422,5.82722c-0.8588,1.68067 -2.78681,5.43807 -4.29564,8.37963l-2.74439,5.36357l-5.29554,-7.53857c-2.88784,-4.13367 -5.77937,-7.98112 -6.39176,-8.5576c-0.61239,-0.57648 -1.71234,-1.3093 -2.44701,-1.59123c-2.77264,-1.13943 -6.72439,-0.4089 -8.2117,1.48272z" fill="#ffc910"/><path d="M408.84439,127.24786c1.48731,-1.89162 5.46563,-2.65887 8.23827,-1.51944c0.73467,0.28193 2.07114,1.24868 2.68353,1.82516c0.61239,0.57648 3.52906,4.39251 6.4169,8.52618l5.1433,7.28504l2.59603,-5.14911c1.50883,-2.94157 3.49305,-6.61673 4.35186,-8.29739c1.7567,-3.48326 3.03439,-5.10665 4.80012,-6.08859c1.07773,-0.6 1.58164,-0.71877 3.5276,-0.83176c2.6319,-0.18502 3.84757,0.23147 5.06364,1.59947l0.72787,0.81281l1.04587,13.57539l0.97204,13.54809l-4.27716,0.31436l-4.52344,0.08812l-0.62247,-8.31657l-0.61879,-8.24989l-0.64529,2.02765c-1.28672,2.71152 -6.64963,12.15694 -7.69442,13.56473c-1.02439,1.35873 -2.35777,2.0794 -3.96843,2.21644c-1.89683,0.13335 -3.03116,-0.34356 -4.42489,-1.86588c-1.73031,-1.90374 -6.91443,-8.61792 -8.77588,-11.37025l-1.2636,-2.36092l0.48283,8.11842l0.4875,8.13737l-4.49128,0.54561l-4.27907,0.28714l-0.96861,-13.38032c-0.97344,-13.84705 -0.94723,-13.83048 0.01604,-15.04195z" data-paper-data="{&quot;noHover&quot;:false,&quot;origItem&quot;:[&quot;Path&quot;,{&quot;applyMatrix&quot;:true,&quot;segments&quot;:[[[290.82135,173.72902],[0,0],[-0.31433,0.34291]],[[290.50702,178.20821],[0,-4.172],[0,0]],[290.50702,182.2159],[291.79291,182.2159],[293.0788,182.2159],[293.09309,179.75127],[293.11452,177.2795],[[293.54315,178.01532],[0,0],[0.50007,0.86441]],[[295.90062,181.56581],[-0.47864,-0.60723],[0.38577,0.48578]],[[297.17222,182.2159],[-0.5715,0],[0.48578,-0.00714]],[[298.39382,181.63725],[-0.33576,0.38577],[0.34291,-0.40005]],[[300.95132,177.77958],[-0.44292,0.78582],[0,0]],[301.28708,177.1795],[301.29422,179.69413],[301.29422,182.2159],[302.58011,182.2159],[303.866,182.2159],[303.85171,178.1582],[303.83028,174.09335],[[303.63025,173.83617],[0,0],[-0.33576,-0.43577]],[[302.15147,173.25752],[0.79297,0],[-0.5858,-0.00714]],[[301.07989,173.43612],[0.33576,-0.15717],[-0.55008,0.25718]],[[299.57968,175.08635],[0.60009,-1.00729],[-0.2929,0.48578]],[[298.11519,177.50811],[0.51436,-0.85011],[0,0]],[297.17935,179.05832],[[295.75058,176.68657],[0,0],[-0.77868,-1.30018]],[[294.01463,173.9862],[0.17145,0.18574],[-0.17145,-0.18574]],[[293.31453,173.45756],[0.21432,0.10001],[-0.80725,-0.40005]],[[290.82133,173.72902],[0.48578,-0.53578],[0,0]]],&quot;closed&quot;:true,&quot;fillColor&quot;:[1,0.78824,0.06275],&quot;strokeColor&quot;:[1,0.78039,0.06275],&quot;strokeWidth&quot;:0}]}" fill="#000000"/><path d="M283.89914,144.67426c4.1477,-0.3154 4.45761,-0.31337 4.9398,0.10545c0.50756,0.44089 0.54793,0.67633 1.14521,10.18933c0.51394,8.32747 0.56652,9.75344 0.27162,9.9648c-0.52035,0.39401 -9.77087,0.99665 -10.15151,0.66598c-0.22838,-0.19838 -0.48123,-2.77785 -1.00129,-10.1756l-0.69841,-9.93479l0.53035,-0.25172c0.27621,-0.13856 2.49834,-0.39007 4.96426,-0.56342zM288.06739,145.66795l-4.2018,0.22391l-4.22383,0.24927l0.65007,9.24719l0.65007,9.24719l4.26792,-0.30003l4.26792,-0.30003l-0.69417,-9.19642z" fill="#ffc910"/><path d="M288.94968,154.8292l0.60825,9.35202l-4.33638,0.32019l-4.33853,0.28965l-0.75708,-9.39109l-0.56425,-9.40465l4.29146,-0.26937l4.27238,-0.21392z" data-paper-data="{&quot;noHover&quot;:false,&quot;origItem&quot;:[&quot;Path&quot;,{&quot;applyMatrix&quot;:true,&quot;segments&quot;:[[254.18059,176.67943],[252.91613,176.658],[251.64453,176.64371],[251.64453,179.42981],[251.64453,182.21591],[252.93042,182.21591],[254.21631,182.21591],[254.20202,179.4441]],&quot;closed&quot;:true,&quot;fillColor&quot;:[1,0.78824,0.06275],&quot;strokeColor&quot;:[1,0.78039,0.06275],&quot;strokeWidth&quot;:0}]}" fill="#000000"/><path d="M404.37958,136.63345c0.37567,0.25954 0.49311,1.25205 1.10651,9.97758c0.59507,8.46472 0.63598,9.72474 0.32571,10.05629c-0.2849,0.35364 -1.08773,0.45771 -5.14228,0.74274c-3.41433,0.24003 -4.86571,0.27058 -5.09409,0.07216c-0.22838,-0.19838 -0.48123,-2.77785 -1.00129,-10.1756l-0.69841,-9.93479l0.53035,-0.25172c0.82859,-0.41568 9.49466,-0.85809 9.97349,-0.4867zM403.64882,137.42349l-4.26792,0.30003l-4.26792,0.30003l0.65007,9.24719l0.65007,9.24719l4.26792,-0.30003l4.26792,-0.30003l-0.65007,-9.24719z" fill="#ffc910"/><path d="M404.46485,146.65901l0.56425,9.40465l-4.33638,0.32019l-4.33853,0.28965l-0.75708,-9.39109l-0.56425,-9.40465l4.33638,-0.32019l4.33853,-0.28965z" data-paper-data="{&quot;noHover&quot;:false,&quot;origItem&quot;:[&quot;Path&quot;,{&quot;applyMatrix&quot;:true,&quot;segments&quot;:[[289.00682,176.64371],[287.72093,176.64371],[286.43504,176.64371],[286.43504,179.42981],[286.43504,182.21591],[287.72093,182.21591],[289.00682,182.21591],[289.00682,179.42981]],&quot;closed&quot;:true,&quot;fillColor&quot;:[1,0.78824,0.06275],&quot;strokeColor&quot;:[1,0.78039,0.06275],&quot;strokeWidth&quot;:0}]}" fill="#000000"/></g><g fill="none" stroke-width="3.5"><path d="M351.71288,303.34573c1.84796,0.3639 3.05142,2.15485 2.68972,4.00061l-1.34815,6.8657c-0.37266,1.90056 -2.25789,3.11937 -4.16064,2.65245c-1.78219,-0.43622 -2.86289,-2.25788 -2.50997,-4.0576l0.03726,-0.18414l-8.88684,0.40554c-0.26744,0.01096 -0.4998,0.18853 -0.58309,0.445c-0.86807,2.62176 -2.01018,5.12078 -3.39339,7.45756c-0.1403,0.23674 -0.11836,0.53708 0.05919,0.74752l3.93046,4.66921c0.78039,-0.74313 1.79972,-1.12894 2.83002,-1.12894c0.86807,0 1.74491,0.27402 2.48804,0.84397c1.79973,1.37664 2.14169,3.95238 0.76504,5.75429l-1.13991,1.48843c-1.33719,1.7493 -3.82963,2.21841 -5.6447,0.96672c-1.56297,-1.07633 -2.12854,-3.01197 -1.56297,-4.69331l-5.66223,-2.48804c-0.25648,-0.11181 -0.55241,-0.04604 -0.73875,0.16001c-2.62176,2.87825 -5.67319,5.35533 -9.05343,7.33261c-0.23236,0.13591 -0.35731,0.39898 -0.31347,0.66421l1.44898,8.83861l1.25389,-0.50199c1.79973,-0.719 3.84715,0.20167 4.48944,2.05401c0.60063,1.73397 -0.34196,3.63014 -2.04523,4.30969l-6.40755,2.56477c-1.79754,0.719 -3.84497,-0.20168 -4.48726,-2.05401c-0.60063,-1.73397 0.34196,-3.63014 2.04523,-4.31189l0.17318,-0.06795l-5.16902,-7.24275c-0.15564,-0.21922 -0.42966,-0.31567 -0.69052,-0.24771c-3.08869,0.80012 -6.32863,1.22978 -9.66942,1.22978c-2.64369,0 -5.22161,-0.26963 -7.71405,-0.77821c-0.26306,-0.05262 -0.53268,0.05919 -0.67736,0.28499l-5.1712,8.113l0.18195,0.06577c1.68354,0.6138 2.72698,2.20308 2.72698,3.89538c0,0.4735 -0.08112,0.95357 -0.25209,1.42269c0,2.42667 -1.8655,3.73318 -4.14528,2.90016l-6.35494,-2.31707c-2.12635,-0.77381 -3.23556,-3.10842 -2.50119,-5.24134c0.75408,-2.19869 3.25966,-3.3079 5.44302,-2.51217l0.14686,0.05262l1.05221,-9.5072c0.03069,-0.26744 -0.1096,-0.52172 -0.34855,-0.64668c-4.02472,-2.07813 -7.63513,-4.84676 -10.67559,-8.15028c-0.18414,-0.19949 -0.47131,-0.26524 -0.72121,-0.16222l-7.7557,3.18075c0.87685,1.6397 0.38362,3.71783 -1.21662,4.77004c-1.67039,1.09825 -3.92606,0.58749 -5.06597,-1.05221l-1.98606,-2.8607c-1.1114,-1.59805 -0.85274,-3.82523 0.67736,-5.03089c1.63093,-1.28457 3.95677,-0.95139 5.17777,0.66421l5.46274,-6.173c0.18195,-0.20605 0.21263,-0.50419 0.07891,-0.74312c-2.24253,-4.04225 -3.77701,-8.53171 -4.43683,-13.29956c-0.03726,-0.26744 -0.23236,-0.48445 -0.49322,-0.54364l-8.72899,-2.01675l-0.00877,1.02371c-0.00877,1.02371 -0.42966,1.95099 -1.10702,2.61957c-0.67517,0.67079 -1.60463,1.0829 -2.63054,1.0829c-2.03867,0 -3.68932,-1.66382 -3.6696,-3.70248l0.057,-6.34178c0.01754,-2.07374 1.73177,-3.82086 3.80332,-3.76605c2.01018,0.05262 3.61479,1.70547 3.60383,3.72222l8.66544,-2.03209c0.26306,-0.06137 0.45816,-0.2784 0.49322,-0.54584c0.67956,-5.04185 2.33899,-9.77464 4.77881,-14.00103c0.13591,-0.23674 0.11181,-0.53268 -0.06577,-0.74313l-4.13214,-4.85334l-0.3595,0.4735c-1.11359,1.4731 -3.23996,1.72959 -4.67579,0.53489c-1.34596,-1.12237 -1.51036,-3.13473 -0.45376,-4.53109l2.7533,-3.63891c0.64011,-0.84397 1.6112,-1.28897 2.59545,-1.28897c0.68175,0 1.37007,0.21482 1.95755,0.65763c1.36129,1.0281 1.68136,2.91771 0.78258,4.33381l5.77841,2.49901c0.25428,0.1096 0.54802,0.04385 0.73654,-0.16001c2.72699,-2.99004 5.92091,-5.54605 9.46775,-7.55621c0.23236,-0.13372 0.3617,-0.39458 0.32225,-0.65982l-1.33061,-8.85834l-1.26265,0.48665c-1.80629,0.6949 -3.84278,-0.25428 -4.45876,-2.11319c-0.57871,-1.74274 0.39019,-3.62575 2.10224,-4.2834l6.44044,-2.47708c1.80849,-0.6949 3.84278,0.25209 4.45875,2.11319c0.57871,1.74054 -0.388,3.62356 -2.10223,4.2834l-0.17318,0.06577l5.06816,7.30851c0.15344,0.22141 0.42528,0.32225 0.68614,0.25867c2.94181,-0.7212 6.01297,-1.10262 9.1762,-1.10262h0.00439c0.27621,0 0.5239,-0.1688 0.61598,-0.42966l1.67915,-4.6955c-1.94441,-0.6094 -3.23996,-2.52752 -2.99224,-4.61877c0.28278,-2.36968 2.55163,-4.05322 4.92129,-3.7551l2.3061,0.28936c2.34994,0.29594 4.11241,2.40036 3.85592,4.75688c-0.20168,1.83481 -1.52132,3.26406 -3.1961,3.70248l0.58309,5.09008c0.03069,0.27402 0.23455,0.49762 0.50637,0.5568c3.89758,0.85712 7.57375,2.30609 10.9277,4.24613c0.23455,0.13372 0.52391,0.11399 0.73217,-0.057l6.95557,-5.64469l-1.0566,-0.83958c-1.51912,-1.20566 -1.73397,-3.43942 -0.445,-4.91472c1.20566,-1.38322 3.32106,-1.50598 4.75689,-0.3639l5.40356,4.28996c1.51912,1.20347 1.73397,3.43943 0.445,4.91472c-1.20566,1.38104 -3.32105,1.50379 -4.75689,0.3639l-0.14687,-0.11618l-3.72441,8.08672c-0.11399,0.24332 -0.06137,0.53048 0.12714,0.72339c2.62176,2.68534 4.85334,5.7543 6.60264,9.11262c0.12714,0.24332 0.3924,0.38143 0.66421,0.34417l5.2808,-0.73875c-0.77601,-2.16581 0.37485,-4.56617 2.58889,-5.29175c2.111,-0.69271 4.38644,0.48007 5.16244,2.56258l1.21661,3.26187c0.76725,2.06277 -0.15344,4.42368 -2.17019,5.30053c-1.93345,0.83958 -4.1146,0.08112 -5.15366,-1.63313l-4.38203,2.97249c-0.23017,0.15564 -0.33322,0.44063 -0.25868,0.70805c0.90095,3.26625 1.38322,6.70348 1.38322,10.25469c0,0.59407 -0.01315,1.18375 -0.04165,1.76904c-0.01096,0.26963 0.14031,0.51734 0.38582,0.62475l8.21604,3.5885l0.25868,-1.32623c0.3639,-1.84796 2.15485,-3.05142 4.0006,-2.68972z" stroke="#f79595"/><path d="M311.72083,282.45489c0,-2.50597 2.42967,-4.53745 5.4268,-4.53745c2.99713,0 5.42679,2.03148 5.42679,4.53745c0,2.50597 -2.42966,4.53745 -5.42679,4.53745c-2.99713,0 -5.4268,-2.03148 -5.4268,-4.53745z" stroke="#ee6161"/><path d="M291.6323,310.71145c0,-3.27595 2.65568,-5.93164 5.93164,-5.93164c3.27595,0 5.93164,2.65568 5.93164,5.93164c0,3.27595 -2.65568,5.93164 -5.93164,5.93164c-3.27595,0 -5.93164,-2.65568 -5.93164,-5.93164z" stroke="#ee6161"/><path d="M316.43432,307.62122c0,-2.34555 1.90144,-4.24699 4.247,-4.24699c2.34555,0 4.247,1.90144 4.247,4.24699c0,2.34555 -1.90145,4.247 -4.247,4.247c-2.34555,0 -4.247,-1.90145 -4.247,-4.247z" stroke="#f9b1b1"/><path d="M300.86724,328.34722c0,-2.28042 1.84865,-4.12906 4.12906,-4.12906c2.28042,0 4.12906,1.84865 4.12906,4.12906c0,2.28042 -1.84865,4.12906 -4.12906,4.12906c-2.28042,0 -4.12906,-1.84865 -4.12906,-4.12906z" stroke="#f9b1b1"/><path d="M301.39333,339.80693c-0.30931,0.00724 -0.62541,0.01118 -0.93646,0.01118c-2.64369,0 -5.22162,-0.26963 -7.71405,-0.7782c-0.26306,-0.05262 -0.53268,0.05918 -0.67736,0.28498l-5.17121,8.11301l0.18195,0.06577c1.68354,0.6138 2.72699,2.20308 2.72699,3.89538c0,0.4735 -0.08112,0.95357 -0.25209,1.42269c0,2.42667 -1.8655,3.73318 -4.14528,2.90017l-6.35494,-2.31707c-2.12635,-0.77381 -3.23556,-3.10843 -2.50119,-5.24135c0.75408,-2.19869 3.25966,-3.30789 5.44302,-2.51217l0.14686,0.05262l1.05221,-9.5072c0.03069,-0.26744 -0.1096,-0.52172 -0.34855,-0.64668c-4.02472,-2.07813 -7.63513,-4.84676 -10.67559,-8.15028c-0.18414,-0.19949 -0.47131,-0.26523 -0.72121,-0.16221l-7.7557,3.18075c0.87685,1.6397 0.38362,3.71783 -1.21662,4.77004c-1.67039,1.09825 -3.92607,0.58749 -5.06598,-1.05221l-1.98605,-2.8607c-1.1114,-1.59805 -0.85274,-3.82524 0.67736,-5.0309c1.63093,-1.28457 3.95677,-0.95138 5.17777,0.66421l5.46274,-6.173c0.18195,-0.20605 0.21263,-0.5042 0.07891,-0.74312c-2.24253,-4.04225 -3.77701,-8.53171 -4.43683,-13.29956c-0.03726,-0.26744 -0.23236,-0.48445 -0.49322,-0.54364l-8.72899,-2.01675l-0.00877,1.02371c-0.00877,1.02371 -0.42966,1.95099 -1.10702,2.61958c-0.67517,0.67079 -1.60463,1.0829 -2.63054,1.0829c-2.03867,0 -3.68932,-1.66382 -3.66959,-3.70247l0.05699,-6.34177c0.01754,-2.07374 1.73177,-3.82087 3.80332,-3.76606c2.01018,0.05262 3.61479,1.70547 3.60383,3.72222l8.66544,-2.03209c0.26306,-0.06137 0.45816,-0.2784 0.49322,-0.54584c0.67956,-5.04185 2.33899,-9.77463 4.77881,-14.00102c0.13591,-0.23674 0.11181,-0.53268 -0.06577,-0.74313l-4.13214,-4.85334l-0.3595,0.4735c-1.11359,1.4731 -3.23996,1.72958 -4.67579,0.53488c-1.34596,-1.12237 -1.51037,-3.13473 -0.45377,-4.53109l2.7533,-3.63891c0.64011,-0.84397 1.6112,-1.28896 2.59546,-1.28896c0.68175,0 1.37007,0.21482 1.95755,0.65762c1.36129,1.0281 1.68135,2.9177 0.78258,4.33381l5.77841,2.49902c0.25428,0.1096 0.54803,0.04384 0.73655,-0.16002c2.72699,-2.99004 5.9209,-5.54605 9.46774,-7.5562c0.23236,-0.13372 0.3617,-0.39459 0.32225,-0.65982l-1.33061,-8.85833l-1.26265,0.48665c-1.80629,0.6949 -3.84278,-0.25428 -4.45876,-2.11319c-0.57871,-1.74274 0.39019,-3.62575 2.10224,-4.2834l6.44044,-2.47708c1.80849,-0.6949 3.84278,0.25209 4.45876,2.11319c0.57871,1.74054 -0.38801,3.62356 -2.10224,4.2834l-0.17318,0.06577l5.06817,7.30851c0.15344,0.22141 0.42527,0.32225 0.68613,0.25867c1.23152,-0.30207 2.48959,-0.54495 3.76386,-0.72471c-10.91431,8.31008 -17.96348,21.44325 -17.96348,36.21985c0,17.47377 9.86034,32.64758 24.3123,40.26848z" stroke="#f37c7c"/><path d="M274.85847,318.47022c0,-2.37558 1.92579,-4.30137 4.30137,-4.30137c2.37558,0 4.30137,1.92579 4.30137,4.30137c0,2.37558 -1.92579,4.30137 -4.30137,4.30137c-2.37558,0 -4.30137,-1.92579 -4.30137,-4.30137z" stroke="#ee6161"/><path d="M310.99415,299.53847h-1.45337c-0.90819,0 -1.64409,-0.73611 -1.64409,-1.64409c0,-0.90798 0.7359,-1.64409 1.64409,-1.64409h1.45337c0.90819,0 1.64409,0.73611 1.64409,1.64409c0,0.90798 -0.7359,1.64409 -1.64409,1.64409z" stroke="#f9b1b1"/><path d="M291.63208,328.27708h-1.49326c-0.90819,0 -1.64409,-0.73611 -1.64409,-1.64409c0,-0.90798 0.7359,-1.64409 1.64409,-1.64409h1.49326c0.90819,0 1.64409,0.73611 1.64409,1.64409c0,0.90798 -0.7359,1.64409 -1.64409,1.64409z" stroke="#f9b1b1"/><path d="M276.2967,304.33437h-1.43847c-0.90819,0 -1.64409,-0.73611 -1.64409,-1.64409c0,-0.90798 0.7359,-1.64408 1.64409,-1.64408h1.43847c0.90819,0 1.64409,0.7361 1.64409,1.64408c0,0.90798 -0.7359,1.64409 -1.64409,1.64409z" stroke="#ee6161"/><path d="M305.49719,275.57012h-2.00184c-0.90819,0 -1.64409,-0.73611 -1.64409,-1.64409c0,-0.90798 0.7359,-1.64409 1.64409,-1.64409h2.00184c0.90819,0 1.64409,0.73611 1.64409,1.64409c0,0.90798 -0.7359,1.64409 -1.64409,1.64409z" stroke="#f9b1b1"/><path d="M318.64484,322.92504h-2.21052c-0.90819,0 -1.64409,-0.73611 -1.64409,-1.64409c0,-0.90798 0.7359,-1.64409 1.64409,-1.64409h2.21052c0.90819,0 1.64409,0.73611 1.64409,1.64409c0,0.90798 -0.73611,1.64409 -1.64409,1.64409z" stroke="#ee6161"/><path d="M278.82612,293.99109c-3.23285,-4.09984 -1.87402,-10.56145 3.03506,-14.43242c4.90906,-3.87099 11.50942,-3.68547 14.74228,0.41437c3.23285,4.09984 1.87402,10.56145 -3.03507,14.43242c-4.90906,3.87099 -11.50941,3.68547 -14.74228,-0.41437z" stroke="#ee6161"/></g><g fill="none" stroke-width="2.5"><path d="M212.81935,253.13576c3.79103,11.22207 -2.233,23.39255 -13.45507,27.18358c-5.91583,1.99848 -12.09512,1.26958 -17.17121,-1.51092c-1.33311,-0.7296 -2.58956,-1.60154 -3.74603,-2.60149c-2.79327,-2.41793 -4.99856,-5.5898 -6.26634,-9.34266c-3.79103,-11.22207 2.233,-23.39255 13.45507,-27.18358c3.75369,-1.26807 7.61311,-1.4381 11.22907,-0.68226c1.49614,0.31232 2.95057,0.78288 4.33942,1.40125c5.28861,2.34834 9.61661,6.82025 11.61508,12.73607z" stroke="#f0cd00"/><path d="M212.81935,253.13576c3.70558,10.96912 -1.96558,22.84391 -12.70346,26.91397c-11.00629,3.27553 -22.71687,-2.72738 -26.42244,-13.6965c-3.70558,-10.96912 1.96558,-22.84391 12.70346,-26.91397c11.00629,-3.27553 22.71687,2.72738 26.42244,13.6965z" stroke="#ffde50"/><path d="M201.20426,240.39969l-19.01119,38.40873c-1.33311,-0.7296 -2.58956,-1.60154 -3.74603,-2.60149l18.41781,-37.2085c1.49614,0.31232 2.95057,0.78288 4.33942,1.40125z" stroke="#ffea94"/><path d="M208.9082,246.18068l-17.44656,35.24767c-2.11291,-0.10304 -4.18195,-0.51936 -6.14306,-1.21793l18.89641,-38.17684c1.74473,1.13572 3.3305,2.52843 4.69321,4.14709z" stroke="#ffea94"/><path d="M208.28937,254.66607c2.94575,8.71989 -1.73552,18.17756 -10.45542,21.12331c-3.03712,1.026 -6.16323,1.12663 -9.07293,0.45376c-1.26768,-0.29248 -2.49387,-0.73296 -3.65445,-1.3074c-0.85295,-0.42149 -1.67076,-0.91677 -2.44206,-1.4795c-1.062,-0.77499 -2.03703,-1.67823 -2.89765,-2.69683c-1.27368,-1.50553 -2.2984,-3.26425 -2.98899,-5.23194c-0.02351,-0.06413 -0.04536,-0.12882 -0.06722,-0.19351c-2.94575,-8.71989 1.7347,-18.17728 10.45542,-21.12331c0.06469,-0.02185 0.13021,-0.04399 0.19546,-0.06418c1.98338,-0.64415 4.00268,-0.89479 5.97189,-0.79587c1.3321,0.06744 2.64131,0.29414 3.90157,0.66859c0.91547,0.27287 1.80412,0.62224 2.65735,1.04456c1.16029,0.57362 2.25441,1.28233 3.25573,2.11293c2.29956,1.90556 4.11531,4.45227 5.14131,7.48939z" stroke="#faa300"/><path d="M199.89234,245.06374l-14.78575,29.87199c-0.85295,-0.42149 -1.67076,-0.91677 -2.44206,-1.4795c-1.062,-0.77499 -2.03703,-1.67823 -2.89765,-2.69683c-1.27368,-1.50553 -2.2984,-3.26425 -2.98899,-5.23194c-0.02351,-0.06413 -0.04536,-0.12882 -0.06722,-0.19351c-2.94575,-8.71989 1.7347,-18.17728 10.45542,-21.12331c0.06469,-0.02185 0.13021,-0.04399 0.19546,-0.06418c1.98338,-0.64415 4.00268,-0.89479 5.97189,-0.79587c1.3321,0.06744 2.64131,0.29414 3.90157,0.66859c0.91547,0.27287 1.80412,0.62224 2.65735,1.04456z" stroke="#ffbd00"/><path d="M208.28896,254.66621c2.94575,8.71989 -1.73552,18.17756 -10.45542,21.12331c-0.2994,0.10114 -0.59911,0.19316 -0.89997,0.27631c8.14916,-3.26761 12.41603,-12.37646 9.57143,-20.79696c-2.8446,-8.4205 -11.76124,-13.07571 -20.22251,-10.732c0.28964,-0.11633 0.58376,-0.22492 0.88316,-0.32606c8.71989,-2.94575 18.17756,1.73552 21.12331,10.45542z" stroke="#f68e00"/><path d="M195.33906,259.65354c1.42664,0.70615 2.44824,1.94691 3.03638,3.6879c0.99888,2.95684 -0.19681,6.13427 -2.70611,7.75581l0.42718,1.26452c0.28987,0.85806 -0.17073,1.78862 -1.02879,2.07849c-0.85806,0.28987 -1.78862,-0.17073 -2.07849,-1.02879l-0.42718,-1.26452c-2.97858,0.23237 -5.85625,-1.5691 -6.85509,-4.52586c-0.28987,-0.85806 0.17073,-1.78862 1.02879,-2.07849c0.85806,-0.28987 1.78862,0.17073 2.07849,1.02879c0.41093,1.21642 1.44611,2.0488 2.6284,2.26193l-2.16356,-6.40449c-1.52723,0.04588 -2.75468,-0.18062 -3.7951,-0.6956c-1.42697,-0.70631 -2.41057,-1.90788 -3.00698,-3.67334c-0.99885,-2.95675 0.19681,-6.13427 2.70611,-7.75581l-0.42718,-1.26452c-0.28987,-0.85806 0.17073,-1.78862 1.02879,-2.07849c0.85806,-0.28987 1.78862,0.17073 2.07849,1.02879l0.42721,1.26461c2.97855,-0.23245 5.85625,1.5691 6.85509,4.52586c0.28987,0.85806 -0.17073,1.78862 -1.02879,2.07849c-0.85806,0.28987 -1.78862,-0.17073 -2.07849,-1.02879c-0.41093,-1.21642 -1.44614,-2.04888 -2.62843,-2.26201l2.16017,6.39445c1.49,-0.04994 2.7322,0.17778 3.76908,0.69109zM188.16059,259.11759l-1.858,-5.49998c-0.81081,0.88652 -1.12914,2.17614 -0.71821,3.39257c0.40023,1.18474 0.93412,1.5756 1.3546,1.78366c0.33111,0.16396 0.73696,0.27125 1.2216,0.32376zM195.26816,264.39114c-0.39233,-1.16135 -1.01927,-1.95183 -2.58198,-2.12451l1.86374,5.51699c0.81083,-0.88644 1.12917,-2.17606 0.71823,-3.39248z" stroke="#f68e00"/><path d="M197.41263,258.95305c1.42664,0.70615 2.44824,1.94691 3.03638,3.6879c0.99888,2.95684 -0.19681,6.13427 -2.70611,7.75581l0.42718,1.26452c0.28987,0.85806 -0.17073,1.78862 -1.02879,2.07849c-0.85806,0.28987 -1.78862,-0.17073 -2.07849,-1.02879l-0.42718,-1.26452c-2.97858,0.23237 -5.85625,-1.5691 -6.85509,-4.52586c-0.28987,-0.85806 0.17073,-1.78862 1.02879,-2.07849c0.85806,-0.28987 1.78862,0.17073 2.07849,1.02879c0.41093,1.21642 1.44611,2.0488 2.6284,2.26193l-2.16356,-6.40449c-1.52723,0.04588 -2.75468,-0.18062 -3.7951,-0.6956c-1.42697,-0.70631 -2.41057,-1.90788 -3.00698,-3.67334c-0.99885,-2.95675 0.19681,-6.13427 2.70611,-7.75581l-0.42718,-1.26452c-0.28987,-0.85806 0.17073,-1.78862 1.02879,-2.07849c0.85806,-0.28987 1.78862,0.17073 2.07849,1.02879l0.42721,1.26461c2.97855,-0.23245 5.85625,1.5691 6.85509,4.52586c0.28987,0.85806 -0.17073,1.78862 -1.02879,2.07849c-0.85806,0.28987 -1.78862,-0.17073 -2.07849,-1.02879c-0.41093,-1.21642 -1.44614,-2.04888 -2.62843,-2.26201l2.16017,6.39445c1.48991,-0.04991 2.7322,0.17778 3.76908,0.69109zM190.23407,258.41713l-1.858,-5.49998c-0.81081,0.88652 -1.12914,2.17614 -0.71821,3.39257c0.40023,1.18474 0.93412,1.5756 1.3546,1.78366c0.3312,0.16393 0.73704,0.27123 1.2216,0.32376zM197.34173,263.69065c-0.39233,-1.16135 -1.01927,-1.95183 -2.58198,-2.12451l1.86374,5.51699c0.81083,-0.88644 1.12908,-2.17603 0.71823,-3.39248z" stroke="#ffea94"/></g><text transform="translate(146.18061,220.90233) rotate(-4.09325) scale(1.02627,1.02627)" font-size="40" xml:space="preserve" fill="#d0d0d0" fill-rule="nonzero" stroke="#d0d0d0" stroke-width="3" stroke-linecap="butt" stroke-linejoin="miter" stroke-miterlimit="10" stroke-dasharray="" stroke-dashoffset="0" font-family="Sans Serif" font-weight="normal" text-anchor="start" style="mix-blend-mode: normal"><tspan x="0" dy="0">A COLLAB</tspan></text><g fill="none" stroke-width="3.5"><path d="M448.07457,242.89591l-0.19728,1.12467c-0.05817,0.33164 -0.37402,0.55322 -0.70566,0.49504l-6.86076,-1.20346c-0.37489,-0.06576 -0.73365,0.18477 -0.79964,0.56098l-1.05802,5.99317l-6.9997,-1.22783l0.70956,-4.04515c0.57896,-3.3006 -1.62687,-6.44657 -4.9288,-7.02576l-1.30557,-0.22901l-2.12779,-0.89113l0.63146,-3.59986l2.44456,-0.91477l15.40197,2.70168c3.88129,0.68082 6.47671,4.37882 5.79566,8.26143z" stroke="#f9f3f1"/><path d="M438.81328,247.82669l-0.36006,2.03962l-4.43787,-0.77845l-2.56184,-0.44938l0.70956,-4.04515c0.57906,-3.30114 -1.62766,-6.44671 -4.9288,-7.02576l-1.30557,-0.22901l-2.12779,-0.89113l0.63146,-3.59986l0.8662,-0.32419l-0.28619,1.63156c-0.08648,0.493 0.24308,0.96276 0.73608,1.04924l4.84473,0.84982c3.30114,0.57906 5.50785,3.72462 4.9288,7.02576c-0.09094,0.51842 0.25562,1.01225 0.77391,1.10317l3.06571,0.53776z" stroke="#f3eae6"/><path d="M440.10198,248.23271l-0.88518,5.04634l-9.30922,-1.63294l0.88518,-5.04634c0.12738,-0.72619 0.81933,-1.21161 1.54552,-1.08423l6.6796,1.17168c0.72619,0.12738 1.21164,0.81919 1.0841,1.5455z" stroke="#efe2dd"/><path d="M430.00728,249.50177l9.83157,1.72457c0.7406,0.12991 1.23565,0.83557 1.10574,1.57618l-0.43868,2.50089l4.96376,5.14489c1.39274,1.44358 2.01161,3.46602 1.66501,5.44192l-5.0964,29.05401c-0.64771,3.69253 -4.16629,6.16094 -7.85884,5.51322l-17.80205,-3.12268c-3.69253,-0.64771 -6.16094,-4.16629 -5.51322,-7.85884l4.66653,-26.60333c0.24869,-1.41777 1.17595,-2.62382 2.48223,-3.22848l9.61354,-4.45014l0.80453,-4.58651c0.12993,-0.74074 0.83559,-1.23578 1.57631,-1.10571z" stroke="#f2fbff"/><path d="M424.30302,298.72515l-7.92566,-1.39025c-3.69253,-0.64771 -6.16094,-4.16629 -5.51322,-7.85884l4.66653,-26.60333c0.24869,-1.41777 1.17595,-2.62382 2.48223,-3.22848l9.61357,-4.45028l0.80453,-4.58651c0.12991,-0.7406 0.83557,-1.23565 1.57618,-1.10574l7.92566,1.39025c-0.7406,-0.12991 -1.44627,0.36513 -1.57618,1.10574l-0.36235,2.0657c-0.27697,1.579 -1.30978,2.92232 -2.7646,3.59576l-7.29112,3.37518c-1.30628,0.60465 -2.23354,1.81071 -2.48223,3.22848l-4.66653,26.60333c-0.64774,3.69267 1.82056,7.2111 5.5132,7.85897z" stroke="#dff6fd"/><path d="M426.87695,231.9328l-0.94823,5.40577l-3.53918,-0.62081c-0.49287,-0.08645 -0.82276,-0.55506 -0.73631,-1.04793l0.63553,-3.62306c0.08645,-0.49287 0.55615,-0.82122 1.04901,-0.73476z" stroke="#f3eae6"/><path d="M426.28654,235.29868l-0.35782,2.03987l-3.53918,-0.62081c-0.49287,-0.08645 -0.82276,-0.55506 -0.73631,-1.04793l0.63553,-3.62306c0.08645,-0.49287 0.55615,-0.82122 1.04901,-0.73476l2.10857,0.36987l-0.43406,2.47454c-0.08645,0.49287 0.24344,0.96147 0.73631,1.04793z" stroke="#efe2dd"/><path d="M432.51706,252.52716l3.94552,0.69209l-4.75588,27.11271l-3.94552,-0.69209z" stroke="#dff6fd"/><path d="M436.1518,253.16473l-0.15766,0.89882c-0.27697,1.579 -1.30978,2.92232 -2.7646,3.59576l-1.75524,0.81248l1.04276,-5.94464z" stroke="#c8effe"/><path d="M436.83163,255.39188c-0.13864,0.3236 -0.48172,0.50932 -0.82856,0.44848l-3.94539,-0.69207c-0.34684,-0.06084 -0.60622,-0.35224 -0.62645,-0.70371l-0.27331,-4.74112l7.54448,1.32339z" stroke="#dff6fd"/><path d="M436.3565,251.99772l-0.36235,2.0657c-0.10473,0.59707 -0.31796,1.16025 -0.62078,1.6665l-3.31569,-0.58161c-0.34684,-0.06084 -0.60622,-0.35224 -0.62645,-0.70371l-0.27331,-4.74112l6.77451,1.18833c-0.74052,-0.12962 -1.44589,0.36534 -1.57593,1.10592z" stroke="#c8effe"/><path d="M440.59343,280.0762l-2.37012,13.51179c-0.33131,1.88874 -2.13104,3.15131 -4.01978,2.82l-16.47027,-2.88907c-1.88874,-0.33131 -3.15131,-2.13104 -2.82,-4.01978l2.37012,-13.51179c0.08344,-0.47569 0.5367,-0.79356 1.01227,-0.71014l21.58754,3.7867c0.47583,0.08347 0.79368,0.53672 0.71026,1.01229z" stroke="#fef48b"/><path d="M421.42805,275.82668l-2.63813,15.03966c-0.17224,0.98193 -0.12225,1.95095 0.11056,2.85746l-1.16714,-0.20473c-1.88874,-0.33131 -3.15131,-2.13104 -2.82,-4.01978l2.37012,-13.51179c0.08344,-0.47569 0.5366,-0.7937 1.01229,-0.71026l3.13217,0.54942z" stroke="#fef056"/><path d="M432.16657,277.71034l-2.17859,12.41988c-0.04484,0.2556 -0.28804,0.42507 -0.54233,0.38046l-3.02141,-0.52999c-0.2556,-0.04484 -0.42661,-0.28696 -0.38178,-0.54256l2.17859,-12.41988z" stroke="#fef056"/></g><text transform="translate(146.18062,219.90233) rotate(-4.09325) scale(1.02627,1.02627)" font-size="40" xml:space="preserve" fill="#ffffff" fill-rule="nonzero" stroke="#ffffff" stroke-width="1" stroke-linecap="butt" stroke-linejoin="miter" stroke-miterlimit="10" stroke-dasharray="" stroke-dashoffset="0" font-family="Sans Serif" font-weight="normal" text-anchor="start" style="mix-blend-mode: normal"><tspan x="0" dy="0">A COLLAB</tspan></text></g></g></svg>