<svg version="1.1" xmlns="http://www.w3.org/2000/svg" xmlns:xlink="http://www.w3.org/1999/xlink" width="134.37007" height="22.66228" viewBox="0,0,134.37007,22.66228"><g transform="translate(-172.81496,-168.66886)"><g data-paper-data="{&quot;isPaintingLayer&quot;:true}" fill="#000000" fill-rule="nonzero" stroke="none" stroke-width="1" stroke-linecap="butt" stroke-linejoin="miter" stroke-miterlimit="10" stroke-dasharray="" stroke-dashoffset="0" style="mix-blend-mode: normal"><g><path d="M183.32977,168.70541c6.65248,0.02437 7.66375,0.04874 7.76122,0.20713c0.18276,0.28023 0.15839,4.78832 -0.02437,4.97108c-0.10966,0.10966 -1.69358,0.14621 -6.39661,0.14621h-6.2504v2.92416v2.92416h6.20167c5.48281,0 6.22603,0.02437 6.39661,0.19494c0.15839,0.15839 0.19494,0.56046 0.19494,2.53428c0,1.65703 -0.03655,2.37588 -0.14621,2.48554c-0.10966,0.10966 -2.02255,0.14621 -7.88306,0.14621h-7.74904l-0.6092,-0.29242c-0.35334,-0.15839 -0.8407,-0.5361 -1.13311,-0.86507c-0.86507,-0.98691 -0.87725,-1.09656 -0.87725,-7.05455c0,-3.13129 0.06092,-5.47063 0.13402,-5.78741c0.2315,-1.02346 1.29151,-2.1322 2.31496,-2.4368c0.25586,-0.0731 3.37497,-0.10966 8.06582,-0.09747zM190.60363,169.27806l-7.3957,0.01218c-4.08165,0.01218 -7.59064,0.06092 -7.79777,0.10966c-0.47518,0.10966 -1.1453,0.59702 -1.48645,1.07219c-0.47518,0.68231 -0.51173,1.19403 -0.47518,6.84742c0.03655,5.99454 0.01218,5.73867 0.85288,6.54282c0.81633,0.79196 0.5361,0.76759 8.80905,0.76759h7.49317v-2.07128v-2.07128h-6.39661h-6.39661v-3.53337v-3.53337h6.39661h6.39661v-2.07128z"/><path d="M196.00116,168.70541c1.99818,0.02437 2.42462,0.06092 2.52209,0.20713c0.0731,0.10966 0.12184,2.40025 0.12184,5.5681v5.39752h6.20167c5.48281,0 6.22603,0.02437 6.39661,0.19494c0.29242,0.28023 0.29242,4.69085 0,4.97108c-0.17058,0.18276 -0.99909,0.19494 -8.0049,0.17058c-7.29823,-0.03655 -7.84651,-0.04874 -8.27295,-0.25586c-0.59702,-0.3046 -1.25495,-0.96254 -1.59611,-1.58392c-0.26805,-0.51173 -0.26805,-0.5361 -0.3046,-7.27386c-0.01218,-3.71613 0,-6.88397 0.03655,-7.03018c0.03655,-0.14621 0.15839,-0.29242 0.28023,-0.31678c0.10966,-0.03655 1.29151,-0.06092 2.61956,-0.04874zM198.03589,169.27806h-2.10784c-1.16967,0 -2.15657,0.03655 -2.19312,0.08529c-0.04874,0.03655 -0.08529,3.00945 -0.08529,6.60374c0,6.14075 0.02437,6.56719 0.2315,7.04236c0.13402,0.26805 0.40207,0.67012 0.62139,0.86507c0.81633,0.79196 0.43862,0.75541 8.76031,0.75541h7.56628v-2.07128v-2.07128h-6.39661h-6.39661v-5.60465z"/><path d="M215.86111,168.66886c1.73013,0 2.41244,0.03655 2.57083,0.15839c0.19494,0.13402 0.20713,0.40207 0.19494,2.58301c0,1.76668 -0.04874,2.44899 -0.15839,2.52209c-0.0731,0.04874 -1.27932,0.09747 -2.6683,0.09747c-2.37588,0 -2.53428,-0.01218 -2.65612,-0.2315c-0.0731,-0.14621 -0.12184,-1.15748 -0.12184,-2.4368c0,-2.04692 0.01218,-2.21749 0.24368,-2.44899c0.2315,-0.2315 0.40207,-0.24368 2.5952,-0.24368zM218.01768,169.27806h-2.10784c-1.16967,0 -2.15657,0.03655 -2.19312,0.08529c-0.04874,0.03655 -0.08529,0.97472 -0.08529,2.07128v1.986h2.19312h2.19312v-2.07128z"/><path d="M230.32354,168.68105c6.60374,-0.01218 7.52972,0.01218 7.7734,0.18276c0.25586,0.18276 0.26805,0.24368 0.26805,2.4368c0,1.32806 -0.04874,2.35152 -0.12184,2.49772c-0.12184,0.21931 -0.32897,0.2315 -6.39661,0.2315h-6.27477v2.92416v2.92416h6.20167c5.48281,0 6.22603,0.02437 6.39661,0.19494c0.29242,0.28023 0.29242,4.69085 0,4.97108c-0.17058,0.17058 -1.04783,0.19494 -7.91961,0.19494c-7.56628,0 -7.73685,0 -8.26077,-0.25586c-0.67012,-0.31678 -1.32806,-0.93817 -1.69358,-1.60829c-0.26805,-0.51173 -0.26805,-0.5361 -0.26805,-6.42098v-5.90925l0.32897,-0.57265c0.43862,-0.73104 1.23059,-1.40116 1.92508,-1.62047c0.43862,-0.13402 1.986,-0.17058 8.04145,-0.17058zM237.69487,169.33898l-7.37133,-0.02437c-4.05728,-0.01218 -7.42007,0 -7.49317,0.02437c-0.06092,0.02437 -0.26805,0.0731 -0.46299,0.10966c-0.46299,0.10966 -1.29151,0.88943 -1.55955,1.47427c-0.20713,0.45081 -0.2315,0.92599 -0.2315,5.95799c0,3.75268 0.04874,5.61683 0.13402,5.93362c0.17058,0.56046 0.79196,1.23059 1.43771,1.57174c0.47518,0.2315 0.68231,0.24368 8.05364,0.24368h7.55409v-2.07128v-2.07128h-6.39661h-6.39661v-3.53337v-3.53337h6.39661h6.39661l-0.02437,-2.04692z"/><path d="M243.06803,168.66886c1.81542,0 2.3637,0.03655 2.55864,0.17058c0.21931,0.15839 0.2315,0.36552 0.26805,2.92416l0.03655,2.75359h1.60829h1.60829l2.49772,-2.85106c1.37679,-1.57174 2.60738,-2.88761 2.7414,-2.92416c0.13402,-0.03655 1.46208,-0.0731 2.93635,-0.0731c2.4368,0 2.72922,0.02437 2.9729,0.21931c0.20713,0.17058 0.25586,0.3046 0.20713,0.52391c-0.04874,0.15839 -1.51082,1.93726 -3.25313,3.93544c-2.75359,3.18003 -3.14348,3.67957 -2.99727,3.83797c0.13402,0.15839 8.15111,9.39388 10.75849,12.40333c0.81633,0.93817 0.96254,1.38898 0.5361,1.62047c-0.29242,0.14621 -5.84833,0.17058 -6.07983,0.01218c-0.08529,-0.04874 -2.44899,-2.71704 -5.23913,-5.90925l-5.08074,-5.81178l-1.60829,-0.02437l-1.62047,-0.02437v2.61956c0,2.18094 -0.03655,2.6683 -0.19494,2.8998c-0.18276,0.25586 -0.24368,0.26805 -2.65612,0.26805c-1.7545,0 -2.49772,-0.03655 -2.60738,-0.14621c-0.10966,-0.10966 -0.14621,-2.08347 -0.14621,-8.16329c0,-7.49317 0.01218,-8.01709 0.21931,-8.12674c0.12184,-0.0731 1.18185,-0.13402 2.53428,-0.13402zM245.24896,169.33898l-2.15657,-0.03655l-2.16876,-0.02437v7.67593v7.67593h2.19312h2.19312l0.02437,-2.8998l0.03655,-2.88761l1.8276,-0.02437c1.01127,-0.01218 1.93726,0 2.07128,0.03655c0.13402,0.03655 2.54646,2.71704 5.36097,5.95799l5.11729,5.89707l2.72922,0.01218h2.72922l-0.24368,-0.28023c-1.02346,-1.13311 -11.61137,-13.37805 -11.61137,-13.42679c0,-0.03655 1.4499,-1.7545 3.22877,-3.8136c1.77887,-2.0591 3.22877,-3.77705 3.22877,-3.82578c0,-0.06092 -1.19403,-0.09747 -2.64393,-0.09747l-2.65612,0.01218l-2.53428,2.91198l-2.54646,2.92416h-2.0591h-2.0591l-0.02437,-2.8998z"/><path d="M271.56645,168.70541c7.24949,0.02437 7.31041,0.02437 7.79777,0.29242c0.6092,0.31678 1.47427,1.23059 1.74231,1.83979c0.17058,0.3777 0.20713,0.88943 0.20713,3.25313c0,2.5952 -0.02437,2.83888 -0.25586,3.36279c-0.32897,0.70667 -1.02346,1.41335 -1.74231,1.74231c-0.54828,0.24368 -0.70667,0.25586 -6.05546,0.25586c-4.47154,0 -5.53155,-0.03655 -5.68994,-0.17058c-0.18276,-0.14621 -0.20713,-0.46299 -0.20713,-2.25404c0,-1.48645 0.04874,-2.15657 0.15839,-2.30278c0.13402,-0.18276 0.56046,-0.20713 4.16693,-0.2315c3.48463,-0.03655 4.02073,-0.06092 4.02073,-0.21931c0,-0.15839 -0.58483,-0.18276 -4.3497,-0.21931c-4.09383,-0.02437 -4.36188,-0.01218 -4.37406,0.18276c-0.02437,0.35334 -0.02437,0.57265 -0.01218,3.16785l0.02437,2.47336h6.99363c6.34787,0 7.00581,0.02437 7.15202,0.20713c0.24368,0.29242 0.24368,4.66648 0,4.9589c-0.15839,0.18276 -0.8407,0.19494 -8.83341,0.17058c-8.6141,-0.03655 -8.66284,-0.03655 -9.1502,-0.3046c-0.64575,-0.34115 -1.20622,-0.95035 -1.51082,-1.62047c-0.24368,-0.52391 -0.25586,-0.77978 -0.25586,-6.28695c0,-6.43316 -0.02437,-6.20167 0.87725,-7.18857c0.5361,-0.58483 1.01127,-0.87725 1.62047,-1.03564c0.20713,-0.04874 3.65521,-0.08529 7.67593,-0.0731zM271.50553,169.31461c-4.60556,-0.01218 -7.40788,0.02437 -7.67593,0.10966c-0.6092,0.17058 -1.15748,0.63357 -1.54737,1.29151l-0.34115,0.57265v5.72649v5.72649l0.28023,0.45081c0.38989,0.62139 1.03564,1.15748 1.57174,1.31587c0.31678,0.08529 3.00945,0.12184 8.67502,0.09747l8.21203,-0.03655l-0.01218,-2.01036l-0.01218,-2.01036l-7.18857,-0.06092l-7.18857,-0.06092l0.02437,-3.47245l0.02437,-3.47245h4.99545h4.99545l0.03655,0.81633l0.03655,0.82851h-4.21567h-4.20349v1.8276v1.8276l5.09292,0.01218c2.79014,0.01218 5.25131,0 5.44626,-0.01218c0.56046,-0.02437 1.41335,-0.6092 1.80323,-1.23059l0.34115,-0.56046l-0.01218,-2.8998c0,-2.38807 -0.03655,-2.94853 -0.19494,-3.26532c-0.28023,-0.54828 -0.64575,-0.92599 -1.20622,-1.2184c-0.48736,-0.26805 -0.57265,-0.26805 -7.73685,-0.29242z"/><path d="M291.79192,168.70541c7.96835,0.02437 8.04145,0.02437 8.52881,0.29242c0.62139,0.32897 1.35243,1.06001 1.68139,1.68139c0.25586,0.46299 0.26805,0.64575 0.26805,3.41153c0,2.76577 -0.01218,2.94853 -0.26805,3.41153c-0.52391,0.97472 -1.69358,1.87634 -2.46117,1.88852c-0.19494,0 -0.25586,0.04874 -0.21931,0.18276c0.04874,0.09747 1.81542,2.57083 3.93544,5.50718c2.1322,2.93635 3.8867,5.44626 3.92325,5.59247c0.02437,0.13402 -0.04874,0.34115 -0.15839,0.45081c-0.17058,0.18276 -0.54828,0.20713 -2.87543,0.20713h-2.68048l-0.28023,-0.3046c-0.14621,-0.15839 -2.16876,-2.81451 -4.47154,-5.89707l-4.1913,-5.60465l-1.79105,-0.01218h-1.80323v2.5952c0,2.14439 -0.03655,2.63175 -0.19494,2.86324c-0.18276,0.25586 -0.24368,0.26805 -2.65612,0.26805c-1.7545,0 -2.49772,-0.03655 -2.60738,-0.14621c-0.20713,-0.20713 -0.20713,-10.22239 0,-10.42952c0.10966,-0.10966 1.76668,-0.14621 6.70121,-0.14621c6.46971,0 6.555,0 6.555,-0.24368c0,-0.24368 -0.08529,-0.24368 -6.555,-0.24368c-4.93453,0 -6.59155,-0.03655 -6.70121,-0.14621c-0.10966,-0.10966 -0.14621,-0.8407 -0.14621,-2.55864c0,-2.15657 0.02437,-2.41244 0.21931,-2.52209c0.13402,-0.08529 2.85106,-0.12184 8.24858,-0.09747zM291.41422,169.27806h-7.48099v2.07128v2.07128l6.66466,0.02437l6.66466,0.03655v0.82851l0.01218,0.81633h-6.66466h-6.67684v4.75177v4.75177h2.1322h2.1322l0.02437,-2.8998l0.03655,-2.88761l2.21749,-0.03655l2.21749,-0.02437l4.48372,5.95799l4.48372,5.97017l2.41244,0.01218c1.31587,0 2.40025,-0.03655 2.40025,-0.09747c-0.01218,-0.04874 -1.92508,-2.71704 -4.26441,-5.93362l-4.25222,-5.84833l0.99909,-0.06092c1.19403,-0.0731 1.71795,-0.34115 2.26623,-1.16967c0.47518,-0.73104 0.5361,-1.1453 0.47518,-3.95981c-0.03655,-2.25404 -0.04874,-2.38807 -0.34115,-2.8998c-0.42644,-0.75541 -1.03564,-1.20622 -1.81542,-1.35243c-0.40207,-0.0731 -3.55773,-0.12184 -8.12674,-0.12184z"/><path d="M218.50504,174.71214c0.18276,0.18276 0.17058,10.1371 -0.01218,10.3686c-0.10966,0.12184 -0.69449,0.15839 -2.5952,0.15839c-1.34024,0 -2.53428,-0.06092 -2.63175,-0.12184c-0.15839,-0.09747 -0.18276,-0.81633 -0.21931,-4.9589c-0.01218,-2.6683 0,-4.97108 0.03655,-5.12947c0.03655,-0.15839 0.19494,-0.32897 0.34115,-0.38989c0.3777,-0.15839 4.91016,-0.09747 5.08074,0.0731zM218.01768,175.12639h-2.10784c-1.16967,0 -2.15657,0.03655 -2.19312,0.08529c-0.04874,0.03655 -0.08529,2.18094 -0.08529,4.75177v4.66648h2.19312h2.19312v-4.75177z"/></g></g></g></svg>