<svg version="1.1" xmlns="http://www.w3.org/2000/svg" xmlns:xlink="http://www.w3.org/1999/xlink" width="92.20021" height="15.9663" viewBox="0,0,92.20021,15.9663"><g transform="translate(-193.89829,-172.01685)"><g data-paper-data="{&quot;isPaintingLayer&quot;:true}" fill="#ffc910" fill-rule="nonzero" stroke="#ffc910" stroke-width="0.5" stroke-linecap="butt" stroke-linejoin="miter" stroke-miterlimit="10" stroke-dasharray="" stroke-dashoffset="0" style="mix-blend-mode: normal"><g><path d="M201.32433,172.2918c4.54011,0.01663 5.23027,0.03326 5.29679,0.14136c0.12473,0.19125 0.1081,3.26788 -0.01663,3.39261c-0.07484,0.07484 -1.15582,0.09978 -4.36549,0.09978h-4.2657v1.99565v1.99565h4.23244c3.74185,0 4.24908,0.01663 4.36549,0.13304c0.1081,0.1081 0.13304,0.3825 0.13304,1.72956c0,1.13087 -0.02495,1.62147 -0.09978,1.6963c-0.07484,0.07484 -1.38032,0.09978 -5.37994,0.09978h-5.28848l-0.41576,-0.19957c-0.24114,-0.1081 -0.57375,-0.36587 -0.77332,-0.59038c-0.59038,-0.67353 -0.5987,-0.74837 -0.5987,-4.81451c0,-2.13701 0.04158,-3.73353 0.09147,-3.94973c0.15799,-0.69848 0.88141,-1.45516 1.57989,-1.66304c0.17462,-0.04989 2.30331,-0.07484 5.50467,-0.06652zM206.28851,172.68261l-5.04734,0.00832c-2.7856,0.00832 -5.18038,0.04158 -5.32174,0.07484c-0.32429,0.07484 -0.78163,0.40745 -1.01446,0.73174c-0.32429,0.46565 -0.34924,0.81489 -0.32429,4.67315c0.02494,4.09109 0.00832,3.91647 0.58206,4.46527c0.55712,0.54049 0.36587,0.52386 6.0119,0.52386h5.11386v-1.41359v-1.41359h-4.36549h-4.36549v-2.41141v-2.41141h4.36549h4.36549v-1.41359z"/><path d="M209.97215,172.2918c1.3637,0.01663 1.65473,0.04157 1.72125,0.14136c0.04989,0.07484 0.08316,1.6381 0.08316,3.80006v3.68364h4.23244c3.74185,0 4.24908,0.01663 4.36549,0.13304c0.19956,0.19125 0.19956,3.20136 0,3.39261c-0.11641,0.12473 -0.68185,0.13304 -5.4631,0.11641c-4.98082,-0.02494 -5.355,-0.03326 -5.64603,-0.17462c-0.40744,-0.20788 -0.85647,-0.6569 -1.0893,-1.08098c-0.18294,-0.34924 -0.18294,-0.36587 -0.20788,-4.96418c-0.00832,-2.53614 0,-4.6981 0.02495,-4.79788c0.02494,-0.09978 0.1081,-0.19956 0.19125,-0.2162c0.07484,-0.02494 0.88141,-0.04158 1.78777,-0.03326zM211.36079,172.68261h-1.43853c-0.79826,0 -1.47179,0.02495 -1.49674,0.05821c-0.03326,0.02494 -0.05821,2.05386 -0.05821,4.50685c0,4.19087 0.01663,4.4819 0.15799,4.8062c0.09147,0.18294 0.2744,0.45734 0.42408,0.59038c0.55712,0.54049 0.29935,0.51554 5.97864,0.51554h5.16375v-1.41359v-1.41359h-4.36549h-4.36549v-3.825z"/><path d="M223.52596,172.26685c1.18076,0 1.64641,0.02495 1.75451,0.1081c0.13304,0.09147 0.14136,0.2744 0.13304,1.76282c0,1.20571 -0.03326,1.67136 -0.1081,1.72125c-0.04989,0.03326 -0.8731,0.06652 -1.82103,0.06652c-1.62147,0 -1.72957,-0.00832 -1.81272,-0.15799c-0.04989,-0.09978 -0.08315,-0.78995 -0.08315,-1.66304c0,-1.39696 0.00832,-1.51337 0.1663,-1.67136c0.15799,-0.15799 0.2744,-0.1663 1.77114,-0.1663zM224.99775,172.68261h-1.43853c-0.79826,0 -1.4718,0.02495 -1.49674,0.05821c-0.03326,0.02494 -0.0582,0.66522 -0.0582,1.41359v1.35538h1.49674h1.49674v-1.41359z"/><path d="M233.39612,172.27516c4.50685,-0.00832 5.1388,0.00832 5.30511,0.12473c0.17462,0.12473 0.18294,0.1663 0.18294,1.66304c0,0.90636 -0.03326,1.60484 -0.08315,1.70462c-0.08315,0.14967 -0.22451,0.15799 -4.36549,0.15799h-4.28234v1.99565v1.99565h4.23245c3.74185,0 4.24908,0.01663 4.36549,0.13304c0.19956,0.19125 0.19956,3.20136 0,3.39261c-0.11641,0.11641 -0.71511,0.13304 -5.40489,0.13304c-5.16375,0 -5.28016,0 -5.63772,-0.17462c-0.45734,-0.2162 -0.90636,-0.64027 -1.15582,-1.09761c-0.18294,-0.34924 -0.18293,-0.36587 -0.18293,-4.38212v-4.03288l0.22451,-0.39082c0.29935,-0.49891 0.83984,-0.95625 1.3138,-1.10592c0.29935,-0.09147 1.35538,-0.11641 5.48804,-0.11641zM238.42682,172.72418l-5.0307,-0.01663c-2.76897,-0.00832 -5.06396,0 -5.11386,0.01663c-0.04158,0.01663 -0.18294,0.0499 -0.31598,0.07484c-0.31598,0.07484 -0.88141,0.60701 -1.06435,1.00614c-0.14136,0.30766 -0.15799,0.63196 -0.15799,4.06614c0,2.56109 0.03326,3.83332 0.09147,4.04951c0.11641,0.3825 0.54049,0.83983 0.9812,1.07266c0.32429,0.15799 0.46565,0.16631 5.49636,0.16631h5.15544v-1.41359v-1.41359h-4.36549h-4.36549v-2.41141v-2.41141h4.36549h4.36549l-0.01663,-1.39696z"/><path d="M242.09383,172.26685c1.23897,0 1.61315,0.02495 1.7462,0.11642c0.14967,0.1081 0.15799,0.24945 0.18294,1.99565l0.02494,1.87924h1.09761h1.09761l1.70462,-1.94576c0.93962,-1.07266 1.77946,-1.97071 1.87092,-1.99565c0.09147,-0.02494 0.99783,-0.04989 2.00397,-0.04989c1.66304,0 1.86261,0.01663 2.02891,0.14968c0.14136,0.11641 0.17462,0.20788 0.14136,0.35755c-0.03326,0.1081 -1.03109,1.32212 -2.22016,2.68582c-1.87924,2.17027 -2.14533,2.5112 -2.04554,2.61929c0.09147,0.1081 5.56288,6.41103 7.34234,8.46489c0.55712,0.64027 0.6569,0.94794 0.36587,1.10592c-0.19956,0.09978 -3.99131,0.11641 -4.1493,0.00832c-0.05821,-0.03326 -1.67136,-1.85429 -3.57554,-4.03288l-3.46745,-3.96636l-1.09761,-0.01663l-1.10592,-0.01663v1.78777c0,1.48842 -0.02495,1.82103 -0.13304,1.97902c-0.12473,0.17462 -0.1663,0.18294 -1.81272,0.18294c-1.19739,0 -1.70462,-0.02495 -1.77946,-0.09978c-0.07484,-0.07484 -0.09978,-1.4219 -0.09978,-5.5712c0,-5.11386 0.00832,-5.47141 0.14968,-5.54625c0.08315,-0.04989 0.80658,-0.09147 1.72956,-0.09147zM243.58226,172.72418l-1.47179,-0.02494l-1.48011,-0.01663v5.23859v5.23859h1.49674h1.49674l0.01663,-1.97902l0.02494,-1.9707l1.24728,-0.01663c0.69016,-0.00832 1.32212,0 1.41358,0.02494c0.09147,0.02494 1.73788,1.8543 3.6587,4.06614l3.49239,4.02456l1.86261,0.00832h1.86261l-0.1663,-0.19125c-0.69848,-0.77332 -7.9244,-9.13011 -7.9244,-9.16337c0,-0.02494 0.98951,-1.19739 2.20353,-2.60266c1.21402,-1.40527 2.20353,-2.57772 2.20353,-2.61098c0,-0.04158 -0.81489,-0.06652 -1.8044,-0.06652l-1.81272,0.00832l-1.72956,1.98734l-1.73788,1.99565h-1.40527h-1.40527l-0.01663,-1.97902z"/><path d="M261.54312,172.2918c4.94755,0.01663 4.98913,0.01663 5.32174,0.19956c0.41576,0.2162 1.00614,0.83984 1.18908,1.2556c0.11641,0.25777 0.14136,0.60701 0.14136,2.22016c0,1.77114 -0.01663,1.93744 -0.17462,2.295c-0.22451,0.48228 -0.69848,0.96456 -1.18908,1.18908c-0.37418,0.1663 -0.48228,0.17462 -4.13266,0.17462c-3.05168,0 -3.77511,-0.02494 -3.8832,-0.11641c-0.12473,-0.09978 -0.14136,-0.31598 -0.14136,-1.53832c0,-1.01446 0.03326,-1.47179 0.1081,-1.57158c0.09147,-0.12473 0.3825,-0.14136 2.8438,-0.15799c2.37815,-0.02494 2.74402,-0.04158 2.74402,-0.14968c0,-0.1081 -0.39913,-0.12473 -2.96853,-0.14967c-2.79391,-0.01663 -2.97685,-0.00832 -2.98516,0.12473c-0.01663,0.24114 -0.01663,0.39082 -0.00831,2.16196l0.01663,1.68799h4.77294c4.33223,0 4.78125,0.01663 4.88103,0.14136c0.1663,0.19956 0.1663,3.18473 0,3.38429c-0.1081,0.12473 -0.57375,0.13304 -6.02853,0.11641c-5.87886,-0.02494 -5.91212,-0.02494 -6.24473,-0.20788c-0.44071,-0.23283 -0.82321,-0.64859 -1.03109,-1.10592c-0.1663,-0.35756 -0.17462,-0.53218 -0.17462,-4.29065c0,-4.39044 -0.01663,-4.23244 0.5987,-4.90598c0.36587,-0.39913 0.69016,-0.5987 1.10592,-0.7068c0.14136,-0.03326 2.49457,-0.0582 5.23859,-0.04989zM261.50155,172.70756c-3.14315,-0.00832 -5.05565,0.01663 -5.23859,0.07484c-0.41576,0.11641 -0.78994,0.43239 -1.05603,0.88141l-0.23282,0.39082v3.90815v3.90815l0.19125,0.30766c0.26609,0.42408 0.7068,0.78994 1.07266,0.89804c0.2162,0.05821 2.05386,0.08316 5.92043,0.06652l5.60446,-0.02494l-0.00832,-1.37201l-0.00831,-1.37201l-4.90598,-0.04158l-4.90598,-0.04158l0.01663,-2.36984l0.01663,-2.36984h3.40924h3.40924l0.02495,0.55712l0.02494,0.56543h-2.87706h-2.86875v1.24728v1.24728l3.47576,0.00831c1.90418,0.00832 3.58386,0 3.7169,-0.00831c0.3825,-0.01663 0.96456,-0.41576 1.23065,-0.83984l0.23283,-0.3825l-0.00832,-1.97902c0,-1.62978 -0.02495,-2.01228 -0.13304,-2.22848c-0.19125,-0.37418 -0.44071,-0.63196 -0.82321,-0.83152c-0.33261,-0.18294 -0.39081,-0.18293 -5.28016,-0.19956z"/><path d="M275.34638,172.2918c5.43815,0.01663 5.48804,0.01663 5.82065,0.19956c0.42408,0.22451 0.92299,0.72342 1.1475,1.1475c0.17462,0.31598 0.18294,0.4407 0.18294,2.32826c0,1.88756 -0.00832,2.01228 -0.18294,2.32826c-0.35756,0.66522 -1.15581,1.28054 -1.67967,1.28886c-0.13304,0 -0.17462,0.03326 -0.14968,0.12473c0.03326,0.06652 1.23897,1.75451 2.68582,3.75848c1.45516,2.00397 2.65256,3.7169 2.6775,3.81668c0.01663,0.09147 -0.03326,0.23283 -0.1081,0.30766c-0.11641,0.12473 -0.37418,0.14136 -1.96239,0.14136h-1.82935l-0.19125,-0.20788c-0.09978,-0.1081 -1.48011,-1.92082 -3.05168,-4.02456l-2.86043,-3.825l-1.22234,-0.00832h-1.23065v1.77114c0,1.46348 -0.02494,1.79609 -0.13304,1.95408c-0.12473,0.17462 -0.16631,0.18294 -1.81272,0.18294c-1.19739,0 -1.70462,-0.02495 -1.77946,-0.09978c-0.14136,-0.14136 -0.14136,-6.97646 0,-7.11782c0.07484,-0.07484 1.2057,-0.09978 4.57337,-0.09978c4.41538,0 4.47359,0 4.47359,-0.1663c0,-0.1663 -0.05821,-0.1663 -4.47359,-0.1663c-3.36766,0 -4.49853,-0.02495 -4.57337,-0.09978c-0.07484,-0.07484 -0.09978,-0.57375 -0.09978,-1.74619c0,-1.47179 0.01663,-1.64642 0.14967,-1.72125c0.09147,-0.05821 1.94576,-0.08315 5.6294,-0.06652zM275.08861,172.68261h-5.10554v1.41359v1.41359l4.54842,0.01663l4.54842,0.02495v0.56544l0.00832,0.55712h-4.54842h-4.55674v3.24294v3.24294h1.45516h1.45516l0.01663,-1.97902l0.02494,-1.9707l1.51337,-0.02495l1.51337,-0.01663l3.06,4.06614l3.06,4.07446l1.64641,0.00832c0.89804,0 1.6381,-0.02495 1.6381,-0.06652c-0.00832,-0.03326 -1.3138,-1.85429 -2.91032,-4.04951l-2.90201,-3.9913l0.68185,-0.04158c0.81489,-0.04989 1.17245,-0.23283 1.54663,-0.79826c0.32429,-0.49891 0.36587,-0.78163 0.32429,-2.70244c-0.02494,-1.53832 -0.03326,-1.62978 -0.23282,-1.97902c-0.29103,-0.51554 -0.7068,-0.82321 -1.23897,-0.92299c-0.2744,-0.04989 -2.42804,-0.08315 -5.54625,-0.08315z"/><path d="M225.33036,176.3912c0.12473,0.12473 0.11641,6.91826 -0.00832,7.07625c-0.07484,0.08315 -0.47397,0.1081 -1.77114,0.1081c-0.91467,0 -1.72957,-0.04158 -1.79609,-0.08315c-0.1081,-0.06652 -0.12473,-0.55712 -0.14967,-3.3843c-0.00832,-1.82103 0,-3.39261 0.02494,-3.5007c0.02494,-0.1081 0.13304,-0.22451 0.23283,-0.26609c0.25777,-0.1081 3.35103,-0.06652 3.46744,0.04989zM224.99775,176.67391h-1.43853c-0.79826,0 -1.4718,0.02495 -1.49674,0.05821c-0.03326,0.02494 -0.0582,1.48842 -0.0582,3.24294v3.18473h1.49674h1.49674v-3.24294z"/></g></g></g></svg>