<svg version="1.1" xmlns="http://www.w3.org/2000/svg" xmlns:xlink="http://www.w3.org/1999/xlink" width="37.96311" height="37.96311" viewBox="0,0,37.96311,37.96311"><g transform="translate(-416.64197,-296.15817)"><g data-paper-data="{&quot;isPaintingLayer&quot;:true}" fill-rule="nonzero" stroke-linecap="butt" stroke-linejoin="miter" stroke-miterlimit="10" stroke-dasharray="" stroke-dashoffset="0" style="mix-blend-mode: normal"><path d="M446.862,333.12129h-22.47694c-3.72443,0 -6.74308,-3.01866 -6.74308,-6.74309v-22.47694c0,-3.72443 3.01865,-6.74308 6.74308,-6.74308h22.47695c3.72443,0 6.74308,3.01865 6.74308,6.74308v22.47694c0,3.72443 -3.01865,6.74309 -6.74308,6.74309z" fill="#000000" stroke="#ffd200" stroke-width="2"/><path d="M444.16303,313.9713c0,4.3151 -3.99293,7.82728 -8.9023,7.82728c-0.44236,0 -0.88973,-0.02838 -1.33209,-0.08847l-4.20659,2.15004c-0.11852,0.06176 -0.2504,0.09182 -0.37893,0.09182c-0.18863,0 -0.3756,-0.06344 -0.5275,-0.18697c-0.25707,-0.20866 -0.36557,-0.54919 -0.27877,-0.86803l0.83631,-3.05479c-1.92468,-1.48566 -3.01639,-3.59397 -3.01639,-5.8692c0,-4.3151 3.99293,-7.82728 8.9023,-7.82728c4.9077,0 8.90396,3.5105 8.90396,7.82561zM438.631,311.12017c-0.32551,-0.32551 -0.85467,-0.32551 -1.18018,0l-3.86106,3.86106l-1.6359,-1.6359c-0.32551,-0.32551 -0.85467,-0.32551 -1.18018,0c-0.32551,0.32551 -0.32551,0.85467 0,1.18018l2.22349,2.22682c0.16359,0.16192 0.37559,0.24372 0.59092,0.24372c0.21534,0 0.42734,-0.08013 0.59093,-0.24372l4.45197,-4.45197c0.32551,-0.32551 0.32551,-0.85468 0,-1.18019z" fill="none" stroke="#ffd200" stroke-width="2"/><path d="M442.07044,314.06938c0,3.03756 -3.03225,5.5 -6.77272,5.5c-3.74048,0 -6.77273,-2.46244 -6.77273,-5.5c0,-3.03756 3.03226,-5.5 6.77273,-5.5c3.74048,0 6.77272,2.46244 6.77272,5.5z" fill="#000000" stroke="none" stroke-width="0"/><text transform="translate(434.38571,318.68302) scale(0.24589,0.24589)" font-size="40" xml:space="preserve" fill="#ffd200" fill-rule="nonzero" stroke="none" stroke-width="1" stroke-linecap="butt" stroke-linejoin="miter" stroke-miterlimit="10" stroke-dasharray="" stroke-dashoffset="0" font-family="Pixel" font-weight="normal" text-anchor="start" style="mix-blend-mode: normal"><tspan x="0" dy="0">!</tspan></text></g></g></svg>