<svg version="1.1" xmlns="http://www.w3.org/2000/svg" xmlns:xlink="http://www.w3.org/1999/xlink" width="20.09378" height="16.77005" viewBox="0,0,20.09378,16.77005"><g transform="translate(-229.92778,-171.72713)"><g data-paper-data="{&quot;isPaintingLayer&quot;:true}" fill="#ffc010" fill-rule="nonzero" stroke="#ffc010" stroke-width="1" stroke-linecap="butt" stroke-linejoin="miter" stroke-miterlimit="10" stroke-dasharray="" stroke-dashoffset="0" style="mix-blend-mode: normal"><path d="M249.46263,172.22713c0.17679,0.27108 0.15322,4.63201 -0.02357,4.8088c-0.10608,0.10608 -1.79152,0.14144 -6.83605,0.14144c-6.61211,0 -6.69461,0 -6.69461,0.23573c0,0.23573 0.08251,0.23573 5.62206,0.23573c5.43348,0 5.63385,0.01179 6.11708,0.24751c0.62468,0.29466 1.35543,1.01362 1.65008,1.61472c0.20036,0.38895 0.22394,0.74254 0.22394,3.32373c0,3.25302 -0.02357,3.35909 -0.89576,4.23128c-0.95469,0.95469 -0.33001,0.89576 -9.60582,0.93111c-7.60215,0.02357 -8.27397,0.01179 -8.4272,-0.16501c-0.23573,-0.28287 -0.23573,-4.51415 0,-4.79702c0.14144,-0.17679 0.7661,-0.20036 6.85962,-0.20036c5.83421,0 6.7064,-0.02357 6.7064,-0.17679c0,-0.15322 -0.88397,-0.17679 -6.71818,-0.20036c-5.31561,-0.02357 -6.74175,-0.07072 -6.85962,-0.18858c-0.11786,-0.11786 -0.15322,-1.19042 -0.15322,-5.04453c0,-4.73809 0.01179,-4.90309 0.23573,-5.0681c0.35358,-0.2593 18.63412,-0.18858 18.79913,0.07072zM248.99118,172.58071h-8.95758h-8.95758v4.59665v4.59665h6.83605h6.83605v0.82504v0.82504h-6.83605h-6.83605v2.00367v2.00367h7.99111h7.97932l0.61289,-0.35358c0.36537,-0.21216 0.75432,-0.56574 0.94291,-0.84861l0.33001,-0.49503v-2.89942v-2.89942l-0.33001,-0.49503c-0.17679,-0.27108 -0.54217,-0.63646 -0.81325,-0.81325l-0.49503,-0.33001l-6.01101,-0.05894l-6.01101,-0.05894v-0.78968l-0.01179,-0.80147h6.8714h6.85962v-2.00367z"/></g></g></svg>