<svg version="1.1" xmlns="http://www.w3.org/2000/svg" xmlns:xlink="http://www.w3.org/1999/xlink" width="19.91699" height="16.994" viewBox="0,0,19.91699,16.994"><g transform="translate(-230.0415,-171.50659)"><g data-paper-data="{&quot;isPaintingLayer&quot;:true}" fill="#ffc010" fill-rule="nonzero" stroke="#ffc010" stroke-width="1" stroke-linecap="butt" stroke-linejoin="miter" stroke-miterlimit="10" stroke-dasharray="" stroke-dashoffset="0" style="mix-blend-mode: normal"><path d="M237.96688,172.00661l7.01284,0.02357l0.57753,0.29466c0.31823,0.16501 0.7779,0.5186 1.02541,0.80147c0.66003,0.75432 0.81325,1.33185 0.81325,3.11158v1.49686l0.33001,0.17679c0.47145,0.24751 1.26113,1.06077 1.50864,1.57936c0.20036,0.38895 0.22394,0.74254 0.22394,3.32373c0,2.73441 -0.01179,2.91121 -0.2593,3.35909c-0.3418,0.63646 -1.0372,1.28471 -1.68544,1.57936c-0.5186,0.23573 -0.74254,0.24751 -8.61577,0.24751c-6.12887,0 -8.10896,-0.03536 -8.21504,-0.14144c-0.10608,-0.10608 -0.14144,-0.81325 -0.14144,-2.45155c0,-1.63829 0.03536,-2.34547 0.14144,-2.45155c0.10608,-0.10608 1.76795,-0.14144 6.77711,-0.14144c5.82242,0 6.63568,-0.02357 6.63568,-0.17679c0,-0.15322 -0.80147,-0.17679 -6.4471,-0.17679c-4.97382,0 -6.5296,-0.03536 -6.75354,-0.15322l-0.29466,-0.15322l-0.03536,-2.09796c-0.02357,-1.44971 0.01179,-2.15689 0.10608,-2.26297c0.10608,-0.14144 1.10792,-0.16501 5.71635,-0.16501c5.50419,0 5.5867,0 5.5867,-0.23573c0,-0.23573 -0.08251,-0.23573 -5.57491,-0.23573c-4.18413,0 -5.61028,-0.03536 -5.71635,-0.14144c-0.10608,-0.10608 -0.14144,-0.81325 -0.14144,-2.47512c0,-2.08617 0.02357,-2.33369 0.21216,-2.43976c0.12965,-0.08251 2.53405,-0.11786 7.2132,-0.09429zM238.06117,172.58413l-6.93034,-0.03536v2.01546v2.00367h5.71635h5.71635v0.82504v0.82504h-5.71635h-5.71635v1.76795v1.76795h6.77711h6.77711v0.82504v0.82504h-6.77711h-6.77711v2.00367v2.00367h7.87324c8.78078,0 8.35648,0.03536 9.18151,-0.83682c0.6836,-0.73075 0.74254,-1.01362 0.74254,-3.78339c0,-2.18047 -0.03536,-2.56941 -0.22394,-2.98193c-0.29466,-0.64825 -0.74254,-1.09612 -1.36721,-1.36721l-0.53038,-0.23573v-1.76795c0,-1.33185 -0.04715,-1.87402 -0.18858,-2.20404c-0.21216,-0.50681 -0.7779,-1.14327 -1.28471,-1.41435c-0.31823,-0.17679 -1.08434,-0.20036 -7.27214,-0.23573z"/></g></g></svg>