<svg version="1.1" xmlns="http://www.w3.org/2000/svg" xmlns:xlink="http://www.w3.org/1999/xlink" width="81.87992" height="327.35533" viewBox="0,0,81.87992,327.35533"><g transform="translate(-31.7117,-46.26628)"><g data-paper-data="{&quot;isPaintingLayer&quot;:true}" fill-rule="nonzero" stroke="#ffc010" stroke-width="1" stroke-linecap="butt" stroke-linejoin="miter" stroke-miterlimit="10" stroke-dasharray="" stroke-dashoffset="0" style="mix-blend-mode: normal"><path d="M39.99969,46.76628c4.85402,0.01794 5.59872,0.03589 5.6705,0.15253c0.13459,0.20636 0.11664,3.52612 -0.01794,3.66071c-0.08075,0.08075 -1.24716,0.10767 -4.71047,0.10767h-4.6028v2.15335v2.15335h4.5669c4.03754,0 4.58485,0.01794 4.71047,0.14356c0.11664,0.11664 0.14356,0.41273 0.14356,1.86625c0,1.22023 -0.02692,1.7496 -0.10767,1.83035c-0.08075,0.08075 -1.48941,0.10767 -5.80509,0.10767h-5.70639l-0.44862,-0.21534c-0.2602,-0.11664 -0.61909,-0.39478 -0.83443,-0.63704c-0.63704,-0.72676 -0.64601,-0.80751 -0.64601,-5.19497c0,-2.30588 0.04486,-4.02857 0.0987,-4.26185c0.17945,-0.78059 0.99593,-1.61502 1.76755,-1.79446c0.17945,-0.04486 2.84422,-0.07178 5.92173,-0.07178zM45.3113,47.18798l-5.44619,0.00897c-3.00573,0.00897 -5.58975,0.04486 -5.74228,0.08075c-0.34992,0.08075 -0.8434,0.43965 -1.09463,0.78957c-0.34992,0.50245 -0.37684,0.87929 -0.34992,5.04245c0.02692,4.41438 0.00897,4.22596 0.62806,4.81814c0.60115,0.5832 0.39478,0.56526 6.48698,0.56526h5.51797v-1.5253v-1.5253h-4.71047h-4.71046v-2.60197v-2.60197h4.71046h4.71047v-1.5253z" fill="#ffc010"/><path d="M54.59764,47.03545c6.05631,0.01794 5.70639,-0.01794 6.44212,0.71779c0.69984,0.69984 0.69087,0.5832 0.69087,5.20394c0,4.53999 0.01794,4.40541 -0.59217,5.15012c-0.17945,0.21534 -0.48451,0.47553 -0.69086,0.59217l-0.37684,0.19739h-5.60769c-6.28959,0 -5.84098,0.04486 -6.54082,-0.6819c-0.69984,-0.71779 -0.6819,-0.54731 -0.70882,-4.97067c-0.03589,-4.76429 -0.04486,-4.70149 0.73573,-5.48208c0.37684,-0.37684 0.65498,-0.57423 0.90621,-0.64601c0.24225,-0.06281 2.15335,-0.08972 5.74228,-0.08075zM49.00789,47.54687c-0.41273,0.0987 -0.91518,0.5204 -1.15743,0.98696c-0.20636,0.38581 -0.20636,0.38581 -0.20636,4.43233c0,3.75043 0.01794,4.07343 0.17047,4.40541c0.08972,0.19739 0.27814,0.46656 0.4217,0.60115c0.56526,0.52937 0.43965,0.5204 6.22679,0.5204c5.78714,0 5.66153,0.00897 6.21781,-0.5204c0.14356,-0.13459 0.33198,-0.39478 0.43067,-0.57423c0.1615,-0.31403 0.17047,-0.57423 0.17047,-4.39644c0,-3.7594 -0.01794,-4.09138 -0.17047,-4.43232c-0.19739,-0.43965 -0.69984,-0.87032 -1.16641,-1.01388c-0.39478,-0.11664 -10.44378,-0.12561 -10.93725,-0.00897z" fill="#ffc010"/><path d="M50.78441,50.41801h3.67865h3.67865v2.55711v2.55711h-3.67865h-3.67865v-2.55711zM57.69309,50.86663h-3.23003h-3.23003v2.10849v2.10849h3.23003h3.23003v-2.10849z" fill="#ffc010"/><path d="M65.2388,47.00853c1.0049,0 1.77651,0.03589 1.88418,0.08972c0.1615,0.08972 0.17047,0.25123 0.17047,5.85892c0,4.36952 -0.02692,5.79611 -0.10767,5.87686c-0.08075,0.08075 -0.61909,0.10767 -1.87522,0.10767c-1.4894,0 -1.79446,-0.01794 -1.9111,-0.14356c-0.12561,-0.12561 -0.14356,-0.77162 -0.14356,-5.82303c0,-5.05141 0.01794,-5.69742 0.14356,-5.82303c0.11664,-0.11664 0.41273,-0.14356 1.83932,-0.14356zM66.84485,47.45715h-1.57016h-1.57016v5.51797v5.51797h1.57016h1.57016v-5.51797z" fill="#ffc010"/><path d="M70.92726,47.0175c1.15743,-0.01794 1.97391,0.59217 6.37034,4.73738l1.5253,1.43558l0.05383,-0.28712c0.02692,-0.1615 0.05383,-1.49838 0.07178,-2.97881c0.00897,-2.39561 0.02692,-2.70067 0.1615,-2.80833c0.10767,-0.07178 0.63704,-0.10767 1.87522,-0.10767c1.45352,0 1.7496,0.02692 1.86624,0.14356c0.12561,0.12561 0.14356,0.70882 0.14356,5.09627c0,3.56201 -0.02692,5.05141 -0.10767,5.26675c-0.28712,0.8434 -1.07668,1.35482 -2.18027,1.40866c-0.64601,0.03589 -0.78058,0.00897 -1.17537,-0.18842c-0.96901,-0.49348 -2.82628,-2.05467 -5.68845,-4.77328l-1.30099,-1.23818l-0.04486,3.02367c-0.03589,2.55711 -0.06281,3.03264 -0.17945,3.10442c-0.20636,0.13459 -3.61584,0.11664 -3.75043,-0.01794c-0.08075,-0.08075 -0.10767,-1.3638 -0.10767,-5.23086v-5.12319l0.2602,-0.40376c0.27814,-0.44862 0.70882,-0.75368 1.29202,-0.9421c0.20636,-0.06281 0.61909,-0.11664 0.91518,-0.11664zM69.94927,47.59173c-0.45759,0.1615 -0.93311,0.62806 -1.04079,1.03182c-0.05383,0.18842 -0.08972,2.2341 -0.08972,5.08731v4.78224h1.61502h1.61502v-3.41845v-3.41845l0.88826,0.8434c0.49348,0.45759 1.63297,1.53427 2.53916,2.39561c1.84829,1.7496 3.45434,3.10442 4.04652,3.40051c0.87032,0.43067 2.27896,0.15253 2.77244,-0.54731l0.20636,-0.28712v-4.97963v-4.97963l-1.54323,-0.02692l-1.55222,-0.01794l-0.01794,3.4364l-0.02692,3.44537l-2.60197,-2.46738c-2.96086,-2.79936 -4.19006,-3.86707 -4.83607,-4.19007c-0.5204,-0.2602 -1.39071,-0.29609 -1.97391,-0.08972z" fill="#ffc010"/><path d="M98.79527,47.09825c0.1615,0.08972 0.17047,0.20636 0.17047,1.82138c0,1.22921 -0.02692,1.75857 -0.10767,1.83932c-0.08075,0.08075 -1.33688,0.10767 -5.11422,0.10767c-4.94374,0 -5.00655,0 -5.00655,0.17945c0,0.17945 0.06281,0.17945 4.21699,0.17945c4.1183,0 4.23494,0.00897 4.6028,0.18842c0.51142,0.2602 0.93311,0.67293 1.19332,1.17537c0.20636,0.41273 0.21534,0.48451 0.21534,2.44944c0,2.21616 -0.02692,2.35972 -0.54731,3.0147c-0.15253,0.19739 -0.46656,0.46656 -0.69086,0.60115l-0.4217,0.24225l-6.1909,0.02692c-5.76022,0.01794 -6.19987,0.00897 -6.29857,-0.13459c-0.08075,-0.10767 -0.11664,-0.61909 -0.11664,-1.78549c0,-1.37277 0.02692,-1.65988 0.14356,-1.77652c0.12561,-0.12561 0.70882,-0.14356 5.11422,-0.14356c4.28877,0 4.97067,-0.01794 4.97067,-0.13459c0,-0.10767 -0.60115,-0.12561 -4.19007,-0.15253c-3.81324,-0.02692 -4.23494,-0.04486 -4.55794,-0.18842c-0.50245,-0.22431 -1.01388,-0.7447 -1.26509,-1.27407c-0.20636,-0.43067 -0.21534,-0.53834 -0.21534,-2.38663c0,-1.22023 0.03589,-2.05467 0.0987,-2.24308c0.23328,-0.6819 0.96003,-1.40866 1.60604,-1.58811c0.43965,-0.12561 12.15749,-0.14356 12.39077,-0.01794zM98.51712,47.45715l-5.89481,0.00897c-3.24798,0 -6.02939,0.04486 -6.17295,0.08972c-0.4217,0.11664 -0.99593,0.66395 -1.16641,1.09462c-0.12561,0.323 -0.14356,0.70882 -0.11664,2.41355l0.02692,2.02774l0.26917,0.39478c0.15253,0.20636 0.43965,0.47553 0.62806,0.5832c0.35889,0.20636 0.36787,0.20636 4.8271,0.20636h4.45925v0.62806v0.62806h-5.11422h-5.11422v1.48044v1.48044h5.92173c6.46904,0 6.28959,0.01794 6.84588,-0.5204c0.14356,-0.13459 0.34095,-0.39478 0.43067,-0.5832c0.17047,-0.31403 0.17945,-0.50245 0.15253,-2.43149c-0.02692,-2.05467 -0.02692,-2.09055 -0.25123,-2.41355c-0.12561,-0.18842 -0.38581,-0.44862 -0.5832,-0.5832l-0.35889,-0.24225l-4.50411,-0.02692l-4.51308,-0.02692v-0.61909v-0.62806h5.11422h5.11422v-1.48044z" fill="#ffc010"/><path d="M102.66234,49.19778c1.24716,0.00897 1.70473,0.03589 1.79446,0.12561c0.15253,0.15253 0.21534,3.1762 0.08075,3.54407l-0.0987,0.24225h-1.85728c-1.03182,0 -1.92007,-0.03589 -1.98288,-0.07178c-0.08075,-0.06281 -0.10767,-0.50245 -0.08972,-1.90213l0.02692,-1.83035l0.22431,-0.06281c0.12561,-0.02692 0.97799,-0.05383 1.90213,-0.04486zM104.07996,49.70022h-1.57016h-1.57016v1.48044v1.48044h1.57016h1.57016v-1.48044z" fill="#ffc010"/><path d="M102.56364,54.9939c1.53426,0 1.77651,0.01794 1.88418,0.15253c0.08972,0.10767 0.13459,0.55629 0.15253,1.7496c0.02692,1.35481 0.00897,1.64193 -0.11664,1.83035l-0.13459,0.21534h-1.82138c-1.30099,0 -1.84829,-0.02692 -1.92904,-0.10767c-0.08075,-0.08075 -0.10767,-0.61909 -0.10767,-1.88418c0,-1.58811 0.01794,-1.77651 0.1615,-1.85728c0.08972,-0.05383 0.88826,-0.0987 1.9111,-0.0987zM104.07996,55.4425h-1.57016h-1.57016v1.5253v1.5253h1.57016h1.57016v-1.5253z" fill="#ffc010"/><g fill="none"><path d="M43.328,357.47551c3.75372,-0.00842 5.72316,0.01683 5.83257,0.07574c0.1515,0.08416 0.15991,0.19358 0.15991,1.75061c0,1.18671 -0.02525,1.6917 -0.10099,1.76744c-0.07574,0.07574 -1.2793,0.10099 -4.88152,0.10099c-4.72161,0 -4.78052,0 -4.78052,0.16833c0,0.16833 0.05892,0.16833 4.02304,0.16833c3.70322,0 4.03988,0.01683 4.35129,0.15991c0.48815,0.21882 0.85848,0.5639 1.13622,1.05205l0.25249,0.42924v2.01993c0,1.78428 -0.02525,2.06202 -0.15991,2.36501c-0.22724,0.49657 -0.63123,0.91738 -1.11938,1.16147l-0.43766,0.21882h-6.44697c-4.89835,0 -6.47222,-0.02525 -6.54797,-0.10099c-0.14308,-0.14308 -0.14308,-3.35815 0,-3.50123c0.07574,-0.07574 1.40554,-0.10099 5.47067,-0.10099c4.62903,0 5.36967,-0.01683 5.36967,-0.11783c0,-0.10941 -0.58073,-0.12625 -4.01463,-0.1515c-4.48595,-0.02525 -4.3092,-0.00841 -4.99093,-0.63122c-0.202,-0.17675 -0.45449,-0.5134 -0.55548,-0.74065c-0.19358,-0.40399 -0.202,-0.50498 -0.202,-2.3566c0,-1.85161 0.00842,-1.95261 0.202,-2.3566c0.24407,-0.53023 0.87531,-1.10255 1.38871,-1.25404c0.31983,-0.10099 1.42238,-0.12625 6.0514,-0.12625zM48.89967,357.88792l-5.52958,0.00842c-3.04674,0.00842 -5.68108,0.04209 -5.84941,0.06734c-0.4124,0.08416 -0.85848,0.39557 -1.14463,0.80797l-0.22724,0.33666l-0.02525,1.99469c-0.02525,1.8432 -0.01683,2.01993 0.14308,2.31451c0.1515,0.29458 0.39557,0.5639 0.79956,0.87531c0.13466,0.10099 0.88373,0.12625 4.50279,0.15991l4.34287,0.04209l0.02525,0.5639l0.02525,0.57232h-5.52116h-5.51275v1.43079v1.43079h6.29548c5.8999,0 6.3039,-0.01683 6.62371,-0.15992c0.3619,-0.15991 0.84164,-0.65648 0.97631,-0.99314c0.10099,-0.26933 0.10099,-3.98938 0,-4.2587c-0.12625,-0.31983 -0.58915,-0.80797 -0.94264,-0.99314c-0.30299,-0.1515 -0.53023,-0.15992 -4.53644,-0.15992h-4.20821v-0.58915v-0.58915h4.88152h4.88152v-1.43079z"/><path d="M63.21597,357.55126c0.1515,0.08416 0.15991,0.19358 0.15991,1.75061c0,1.18671 -0.02525,1.6917 -0.10099,1.76744c-0.07574,0.07574 -1.16147,0.10099 -4.37653,0.10099h-4.27554v2.01993v2.01993h4.21663c2.74375,0 4.26712,0.03367 4.37653,0.08416c0.1515,0.08416 0.15991,0.19358 0.15991,1.75061c0,1.18671 -0.02525,1.6917 -0.10099,1.76744c-0.07574,0.07574 -1.39712,0.10099 -5.44542,0.10099c-5.20134,0 -5.36125,-0.00842 -5.73158,-0.17675c-0.48815,-0.21882 -0.89214,-0.60599 -1.14463,-1.11097l-0.21041,-0.39557l0.02525,-4.11562l0.02525,-4.1072l0.27774,-0.4124c0.35348,-0.5134 0.89215,-0.93422 1.32979,-1.03522c0.47132,-0.10941 10.60468,-0.11783 10.81509,-0.00842zM62.95506,357.88792l-5.10876,0.00842c-3.66114,0 -5.20976,0.03367 -5.437,0.10099c-0.42924,0.13466 -0.86689,0.50498 -1.06888,0.90056c-0.15991,0.31983 -0.16833,0.49656 -0.16833,4.28395c0,2.23877 0.03367,4.03988 0.07574,4.15771c0.13466,0.33666 0.6144,0.83323 0.97631,0.99314c0.31141,0.14308 0.69014,0.15992 5.538,0.15992h5.19293v-1.43079v-1.43079h-4.41861h-4.41861v-2.44076v-2.44075h4.41861h4.41861v-1.43079z"/><path d="M71.63239,357.47551c5.538,-0.00842 5.47908,-0.01683 6.16082,0.58073c0.2104,0.18516 0.47974,0.53865 0.59757,0.7743l0.21882,0.43765v3.93889c0,3.88838 0,3.9473 -0.18517,4.33445c-0.23566,0.50498 -0.68173,0.95105 -1.18671,1.18671c-0.39557,0.18516 -0.40399,0.18516 -5.59692,0.18516h-5.20134l-0.43765,-0.21882c-0.48815,-0.24407 -0.89214,-0.66489 -1.11938,-1.16147c-0.14308,-0.31983 -0.15992,-0.63964 -0.15992,-4.33445c0,-3.83788 0.00842,-4.00621 0.16833,-4.34287c0.30299,-0.62282 0.94264,-1.16147 1.55704,-1.31297c0.14308,-0.03367 2.47442,-0.05892 5.18451,-0.06733zM71.58189,357.89632c-3.86313,0 -4.94885,0.02525 -5.20134,0.10941c-0.47132,0.16833 -0.86689,0.50498 -1.06046,0.91738c-0.16833,0.35348 -0.17675,0.47132 -0.17675,4.29237c0,2.28926 0.03367,4.00621 0.08416,4.13246c0.13466,0.35348 0.66489,0.87531 1.03522,1.01839c0.31141,0.11783 0.96789,0.12625 5.538,0.10941l5.1761,-0.02525l0.35348,-0.23566c0.19358,-0.12625 0.45449,-0.38715 0.58073,-0.58073l0.23566,-0.35348l0.02525,-3.95571l0.02525,-3.95571l-0.21882,-0.43765c-0.23566,-0.48815 -0.68173,-0.85006 -1.19513,-0.96789c-0.17675,-0.04209 -2.51651,-0.06734 -5.20134,-0.06734z"/><path d="M68.08908,360.74949h3.5349h3.5349v2.44075v2.44076h-3.5349h-3.5349v-2.44076zM74.73804,361.17032h-3.07199h-3.07199v2.01993v2.01993h3.07199h3.07199v-2.01993z"/><path d="M85.83087,357.48392l5.52958,0.02525l0.37874,0.19358c0.53023,0.27774 0.91738,0.66489 1.14463,1.15305c0.19358,0.40399 0.202,0.49657 0.202,2.38185c0,1.7927 -0.01683,1.98628 -0.16833,2.31451c-0.30299,0.64806 -1.1783,1.32137 -1.70012,1.32137c-0.13466,0 -0.23566,0.01683 -0.23566,0.04208c0,0.02525 1.15305,1.63278 2.55859,3.56856c3.2824,4.52803 3.05516,4.16613 2.87841,4.42703l-0.13466,0.2104h-1.8432c-1.63278,0 -1.86003,-0.01683 -2.01152,-0.1515c-0.10099,-0.07574 -1.4897,-1.88527 -3.08883,-4.01463c-1.59911,-2.12936 -2.98782,-3.92205 -3.09724,-3.97254c-0.19358,-0.10941 -2.02835,-0.1515 -2.28085,-0.05892c-0.11783,0.04209 -0.13466,0.29458 -0.13466,1.91894c0,1.33821 -0.02525,1.89369 -0.10099,1.96944c-0.07574,0.07574 -0.58915,0.10099 -1.80111,0.10099c-1.43921,0 -1.72537,-0.01683 -1.83478,-0.13466c-0.11783,-0.10941 -0.13466,-0.55548 -0.13466,-3.5349c0,-2.18826 0.03367,-3.46756 0.08416,-3.57697c0.08416,-0.1515 0.22724,-0.15991 4.62903,-0.15991c4.48595,0 4.54486,0 4.54486,-0.16833c0,-0.16833 -0.05892,-0.16833 -4.49437,-0.16833c-3.98096,0 -4.51119,-0.01683 -4.62903,-0.13466c-0.10941,-0.10941 -0.13466,-0.38715 -0.13466,-1.68328c0,-1.44763 0.00842,-1.55704 0.16833,-1.71695c0.16833,-0.16833 0.24407,-0.17675 5.70633,-0.1515zM85.87295,357.90474l-5.49591,-0.02525v1.43921v1.43079h4.62903h4.62903v0.58915v0.58915h-4.62903h-4.62903v3.2824v3.2824h1.51495h1.51495l0.01683,-2.00311l0.02525,-1.99469h1.53179c0.84164,0 1.5402,0.01683 1.56546,0.04208c0.01683,0.02525 1.40554,1.86845 3.08883,4.09879l3.05516,4.06513h1.67487c0.91738,0 1.66645,-0.01683 1.66645,-0.04209c0,-0.02525 -1.30455,-1.8432 -2.90366,-4.03146c-1.59911,-2.19668 -2.90366,-4.03146 -2.90366,-4.07355c0,-0.04209 0.24407,-0.08416 0.53865,-0.09258c0.64806,-0.00842 0.85847,-0.08416 1.26246,-0.43765c0.60599,-0.53023 0.63965,-0.67331 0.63965,-2.81108c0,-1.70012 -0.01683,-1.93577 -0.15992,-2.21351c-0.19358,-0.37032 -0.53865,-0.74065 -0.89214,-0.9258c-0.22724,-0.12625 -0.81639,-0.14308 -5.74,-0.16833z"/><path d="M101.37598,357.49234c5.66424,0.01683 5.31917,-0.01683 6.01774,0.65648c0.66489,0.64806 0.70698,0.81639 0.74065,2.81108c0.02525,1.10255 0,1.92736 -0.05892,2.18827c-0.12625,0.55548 -0.60598,1.1783 -1.15305,1.4897l-0.43766,0.24407h-3.8968c-2.70167,0 -3.91363,-0.02525 -3.98096,-0.09258c-0.14308,-0.14308 -0.12625,-2.96258 0.02525,-3.13932c0.10099,-0.12625 0.41241,-0.14308 2.87841,-0.14308c2.71008,0 2.769,0 2.769,-0.16833c0,-0.16833 -0.05892,-0.16833 -3.02991,-0.16833h-3.02991v2.01993v2.01993h4.83102h4.83944l0.12625,0.18516c0.202,0.27774 0.19358,3.18982 0,3.3834c-0.11783,0.11783 -0.7743,0.13466 -5.95882,0.13466c-6.59846,0 -6.34597,0.02525 -7.01087,-0.64806c-0.7154,-0.7154 -0.69856,-0.54707 -0.69856,-5.03302v-3.95571l0.202,-0.42082c0.24407,-0.53023 0.87531,-1.10255 1.38871,-1.26246c0.31983,-0.10099 1.25405,-0.11783 5.437,-0.10099zM96.11573,357.96366c-0.45449,0.14308 -0.75748,0.3619 -1.02681,0.74907l-0.27774,0.39557l-0.02525,4.01463c-0.01683,3.83788 -0.01683,4.03146 0.14308,4.33445c0.08416,0.17675 0.26933,0.42082 0.40399,0.54706c0.53023,0.50498 0.32824,0.48815 6.63213,0.48815h5.76524v-1.43079v-1.43079h-4.96568h-4.96568v-2.44076v-2.44075h3.45073h3.45073v0.58915v0.58915h-2.90366h-2.91208l0.02525,1.26246l0.02525,1.27088h3.72005c3.57697,0 3.72847,0 4.0483,-0.16833c0.4124,-0.2104 0.79956,-0.66489 0.93422,-1.09413c0.12625,-0.42924 0.12625,-3.43389 -0.00842,-3.9473c-0.13466,-0.53865 -0.72381,-1.1278 -1.26246,-1.26246c-0.44607,-0.11783 -9.88929,-0.13466 -10.25119,-0.02525z"/><path d="M111.37468,359.79002c1.43921,0.01683 1.61595,0.03367 1.71695,0.16833c0.13466,0.18516 0.15991,2.92891 0.02525,3.26556l-0.08416,0.21882h-1.75903c-1.38871,0 -1.77586,-0.02525 -1.85161,-0.11783c-0.06734,-0.07574 -0.09258,-0.62282 -0.07574,-1.78428c0.02525,-1.66645 0.02525,-1.66645 0.21882,-1.71695c0.10941,-0.02525 0.91738,-0.03367 1.80953,-0.03367zM112.78022,360.24451h-1.51495h-1.51495v1.38871v1.38871h1.51495h1.51495v-1.38871z"/><path d="M111.2821,365.21019h1.66645l0.12625,0.202c0.19358,0.29458 0.1515,3.29923 -0.04209,3.41706c-0.19358,0.12625 -3.47598,0.10941 -3.60222,-0.01683c-0.07574,-0.07574 -0.10099,-0.58073 -0.10099,-1.76744c0,-1.4897 0.01683,-1.66645 0.1515,-1.74219c0.08416,-0.0505 0.83323,-0.09258 1.80111,-0.09258zM112.73814,365.67309l-1.4897,-0.02525l-1.49812,-0.01683v1.43079v1.43079h1.51495h1.51495l-0.01683,-1.41396z"/></g></g></g></svg>