<svg version="1.1" xmlns="http://www.w3.org/2000/svg" xmlns:xlink="http://www.w3.org/1999/xlink" width="26.65008" height="54.6767" viewBox="0,0,26.65008,54.6767"><g transform="translate(-226.67496,-152.66165)"><g data-paper-data="{&quot;isPaintingLayer&quot;:true}" fill="none" fill-rule="nonzero" stroke-linecap="butt" stroke-linejoin="miter" stroke-miterlimit="10" stroke-dasharray="" stroke-dashoffset="0" style="mix-blend-mode: normal"><g><path d="M250.35563,158.94474v0.92538c0,0.27287 -0.2211,0.49397 -0.49397,0.49397h-5.64504c-0.30846,0 -0.55976,0.25022 -0.55976,0.55976l-0.00539,4.93213h-5.75936v-3.32835c0,-2.71574 -2.20128,-4.91811 -4.91811,-4.91811h-1.07422l-1.82326,-0.4134v-2.96197l1.82326,-1.07249h12.67275c3.19353,0 5.78309,2.58848 5.78309,5.78309z" stroke="#f9f3f1" stroke-width="1"/><path d="M243.65331,164.17745l-0.00183,1.67852h-3.65148h-2.10788v-3.32835c0,-2.71618 -2.20193,-4.91811 -4.91811,-4.91811h-1.07422l-1.82326,-0.4134v-2.96197l0.64604,-0.38007v1.34245c0,0.40564 0.32884,0.73448 0.73448,0.73448h3.98625c2.71618,0 4.91811,2.20193 4.91811,4.91811c0,0.42656 0.34578,0.77223 0.77223,0.77223h2.52247z" stroke="#f3eae6" stroke-width="1"/><path d="M244.73885,164.32111v4.15213h-7.65963v-4.15213c0,-0.59751 0.48437,-1.08188 1.08188,-1.08188h5.49598c0.59751,0 1.08188,0.48426 1.08177,1.08188z" stroke="#efe2dd" stroke-width="1"/><path d="M236.85856,166.74759h8.08942c0.60937,0 1.10334,0.49397 1.10334,1.10334v2.05773l4.68266,3.41183c1.31387,0.95731 2.09106,2.48505 2.09106,4.11082v23.90566c0,3.03822 -2.46304,5.50127 -5.50127,5.50127h-14.64754c-3.03822,0 -5.50127,-2.46304 -5.50127,-5.50127v-21.88924c0,-1.16654 0.5713,-2.25909 1.52936,-2.92466l7.0508,-4.89837v-3.77378c0,-0.60948 0.49397,-1.10345 1.10345,-1.10334z" stroke="#f2fbff" stroke-width="1"/><path d="M239.19746,206.83835h-6.52124c-3.03822,0 -5.50127,-2.46304 -5.50127,-5.50127v-21.88924c0,-1.16654 0.5713,-2.25909 1.52936,-2.92466l7.0508,-4.89848v-3.77378c0,-0.60937 0.49397,-1.10334 1.10334,-1.10334h6.52124c-0.60937,0 -1.10334,0.49397 -1.10334,1.10334v1.69966c0,1.2992 -0.63633,2.51611 -1.70333,3.25738l-5.34747,3.71511c-0.95806,0.66556 -1.52936,1.75812 -1.52936,2.92466v21.88924c0,3.03833 2.46294,5.50127 5.50127,5.50138z" stroke="#dff6fd" stroke-width="1"/><path d="M231.89979,153.16165v4.44787h-2.91204c-0.40553,0 -0.73448,-0.32787 -0.73448,-0.7334v-2.98106c0,-0.40553 0.32895,-0.7334 0.73448,-0.7334z" stroke="#f3eae6" stroke-width="1"/><path d="M231.89979,155.9311v1.67841h-2.91204c-0.40553,0 -0.73448,-0.32787 -0.73448,-0.7334v-2.98106c0,-0.40553 0.32895,-0.7334 0.73448,-0.7334h1.73493v2.03605c0,0.40553 0.32895,0.7334 0.73448,0.7334z" stroke="#efe2dd" stroke-width="1"/><path d="M239.28558,168.81115h3.24638v22.30836h-3.24638z" stroke="#dff6fd" stroke-width="1"/><path d="M242.27624,168.81115v0.73955c0,1.2992 -0.63633,2.51611 -1.70333,3.25738l-1.28734,0.89432v-4.89125z" stroke="#c8effe" stroke-width="1"/><path d="M243.13076,170.49376c-0.06536,0.27772 -0.31321,0.47401 -0.59859,0.47401h-3.24627c-0.28538,0 -0.53323,-0.19629 -0.59859,-0.47401l-0.88202,-3.74628h6.2076z" stroke="#dff6fd" stroke-width="1"/><path d="M242.27624,167.85093v1.69966c0,0.49127 -0.09135,0.97068 -0.26219,1.41719h-2.72815c-0.28538,0 -0.53323,-0.19629 -0.59859,-0.47401l-0.88202,-3.74628h5.57407c-0.60926,0.00022 -1.10301,0.49408 -1.10312,1.10345z" stroke="#c8effe" stroke-width="1"/><path d="M249.58988,189.67103v11.11751c0,1.55406 -1.25983,2.81389 -2.81389,2.81389h-13.55175c-1.55406,0 -2.81389,-1.25983 -2.81389,-2.81389v-11.11751c0,-0.3914 0.3173,-0.7086 0.7086,-0.7086h17.76224c0.39151,0 0.7087,0.3173 0.7087,0.7086z" stroke="#fef48b" stroke-width="0.5"/><path d="M233.6963,188.96244v12.37464c0,0.80793 0.17559,1.57444 0.48836,2.26546h-0.96032c-1.55406,0 -2.81389,-1.25983 -2.81389,-2.81389v-11.11751c0,-0.3914 0.3172,-0.7087 0.7086,-0.7087h2.57715z" stroke="#fef056" stroke-width="1"/><path d="M242.53196,188.96244v10.21909c0,0.21031 -0.17041,0.37964 -0.37964,0.37964h-2.48602c-0.21031,0 -0.38072,-0.16933 -0.38072,-0.37964v-10.21909z" stroke="#fef056" stroke-width="1"/></g></g></g></svg>