<svg version="1.1" xmlns="http://www.w3.org/2000/svg" xmlns:xlink="http://www.w3.org/1999/xlink" width="20.28237" height="16.994" viewBox="0,0,20.28237,16.994"><g transform="translate(-229.94128,-171.50645)"><g data-paper-data="{&quot;isPaintingLayer&quot;:true}" fill="#ffc010" fill-rule="nonzero" stroke="#ffc010" stroke-width="1" stroke-linecap="butt" stroke-linejoin="miter" stroke-miterlimit="10" stroke-dasharray="" stroke-dashoffset="0" style="mix-blend-mode: normal"><g><path d="M240.29463,172.00645c4.87952,0.02357 5.02096,0.03536 5.48062,0.27108c0.67182,0.36537 1.34363,1.06077 1.63829,1.68544c0.20036,0.44788 0.24751,0.82504 0.28287,2.21582c0.03536,1.39078 0.07072,1.68544 0.22394,1.68544c0.31823,0 1.50864,1.32006 1.66186,1.83866c0.09429,0.31823 0.14144,1.41435 0.14144,3.1823c0,2.36904 -0.03536,2.75799 -0.22394,3.1823c-0.31823,0.69539 -0.88397,1.28471 -1.56758,1.62651l-0.61289,0.30645h-7.24857h-7.26035l-0.58931,-0.28287c-0.78968,-0.36537 -1.54401,-1.22577 -1.77973,-2.03903c-0.27108,-0.91933 -0.18858,-5.42169 0.10608,-6.08172c0.33001,-0.74254 0.87219,-1.34363 1.52044,-1.66186l0.61289,-0.30645h4.8088c4.7263,0 4.8088,0 4.8088,-0.23573c0,-0.23573 -0.08251,-0.23573 -4.8088,-0.23573c-3.58303,0 -4.84416,-0.03536 -4.95024,-0.14144c-0.20036,-0.20036 -0.17679,-2.26297 0.02357,-2.8405c0.3418,-0.94291 1.23756,-1.79152 2.16868,-2.03903c0.4243,-0.11786 1.77973,-0.15322 5.56313,-0.12965zM240.04711,172.57218c-2.61656,0 -4.8088,0.02357 -4.87952,0.04715c-0.05894,0.02357 -0.2593,0.07072 -0.44788,0.10608c-0.44788,0.10608 -1.24934,0.8604 -1.50864,1.42613c-0.15322,0.33001 -0.22394,0.75432 -0.22394,1.43793v0.97826h4.95024h4.95024v0.82504v0.82504h-5.10346h-5.10346l-0.54217,0.3418c-0.33001,0.21216 -0.67182,0.56574 -0.88397,0.91933l-0.33001,0.56574l-0.03536,2.4869c-0.04715,2.8405 0.02357,3.25302 0.66003,3.96019c0.8604,0.95469 0.47145,0.91933 8.48613,0.91933c7.68466,0 7.46072,0.01179 8.2504,-0.64825c0.78968,-0.67182 0.84861,-0.91933 0.84861,-3.93662c0,-1.48507 -0.04715,-2.8405 -0.10608,-2.99372c-0.18858,-0.48324 -0.8604,-1.16684 -1.39078,-1.40256l-0.48324,-0.21216l-0.04715,-1.86223c-0.03536,-1.63829 -0.07072,-1.90937 -0.29466,-2.34547c-0.31823,-0.58931 -0.95469,-1.13149 -1.55579,-1.32006c-0.30645,-0.08251 -1.95652,-0.12965 -5.20954,-0.11786z"/><path d="M240.04711,181.78906l4.78523,0.02357l0.03536,0.78968l0.03536,0.80147h-4.90309h-4.89131v-0.74254c0,-0.41252 0.03536,-0.78968 0.07072,-0.82504c0.04715,-0.04715 2.22761,-0.05894 4.86774,-0.04715zM235.74513,182.44909c-0.02357,0.02357 -0.04715,0.11786 -0.04715,0.21216c0,0.12965 0.80147,0.15322 4.302,0.15322c3.74804,0 4.302,-0.02357 4.302,-0.17679c0,-0.09429 -0.07072,-0.17679 -0.14144,-0.17679c-1.07255,-0.04715 -8.38005,-0.04715 -8.41541,-0.01179z"/></g></g></g></svg>