<svg version="1.1" xmlns="http://www.w3.org/2000/svg" xmlns:xlink="http://www.w3.org/1999/xlink" width="19.85808" height="17.02936" viewBox="0,0,19.85808,17.02936"><g transform="translate(-230.01127,-171.48532)"><g data-paper-data="{&quot;isPaintingLayer&quot;:true}" fill="#ffc010" fill-rule="nonzero" stroke="#ffc010" stroke-width="1" stroke-linecap="butt" stroke-linejoin="miter" stroke-miterlimit="10" stroke-dasharray="" stroke-dashoffset="0" style="mix-blend-mode: normal"><path d="M233.17498,171.98532c1.75615,0 2.28654,0.03536 2.47512,0.16501c0.21216,0.15322 0.22394,0.35358 0.2593,2.82871l0.03536,2.66371h4.06627h4.05449v-2.64013c0,-2.28654 0.02357,-2.67549 0.18858,-2.8405c0.16501,-0.16501 0.50681,-0.18858 2.60477,-0.15322c1.9801,0.02357 2.41619,0.07072 2.51048,0.21216c0.16501,0.24751 0.15322,15.26325 0,15.56968c-0.11786,0.21216 -0.27108,0.22394 -2.56941,0.22394c-1.75615,0 -2.4869,-0.03536 -2.59299,-0.14144c-0.10608,-0.10608 -0.14144,-0.88397 -0.14144,-2.75799v-2.62834l-5.56313,-0.03536c-5.38633,-0.03536 -5.5867,-0.04715 -6.1053,-0.28287c-0.64825,-0.30645 -1.33185,-0.97826 -1.65008,-1.63829c-0.22394,-0.45967 -0.23573,-0.71897 -0.23573,-4.39628c0,-3.59482 0.01179,-3.91305 0.21216,-4.01912c0.11786,-0.07072 1.14327,-0.12965 2.45155,-0.12965zM235.28473,172.63357l-2.09796,-0.03536l-2.09796,-0.02357l0.03536,3.80697l0.03536,3.81876l0.31823,0.45967c0.17679,0.24751 0.5186,0.58931 0.7661,0.75432l0.43609,0.29466l5.98743,0.03536l5.98743,0.03536v2.81692v2.82871h2.12153h2.12153v-7.42536v-7.42536h-2.12153h-2.12153v2.82871v2.82871h-4.65558h-4.65558l-0.02357,-2.80513z"/></g></g></svg>