<svg version="1.1" xmlns="http://www.w3.org/2000/svg" xmlns:xlink="http://www.w3.org/1999/xlink" width="9.35393" height="16.99398" viewBox="0,0,9.35393,16.99398"><g transform="translate(-235.3825,-171.50458)"><g data-paper-data="{&quot;isPaintingLayer&quot;:true}" fill="#ffc010" fill-rule="nonzero" stroke="#ffc010" stroke-width="1" stroke-linecap="butt" stroke-linejoin="miter" stroke-miterlimit="10" stroke-dasharray="" stroke-dashoffset="0" style="mix-blend-mode: normal"><path d="M239.0648,172.00458c3.12336,0.02357 3.28837,0.05894 4.18413,0.96647c0.99005,0.97826 0.9429,0.57753 0.97826,8.02646c0.02357,5.96386 0.0118,6.63568 -0.15321,6.81248c-0.16501,0.16501 -0.54217,0.18858 -2.5812,0.18858c-1.69723,0 -2.41619,-0.03536 -2.52227,-0.14143c-0.10608,-0.10608 -0.14144,-1.47329 -0.14144,-5.42169v-5.28026h-1.41435c-1.27292,0 -1.41436,-0.02357 -1.53222,-0.22394c-0.12965,-0.24751 -0.16501,-4.1252 -0.04715,-4.57308c0.03537,-0.14144 0.15322,-0.28287 0.27108,-0.31823c0.10608,-0.02357 1.43793,-0.04714 2.95836,-0.03536zM238.78193,172.55853h-2.42798v2.00368v2.00367h1.53222h1.53222v5.42169v5.4217h2.12153h2.12153v-6.28209c0,-7.16605 0.01179,-7.0482 -0.89576,-7.84966c-0.30644,-0.2593 -0.74254,-0.50681 -1.04898,-0.58931c-0.29466,-0.07072 -1.54401,-0.12964 -2.93478,-0.12964z"/></g></g></svg>