<svg version="1.1" xmlns="http://www.w3.org/2000/svg" xmlns:xlink="http://www.w3.org/1999/xlink" width="181.86676" height="180.39618" viewBox="0,0,181.86676,180.39618"><g transform="translate(-149.08659,-89.80191)"><g data-paper-data="{&quot;isPaintingLayer&quot;:true}" fill="none" fill-rule="nonzero" stroke="#6bf3ff" stroke-linecap="butt" stroke-linejoin="miter" stroke-miterlimit="10" stroke-dasharray="" stroke-dashoffset="0" style="mix-blend-mode: normal"><path d="M151.05191,180c0,-49.12468 39.82342,-88.94809 88.9481,-88.94809c49.12468,0 88.94809,39.82342 88.94809,88.94809c0,49.12468 -39.82342,88.94809 -88.94809,88.94809c-49.12468,0 -88.9481,-39.82342 -88.9481,-88.94809z" stroke-width="2.5"/><g stroke-width="4"><path d="M197.10685,254.83421c-0.13362,-0.02784 -0.26168,-0.07238 -0.3953,-0.10578c0.0167,-0.03341 0.03897,-0.05568 0.05568,-0.08908z"/><path d="M191.17178,129.27353l-0.17816,-0.36189c1.48655,-0.2227 1.58677,-1.26941 2.71699,-1.65358c1.28612,-0.42314 0.84627,0.03897 2.11012,0c1.02444,-0.04454 1.64801,0.70152 2.81721,0.1559c-0.28395,0.50109 -0.74606,0.84627 -1.20817,1.1859c-0.9632,0.68482 -1.94866,1.38633 -3.09559,1.65358c-1.14693,0.26168 -2.49429,-0.0167 -3.1624,-0.9799z"/><path d="M208.96585,208.55626c-0.02227,0.78503 -0.48438,1.46985 -0.88525,2.13239c-1.7872,2.91743 -2.87288,6.29696 -3.11229,9.72104c-0.23941,3.27932 -0.09465,7.3214 -2.95083,8.93601c-1.63131,0.90752 -3.92516,0.74606 -5.01085,2.27715c-0.33962,0.46211 -0.50109,1.04671 -0.66254,1.59234c-0.70152,2.55553 -1.40861,5.11106 -2.11013,7.66659c-0.90752,-0.07795 -1.83174,-0.17816 -2.73369,-0.27838c1.06898,0.33962 1.80947,1.7872 1.1692,2.77824c-1.02444,-0.54006 -2.3718,0.10021 -2.9397,1.13022c-0.54006,1.02444 -0.46211,2.27159 -0.16146,3.40181c0.92979,3.34056 3.78598,6.03529 7.14881,6.83702c-0.5846,1.10795 -2.3718,0.62357 -3.46305,-0.11692c-7.78908,-5.26695 -13.66847,-13.28988 -16.35206,-22.30383c-0.94649,-3.1791 -1.55337,-6.55864 -3.40738,-9.29234c-1.5478,-2.31056 -3.88619,-4.00311 -5.43398,-6.31367c-2.17137,-3.31829 -2.5778,-7.62206 -5.09436,-10.6564c-1.4086,-1.73153 -3.58553,-3.85835 -2.33839,-5.71237c0.50109,-0.76276 1.57006,-1.48655 1.14692,-2.29385c-0.13919,-0.26168 -0.42314,-0.42314 -0.64584,-0.64584c-0.84627,-0.90752 -0.26168,-2.33283 0.16146,-3.50203c0.70152,-2.03218 0.70152,-4.20354 0.40087,-6.37491c-2.11569,-1.89299 -3.78597,-4.24252 -4.83268,-6.88156c-0.62357,-1.60904 -1.45314,-3.61894 -3.1791,-3.64122c-0.44541,-1.24714 -0.90752,-2.49429 -1.35293,-3.74143c-0.16146,0.44541 -0.6013,0.72379 -1.08568,0.78503c1.33622,-20.38301 9.55402,-38.8786 22.34281,-53.20962c0.28395,-0.12249 0.56233,-0.28395 0.84627,-0.44541c3.03435,-1.7705 5.45069,-4.42625 8.38482,-6.35821c0.6013,-0.40087 1.28612,-0.78503 2.03218,-0.70708c0.72379,0.06124 1.4086,0.80174 1.14693,1.48655c-0.10022,0.28395 -0.33962,0.50665 -0.5846,0.68482c-3.43521,2.92299 -7.19892,5.47852 -11.20203,7.59421c-0.47881,0.23941 -0.98547,0.52336 -1.2026,1.00774c-0.40643,0.82401 0.27838,1.84845 1.14693,2.1491c0.86298,0.30065 1.83174,0.12249 2.71699,-0.07795c-0.74606,1.06341 -0.96876,2.49429 -0.5846,3.74143c0.82401,0.07795 1.08568,-1.04671 1.33066,-1.83174c1.00217,-3.11786 5.97404,-4.38727 5.65112,-7.67216c1.34736,0.70152 2.71699,-0.86855 3.541,-2.15466c0.82401,-1.30839 2.65575,-2.59451 3.66348,-1.44758c0.05568,0.64028 0.13362,1.28612 0.19487,1.93196c1.7705,-0.44541 3.56327,-0.90752 5.33377,-1.35293c-1.00774,0.70709 -1.34736,2.21591 -0.76833,3.30159c0.5846,1.08568 2.03217,1.63131 3.1791,1.1859c-0.0167,0.94649 -0.86298,1.67028 -1.63131,2.23261c-1.94866,1.46985 -4.04208,2.97867 -6.31367,3.70246l0.52335,1.08568c-0.05568,0.02227 -0.11692,0.04454 -0.17816,0.04454c-1.44758,0.13919 -2.97867,-0.90195 -4.52647,-0.70152c-0.94649,0.12249 -2.11012,0.12249 -2.65575,1.08568c-0.07795,0.12249 -0.41757,1.80947 -0.17816,1.67028c0.84627,-0.48438 1.68699,-0.96876 2.51656,-1.44758c0.25611,0.68482 0.31736,1.44758 0.17816,2.19364c1.02444,-0.10022 2.09342,0.11692 3.00094,0.66254c-0.94649,2.19364 -3.37954,3.66349 -5.77361,3.47976c-0.02227,-0.72379 -0.06124,-1.44758 -0.08351,-2.17137c-1.97093,-0.16146 -3.57997,1.53109 -4.56544,3.22364c-1.00217,1.70925 -1.76493,3.66348 -3.41851,4.74917c-1.00217,0.68482 -2.23261,0.94649 -3.31829,1.50882c-1.06341,0.5846 -2.04888,1.69255 -1.82617,2.87845c0.10022,0.56233 0.46211,1.08568 0.44541,1.67028c-0.06124,1.08568 -1.32509,1.59234 -2.17137,2.29385c-1.44758,1.20817 -1.80947,3.42408 -3.35726,4.48749c-1.12466,0.78503 -2.61678,0.76833 -3.92516,1.1692c-1.30839,0.40087 -2.61677,1.70925 -2.08785,2.97867c-0.64584,0.2227 -1.43088,-0.26168 -1.49212,-0.94649c-2.31056,4.54874 -3.83608,9.49834 -4.45965,14.57043c1.14693,0.80174 2.31056,-1.03001 2.53326,-2.41634c0.23941,-1.38633 1.44758,-3.20138 2.57223,-2.37737c-0.26168,1.9932 -0.52335,3.96413 -0.77946,5.95734c-0.06124,0.38417 -0.10022,0.78503 0.08351,1.12466c0.2227,0.42314 0.70152,0.6013 1.06898,0.90195c1.02444,0.88525 0.88525,2.45531 0.94649,3.80268c0.06124,1.64801 0.60687,3.25705 1.46985,4.66566c-0.08351,-0.28395 -0.13919,-0.56233 -0.20044,-0.84627c1.57006,0.20044 3.20138,-0.30622 4.38728,-1.35293c0.62357,-0.56233 1.14692,-1.28612 1.93196,-1.57006c0.8073,-0.30065 1.69255,-0.08351 2.51656,0.13919c2.55553,0.70152 5.27252,1.48655 6.98178,3.49646c0.86298,1.02444 1.4086,2.31612 2.43861,3.15683c2.33283,1.97093 6.28026,1.10239 8.41266,3.29602c1.70925,1.7705 1.3919,4.62668 0.92979,7.05973c-1.1692,-0.64028 -2.73369,0.96876 -2.04888,2.11569c0.62357,-0.68482 1.34736,-1.4086 2.25488,-1.4086c0.92422,-0.02227 1.73153,1.24715 1.04671,1.83174c1.60904,-2.05445 5.55091,-1.20817 6.17448,1.34736c2.25488,0.16146 4.52647,0.31736 6.78135,0.50109c-0.43427,3.30716 6.49183,3.50203 6.35264,6.82589z"/><path d="M195.25283,115.47143c-0.86855,0.42871 -2.06558,-0.05568 -2.3885,-0.96876c-0.32849,-0.91309 0.28952,-2.04331 1.23601,-2.26045c0.59573,-0.13919 1.42531,-0.07238 1.60904,-0.65698c0.05568,-0.17816 0.02227,-0.37303 0.02227,-0.55676c-0.02227,-1.10239 0.9632,-2.01547 2.02661,-2.29386c1.06341,-0.27281 2.18807,-0.06124 3.26819,0.15033c0.38417,0.79617 0.49552,1.72039 0.31179,2.58337c-0.74049,0.03341 -1.48098,0.06124 -2.22148,0.09465c0.06681,1.23044 -0.05568,2.77824 -1.19703,3.23478c-1.02444,0.40643 -2.36067,-0.35076 -3.21251,0.33962"/><path d="M206.78335,103.18372c2.02104,-0.96876 3.7303,-2.49429 5.7235,-3.51873c3.42965,-1.75936 7.43276,-1.91526 11.28554,-2.03775c8.76898,-0.27281 17.53796,-0.54562 26.30694,-0.81844c-2.03218,1.11352 -4.06435,2.23261 -6.1021,3.34613c-1.65915,0.91309 -3.54656,1.84845 -5.36717,1.33066c-0.03897,1.46428 1.29169,2.82278 2.76153,2.81164c-3.60224,2.22704 -8.60195,-0.05011 -12.40463,1.82061c-1.59234,0.78503 -2.87845,2.26602 -4.63225,2.5444c-1.0133,0.16146 -2.06558,-0.11135 -3.07332,0.11135c-1.68699,0.36746 -2.7504,1.96537 -3.99754,3.15683c-1.43644,1.3752 -3.54657,2.31612 -5.42285,1.65915c-1.87628,-0.65698 -2.85618,-3.44635 -1.35293,-4.74917c0.74049,-0.64028 1.79834,-0.74606 2.67245,-1.19704c0.87412,-0.44541 1.5645,-1.64244 0.90752,-2.3718c-0.28395,-0.31736 -0.75163,-0.43984 -1.0133,-0.77947c-0.28395,-0.36746 -0.25611,-0.89082 -0.48995,-1.29169c-0.89082,-1.5645 -3.3684,0.54006 -5.05539,-0.08908"/><path d="M233.41321,110.58307c1.1859,-0.27281 2.21591,-0.97433 3.32386,-1.48655c1.10795,-0.51222 2.42747,-0.81287 3.51316,-0.27281c0.32292,0.8073 -0.60687,1.54223 -1.42531,1.83174c-1.57006,0.55119 -3.27375,0.70152 -4.9162,0.42871"/><path d="M328.95335,179.95546c0,0.54006 0.00557,1.10239 -0.01671,1.64801c-0.64584,-2.53326 -1.19147,-5.11106 -1.67585,-7.70557c-0.89082,-4.82711 -1.93753,-10.36132 -6.18561,-12.79436c-0.78503,-0.44541 -1.63131,-0.76277 -2.3551,-1.24715c-1.00217,-0.66254 -1.7872,-1.64801 -2.85618,-2.23261c-1.06341,-0.56233 -2.61677,-0.5846 -3.25705,0.42314c-0.68482,1.06898 0.10022,2.53883 1.1859,3.1791c1.08568,0.66811 2.39407,0.82401 3.541,1.30839c2.31612,0.98547 3.90289,3.41851 3.92516,5.9128c0,2.49429 -1.58677,4.92733 -3.88062,5.93507c-0.86855,0.36189 -1.79277,0.54006 -2.61677,0.98547c-1.12466,0.5846 -2.00991,1.63131 -2.39407,2.83948c-3.47975,-7.78908 -7.32697,-15.38887 -11.55835,-22.77151c-1.46985,1.83731 -0.92422,4.54874 0.12249,6.64216c1.04671,2.09342 2.57223,4.01981 2.97867,6.33594c0.17816,1.06898 0.12249,2.17694 0.42314,3.20138c0.52335,1.79277 2.01547,3.09559 3.12343,4.56544c1.30839,1.70925 2.17693,3.78597 3.84721,5.15004c1.65358,1.36963 4.54874,1.60904 5.65669,-0.22271c-0.80174,2.03775 -1.60904,4.04765 -2.41078,6.07983c-2.04888,5.17231 -4.08105,10.32234 -6.12993,15.49465c-0.54006,1.3919 -1.08568,2.75596 -1.62574,4.14787c-2.07115,5.18901 -4.1423,10.44483 -7.3381,15.03254c-0.50109,0.70709 -1.02444,1.43088 -1.16363,2.25488c-0.07795,0.57903 0.00557,1.16363 -0.01671,1.74823c-0.06124,2.09342 -1.83174,3.98641 -3.90289,4.20911c1.52552,0 1.90969,2.63905 0.72379,3.7637c-1.23044,1.1692 -3.07889,1.30839 -4.64895,1.9932c-4.18684,1.79277 -6.77578,7.52741 -11.28554,6.98735c-1.61461,-5.06652 -3.22365,-10.11634 -4.83825,-15.16616c-0.64584,-1.98764 -1.28612,-4.01981 -1.26941,-6.11323c0.06124,-3.82495 2.27158,-7.24346 3.13456,-10.96818c0.87968,-3.71916 -0.55119,-8.69104 -4.3316,-9.16985c0.33962,-0.86298 0.68482,-1.74823 1.02444,-2.63348c-0.64028,0.11692 -1.28612,0.23941 -1.90969,0.36189c1.24714,-2.63905 1.62574,-6.68113 -1.13022,-7.66659c-1.20817,-0.42314 -2.55554,-0.01671 -3.80268,-0.27838c-1.25271,-0.26168 -2.29942,-1.97093 -1.29169,-2.75596c-4.44295,-0.17816 -8.95271,0.5679 -13.09501,2.1992c-1.44758,0.5679 -2.91742,1.25271 -4.46522,1.19147c-2.49429,-0.10022 -4.47079,-2.07115 -6.18004,-3.88062c-3.62451,-3.89733 -7.53297,-8.74671 -6.28583,-13.89675c0.43984,-1.80947 1.48655,-3.57997 1.10239,-5.41172c-0.2227,-1.06898 -0.94649,-1.9932 -1.14693,-3.07889c-0.28395,-1.4086 0.33962,-2.83948 1.06341,-4.08662c2.29385,-4.04765 5.69009,-7.48843 9.6932,-9.8658c-0.23941,-2.37737 1.42531,-4.63225 3.51873,-5.77918c2.09342,-1.16363 4.54874,-1.44758 6.92053,-1.73153c4.34273,-0.50665 8.69103,-0.99104 13.05604,-1.49769c0.52335,-0.06124 1.09125,-0.10022 1.53109,0.16146c0.72379,0.43984 0.78503,1.44758 1.00774,2.27158c0.62357,2.3551 3.47976,3.81938 5.77361,2.9731c0.84627,2.90072 4.22581,4.02538 7.16551,4.7269c-0.32292,-1.69255 0.17816,-3.50203 1.30282,-4.77144c1.04671,2.63348 4.365,3.41851 7.20448,3.49646c2.83948,0.05568 5.97405,-0.14476 8.15098,1.64244c-0.30065,-1.90969 -0.62357,-3.81938 -0.94649,-5.75134c-0.10022,-0.68482 -0.23941,-1.43087 -0.78503,-1.89299c-0.72379,-0.6013 -1.7705,-0.38417 -2.71699,-0.36189c-2.11569,0.08351 -4.22581,-0.94093 -5.45625,-2.67245c3.85835,-1.58677 8.20665,-2.03775 12.33225,-1.25271c-2.25488,-2.71699 -4.06992,-5.81258 -5.3282,-9.11974c-0.30622,1.36963 -0.5846,2.71699 -0.88525,4.08663c-0.54562,-1.34736 -1.19147,-2.81721 -2.47758,-3.44078c-1.30839,-0.64028 -3.31829,0.32292 -3.05662,1.73153c0.12249,0.70709 0.74606,1.23044 1.00774,1.89299c0.50665,1.24714 -0.3786,2.69472 -1.58677,3.27932c-1.2026,0.6013 -2.61121,0.56233 -3.94187,0.52335c-0.13919,1.13022 -0.27838,2.25488 -0.43984,3.40181c-0.40643,-1.04671 -0.82957,-2.07115 -1.23044,-3.11786c-0.56233,0.38417 -1.14692,0.74606 -1.70925,1.13022c-1.12466,-1.1859 -2.23261,-2.34953 -3.34057,-3.51873c-0.64584,0.64028 -1.28612,1.30839 -1.93196,1.97093c-2.03775,-1.63131 -4.06992,-3.25705 -6.1021,-4.86609c-0.92422,-0.74049 -1.87072,-1.48655 -2.97867,-1.88742c-3.38511,-1.24714 -7.00405,1.04671 -9.53731,3.58554c-1.30282,1.32509 -2.57223,2.89516 -2.65018,4.74917c-1.97093,-0.51779 -3.96414,0.70708 -5.99631,0.72936c-2.71699,0.03897 -5.21128,-2.47202 -5.13333,-5.18901c0.05568,-2.71699 2.65018,-5.11107 5.36717,-4.97187c1.87072,0.12249 3.65792,1.24715 5.51193,0.92422c0.54562,-2.61677 -1.13022,-5.48966 -3.66348,-6.31367c5.51193,-2.60007 11.04056,-5.20014 16.55249,-7.77795c0.68482,-1.06898 -0.74606,-2.31056 -1.9932,-2.43305c-1.26941,-0.12249 -2.71699,0.12249 -3.62451,-0.78503c-1.06898,-1.06341 -0.40643,-3.01764 0.84071,-3.90289c1.22487,-0.88525 2.81164,-1.09125 4.24252,-1.59234c1.34736,-0.46211 2.54996,-1.1859 3.88062,-1.67028c5.75134,-2.05445 11.93138,1.11909 17.20391,4.17571l0.46211,-0.16146c0.08351,1.34736 -0.30065,2.71699 -1.06341,3.82495c3.21808,-1.60904 7.28243,-1.35293 10.2611,0.618c1.29169,0.84627 2.43861,2.0099 3.94744,2.33283c0.34519,0.08351 0.68482,0.10022 1.00774,0.06124c14.77643,15.86768 23.82379,37.13037 23.84606,60.52546zM314.53881,147.66891c-0.02227,-0.56233 -0.54562,-0.9465 -0.94649,-1.32509c-0.40087,-0.3786 -0.70709,-1.06341 -0.32292,-1.44758c0.36189,-0.13919 0.70152,-0.26168 1.06341,-0.40087c0.17816,-1.24714 -0.92979,-2.33283 -2.05444,-2.91743c-1.12466,-0.6013 -2.41634,-0.94093 -3.27932,-1.88742c-0.10578,-0.08351 -0.18373,-0.20044 -0.18373,-0.32292c0,-0.20044 0.18373,-0.32292 0.32292,-0.46211c1.06341,-0.90195 0.41757,-2.99538 -0.96876,-3.15684l0.824,-0.44541c-0.26168,-0.54006 -0.90195,-0.86298 -1.48655,-0.76276c-1.23044,0.20044 -1.60904,1.80947 -1.34736,3.01764c0.30065,1.36407 1.10795,2.63348 2.21591,3.51873c0.42314,0.33962 0.92422,0.64028 1.20817,1.12466c0.6013,1.00217 0.06124,2.29385 0.32292,3.41851c0.2227,0.94649 0.99104,1.65358 1.7538,2.25488c0.46768,0.36189 1.00774,0.74606 1.59234,0.78503c0.6013,0.03897 1.28612,-0.38416 1.28612,-0.99103z"/><path d="M315.2125,214.93673c-0.23941,0.48995 -0.7906,0.72379 -1.23044,1.04671c-3.09002,2.29385 -0.11692,8.35141 -3.24591,10.58402c-1.09125,0.77946 -2.55553,0.74049 -3.89176,0.62357c-0.31736,-0.02784 -0.64584,-0.05568 -0.92979,-0.20043c-1.23044,-0.61244 -0.74049,-2.52769 0.18373,-3.54656c0.92422,-1.01887 2.20477,-2.04331 2.07115,-3.41294c-0.08351,-0.82401 -0.69595,-1.62574 -0.43984,-2.41634c0.30622,-0.92979 1.51439,-1.09125 2.42191,-1.45871c1.72039,-0.69595 2.73369,-2.7838 2.22704,-4.56544l1.45315,-1.03001c-0.57903,1.50325 2.11012,2.93413 1.38077,4.37614z"/></g></g></g></svg>