<svg version="1.1" xmlns="http://www.w3.org/2000/svg" xmlns:xlink="http://www.w3.org/1999/xlink" width="21.50869" height="16.994" viewBox="0,0,21.50869,16.994"><g transform="translate(-228.73618,-171.50391)"><g data-paper-data="{&quot;isPaintingLayer&quot;:true}" fill="#ffc010" fill-rule="nonzero" stroke="#ffc010" stroke-width="1" stroke-linecap="butt" stroke-linejoin="miter" stroke-miterlimit="10" stroke-dasharray="" stroke-dashoffset="0" style="mix-blend-mode: normal"><path d="M240.2569,172.00392c8.03824,0.02357 7.55501,-0.02357 8.54506,0.96647c0.97826,0.97826 0.94291,0.69539 0.94291,7.07177c0,5.57491 0,5.6692 -0.2593,6.12887c-0.36537,0.67182 -0.94291,1.22577 -1.62651,1.54401l-0.58931,0.28287h-7.24857h-7.24857l-0.58931,-0.28287c-0.31823,-0.14144 -0.78968,-0.49503 -1.0372,-0.7779c-0.87219,-0.95469 -0.84861,-0.75432 -0.88397,-6.58854c-0.02357,-3.40624 0.01179,-5.44527 0.09429,-5.82242c0.22394,-1.07255 1.28471,-2.18047 2.33369,-2.42798c0.23573,-0.05894 3.64197,-0.10608 7.5668,-0.09429zM232.66653,172.69931c-0.29466,0.08251 -0.67182,0.33001 -1.02541,0.6836c-0.81325,0.81325 -0.83682,0.95469 -0.78968,7.02463c0.03536,5.71635 0.01179,5.49241 0.82504,6.24673c0.83682,0.78968 0.40073,0.75432 8.34469,0.75432c6.83605,0 7.22499,-0.01179 7.63751,-0.22394c0.5186,-0.27108 1.0372,-0.75432 1.29649,-1.24934c0.17679,-0.30645 0.20036,-0.99005 0.23573,-5.69278c0.02357,-3.68911 -0.01179,-5.48062 -0.10608,-5.83421c-0.17679,-0.6836 -1.06077,-1.53222 -1.79152,-1.70901c-0.70718,-0.18858 -13.94318,-0.17679 -14.62678,0z"/><path d="M235.07093,176.5652h2.67549c2.52227,0 2.65191,0.01179 2.4869,0.20036c-0.09429,0.11786 -1.2022,1.42613 -2.45155,2.923c-1.24934,1.48507 -2.36904,2.81692 -2.4987,2.94657c-0.21216,0.22394 -0.21216,0.14144 -0.21216,-2.923zM239.10185,177.15453h-1.7208h-1.7208v2.00367c0,1.09612 0.02357,2.00367 0.04715,2.00367c0.02357,0 0.56574,-0.62468 1.2022,-1.39078c0.63646,-0.75432 1.39078,-1.66186 1.67365,-2.00367z"/><path d="M244.91247,177.23703l0.03536,3.04086c0.01179,1.67365 0.01179,3.06443 -0.01179,3.08801c-0.02357,0.02357 -1.21399,0.02357 -2.65191,0.01179l-2.59299,-0.03536l2.60477,-3.05265zM244.33496,178.92246c-0.07072,0 -3.25302,3.74804 -3.25302,3.83054c0,0.03536 0.74254,0.05894 1.65008,0.05894h1.65008v-1.94474c0,-1.07255 -0.02357,-1.94474 -0.04715,-1.94474z"/></g></g></svg>