<svg version="1.1" xmlns="http://www.w3.org/2000/svg" xmlns:xlink="http://www.w3.org/1999/xlink" width="125.41421" height="54" viewBox="0,0,125.41421,54"><g transform="translate(-177.08579,-153)"><g data-paper-data="{&quot;isPaintingLayer&quot;:true}" fill-rule="nonzero" stroke-linecap="butt" stroke-linejoin="miter" stroke-miterlimit="10" stroke-dasharray="" stroke-dashoffset="0" style="mix-blend-mode: normal"><path d="M204.5,206l-26,-26.05l26,-25.95h97v52z" fill="#000000" stroke="#ffc910" stroke-width="2"/><text transform="translate(222.3983,188.24244) scale(0.68687,0.68687)" font-size="40" xml:space="preserve" fill="#000000" fill-rule="nonzero" stroke="#000000" stroke-width="3" stroke-linecap="butt" stroke-linejoin="miter" stroke-miterlimit="10" stroke-dasharray="" stroke-dashoffset="0" font-family="Malgun Gothic" font-weight="normal" text-anchor="start" style="mix-blend-mode: normal"><tspan x="0" dy="0">Back</tspan></text><g fill="#ffc010" stroke="#ffc010" stroke-width="1"><path d="M226.28221,169.87678c7.95896,-0.01197 7.80336,-0.02393 8.82067,0.88566c1.137,1.01731 1.10109,0.78992 1.10109,7.27676v5.66103l-0.31117,0.62235c-0.28724,0.56251 -0.82582,1.16093 -1.31652,1.43621c-0.17953,0.10772 0,0.4548 1.54391,2.88437c0.96944,1.51998 1.75935,2.82453 1.75935,2.89634c0,0.08378 -0.08378,0.25134 -0.20346,0.37102c-0.17953,0.19149 -0.43087,0.21543 -2.81257,0.21543c-2.33382,0 -2.63303,-0.02393 -2.81256,-0.21543c-0.11969,-0.10772 -1.01731,-1.46014 -2.01068,-2.99209l-1.79525,-2.77666h-4.66765c-4.28467,0 -4.70357,-0.02394 -5.15836,-0.2274c-0.69416,-0.32315 -1.34045,-0.92156 -1.67557,-1.57982l-0.28724,-0.57448v-5.72087c0,-5.4815 0.01197,-5.72087 0.23937,-6.1996c0.43086,-0.88566 1.34045,-1.65163 2.21414,-1.86706c0.20346,-0.04788 3.51869,-0.08378 7.3725,-0.09575zM233.75046,170.52307l-7.18101,-0.02393c-3.94956,-0.01197 -7.34857,0.02393 -7.564,0.07181c-0.61039,0.15559 -1.14896,0.52661 -1.53195,1.07715l-0.35905,0.51464l-0.0359,5.73284c-0.02393,5.46954 -0.02393,5.7448 0.20346,6.17566c0.11969,0.25134 0.38299,0.59842 0.57448,0.77795c0.7181,0.6822 0.80188,0.69416 5.98418,0.69416l4.7634,0.01197l1.91494,2.98012l1.91493,2.98012l2.36974,0.01197c1.29258,0 2.35777,-0.02394 2.35777,-0.05984c0,-0.03591 -0.83778,-1.36439 -1.86706,-2.95618c-1.83115,-2.8365 -1.93887,-3.07587 -1.41226,-3.08784c0.28724,0 1.12502,-0.74204 1.42423,-1.23274l0.31117,-0.53858l-0.0359,-5.72087l-0.03591,-5.73284l-0.34708,-0.51463c-0.19149,-0.28724 -0.59842,-0.65826 -0.89763,-0.83778z"/><path d="M221.36322,174.53247h4.96687h4.96686v3.47082v3.47082h-0.29921c-0.25134,0 -0.46677,-0.26331 -1.38833,-1.67557l-1.08912,-1.67558h-2.32186c-1.28062,0 -2.32186,0.02394 -2.32186,0.05984c0,0.03591 0.41889,0.7181 0.93353,1.51998c0.51464,0.81384 0.9814,1.54392 1.02928,1.61573c0.07181,0.11969 -0.40693,0.15559 -2.19021,0.15559h-2.28596v-3.47082zM230.69853,175.13089h-4.36845h-4.36845v2.8724v2.87241h1.37636c0.75401,0 1.37635,-0.03591 1.37635,-0.08378c0,-0.03591 -0.35905,-0.63432 -0.78991,-1.31652c-0.43086,-0.67023 -0.76598,-1.32848 -0.74204,-1.4362c0.08378,-0.43086 0.55055,-0.51464 2.93225,-0.51464c1.25668,0 2.42957,0.04787 2.6091,0.11968c0.20346,0.07181 0.59842,0.56251 1.137,1.4003l0.83778,1.28062v-2.59714z"/><path d="M240.9195,170.2478l2.39367,0.03591l0.15559,0.29921c0.11969,0.2274 0.15559,1.51998 0.15559,5.34985v5.06261h4.24876h4.24876v-5.06261c0,-3.82987 0.03591,-5.12245 0.15559,-5.34985l0.15559,-0.29921l2.29792,-0.03591c1.44817,-0.01197 2.39367,0.01197 2.53729,0.09575c0.23937,0.11969 0.23937,0.27527 0.23937,6.73818c0,6.1637 -0.02394,6.64244 -0.2274,7.09723c-0.32315,0.7181 -0.95746,1.36439 -1.62769,1.67557l-0.59842,0.28724h-7.18101c-6.96558,0 -7.19298,-0.01197 -7.71958,-0.25134c-0.69416,-0.31117 -1.26864,-0.86172 -1.62769,-1.56786l-0.28724,-0.56251v-6.63047c0,-5.05065 0.03591,-6.6544 0.14362,-6.76211c0.10772,-0.10772 0.77794,-0.14363 2.53729,-0.11969zM243.02593,170.82228h-2.09446c-1.63967,0 -2.11839,0.0359 -2.16627,0.15559c-0.03591,0.09575 -0.04788,2.99209 -0.02393,6.43897c0.03591,5.56528 0.05984,6.30732 0.23936,6.63047c0.26331,0.50267 0.78991,0.99337 1.31652,1.26864c0.41889,0.21543 0.80188,0.2274 7.54006,0.2274c6.60653,0 7.13314,-0.02393 7.57597,-0.2274c0.51464,-0.2274 1.19684,-0.93354 1.38833,-1.41227c0.05984,-0.16755 0.10771,-3.01602 0.10771,-6.6903v-6.3911h-2.09447h-2.09446v5.38576v5.38575h-4.84718h-4.84718v-5.38575z"/><path d="M262.18726,170.22387c1.34046,0 2.36973,0.04787 2.51335,0.11968c0.21543,0.11969 0.2274,0.33512 0.2274,7.81534c0,5.82859 -0.03591,7.73155 -0.14362,7.83926c-0.10771,0.10772 -0.82582,0.14362 -2.50139,0.14362c-1.98674,0 -2.39367,-0.02393 -2.54926,-0.19149c-0.16755,-0.16755 -0.19149,-1.02928 -0.19149,-7.76746c0,-6.73818 0.02393,-7.5999 0.19149,-7.76746c0.15559,-0.15559 0.55054,-0.1915 2.45351,-0.1915zM264.32959,170.82228h-2.09446h-2.09446v7.36053v7.36053h2.09446h2.09446v-7.36053z"/><path d="M275.8192,170.22387c6.78605,0 8.96429,0.0359 9.07201,0.14362c0.20346,0.20346 0.20346,4.65569 0,4.85915c-0.10771,0.10772 -1.00534,0.14362 -3.29129,0.14362h-3.14768v5.24214c0,3.91365 -0.03591,5.27804 -0.14362,5.38576c-0.10771,0.10772 -0.82582,0.14362 -2.50139,0.14362c-1.98674,0 -2.39367,-0.02393 -2.54926,-0.19149c-0.16755,-0.16755 -0.19149,-0.81385 -0.19149,-5.38576v-5.19427h-3.1357c-1.77132,0 -3.23145,-0.04787 -3.3272,-0.11968c-0.14362,-0.09575 -0.17953,-0.49071 -0.17953,-2.39367c0,-2.13037 0.01197,-2.30989 0.2274,-2.46548c0.20346,-0.14362 1.63966,-0.16756 9.16776,-0.16756zM284.49626,170.88213l-8.70099,-0.03591l-8.71296,-0.02393v1.97478v1.97478h3.2913h3.29129v5.38575v5.38576h2.09446h2.09446v-5.38576v-5.38575h3.35114h3.35113l-0.02393,-1.95084z"/></g></g></g></svg>