<svg version="1.1" xmlns="http://www.w3.org/2000/svg" xmlns:xlink="http://www.w3.org/1999/xlink" width="18.56155" height="16.86433" viewBox="0,0,18.56155,16.86433"><g transform="translate(-230.71922,-171.48913)"><g data-paper-data="{&quot;isPaintingLayer&quot;:true}" fill="#ffc010" fill-rule="nonzero" stroke="#ffc010" stroke-width="1" stroke-linecap="butt" stroke-linejoin="miter" stroke-miterlimit="10" stroke-dasharray="" stroke-dashoffset="0" style="mix-blend-mode: normal"><path d="M240.04714,171.98913c7.5668,-0.01179 8.32112,0 8.52148,0.18858c0.17679,0.16501 0.21216,0.37716 0.21216,1.40256c0,1.06077 -0.04715,1.34363 -0.36537,2.21582c-0.20036,0.55396 -0.50681,1.2022 -0.6836,1.44971c-0.56574,0.7779 -8.40363,10.45444 -8.5922,10.60766c-0.2593,0.21216 -6.04637,0.21216 -6.24673,0.01179c-0.36537,-0.36537 -0.11786,-0.71897 3.81876,-5.6692l3.96019,-4.97382l-4.57308,-0.03536c-3.12336,-0.01179 -4.60843,-0.07072 -4.7263,-0.15322c-0.11786,-0.10608 -0.15322,-0.64825 -0.15322,-2.39261c0,-1.23756 0.04715,-2.31011 0.09429,-2.38083c0.04715,-0.07072 0.16501,-0.16501 0.2593,-0.20036c0.09429,-0.03536 3.91305,-0.07072 8.47434,-0.07072zM248.21503,172.56665h-8.20325h-8.20325v2.00367v2.00367l5.0681,0.02357l5.0681,0.03536l-4.2902,5.36276l-4.2902,5.36276l2.66371,0.03536c2.64013,0.02357 2.66371,0.02357 2.923,-0.23573c0.14144,-0.15322 2.07438,-2.52227 4.2902,-5.28026c4.78523,-5.9285 4.86774,-6.05815 4.92667,-8.05003z"/></g></g></svg>