<svg version="1.1" xmlns="http://www.w3.org/2000/svg" xmlns:xlink="http://www.w3.org/1999/xlink" width="420.9464" height="44.56382" viewBox="0.25,0.25,420.9464,44.56382"><g transform="translate(-29.27681,-157.4681)"><g data-paper-data="{&quot;isPaintingLayer&quot;:true}" fill="#ffc910" fill-rule="nonzero" stroke="#ffc710" stroke-width="1.5" stroke-linecap="butt" stroke-linejoin="miter" stroke-miterlimit="10" stroke-dasharray="" stroke-dashoffset="0" style="mix-blend-mode: normal"><g><path d="M45.97132,158.47614c16.5973,0 16.29637,-0.02315 18.17138,1.62038c0.57871,0.53241 1.3426,1.50464 1.66667,2.17594l0.60185,1.22686l-0.06944,5.53243c-0.06944,4.83799 -0.11574,5.64817 -0.50926,6.38892c-0.57871,1.20371 -2.0139,2.5926 -3.2639,3.17131c-0.99538,0.46297 -1.3426,0.48611 -11.34265,0.48611h-10.30097v5.16206c0,3.70372 -0.06944,5.23151 -0.27778,5.43984c-0.34722,0.34722 -9.37504,0.39352 -9.90745,0.0463c-0.30093,-0.18519 -0.34722,-1.57408 -0.41667,-9.69912c-0.06944,-9.28245 -0.0463,-9.51393 0.41667,-9.9769c0.46297,-0.46297 0.7176,-0.46297 12.73154,-0.46297c12.10654,0 12.26858,0 12.26858,-0.46297c0,-0.46297 -0.16204,-0.46297 -12.36117,-0.46297c-10.94913,0 -12.40747,-0.0463 -12.73154,-0.37037c-0.30093,-0.30093 -0.37037,-1.06482 -0.37037,-4.62965c0,-3.95835 0.02315,-4.28243 0.46297,-4.72224c0.46297,-0.46297 0.76389,-0.46297 15.23155,-0.46297zM46.71206,159.67985c-8.24078,-0.02315 -15.02322,0 -15.11581,0.09259c-0.09259,0.09259 -0.16204,1.87501 -0.16204,3.95835v3.77317h12.73154h12.73154v1.62038v1.62038l-12.6621,0.0463l-12.68524,0.06944l-0.06944,8.95838l-0.0463,8.98152h4.16669h4.16669v-5.43984v-5.41669l11.06487,-0.06944l11.06487,-0.06944l0.97223,-0.64815c0.53241,-0.34722 1.25001,-1.06482 1.59723,-1.59723l0.64815,-0.94908l0.06944,-5.34725c0.06944,-4.39817 0,-5.48614 -0.30093,-6.27318c-0.39352,-1.06482 -1.45834,-2.26853 -2.52316,-2.84724c-0.64815,-0.34722 -2.19908,-0.39352 -15.64822,-0.46297z"/><path d="M92.77709,158.73077c3.2639,0.39352 4.95373,1.43519 6.20373,3.79631l0.625,1.15741l0.06944,12.82413c0.0463,9.42134 0,12.89358 -0.20833,13.12506c-0.41667,0.50926 -9.51393,0.46297 -10.02319,-0.0463c-0.27778,-0.27778 -0.37037,-0.85649 -0.37037,-2.43057v-2.06019h-6.36577h-6.34262l-1.73612,2.19908c-0.97223,1.20371 -1.94445,2.29168 -2.19908,2.43057c-0.27778,0.13889 -2.50001,0.23148 -5.67132,0.23148h-5.23151l-0.37037,-0.57871c-0.20833,-0.32408 -0.27778,-0.69445 -0.18519,-0.85649c0.09259,-0.16204 4.79169,-6.45836 10.41672,-14.0047c10.11579,-13.51858 10.27783,-13.72692 11.59728,-14.37507c1.50464,-0.76389 2.96298,-1.15741 5.30095,-1.41204c2.31483,-0.27778 2.36112,-0.27778 4.49076,0zM85.3465,160.328c-2.43057,0.6713 -2.15279,0.34722 -12.75469,14.5371c-5.48614,7.338 -10.06949,13.49543 -10.18523,13.63432c-0.18519,0.23148 0.76389,0.30093 4.62965,0.30093h4.86113l1.89816,-2.43057l1.92131,-2.43057h7.2454h7.26855v2.43057v2.43057h4.16669h4.16669v-11.9908c0,-13.61117 0.02315,-13.47229 -1.75927,-15.23155c-0.69445,-0.7176 -1.3426,-1.08797 -2.22223,-1.3426c-2.36112,-0.64815 -6.64355,-0.60185 -9.23615,0.09259z"/><path d="M89.79097,168.66138c0.41667,0.23148 0.43982,0.53241 0.43982,4.28243v4.05094h-4.6528c-4.39817,0 -4.6528,-0.02315 -4.35187,-0.39352c1.9676,-2.50001 5.87966,-7.08337 6.45836,-7.54633c0.78704,-0.6713 1.36575,-0.76389 2.10649,-0.39352zM88.86504,169.58731c-0.20833,0 -1.75927,1.71297 -4.39817,4.79169l-1.22686,1.45834h2.91668h2.91668v-3.12501c0,-1.71297 -0.09259,-3.12501 -0.20833,-3.12501z"/><path d="M110.13828,158.49929c2.93983,-0.0463 4.90743,1.48149 19.2362,14.95377l1.52778,1.45834l0.13889,-2.26853c0.09259,-1.22686 0.16204,-4.81484 0.16204,-7.963c0,-5.41669 0.02315,-5.74077 0.43982,-5.97225c0.27778,-0.13889 2.24538,-0.23148 4.81484,-0.23148c3.42594,0 4.46761,0.06944 4.83799,0.32408c0.41667,0.32408 0.43982,0.76389 0.50926,13.03247c0.0463,8.56485 0,13.05562 -0.18519,13.86581c-0.30093,1.45834 -1.22686,2.56946 -2.80094,3.44909c-0.99538,0.53241 -1.59723,0.69445 -3.12501,0.76389c-1.59723,0.09259 -2.0139,0.02315 -2.89353,-0.41667c-2.75464,-1.3889 -6.94448,-4.90743 -15.2547,-12.80099l-3.3565,-3.19446l-0.11574,8.0093c-0.09259,6.78244 -0.16204,8.03244 -0.46297,8.21763c-0.18519,0.11574 -2.40742,0.23148 -4.90743,0.23148c-3.81946,0 -4.6065,-0.0463 -4.90743,-0.37037c-0.32408,-0.32408 -0.37037,-1.87501 -0.37037,-13.54173c0,-14.39822 -0.02315,-14.12044 1.3426,-15.55563c0.74074,-0.78704 2.0139,-1.48149 3.21761,-1.75927c0.48611,-0.11574 1.45834,-0.20833 2.15279,-0.23148zM108.28642,159.84189c-1.64353,0.34722 -2.96298,1.36575 -3.44909,2.6389c-0.16204,0.43982 -0.25463,4.95373 -0.25463,13.49543v12.82413h4.16669h4.16669v-9.05097v-9.05097l3.47224,3.3102c10.16208,9.69912 14.02784,13.07876 16.29637,14.21303c1.27315,0.64815 3.24076,0.76389 4.86113,0.32408c1.20371,-0.32408 2.66205,-1.73612 2.87038,-2.75464c0.09259,-0.43982 0.13889,-6.50466 0.09259,-13.49543l-0.09259,-12.6621h-4.0278h-4.0278l-0.0463,9.12041l-0.06944,9.09726l-4.16669,-3.91206c-10.90283,-10.25468 -13.70377,-12.70839 -15.48618,-13.65747c-0.99538,-0.50926 -3.03242,-0.7176 -4.30558,-0.43982z"/><path d="M162.63853,158.52244c16.25008,0.06944 16.36582,0.06944 17.29175,0.57871c1.22686,0.64815 2.54631,1.99075 3.12501,3.19446c0.43982,0.92593 0.46297,1.3889 0.46297,11.9445c0,10.16208 -0.0463,11.04172 -0.43982,11.92135c-0.625,1.36575 -1.73612,2.52316 -3.07872,3.19446l-1.20371,0.60185h-16.31952c-9.90745,0 -16.48156,-0.09259 -16.68989,-0.23148c-0.30093,-0.18519 -0.34722,-1.55093 -0.34722,-9.95375c0,-8.40282 0.0463,-9.76856 0.34722,-9.95375c0.53241,-0.34722 9.56023,-0.30093 9.90745,0.0463c0.20833,0.20833 0.27778,1.66667 0.27778,5.09262v4.81484h8.44911h8.44911v-5.55558v-5.55558h-13.35654c-8.0093,0 -13.51858,-0.09259 -13.72692,-0.23148c-0.27778,-0.18519 -0.37037,-1.01852 -0.41667,-4.6065c-0.06944,-4.18983 -0.0463,-4.42132 0.41667,-4.88428c0.48611,-0.48611 0.50926,-0.48611 16.85193,-0.41667zM162.05982,159.63356h-15.34729v3.9352v3.9352h13.77321h13.77321v6.71299v6.71299h-9.72227h-9.72227v-5.09262v-5.09262h-4.05094h-4.05094v9.02782v9.02782h15.926c14.88433,0 15.9723,-0.0463 16.82878,-0.43982c0.99538,-0.43982 2.31483,-1.80556 2.6852,-2.73149c0.11574,-0.32408 0.20833,-5.25465 0.20833,-11.38894c0,-10.74079 0,-10.81024 -0.50926,-11.82876c-0.625,-1.22686 -2.06019,-2.29168 -3.44909,-2.56946c-0.55556,-0.09259 -7.9167,-0.18519 -16.34267,-0.20833z"/><path d="M206.11095,158.49929c11.29635,-0.02315 13.61117,0.02315 14.60655,0.32408c1.50464,0.43982 3.21761,1.9676 3.91206,3.47224c0.53241,1.11112 0.55556,1.3889 0.55556,6.48151c0,5.09262 -0.02315,5.3704 -0.55556,6.48151c-0.27778,0.625 -0.97223,1.55093 -1.52778,2.03705c-1.87501,1.71297 -1.50464,1.66667 -12.84728,1.73612c-7.98615,0.0463 -10.30097,0 -10.76394,-0.25463l-0.57871,-0.30093l-0.06944,-4.12039c-0.0463,-2.84724 0.02315,-4.23613 0.20833,-4.44447c0.20833,-0.25463 1.68982,-0.32408 7.87041,-0.32408c7.45374,0 7.61578,0 7.61578,-0.46297c0,-0.46297 -0.16204,-0.46297 -8.33337,-0.46297h-8.33337v5.55558v5.55558h13.21765c8.65745,0 13.35654,0.09259 13.65747,0.23148c0.41667,0.23148 0.43982,0.53241 0.43982,4.81484c0,3.2639 -0.06944,4.6528 -0.27778,4.86113c-0.20833,0.20833 -4.18983,0.27778 -16.48156,0.27778h-16.22693l-1.15741,-0.55556c-0.6713,-0.30093 -1.59723,-1.01852 -2.15279,-1.64353c-1.64353,-1.87501 -1.66667,-2.08334 -1.66667,-13.51858c0,-6.6667 0.09259,-10.41672 0.25463,-11.01857c0.53241,-1.94445 2.50001,-3.9352 4.39817,-4.46761c0.46297,-0.13889 6.15744,-0.25463 14.23618,-0.25463zM192.66182,159.7493c-0.11574,0.0463 -0.50926,0.13889 -0.87963,0.20833c-0.87963,0.20833 -2.45372,1.68982 -2.96298,2.80094c-0.39352,0.85649 -0.43982,1.75927 -0.43982,11.57413v10.6482l0.69445,1.20371c0.50926,0.90278 1.01852,1.41204 1.92131,1.92131l1.20371,0.69445h15.926h15.90285v-3.9352v-3.9352h-13.65747h-13.65747v-6.71299v-6.71299h9.49079h9.49079v1.62038v1.62038h-7.87041h-7.87041v3.47224v3.47224h10.16208c5.74077,0 10.41672,-0.09259 10.74079,-0.20833c0.87963,-0.34722 2.22223,-1.62038 2.73149,-2.5926c0.39352,-0.81019 0.43982,-1.3889 0.43982,-6.13429c0,-5.23151 0,-5.23151 -0.60185,-6.36577c-0.69445,-1.25001 -1.94445,-2.22223 -3.2639,-2.54631c-0.78704,-0.18519 -26.96772,-0.27778 -27.50013,-0.09259z"/><path d="M239.56018,159.33263c2.36112,1.08797 3.21761,2.17594 7.82411,9.76856c2.33797,3.84261 4.30558,6.96763 4.37502,6.96763c0.09259,-0.02315 1.01852,-1.43519 2.08334,-3.19446c7.26855,-12.08339 7.26855,-12.08339 10.00005,-13.42599c1.62038,-0.81019 1.82871,-0.85649 3.9352,-0.83334c1.78242,0 2.43057,0.09259 3.40279,0.53241c1.27315,0.55556 2.70835,1.94445 3.07872,2.93983c0.34722,0.92593 0.30093,27.2455 -0.0463,27.59272c-0.34722,0.34722 -9.37504,0.39352 -9.90745,0.0463c-0.30093,-0.18519 -0.37037,-1.22686 -0.46297,-6.34262l-0.11574,-6.15744l-3.24076,4.88428c-3.65742,5.50928 -4.88428,6.92133 -6.50466,7.47689c-2.24538,0.76389 -4.76854,0.37037 -6.20373,-0.97223c-1.08797,-1.01852 -4.56021,-5.78706 -6.41207,-8.79634l-1.71297,-2.80094l-0.06944,6.15744c-0.02315,4.07409 -0.13889,6.27318 -0.30093,6.48151c-0.20833,0.23148 -1.3426,0.30093 -4.97688,0.30093c-3.95835,0 -4.74539,-0.0463 -5.04632,-0.37037c-0.32408,-0.32408 -0.37037,-1.82871 -0.37037,-13.19451c0,-8.98152 0.06944,-13.17136 0.27778,-13.9121c0.43982,-1.75927 2.26853,-3.33335 4.42132,-3.77317c1.87501,-0.39352 4.35187,-0.13889 5.97225,0.625zM233.72682,159.84189c-1.11112,0.23148 -2.40742,1.06482 -3.03242,1.94445l-0.53241,0.74074l-0.06944,13.12506l-0.06944,13.14821h4.18983h4.16669v-8.17133v-8.14819l1.64353,2.77779c1.99075,3.37965 6.01855,9.44449 7.54633,11.34265c1.3889,1.71297 2.29168,2.19908 4.09724,2.19908c2.22223,0 3.07872,-0.55556 5.09262,-3.3102c2.33797,-3.21761 5.9491,-8.77319 7.12966,-10.97227l0.99538,-1.80556l0.06944,8.03244l0.0463,8.05559h4.16669h4.16669l-0.0463,-13.31025l-0.06944,-13.2871l-0.90278,-0.92593c-1.18056,-1.20371 -2.10649,-1.50464 -4.6528,-1.52778c-1.82871,0 -2.24538,0.06944 -3.40279,0.64815c-0.76389,0.37037 -1.73612,1.11112 -2.31483,1.75927c-0.55556,0.625 -3.05557,4.58335 -5.57873,8.77319l-4.6065,7.63892l-4.6991,-7.77781c-2.56946,-4.30558 -5.11576,-8.24078 -5.64817,-8.79634c-0.53241,-0.55556 -1.55093,-1.27315 -2.26853,-1.59723c-1.41204,-0.64815 -3.81946,-0.90278 -5.41669,-0.55556z"/><path d="M283.47243,158.47614c5.83336,0 5.3704,-0.43982 5.3704,5.18521c0,3.56483 -0.06944,4.32872 -0.37037,4.62965c-0.30093,0.32408 -1.08797,0.37037 -5.04632,0.37037c-3.33335,0 -4.74539,-0.06944 -4.95373,-0.27778c-0.20833,-0.20833 -0.27778,-1.59723 -0.27778,-4.86113c0,-4.09724 0.0463,-4.58335 0.41667,-4.79169c0.23148,-0.13889 2.24538,-0.25463 4.86113,-0.25463zM287.56967,159.7493l-4.09724,-0.06944l-4.12039,-0.0463v3.9352v3.9352h4.16669h4.16669l-0.0463,-3.88891z"/><path d="M311.25033,158.54559c12.52321,0.0463 14.44451,0.09259 14.6297,0.39352c0.34722,0.53241 0.30093,9.09726 -0.0463,9.44449c-0.20833,0.20833 -3.21761,0.27778 -12.15283,0.27778h-11.87506v5.55558v5.55558h11.78246c10.41672,0 11.82876,0.0463 12.15283,0.37037c0.30093,0.30093 0.37037,1.06482 0.37037,4.81484c0,3.14816 -0.06944,4.51391 -0.27778,4.72224c-0.20833,0.20833 -3.84261,0.27778 -14.97692,0.27778h-14.72229l-1.15741,-0.55556c-0.625,-0.27778 -1.55093,-0.97223 -2.03705,-1.52778c-1.71297,-1.87501 -1.66667,-1.48149 -1.73612,-12.93988c-0.0463,-6.68985 0.02315,-10.69449 0.18519,-11.43524c0.43982,-2.10649 2.52316,-4.28243 4.58335,-4.76854c0.46297,-0.11574 7.338,-0.18519 15.27785,-0.18519zM324.9541,159.63356l-14.05099,0.02315c-7.75467,0.02315 -14.42136,0.11574 -14.81488,0.20833c-0.90278,0.20833 -2.17594,1.13426 -2.82409,2.03705c-0.90278,1.2963 -0.97223,2.26853 -0.90278,13.00932c0.06944,11.38894 0.02315,10.90283 1.62038,12.43061c1.55093,1.50464 1.01852,1.45834 16.73619,1.45834h14.23618v-3.9352v-3.9352h-12.15283h-12.15283v-6.71299v-6.71299h12.15283h12.15283v-3.9352z"/><path d="M368.00986,158.54559l15.16211,0.0463l0.97223,0.53241c1.45834,0.76389 2.45372,1.71297 3.07872,2.98613c0.55556,1.06482 0.57871,1.2963 0.64815,6.48151c0.06944,5.92595 0,6.41207 -1.45834,8.12504c-0.81019,0.97223 -2.80094,2.12964 -3.68057,2.12964c-0.41667,0 -0.60185,0.09259 -0.53241,0.30093c0.0463,0.16204 3.44909,4.88428 7.54633,10.50931c4.67595,6.45836 7.43059,10.43986 7.43059,10.78709c0,1.04167 -0.25463,1.08797 -5.55558,1.08797c-4.0278,0 -5.09262,-0.06944 -5.48614,-0.34722c-0.25463,-0.18519 -4.09724,-5.16206 -8.51856,-11.04172c-4.42132,-5.90281 -8.21763,-10.85653 -8.42597,-11.01857c-0.27778,-0.23148 -1.18056,-0.27778 -3.49539,-0.23148l-3.12501,0.06944l-0.11574,5.2778c-0.09259,4.35187 -0.18519,5.30095 -0.46297,5.48614c-0.53241,0.34722 -9.56023,0.30093 -9.90745,-0.0463c-0.39352,-0.39352 -0.39352,-19.42139 0,-19.81491c0.20833,-0.20833 3.3565,-0.27778 12.73154,-0.27778c12.29172,0 12.45376,0 12.45376,-0.46297c0,-0.46297 -0.16204,-0.46297 -12.45376,-0.46297c-9.37504,0 -12.52321,-0.06944 -12.73154,-0.27778c-0.30093,-0.30093 -0.39352,-8.88893 -0.09259,-9.3519c0.09259,-0.13889 0.32408,-0.32408 0.50926,-0.39352c0.18519,-0.06944 7.17596,-0.11574 15.50933,-0.09259zM367.5006,159.63356h-14.5371v3.9352v3.9352h12.73154h12.73154v1.62038v1.62038h-12.73154h-12.73154v9.02782v9.02782h4.16669h4.16669v-5.41669c0,-5.25465 0.02315,-5.41669 0.46297,-5.53243c0.27778,-0.06944 2.17594,-0.11574 4.23613,-0.09259l3.75002,0.0463l8.47226,11.2269l8.44911,11.2269l4.6991,0.06944c3.75002,0.0463 4.6528,0 4.51391,-0.23148c-0.11574,-0.16204 -3.77317,-5.20836 -8.12504,-11.2269c-4.37502,-6.01855 -7.93985,-10.94913 -7.93985,-10.99542c0,-0.0463 0.7176,-0.09259 1.62038,-0.11574c2.45372,-0.06944 4.14354,-1.18056 5.02317,-3.24076c0.37037,-0.90278 0.43982,-9.90745 0.06944,-11.20376c-0.39352,-1.36575 -1.92131,-2.91668 -3.3102,-3.33335c-0.99538,-0.30093 -3.37965,-0.34722 -15.71767,-0.34722z"/><path d="M396.25073,158.49929c3.54168,-0.02315 4.39817,0.0463 4.81484,0.34722c0.48611,0.34722 0.50926,0.46297 0.50926,4.72224c0,3.65742 -0.06944,4.42132 -0.37037,4.72224c-0.30093,0.32408 -1.08797,0.37037 -5.04632,0.37037c-3.33335,0 -4.74539,-0.06944 -4.95373,-0.27778c-0.20833,-0.20833 -0.27778,-1.59723 -0.27778,-4.86113c0,-4.56021 0,-4.6065 0.53241,-4.81484c0.27778,-0.11574 2.43057,-0.20833 4.79169,-0.20833zM400.41742,159.63356h-4.16669h-4.16669v3.9352v3.9352h4.16669h4.16669v-3.9352z"/><path d="M411.43599,158.56874c1.50464,0.0463 2.15279,0.18519 3.21761,0.7176c2.66205,1.2963 3.00927,1.73612 8.77319,11.2732l3.44909,5.71762l2.08334,-3.40279c1.15741,-1.87501 3.07872,-5.02317 4.25928,-6.99077c2.47686,-4.09724 3.72687,-5.50928 5.85651,-6.55096c1.3889,-0.69445 1.66667,-0.74074 3.81946,-0.74074c2.06019,0 2.45372,0.06944 3.63428,0.64815c1.48149,0.74074 2.61575,1.94445 2.96298,3.17131c0.13889,0.48611 0.23148,6.08799 0.23148,13.81951c0,11.50468 -0.0463,13.03247 -0.37037,13.35654c-0.30093,0.32408 -1.08797,0.37037 -5.04632,0.37037c-3.33335,0 -4.74539,-0.06944 -4.95373,-0.27778c-0.20833,-0.20833 -0.27778,-1.9676 -0.27778,-6.50466v-6.22688l-3.24076,4.86113c-3.79631,5.71762 -5.11576,7.26855 -6.64355,7.77781c-1.9676,0.6713 -4.44447,0.41667 -5.90281,-0.60185c-0.85649,-0.60185 -4.53706,-5.53243 -6.64355,-8.95838l-1.75927,-2.84724l-0.11574,6.15744c-0.09259,5.13891 -0.16204,6.20373 -0.46297,6.38892c-0.53241,0.34722 -9.56023,0.30093 -9.90745,-0.0463c-0.20833,-0.20833 -0.27778,-3.56483 -0.27778,-13.65747c0,-12.84728 0.02315,-13.42599 0.46297,-14.28247c0.7176,-1.41204 2.26853,-2.56946 4.09724,-3.03242c0.48611,-0.11574 1.71297,-0.18519 2.75464,-0.13889zM406.29707,161.30023c-1.01852,1.11112 -1.01852,0.99538 -1.01852,14.51396v12.98617h4.16669h4.16669l0.0463,-7.98615l0.06944,-8.0093l1.3889,2.38427c1.62038,2.80094 6.08799,9.53708 7.63892,11.50468c1.25001,1.57408 2.26853,2.10649 4.12039,2.10649c1.57408,-0.02315 2.87038,-0.625 3.95835,-1.87501c1.11112,-1.2963 6.85188,-9.95375 8.28708,-12.50006l1.08797,-1.94445l0.02315,8.14819v8.17133h4.16669h4.16669l-0.0463,-13.14821l-0.06944,-13.17136l-0.64815,-0.83334c-1.08797,-1.41204 -2.22223,-1.87501 -4.79169,-1.87501c-1.89816,-0.02315 -2.38427,0.06944 -3.47224,0.57871c-1.78242,0.83334 -2.91668,2.08334 -4.86113,5.34725c-0.94908,1.57408 -3.07872,5.09262 -4.74539,7.84726l-3.03242,5.02317l-4.62965,-7.68522c-2.52316,-4.21298 -5.06947,-8.14819 -5.62503,-8.75004c-0.55556,-0.60185 -1.57408,-1.3889 -2.26853,-1.71297c-2.61575,-1.2963 -6.50466,-0.85649 -8.07874,0.87963z"/><path d="M283.58817,169.61045c4.05094,-0.02315 4.35187,0 4.79169,0.43982c0.46297,0.46297 0.48611,0.69445 0.41667,9.9769c-0.06944,8.12504 -0.11574,9.51393 -0.41667,9.69912c-0.53241,0.34722 -9.56023,0.30093 -9.90745,-0.0463c-0.20833,-0.20833 -0.27778,-2.73149 -0.27778,-9.95375v-9.69912l0.53241,-0.20833c0.27778,-0.11574 2.45372,-0.20833 4.86113,-0.20833zM287.56967,170.86046l-4.09724,-0.06944l-4.12039,-0.0463v9.02782v9.02782h4.16669h4.16669l-0.0463,-8.98152z"/><path d="M401.18131,170.02712c0.34722,0.27778 0.39352,1.25001 0.39352,9.76856c0,8.26393 -0.0463,9.49079 -0.37037,9.79171c-0.30093,0.32408 -1.08797,0.37037 -5.04632,0.37037c-3.33335,0 -4.74539,-0.06944 -4.95373,-0.27778c-0.20833,-0.20833 -0.27778,-2.73149 -0.27778,-9.95375v-9.69912l0.53241,-0.20833c0.83334,-0.34722 9.28245,-0.18519 9.72227,0.20833zM400.41742,170.74472h-4.16669h-4.16669v9.02782v9.02782h4.16669h4.16669v-9.02782z"/></g></g></g></svg>