<svg version="1.1" xmlns="http://www.w3.org/2000/svg" xmlns:xlink="http://www.w3.org/1999/xlink" width="20.15271" height="16.79493" viewBox="0,0,20.15271,16.79493"><g transform="translate(-229.92364,-171.58613)"><g data-paper-data="{&quot;isPaintingLayer&quot;:true}" fill="#ffc010" fill-rule="nonzero" stroke="#ffc010" stroke-width="1" stroke-linecap="butt" stroke-linejoin="miter" stroke-miterlimit="10" stroke-dasharray="" stroke-dashoffset="0" style="mix-blend-mode: normal"><path d="M247.28985,172.16992c0.71897,0.21216 1.47328,0.83682 1.90937,1.56758l0.31823,0.55396v2.94657c0,2.59299 -0.02357,2.99372 -0.21216,3.32373c-0.35358,0.64825 -0.91933,1.21399 -1.54401,1.54401l-0.6011,0.31823l-5.62206,0.03536c-4.82059,0.03536 -5.63385,0.05894 -5.63385,0.21216c0,0.14144 0.93111,0.16501 6.64746,0.16501c5.89314,0 6.67104,0.02357 6.83605,0.18858c0.15322,0.15322 0.18858,0.54217 0.18858,2.45155c0,1.60294 -0.03536,2.29832 -0.14144,2.4044c-0.17679,0.17679 -18.55161,0.20036 -18.83448,0.02357c-0.15322,-0.09429 -0.17679,-0.67182 -0.17679,-3.97198c0,-3.79518 0,-3.87768 0.27108,-4.41985c0.31823,-0.64825 1.02541,-1.32006 1.7208,-1.63829c0.44788,-0.20036 0.8604,-0.22394 6.11708,-0.22394c5.53956,0 5.62206,0 5.62206,-0.23573c0,-0.23573 -0.08251,-0.23573 -6.68283,-0.23573c-4.01912,0 -6.76533,-0.04715 -6.8714,-0.11786c-0.15322,-0.09429 -0.17679,-0.49503 -0.17679,-2.41619c0,-2.15689 0.01179,-2.33369 0.22394,-2.4869c0.35358,-0.24751 15.78184,-0.24751 16.64224,0.01179zM239.12195,172.60602l-8.05003,-0.03536v2.01546v2.00367h6.83605h6.83605v0.82504v0.82504h-5.90493c-6.64746,0 -6.34102,-0.03536 -7.17785,0.90754c-0.67182,0.7779 -0.73075,1.16684 -0.63646,5.00917l0.08251,3.27659h8.94579h8.934v-2.00367v-2.00367h-6.89498h-6.90676l0.03536,-0.80147l0.03536,-0.78968l6.01101,-0.05894c6.58854,-0.05894 6.32923,-0.03536 7.03641,-0.78968c0.62468,-0.64825 0.6836,-0.97826 0.6836,-3.74804c0,-2.02725 -0.03536,-2.62834 -0.18858,-2.98193c-0.21216,-0.50681 -0.7779,-1.14327 -1.28471,-1.41435c-0.31823,-0.17679 -1.15506,-0.20036 -8.39184,-0.23573z"/></g></g></svg>