<svg version="1.1" xmlns="http://www.w3.org/2000/svg" xmlns:xlink="http://www.w3.org/1999/xlink" width="73.29541" height="13.17544" viewBox="0,0,73.29541,13.17544"><g transform="translate(-31.7117,-46.26628)"><g data-paper-data="{&quot;isPaintingLayer&quot;:true}" fill="#ffc010" fill-rule="nonzero" stroke="#ffc010" stroke-width="1" stroke-linecap="butt" stroke-linejoin="miter" stroke-miterlimit="10" stroke-dasharray="" stroke-dashoffset="0" style="mix-blend-mode: normal"><path d="M39.99969,46.76628c4.85402,0.01794 5.59872,0.03589 5.6705,0.15253c0.13459,0.20636 0.11664,3.52612 -0.01794,3.66071c-0.08075,0.08075 -1.24716,0.10767 -4.71047,0.10767h-4.6028v2.15335v2.15335h4.5669c4.03754,0 4.58485,0.01794 4.71047,0.14356c0.11664,0.11664 0.14356,0.41273 0.14356,1.86625c0,1.22023 -0.02692,1.7496 -0.10767,1.83035c-0.08075,0.08075 -1.48941,0.10767 -5.80509,0.10767h-5.70639l-0.44862,-0.21534c-0.2602,-0.11664 -0.61909,-0.39478 -0.83443,-0.63704c-0.63704,-0.72676 -0.64601,-0.80751 -0.64601,-5.19497c0,-2.30588 0.04486,-4.02857 0.0987,-4.26185c0.17945,-0.78059 0.99593,-1.61502 1.76755,-1.79446c0.17945,-0.04486 2.84422,-0.07178 5.92173,-0.07178zM45.3113,47.18798l-5.44619,0.00897c-3.00573,0.00897 -5.58975,0.04486 -5.74228,0.08075c-0.34992,0.08075 -0.8434,0.43965 -1.09463,0.78957c-0.34992,0.50245 -0.37684,0.87929 -0.34992,5.04245c0.02692,4.41438 0.00897,4.22596 0.62806,4.81814c0.60115,0.5832 0.39478,0.56526 6.48698,0.56526h5.51797v-1.5253v-1.5253h-4.71047h-4.71046v-2.60197v-2.60197h4.71046h4.71047v-1.5253z"/><path d="M54.59764,47.03545c6.05631,0.01794 5.70639,-0.01794 6.44212,0.71779c0.69984,0.69984 0.69087,0.5832 0.69087,5.20394c0,4.53999 0.01794,4.40541 -0.59217,5.15012c-0.17945,0.21534 -0.48451,0.47553 -0.69086,0.59217l-0.37684,0.19739h-5.60769c-6.28959,0 -5.84098,0.04486 -6.54082,-0.6819c-0.69984,-0.71779 -0.6819,-0.54731 -0.70882,-4.97067c-0.03589,-4.76429 -0.04486,-4.70149 0.73573,-5.48208c0.37684,-0.37684 0.65498,-0.57423 0.90621,-0.64601c0.24225,-0.06281 2.15335,-0.08972 5.74228,-0.08075zM49.00789,47.54687c-0.41273,0.0987 -0.91518,0.5204 -1.15743,0.98696c-0.20636,0.38581 -0.20636,0.38581 -0.20636,4.43233c0,3.75043 0.01794,4.07343 0.17047,4.40541c0.08972,0.19739 0.27814,0.46656 0.4217,0.60115c0.56526,0.52937 0.43965,0.5204 6.22679,0.5204c5.78714,0 5.66153,0.00897 6.21781,-0.5204c0.14356,-0.13459 0.33198,-0.39478 0.43067,-0.57423c0.1615,-0.31403 0.17047,-0.57423 0.17047,-4.39644c0,-3.7594 -0.01794,-4.09138 -0.17047,-4.43232c-0.19739,-0.43965 -0.69984,-0.87032 -1.16641,-1.01388c-0.39478,-0.11664 -10.44378,-0.12561 -10.93725,-0.00897z"/><path d="M50.78441,50.41801h3.67865h3.67865v2.55711v2.55711h-3.67865h-3.67865v-2.55711zM57.69309,50.86663h-3.23003h-3.23003v2.10849v2.10849h3.23003h3.23003v-2.10849z"/><path d="M65.2388,47.00853c1.0049,0 1.77651,0.03589 1.88418,0.08972c0.1615,0.08972 0.17047,0.25123 0.17047,5.85892c0,4.36952 -0.02692,5.79611 -0.10767,5.87686c-0.08075,0.08075 -0.61909,0.10767 -1.87522,0.10767c-1.4894,0 -1.79446,-0.01794 -1.9111,-0.14356c-0.12561,-0.12561 -0.14356,-0.77162 -0.14356,-5.82303c0,-5.05141 0.01794,-5.69742 0.14356,-5.82303c0.11664,-0.11664 0.41273,-0.14356 1.83932,-0.14356zM66.84485,47.45715h-1.57016h-1.57016v5.51797v5.51797h1.57016h1.57016v-5.51797z"/><path d="M70.92726,47.0175c1.15743,-0.01794 1.97391,0.59217 6.37034,4.73738l1.5253,1.43558l0.05383,-0.28712c0.02692,-0.1615 0.05383,-1.49838 0.07178,-2.97881c0.00897,-2.39561 0.02692,-2.70067 0.1615,-2.80833c0.10767,-0.07178 0.63704,-0.10767 1.87522,-0.10767c1.45352,0 1.7496,0.02692 1.86624,0.14356c0.12561,0.12561 0.14356,0.70882 0.14356,5.09627c0,3.56201 -0.02692,5.05141 -0.10767,5.26675c-0.28712,0.8434 -1.07668,1.35482 -2.18027,1.40866c-0.64601,0.03589 -0.78058,0.00897 -1.17537,-0.18842c-0.96901,-0.49348 -2.82628,-2.05467 -5.68845,-4.77328l-1.30099,-1.23818l-0.04486,3.02367c-0.03589,2.55711 -0.06281,3.03264 -0.17945,3.10442c-0.20636,0.13459 -3.61584,0.11664 -3.75043,-0.01794c-0.08075,-0.08075 -0.10767,-1.3638 -0.10767,-5.23086v-5.12319l0.2602,-0.40376c0.27814,-0.44862 0.70882,-0.75368 1.29202,-0.9421c0.20636,-0.06281 0.61909,-0.11664 0.91518,-0.11664zM69.94927,47.59173c-0.45759,0.1615 -0.93311,0.62806 -1.04079,1.03182c-0.05383,0.18842 -0.08972,2.2341 -0.08972,5.08731v4.78224h1.61502h1.61502v-3.41845v-3.41845l0.88826,0.8434c0.49348,0.45759 1.63297,1.53427 2.53916,2.39561c1.84829,1.7496 3.45434,3.10442 4.04652,3.40051c0.87032,0.43067 2.27896,0.15253 2.77244,-0.54731l0.20636,-0.28712v-4.97963v-4.97963l-1.54323,-0.02692l-1.55222,-0.01794l-0.01794,3.4364l-0.02692,3.44537l-2.60197,-2.46738c-2.96086,-2.79936 -4.19006,-3.86707 -4.83607,-4.19007c-0.5204,-0.2602 -1.39071,-0.29609 -1.97391,-0.08972z"/><path d="M98.79527,47.09825c0.1615,0.08972 0.17047,0.20636 0.17047,1.82138c0,1.22921 -0.02692,1.75857 -0.10767,1.83932c-0.08075,0.08075 -1.33688,0.10767 -5.11422,0.10767c-4.94374,0 -5.00655,0 -5.00655,0.17945c0,0.17945 0.06281,0.17945 4.21699,0.17945c4.1183,0 4.23494,0.00897 4.6028,0.18842c0.51142,0.2602 0.93311,0.67293 1.19332,1.17537c0.20636,0.41273 0.21534,0.48451 0.21534,2.44944c0,2.21616 -0.02692,2.35972 -0.54731,3.0147c-0.15253,0.19739 -0.46656,0.46656 -0.69086,0.60115l-0.4217,0.24225l-6.1909,0.02692c-5.76022,0.01794 -6.19987,0.00897 -6.29857,-0.13459c-0.08075,-0.10767 -0.11664,-0.61909 -0.11664,-1.78549c0,-1.37277 0.02692,-1.65988 0.14356,-1.77652c0.12561,-0.12561 0.70882,-0.14356 5.11422,-0.14356c4.28877,0 4.97067,-0.01794 4.97067,-0.13459c0,-0.10767 -0.60115,-0.12561 -4.19007,-0.15253c-3.81324,-0.02692 -4.23494,-0.04486 -4.55794,-0.18842c-0.50245,-0.22431 -1.01388,-0.7447 -1.26509,-1.27407c-0.20636,-0.43067 -0.21534,-0.53834 -0.21534,-2.38663c0,-1.22023 0.03589,-2.05467 0.0987,-2.24308c0.23328,-0.6819 0.96003,-1.40866 1.60604,-1.58811c0.43965,-0.12561 12.15749,-0.14356 12.39077,-0.01794zM98.51712,47.45715l-5.89481,0.00897c-3.24798,0 -6.02939,0.04486 -6.17295,0.08972c-0.4217,0.11664 -0.99593,0.66395 -1.16641,1.09462c-0.12561,0.323 -0.14356,0.70882 -0.11664,2.41355l0.02692,2.02774l0.26917,0.39478c0.15253,0.20636 0.43965,0.47553 0.62806,0.5832c0.35889,0.20636 0.36787,0.20636 4.8271,0.20636h4.45925v0.62806v0.62806h-5.11422h-5.11422v1.48044v1.48044h5.92173c6.46904,0 6.28959,0.01794 6.84588,-0.5204c0.14356,-0.13459 0.34095,-0.39478 0.43067,-0.5832c0.17047,-0.31403 0.17945,-0.50245 0.15253,-2.43149c-0.02692,-2.05467 -0.02692,-2.09055 -0.25123,-2.41355c-0.12561,-0.18842 -0.38581,-0.44862 -0.5832,-0.5832l-0.35889,-0.24225l-4.50411,-0.02692l-4.51308,-0.02692v-0.61909v-0.62806h5.11422h5.11422v-1.48044z"/><path d="M102.66234,49.19778c1.24716,0.00897 1.70473,0.03589 1.79446,0.12561c0.15253,0.15253 0.21534,3.1762 0.08075,3.54407l-0.0987,0.24225h-1.85728c-1.03182,0 -1.92007,-0.03589 -1.98288,-0.07178c-0.08075,-0.06281 -0.10767,-0.50245 -0.08972,-1.90213l0.02692,-1.83035l0.22431,-0.06281c0.12561,-0.02692 0.97799,-0.05383 1.90213,-0.04486zM104.07996,49.70022h-1.57016h-1.57016v1.48044v1.48044h1.57016h1.57016v-1.48044z"/><path d="M102.56364,54.9939c1.53426,0 1.77651,0.01794 1.88418,0.15253c0.08972,0.10767 0.13459,0.55629 0.15253,1.7496c0.02692,1.35481 0.00897,1.64193 -0.11664,1.83035l-0.13459,0.21534h-1.82138c-1.30099,0 -1.84829,-0.02692 -1.92904,-0.10767c-0.08075,-0.08075 -0.10767,-0.61909 -0.10767,-1.88418c0,-1.58811 0.01794,-1.77651 0.1615,-1.85728c0.08972,-0.05383 0.88826,-0.0987 1.9111,-0.0987zM104.07996,55.4425h-1.57016h-1.57016v1.5253v1.5253h1.57016h1.57016v-1.5253z"/></g></g></svg>