<svg version="1.1" xmlns="http://www.w3.org/2000/svg" xmlns:xlink="http://www.w3.org/1999/xlink" width="20.09379" height="17.26124" viewBox="0,0,20.09379,17.26124"><g transform="translate(-229.9531,-171.24754)"><g data-paper-data="{&quot;isPaintingLayer&quot;:true}" fill="#ffc010" fill-rule="nonzero" stroke="#ffc010" stroke-width="1" stroke-linecap="butt" stroke-linejoin="miter" stroke-miterlimit="10" stroke-dasharray="" stroke-dashoffset="0" style="mix-blend-mode: normal"><path d="M249.32294,172.09727c0.21216,0.11786 0.22394,0.27108 0.22394,2.45155c0,1.66186 -0.03536,2.36904 -0.14144,2.47512c-0.10608,0.10608 -1.79152,0.14144 -6.83605,0.14144c-6.61211,0 -6.69461,0 -6.69461,0.23573c0,0.23573 0.08251,0.23573 5.63385,0.23573c6.35281,0 6.12887,-0.02357 7.09535,0.94291c0.89576,0.89576 0.94291,1.08434 0.94291,4.302c0,2.73441 -0.01179,2.85228 -0.28287,3.42981c-0.33001,0.70718 -0.7779,1.16684 -1.42613,1.47328c-0.44788,0.21216 -0.88397,0.22394 -7.73181,0.22394h-7.24857l-0.61289,-0.30645c-0.6836,-0.3418 -1.24934,-0.93111 -1.56758,-1.62651c-0.20036,-0.44788 -0.22394,-0.89576 -0.22394,-6.05815c0,-4.51415 0.03536,-5.64563 0.16501,-5.96386c0.3418,-0.81325 1.42613,-1.76795 2.23939,-1.95652c0.58931,-0.14144 16.19435,-0.14144 16.46544,0zM248.95758,172.56871l-7.74359,0.01179c-4.26663,0.01179 -7.94396,0.04715 -8.17968,0.09429c-0.61289,0.11786 -1.2022,0.53038 -1.59115,1.09612l-0.3418,0.48324l-0.03536,5.63385c-0.02357,5.43348 -0.02357,5.65742 0.20036,6.1053c0.27108,0.5186 0.83682,1.0372 1.39078,1.27292c0.30645,0.11786 1.8033,0.15322 7.54322,0.15322c7.09535,0 7.16606,0 7.57859,-0.24751c0.49503,-0.30645 0.64825,-0.48324 0.94291,-1.10792c0.21216,-0.4243 0.23573,-0.75432 0.23573,-3.21765c0,-3.01729 -0.04715,-3.22944 -0.78968,-3.93662c-0.71897,-0.6836 -0.6836,-0.6836 -7.0482,-0.6836h-5.83421v-0.82504v-0.82504h6.83605h6.83605v-2.00367z"/><path d="M235.28548,181.76203h4.71452h4.71452v0.82504v0.82504h-4.71452h-4.71452v-0.82504zM240,182.4692c-3.58303,0 -4.1252,0.02357 -4.1252,0.17679c0,0.15322 0.54217,0.17679 4.1252,0.17679c3.58303,0 4.1252,-0.02357 4.1252,-0.17679c0,-0.15322 -0.54217,-0.17679 -4.1252,-0.17679z"/></g></g></svg>