<svg version="1.1" xmlns="http://www.w3.org/2000/svg" xmlns:xlink="http://www.w3.org/1999/xlink" width="493.99399" height="379.87988" viewBox="0,0,493.99399,379.87988"><g transform="translate(6.997,9.93994)"><g data-paper-data="{&quot;isPaintingLayer&quot;:true}" fill-rule="nonzero" stroke-linecap="butt" stroke-linejoin="miter" stroke-miterlimit="10" stroke-dasharray="" stroke-dashoffset="0" style="mix-blend-mode: normal"><path d="M-6.997,369.93994v-379.87988h493.99399v379.87988z" fill="#000000" stroke="none" stroke-width="0"/><g fill="none" stroke-width="2"><path d="M293.25001,265.56757h-22.5c-3.72825,0 -6.75,-3.02175 -6.75,-6.75v-22.5c0,-3.72825 3.02175,-6.75 6.75,-6.75h22.5c3.72825,0 6.75,3.02175 6.75,6.75v22.5c0,3.72825 -3.02175,6.75 -6.75,6.75z" stroke="#3a9dfc"/><g stroke="#3a9dfc"><path d="M277.60974,243.17731c0,-2.42467 1.96559,-4.39026 4.39026,-4.39026c2.42467,0 4.39026,1.96559 4.39026,4.39026c0,2.42467 -1.96559,4.39026 -4.39026,4.39026c-2.42467,0 -4.39026,-1.96559 -4.39026,-4.39026z"/><path d="M289.31638,253.0554v2.19513c0,0.60586 -0.49171,1.09757 -1.09757,1.09757h-12.43762c-0.60586,0 -1.09757,-0.49171 -1.09757,-1.09757v-2.19513c0,-2.21928 1.8044,-4.02368 4.02368,-4.02368h6.5854c2.21928,0 4.02368,1.8044 4.02368,4.02368z"/></g><g stroke="#ffd200"><path d="M251.25001,265.56757h-22.5c-3.72825,0 -6.75,-3.02175 -6.75,-6.75v-22.5c0,-3.72825 3.02175,-6.75 6.75,-6.75h22.5c3.72825,0 6.75,3.02175 6.75,6.75v22.5c0,3.72825 -3.02175,6.75 -6.75,6.75z"/><path d="M248.84025,245.9757l-4.02075,4.12087l0.95063,5.82525c0.03487,0.21263 -0.054,0.42637 -0.23063,0.55012c-0.09675,0.0675 -0.21037,0.10238 -0.324,0.10238c-0.09337,0 -0.18675,-0.02363 -0.27225,-0.07088l-4.94325,-2.7315l-4.94325,2.73263c-0.189,0.10462 -0.42075,0.09112 -0.59625,-0.03263c-0.1755,-0.12375 -0.2655,-0.3375 -0.23063,-0.55012l0.95063,-5.82525l-4.02075,-4.12087c-0.14738,-0.15075 -0.198,-0.37125 -0.13162,-0.5715c0.0675,-0.19913 0.24075,-0.34537 0.44887,-0.37687l5.53388,-0.846l2.4795,-5.283c0.18563,-0.39488 0.8325,-0.39488 1.01813,0l2.4795,5.283l5.53388,0.846c0.20812,0.0315 0.38137,0.17662 0.44887,0.37687c0.0675,0.19913 0.01688,0.42075 -0.1305,0.5715z"/></g><g stroke="#fc573b"><path d="M209.25001,265.56757h-22.5c-3.72825,0 -6.75,-3.02175 -6.75,-6.75v-22.5c0,-3.72825 3.02175,-6.75 6.75,-6.75h22.5c3.72825,0 6.75,3.02175 6.75,6.75v22.5c0,3.72825 -3.02175,6.75 -6.75,6.75z"/><path d="M205.59601,248.54632l-7.1955,7.29113c-0.10575,0.108 -0.24975,0.16762 -0.4005,0.16762c-0.15075,0 -0.29475,-0.05962 -0.4005,-0.16762l-7.1955,-7.29113c-1.8675,-1.89112 -1.8675,-4.97137 0,-6.86475c0.90787,-0.92025 2.115,-1.4265 3.39863,-1.4265c1.28475,0 2.49075,0.50625 3.39862,1.4265l0.79875,0.80888l0.79875,-0.81c0.90787,-0.91913 2.115,-1.42538 3.39862,-1.42538c1.28363,0 2.49075,0.50625 3.39863,1.4265c1.8675,1.89337 1.8675,4.9725 0,6.86475z"/></g></g><g fill="#ffc010" stroke="#ffc010" stroke-width="1"><path d="M110.03337,302.00979l6.30088,0.03151l0.59859,0.3623c0.31504,0.20478 0.77186,0.67735 0.99239,1.0554c0.3623,0.61433 0.3938,0.85062 0.40955,2.59911c0,1.48071 -0.04725,1.95327 -0.20477,2.06354c-0.34655,0.22053 -4.14283,0.17327 -4.36336,-0.04725c-0.11026,-0.11027 -0.18903,-0.45682 -0.18903,-0.78761v-0.59859h-3.85929h-3.85929v2.52035v2.52035h3.84354h3.85929l0.04726,-0.7561l0.04725,-0.74036l2.18956,-0.04726c1.29168,-0.01575 2.25256,0.01575 2.34708,0.11027c0.26779,0.26779 0.17327,3.84354 -0.11026,4.37912c-0.34655,0.67734 -1.26018,1.43345 -1.85876,1.54372c-0.28354,0.04725 -3.40248,0.07876 -6.93097,0.04725c-7.19876,-0.04726 -6.67893,0.03151 -7.75008,-1.29168l-0.48832,-0.59859l-0.04726,-4.77291c-0.03151,-3.08743 0.01575,-5.00921 0.12601,-5.41876c0.28354,-1.0554 1.0554,-1.81151 2.12655,-2.07929c0.26779,-0.06301 3.30796,-0.11027 6.77345,-0.09452zM109.71832,302.59262c-7.1515,0 -7.16725,0.01575 -7.79734,1.02389c-0.29929,0.48832 -0.31504,0.77186 -0.31504,5.52903c0,4.70991 0.01575,5.05646 0.31504,5.52902c0.6616,1.0869 0.47257,1.07115 7.56106,1.1184l6.37964,0.04726l0.6931,-0.3623c1.0554,-0.56708 1.27593,-1.1184 1.27593,-3.15044v-1.70124h-1.89026h-1.89026v0.78761v0.78761h-4.33186h-4.33185v-3.07168v-3.07168h4.33185h4.33186v0.78761v0.78761h1.89026h1.89026v-1.70124c0,-1.90601 -0.20478,-2.45734 -1.13416,-3.02442c-0.50407,-0.29929 -0.80336,-0.31504 -6.97823,-0.31504z"/><path d="M122.72964,301.96253c1.03965,0 2.03204,0.07877 2.20531,0.15753c0.28354,0.15752 0.29929,0.37805 0.29929,4.88318v4.72566l5.403,0.03151l5.38726,0.04725v2.20531v2.20531l-6.53716,0.04725c-4.2531,0.03151 -6.74194,-0.01575 -7.10424,-0.12601c-0.7246,-0.20478 -1.63823,-1.19717 -1.85876,-2.00053c-0.11026,-0.3623 -0.17327,-2.72513 -0.17327,-6.14336c0,-4.82018 0.03151,-5.57628 0.25204,-5.78106c0.18902,-0.20478 0.63008,-0.25204 2.12654,-0.25204zM124.76168,302.59262h-1.89026h-1.89026v5.74956c0,6.34814 0.00001,6.33238 0.97664,7.04123l0.51982,0.3623l6.58442,0.04725l6.56867,0.04726v-1.82726v-1.8115h-5.43451h-5.43451v-4.80442z"/><path d="M142.4514,302.15156c0.25203,0.18902 0.26779,0.75611 0.23628,7.13575l-0.04726,6.93097l-2.18956,0.04725c-1.46495,0.03151 -2.25256,-0.01575 -2.39433,-0.14177c-0.18903,-0.14177 -0.22053,-1.37044 -0.22053,-6.93097c0,-5.90707 0.0315,-6.7577 0.25203,-6.97822c0.31504,-0.3308 3.93805,-0.3623 4.36336,-0.06301zM142.24662,302.59262h-1.89026h-1.89026v6.61593v6.63168l1.85876,-0.04726l1.84301,-0.04725l0.04726,-6.58443z"/><path d="M153.03688,302.00979c6.83646,0.03151 6.75769,0.03151 7.59256,0.92938c0.64584,0.69309 0.83487,1.4177 0.83487,3.24495c0,1.1184 -0.06301,1.76425 -0.18903,1.89027c-0.26779,0.26779 -4.23735,0.26779 -4.50513,0c-0.11027,-0.11027 -0.18903,-0.45682 -0.18903,-0.78761v-0.59859h-3.85929h-3.85929v2.52035v2.52035h3.84354h3.85929l0.04726,-0.7561l0.04725,-0.74036l2.26832,-0.04726c1.71699,-0.0315 2.29982,0.01576 2.41008,0.15753c0.06301,0.11026 0.12602,0.94513 0.12602,1.85876c0,1.27593 -0.07876,1.79575 -0.29929,2.28407c-0.34655,0.74036 -1.00814,1.40195 -1.63823,1.63823c-0.61433,0.23628 -12.99556,0.23628 -13.6099,0c-0.23629,-0.07876 -0.64584,-0.34654 -0.88213,-0.58283c-0.89787,-0.85062 -0.89787,-0.85062 -0.89787,-6.33238c0,-4.37911 0.03151,-5.15097 0.25204,-5.62354c0.31504,-0.64584 1.13416,-1.29168 1.84301,-1.48071c0.26779,-0.06301 3.33947,-0.11027 6.80496,-0.09452zM159.5898,302.67138l-6.66318,-0.03151c-3.67027,-0.01575 -6.77345,0.01576 -6.89947,0.06301c-0.12602,0.04726 -0.40956,0.23629 -0.59858,0.42531c-0.80336,0.70885 -0.81912,0.83486 -0.81912,6.11185c0,4.6784 0.01576,4.96194 0.31504,5.45026c0.20478,0.31504 0.59859,0.64584 1.02389,0.83486c0.67735,0.29929 1.02389,0.31505 7.04123,0.26779l6.34814,-0.04725l0.51983,-0.3623c0.81912,-0.59859 0.97663,-1.0554 0.97663,-3.02442v-1.74849l-1.84301,0.04726l-1.85876,0.04726l-0.04726,0.74035l-0.04726,0.75611h-4.33186h-4.3161v-3.07168v-3.07168h4.33186h4.33186v0.78761v0.78761h1.89026h1.89026v-1.8115v-1.82726l-0.61434,-0.6616z"/><path d="M168.03298,302.08855c0.14177,0.09452 0.23628,0.88212 0.31504,2.52035l0.09452,2.39434h1.35469h1.35468l1.60673,-1.85876c0.88212,-1.00814 1.87451,-2.14229 2.22106,-2.52035l0.61434,-0.66159h2.39434c2.34708,0 3.00867,0.11026 3.00867,0.53557c0,0.11026 -1.24442,1.63823 -2.75663,3.38673c-1.51221,1.74849 -2.75664,3.24495 -2.75664,3.30796c0,0.06301 1.13416,1.4177 2.5361,3.00867c3.04018,3.49699 3.08743,3.54424 2.81965,3.85929c-0.15752,0.18903 -0.67734,0.23629 -2.77238,0.23629h-2.56761l-2.22106,-2.52035l-2.22106,-2.52035h-1.33894c-1.14991,0 -1.32318,0.03151 -1.33893,0.26779c-0.01575,0.15752 -0.06301,1.27593 -0.12602,2.48885l-0.09451,2.20531h-2.28407h-2.28407l-0.04725,-6.93097c-0.03151,-6.37964 -0.01576,-6.94673 0.23628,-7.13575c0.29929,-0.22053 3.9223,-0.26779 4.2531,-0.06301zM167.76519,302.59262h-1.89026h-1.89026l0.0315,6.56867l0.04726,6.58443l1.85876,0.04725l1.84301,0.04726v-2.53611v-2.5361l1.843,0.04726l1.84301,0.04726l2.04779,2.39433c1.13416,1.32319 2.20531,2.42584 2.37858,2.4731c0.17327,0.04726 1.22867,0.0315 2.34708,-0.03151l2.01628,-0.11026l-2.77239,-3.19769l-2.78814,-3.1977l0.6931,-0.81912c0.3938,-0.45682 1.66974,-1.93752 2.85115,-3.30796l2.15805,-2.4731h-2.34708h-2.34708l-2.18955,2.52035l-2.17381,2.52035h-1.78h-1.77999v-2.52035z"/><path d="M209.20924,302.12006c0.26779,0.15752 0.29929,0.34654 0.29929,2.2053c0,1.85876 -0.0315,2.04779 -0.29929,2.20531c-0.18903,0.09452 -1.44921,0.15752 -2.99292,0.15752h-2.69362l-0.03151,4.75716l-0.04725,4.77292l-2.20531,0.04725c-1.93752,0.03151 -2.22106,0 -2.39433,-0.23628c-0.15752,-0.18903 -0.20478,-1.40195 -0.20478,-4.80443v-4.53663h-2.74088c-2.28407,0 -2.78814,-0.04726 -2.99291,-0.25203c-0.20478,-0.18903 -0.25204,-0.61433 -0.25204,-2.07929c0,-1.87451 0.06301,-2.12655 0.47256,-2.28407c0.44106,-0.15752 15.75221,-0.12601 16.083,0.04726zM208.9572,302.59262h-7.82885h-7.8446v1.73274v1.73275h2.99292h2.99292v4.88318v4.89893l1.85876,-0.04726l1.84301,-0.04725l0.04726,-4.85168l0.0315,-4.83592h2.91416c1.60672,0 2.91415,-0.04726 2.91415,-0.12602c0.01575,-0.06301 0.03151,-0.83486 0.04726,-1.73274z"/><path d="M226.74144,302.13581c0.83487,0.23628 1.40195,0.67734 1.81151,1.40194c0.3308,0.59859 0.34654,0.7246 0.29929,5.81257l-0.04726,5.18248l-0.47256,0.59858c-0.97663,1.19716 -0.77186,1.16566 -8.11239,1.16566c-7.34053,0 -7.13575,0.0315 -8.11239,-1.16566l-0.47256,-0.59858l-0.04726,-5.21398l-0.04725,-5.22973l0.40955,-0.63009c0.50407,-0.7561 1.05539,-1.18142 1.71699,-1.35469c0.80336,-0.18903 12.38124,-0.15752 13.07433,0.03151zM220.23578,302.59262c-6.25362,0 -6.56867,0.01575 -7.07274,0.31504c-0.28354,0.17327 -0.64584,0.53557 -0.81912,0.81911c-0.29929,0.48832 -0.31504,0.80336 -0.31504,5.38725c0,4.69416 0.01575,4.88319 0.34654,5.46602c0.22053,0.3938 0.58283,0.7246 1.00814,0.94513c0.64584,0.29929 0.88212,0.31505 7.05699,0.26779c6.17487,-0.04725 6.37964,-0.06301 6.8207,-0.37805c0.23629,-0.17327 0.59858,-0.56707 0.80336,-0.85062c0.34655,-0.50407 0.34655,-0.59859 0.34655,-5.34c0,-5.38726 -0.03151,-5.57628 -1.08691,-6.26938c-0.53557,-0.3623 -0.53558,-0.3623 -7.08849,-0.3623z"/><path d="M215.80941,306.05811h4.41062h4.41062v3.07168v3.07168h-4.41062h-4.41062v-3.07168zM224.00055,306.68819h-3.85929h-3.87504l0.04725,2.4731l0.04726,2.48885l3.82778,0.04725l3.81203,0.03151v-2.52035z"/><path d="M250.22797,302.00979l6.30088,0.03151l0.59858,0.37805c0.33079,0.20478 0.7876,0.64584 1.02389,0.99239c0.3623,0.56708 0.40956,0.80336 0.47257,2.4731c0.09452,2.44159 0.15753,2.37858 -2.47309,2.37858c-1.33893,0 -2.06354,-0.063 -2.18956,-0.18902c-0.11027,-0.11027 -0.18903,-0.45682 -0.18903,-0.78761v-0.59859h-3.85929h-3.85929v2.52035v2.52035h3.84354h3.85929l0.04726,-0.7561l0.04725,-0.74036l2.29983,-0.04726c2.28407,-0.0315 2.31557,-0.0315 2.41008,0.31505c0.15752,0.58283 0.11027,2.99292 -0.07876,3.63876c-0.20478,0.74036 -0.99239,1.66974 -1.66974,1.93752c-0.74036,0.31505 -13.05857,0.31505 -13.79893,0c-0.67735,-0.26779 -1.46496,-1.19716 -1.66974,-1.93752c-0.20478,-0.74035 -0.22053,-9.01027 -0.01575,-9.87663c0.23628,-1.0554 1.0554,-1.90601 2.06354,-2.14229c0.29929,-0.07876 3.37097,-0.12602 6.83646,-0.11027zM249.91293,302.60837c-3.54424,0 -6.60017,0.06301 -6.7892,0.14177c-0.17327,0.06301 -0.53557,0.37806 -0.81912,0.6931l-0.50407,0.58283v5.04071c0,5.56053 0.01576,5.62353 0.97664,6.31663l0.51982,0.3623l6.34814,0.04725c6.01734,0.04726 6.36389,0.0315 7.04124,-0.26779c1.1184,-0.48832 1.33893,-1.00814 1.33893,-3.13468v-1.76425h-1.89026h-1.89026v0.78761v0.78761h-4.33186h-4.33186v-3.07168v-3.07168h4.33186h4.33186v0.78761v0.78761h1.89026h1.89026v-1.70124c0,-1.90601 -0.20478,-2.45734 -1.13416,-3.02442c-0.50407,-0.29929 -0.80336,-0.31504 -6.97823,-0.2993z"/><path d="M269.60318,302.00979c6.30088,0.03151 6.30088,0.0315 6.94672,0.3938c0.34655,0.20478 0.83487,0.67735 1.07115,1.02389l0.42531,0.6616l-0.04725,5.22973l-0.04726,5.21398l-0.47256,0.59858c-0.99239,1.21292 -0.74036,1.18141 -8.30141,1.13416l-6.71044,-0.04725l-0.61434,-0.48832c-1.14991,-0.91363 -1.14991,-0.94513 -1.14991,-6.60017c0,-4.94619 0.01575,-5.05646 0.3623,-5.62354c0.42531,-0.70885 1.0869,-1.22867 1.73274,-1.40195c0.28354,-0.06301 3.33947,-0.11027 6.80495,-0.09452zM269.35115,302.59262c-6.22212,0 -6.53716,0.01575 -7.04124,0.31504c-0.28354,0.17327 -0.64584,0.53557 -0.81912,0.81911c-0.29929,0.48832 -0.31504,0.80336 -0.31504,5.40301c0,5.59203 0.01576,5.67079 1.27593,6.34814l0.69309,0.3623l6.41115,-0.04726c6.19061,-0.04725 6.4269,-0.06301 6.83646,-0.37805c0.23628,-0.17327 0.58283,-0.51982 0.7561,-0.7561c0.31505,-0.40956 0.3308,-0.66159 0.37805,-5.29274c0.04726,-4.61539 0.03151,-4.89893 -0.26779,-5.49752c-0.17327,-0.33079 -0.56708,-0.7561 -0.85062,-0.94513c-0.51983,-0.31504 -0.70884,-0.3308 -7.05699,-0.3308z"/><path d="M264.95628,306.05811h4.41062h4.41062v3.07168v3.07168h-4.41062h-4.41062v-3.07168zM273.14743,306.68819h-3.85929h-3.87504l0.04725,2.4731l0.04726,2.48885l3.82778,0.04725l3.81204,0.03151v-2.52035z"/><path d="M289.7345,306.7512l2.94566,2.78814v-3.623c0,-3.41823 0.01576,-3.63876 0.2993,-3.79628c0.17327,-0.07876 1.13415,-0.15753 2.14229,-0.15753c1.00814,0 1.96902,0.07877 2.1423,0.15753c0.28354,0.15752 0.2993,0.3938 0.2993,6.28512c0,6.08035 0,6.11185 -0.3623,6.64743c-0.70885,1.0869 -2.61487,1.57522 -3.78053,0.99239c-1.18142,-0.61434 -3.02443,-2.15805 -6.64743,-5.56053l-1.73274,-1.63823l-0.07876,3.68601l-0.07876,3.68602l-2.23681,0.04725c-2.11079,0.03151 -2.25257,0.01575 -2.41009,-0.28354c-0.11027,-0.22053 -0.15752,-2.18955 -0.12601,-6.28513c0.04725,-5.74955 0.063,-6.00159 0.37805,-6.41114c0.47257,-0.64584 1.07115,-1.03964 1.7485,-1.16566c1.92177,-0.37806 2.64637,0.07876 7.49805,4.63114zM283.08707,302.59262c-0.94513,0 -1.65398,0.28353 -2.09504,0.80336c-0.26779,0.29929 -0.28354,0.85062 -0.28354,6.37965v6.06459l1.85876,-0.04726l1.84301,-0.04725l0.07876,-4.03257l0.07876,-4.04832l2.99292,2.8354c3.35522,3.18194 4.91469,4.50513 5.89132,5.0092c0.91363,0.48832 2.15805,0.3308 2.94566,-0.34655l0.53558,-0.47256v-6.04885v-6.04884h-1.81151h-1.8115v4.11133v4.11132l-1.00814,-0.91363c-0.56708,-0.51982 -2.23681,-2.07929 -3.74902,-3.49699c-1.49646,-1.4177 -3.13468,-2.85114 -3.65451,-3.19769c-0.80336,-0.53557 -1.03964,-0.61434 -1.81151,-0.61434z"/><path d="M315.96191,302.05705c0.3308,0.09452 0.34655,0.15752 0.34655,2.26831c0,1.82726 -0.03151,2.18956 -0.25203,2.26832c-0.14177,0.04726 -1.48071,0.09451 -2.99292,0.09451h-2.74088l-0.03151,4.75716l-0.04726,4.77292h-2.28407h-2.28407l-0.04726,-4.77292l-0.03151,-4.75716h-2.74088c-1.51221,0 -2.85115,-0.04725 -2.99292,-0.09451c-0.22053,-0.07876 -0.25203,-0.42531 -0.25203,-2.20531c0,-1.82725 0.03151,-2.11079 0.28354,-2.25256c0.28354,-0.17327 15.4214,-0.23628 16.06724,-0.07876zM315.8359,302.59262h-7.8761h-7.8761v1.73274v1.73275h2.99292h2.99292l0.0315,4.83592l0.04726,4.85168l1.85876,0.04725l1.84301,0.04726v-4.89893v-4.88318h2.99292h2.99292v-1.73275z"/><path d="M320.56156,301.96253c1.0869,0 2.06354,0.06301 2.17381,0.12602c0.15752,0.11027 0.18902,1.63823 0.15752,7.13575l-0.04725,6.99398h-2.28407h-2.28407l-0.04725,-6.99398c-0.03151,-5.49752 0,-7.02548 0.15752,-7.13575c0.11027,-0.06301 1.08691,-0.12602 2.17381,-0.12602zM322.45182,302.59262h-1.89026h-1.89026v6.61593v6.61593h1.89026h1.89026v-6.61593z"/><path d="M328.97323,302.49811c0.77186,0.44106 2.45735,1.92177 5.52903,4.78867l2.2053,2.06354l0.09452,-1.37044c0.06301,-0.75611 0.11027,-2.37858 0.12602,-3.5915c0.01575,-2.1738 0.0315,-2.23681 0.37805,-2.33132c0.45682,-0.12602 3.54425,-0.12602 4.01681,0l0.34654,0.09451v6.28513v6.28513l-0.56708,0.63009c-0.61433,0.67735 -1.29168,0.94513 -2.44159,0.94513c-1.19717,0 -2.72513,-1.13416 -7.26177,-5.40301c-1.87451,-1.74849 -2.1738,-1.98478 -2.18955,-1.66973c-0.01575,0.20478 -0.07876,1.85876 -0.12602,3.68601l-0.09451,3.30797h-2.28407h-2.28407l-0.04725,-6.22212c-0.03151,-5.93858 -0.01576,-6.23787 0.28353,-6.72619c0.31505,-0.51982 0.99239,-0.94513 1.81151,-1.16566c0.7246,-0.18903 1.79575,-0.01575 2.5046,0.3938zM327.25624,302.59262c-0.64584,0 -1.10265,0.09451 -1.43345,0.29929c-1.03964,0.63009 -1.00814,0.42531 -1.00814,6.97823v5.95433h1.89026h1.89026v-4.20584v-4.19008l2.33132,2.26831c3.82778,3.74903 5.84407,5.46602 6.89946,5.90708c0.67735,0.28354 1.66974,0.22053 2.42584,-0.17327c0.92938,-0.48832 0.94513,-0.59859 0.94513,-7.00973v-5.82832h-1.89026h-1.89026v4.11133v4.11132l-2.36283,-2.25257c-3.27646,-3.13469 -5.13522,-4.80442 -6.0646,-5.43451c-0.67734,-0.45682 -0.91363,-0.53558 -1.73275,-0.53558z"/><path d="M348.30119,302.12006c0.28354,0.15752 0.29929,0.37805 0.29929,4.88318v4.72566h3.85929h3.85929v-4.72566c0,-4.61539 0,-4.72566 0.3308,-4.88318c0.51982,-0.28354 4.20584,-0.14177 4.39486,0.15752c0.22053,0.33079 0.20478,11.10531 -0.01575,11.86141c-0.20478,0.74036 -0.99239,1.66974 -1.66973,1.93752c-0.64584,0.28354 -12.99557,0.31504 -13.70442,0.04726c-0.55133,-0.20478 -1.24442,-0.85062 -1.59097,-1.48071c-0.23629,-0.40956 -0.26779,-1.19717 -0.31505,-5.98584c-0.0315,-3.04017 -0.01575,-5.7338 0.04726,-6.01734c0.04725,-0.28354 0.20478,-0.53557 0.3623,-0.56708c0.55133,-0.14177 3.84354,-0.11026 4.14283,0.04726zM348.12791,302.59262h-1.89026h-1.89026v5.74956c0,6.34814 0,6.33238 0.97663,7.04123l0.51982,0.3623l6.34813,0.04725c6.01734,0.04726 6.36389,0.0315 7.04124,-0.26779c0.42531,-0.18902 0.81912,-0.51982 1.0239,-0.83486c0.29929,-0.50407 0.31504,-0.77186 0.31504,-6.31664v-5.78105h-1.89026h-1.89026v4.80442v4.80442h-4.33186h-4.33185v-4.80442z"/><path d="M378.65568,302.05705c0.3308,0.09452 0.34654,0.15752 0.34654,2.26831c0,1.82726 -0.0315,2.18956 -0.25203,2.26832c-0.14177,0.04726 -2.61487,0.09451 -5.51327,0.09451c-3.40247,0 -5.26123,0.06301 -5.26123,0.15752c0,0.09452 1.89026,0.15752 5.34,0.15752c4.36336,0 5.3715,0.04726 5.51327,0.22053c0.12602,0.14177 0.17327,0.85062 0.14177,2.07929l-0.04726,1.87451l-5.41875,0.07876c-4.11133,0.06301 -5.43452,0.12602 -5.48177,0.26779c-0.06301,0.15752 1.13416,0.20478 5.41876,0.23628l5.48176,0.04725v2.20531v2.20531l-6.53716,0.04725c-3.5915,0.01575 -6.77345,0 -7.05699,-0.04725c-0.58283,-0.11027 -1.51221,-0.86637 -1.85876,-1.51221c-0.17327,-0.3623 -0.22053,-1.3862 -0.22053,-5.49752c0,-4.37911 0.03151,-5.15097 0.25204,-5.62354c0.31504,-0.64584 1.13415,-1.30743 1.843,-1.46495c0.59859,-0.14177 12.79079,-0.18903 13.31061,-0.06301zM378.52966,302.59262l-6.56867,0.01575c-3.62301,0 -6.69468,0.04726 -6.8207,0.09452c-0.12602,0.04726 -0.40956,0.23629 -0.59858,0.42531c-0.80336,0.70885 -0.81912,0.85062 -0.81912,6.08035c0,5.40301 0.01575,5.48176 0.97663,6.17486l0.51983,0.3623h6.61592h6.61592l0.04726,-1.78l0.04726,-1.76425h-5.52902h-5.51327v-0.70884v-0.70885h5.51327h5.51327v-1.57522v-1.57522h-5.51327h-5.51327v-0.78761v-0.78761h5.51327h5.51327v-1.73275z"/></g></g></g></svg>