<svg version="1.1" xmlns="http://www.w3.org/2000/svg" xmlns:xlink="http://www.w3.org/1999/xlink" width="129.07355" height="18.67544" viewBox="0,0,129.07355,18.67544"><g transform="translate(-175.46323,-170.66228)"><g data-paper-data="{&quot;isPaintingLayer&quot;:true}" fill="#000000" fill-rule="nonzero" stroke="none" stroke-width="1" stroke-linecap="butt" stroke-linejoin="miter" stroke-miterlimit="10" stroke-dasharray="" stroke-dashoffset="0" style="mix-blend-mode: normal"><g><path d="M185.98336,170.68987c4.47388,-0.01003 6.82116,0.02006 6.95157,0.09028c0.18056,0.10031 0.19059,0.23072 0.19059,2.08647c0,1.41439 -0.03009,2.01626 -0.12037,2.10654c-0.09028,0.09028 -1.52473,0.12037 -5.81805,0.12037c-5.62746,0 -5.69768,0 -5.69768,0.20062c0,0.20062 0.07022,0.20062 4.79488,0.20062c4.41369,0 4.81494,0.02006 5.18609,0.19059c0.5818,0.26081 1.02317,0.67209 1.3542,1.25389l0.30093,0.51159v2.40747c0,2.1266 -0.03009,2.45762 -0.19059,2.81874c-0.27084,0.59184 -0.75233,1.09339 -1.33414,1.38429l-0.52162,0.26081h-7.68384c-5.83811,0 -7.71393,-0.03009 -7.80421,-0.12037c-0.17053,-0.17053 -0.17053,-4.00242 0,-4.17295c0.09028,-0.09028 1.6752,-0.12037 6.52023,-0.12037c5.51712,0 6.39985,-0.02006 6.39985,-0.14044c0,-0.1304 -0.69215,-0.15047 -4.78484,-0.18056c-5.34659,-0.03009 -5.13593,-0.01003 -5.94845,-0.75233c-0.24075,-0.21065 -0.54168,-0.6119 -0.66205,-0.88274c-0.23072,-0.48149 -0.24075,-0.60187 -0.24075,-2.80871c0,-2.20685 0.01003,-2.32722 0.24075,-2.80871c0.2909,-0.63196 1.04324,-1.31408 1.65513,-1.49464c0.38118,-0.12037 1.69526,-0.15047 7.21238,-0.15047zM192.62396,171.18139l-6.59045,0.01003c-3.63127,0.01003 -6.77101,0.05016 -6.97163,0.08025c-0.49152,0.10031 -1.02317,0.47146 -1.36423,0.96299l-0.27084,0.40124v2.51781v2.51781l0.28087,0.36112c0.15047,0.20062 0.44137,0.49152 0.64199,0.64199l0.36112,0.28087l5.17606,0.05016l5.17606,0.05016l0.03009,0.67209l0.03009,0.68212h-6.58041h-6.57038v1.70529v1.70529h7.50328c7.06191,0 7.51331,-0.01003 7.90452,-0.19059c0.49152,-0.22068 1.12349,-0.93289 1.1937,-1.3542c0.04012,-0.17053 0.05016,-1.3542 0.03009,-2.62815l-0.03009,-2.31719l-0.28087,-0.36112c-0.15047,-0.20062 -0.44137,-0.49152 -0.64199,-0.64199l-0.36112,-0.28087l-5.156,-0.03009l-5.14596,-0.03009v-0.69215v-0.70218h5.81805h5.81805v-1.70529z"/><path d="M197.11791,170.67984c1.79557,0 1.93601,0.01003 2.1266,0.20062c0.19059,0.19059 0.20062,0.33103 0.20062,2.40747v2.20685h3.50086h3.51089l0.03009,-2.29713c0.02006,-1.26392 0.07022,-2.33725 0.11034,-2.38741c0.05016,-0.04012 1.00311,-0.09028 2.1266,-0.11034c1.76548,-0.03009 2.05638,-0.01003 2.19682,0.1304c0.14044,0.15047 0.1605,0.80249 0.1605,6.71082c0,4.95537 -0.03009,6.57038 -0.12037,6.66066c-0.09028,0.09028 -0.70218,0.12037 -2.14666,0.12037c-1.71532,0 -2.05638,-0.02006 -2.18678,-0.1605c-0.14044,-0.1304 -0.1605,-0.49152 -0.1605,-2.35731v-2.19682h-3.51089h-3.51089v2.19682c0,1.86579 -0.02006,2.22691 -0.1605,2.35731c-0.1304,0.14044 -0.47146,0.1605 -2.18678,0.1605c-1.44448,0 -2.05638,-0.03009 -2.14666,-0.12037c-0.09028,-0.09028 -0.12037,-1.71532 -0.12037,-6.72085c0,-6.16914 0.01003,-6.60048 0.18056,-6.69076c0.10031,-0.06019 0.97302,-0.11034 2.10654,-0.11034zM198.89341,171.23155l-1.77551,-0.03009l-1.78554,-0.02006v6.31961v6.31961h1.8056h1.8056v-2.40747v-2.40747h4.01245h4.01245v2.40747v2.40747h1.8056h1.8056v-6.31961v-6.31961l-1.77551,0.02006l-1.78554,0.03009l-0.03009,2.37738l-0.02006,2.38741h-4.01245h-4.01245l-0.02006,-2.38741z"/><path d="M221.1625,170.70993c6.04877,0.02006 6.11898,0.02006 6.52023,0.24075c0.54168,0.2909 1.10342,0.87271 1.37426,1.42442c0.23072,0.46143 0.23072,0.48149 0.23072,5.17606v4.71463l-0.27084,0.51159c-0.33103,0.62193 -0.91283,1.16361 -1.49464,1.38429c-0.40124,0.15047 -1.04324,0.1605 -6.66066,0.14044c-5.91836,-0.03009 -6.23936,-0.04012 -6.61051,-0.22068c-0.54168,-0.27084 -1.04324,-0.80249 -1.32411,-1.40436l-0.24075,-0.51159v-4.6745v-4.66447l0.26081,-0.52162c0.321,-0.64199 1.03321,-1.28398 1.63507,-1.47457c0.38118,-0.12037 1.50467,-0.14044 6.58041,-0.12037zM215.04352,171.23155c-0.05016,0.02006 -0.23072,0.06019 -0.38118,0.09028c-0.1605,0.04012 -0.48149,0.25078 -0.72224,0.47146c-0.7724,0.71221 -0.76237,0.62193 -0.73227,5.91836l0.03009,4.6745l0.30093,0.43134c0.1605,0.23072 0.48149,0.54168 0.70218,0.69215l0.40124,0.26081l6.16914,0.03009c5.43687,0.02006 6.21929,0.01003 6.59045,-0.1304c0.44137,-0.17053 1.07333,-0.79246 1.23383,-1.21377c0.06019,-0.14044 0.10031,-2.26703 0.10031,-4.95537c0.01003,-4.52404 0,-4.72466 -0.19059,-5.10584c-0.27084,-0.51159 -0.83258,-0.97302 -1.37426,-1.10342c-0.39121,-0.10031 -11.83672,-0.1605 -12.12762,-0.06019z"/><path d="M216.79896,174.59197h4.21307h4.21307v2.90902v2.90902h-4.21307h-4.21307v-2.90902zM224.62324,175.09353h-3.66136h-3.66136v2.40747v2.40747h3.66136h3.66136v-2.40747z"/><path d="M239.36898,170.70993c5.63749,0.02006 6.09892,0.03009 6.42995,0.20062c0.59184,0.2909 1.12349,0.81252 1.39433,1.33414l0.25078,0.49152v4.81494c0,4.74472 0,4.82497 -0.22068,5.21618c-0.31096,0.57177 -0.80249,1.04324 -1.38429,1.31408l-0.50156,0.24075h-6.16914h-6.16914l-0.50156,-0.24075c-0.27084,-0.12037 -0.67209,-0.42131 -0.88274,-0.66205c-0.7423,-0.81252 -0.72224,-0.64199 -0.75233,-5.6074c-0.02006,-2.89899 0.01003,-4.63438 0.08025,-4.95537c0.19059,-0.91283 1.09339,-1.85576 1.98616,-2.06641c0.20062,-0.05016 3.09962,-0.09028 6.43998,-0.08025zM239.36898,171.21149c-4.01245,-0.01003 -6.19923,0.02006 -6.46004,0.09028c-0.62193,0.17053 -1.31408,0.92286 -1.45451,1.57489c-0.15047,0.71221 -0.15047,8.53648 0,9.24869c0.1304,0.59184 0.6119,1.1937 1.20373,1.50467c0.37115,0.18056 0.66205,0.19059 6.5102,0.19059c5.91836,0 6.13905,-0.01003 6.52023,-0.20062c0.47146,-0.24075 0.84261,-0.59184 1.07333,-1.03321c0.1605,-0.2909 0.18056,-0.75233 0.21065,-4.86509c0.02006,-3.04946 -0.01003,-4.66447 -0.08025,-4.94534c-0.12037,-0.4514 -0.68212,-1.12349 -1.14355,-1.37426c-0.28087,-0.15047 -0.89277,-0.17053 -6.37979,-0.19059z"/><path d="M234.95529,174.59197h4.21307h4.21307v2.90902v2.90902h-4.21307h-4.21307v-2.90902zM242.87987,175.09353h-3.71151h-3.71151v2.40747v2.40747h3.71151h3.71151v-2.40747z"/><path d="M265.00852,170.82027c0.18056,0.1304 0.19059,0.28087 0.19059,2.04635c0,1.45451 -0.03009,1.93601 -0.14044,2.05638c-0.12037,0.15047 -0.4514,0.17053 -2.87893,0.17053h-2.74853v4.45382c0,3.92217 -0.02006,4.47388 -0.1605,4.61432c-0.23072,0.24075 -4.0626,0.24075 -4.29332,0c-0.14044,-0.14044 -0.1605,-0.69215 -0.1605,-4.61432v-4.45382h-2.72846c-1.55482,0 -2.80871,-0.04012 -2.88896,-0.10031c-0.1304,-0.08025 -0.15047,-0.42131 -0.15047,-2.05638c0,-1.83569 0.01003,-1.98616 0.19059,-2.11657c0.2909,-0.21065 15.47802,-0.21065 15.76892,0zM264.6474,171.18139h-7.52334h-7.52334v1.70529v1.70529h2.85887h2.85887v4.61432v4.61432h1.8056h1.8056v-4.61432v-4.61432h2.85887h2.85887v-1.70529z"/><path d="M281.25894,170.8303c0.6119,0.18056 1.25389,0.71221 1.62504,1.33414l0.27084,0.47146v2.50778c0,2.20685 -0.02006,2.5479 -0.18056,2.82878c-0.30093,0.55171 -0.78243,1.03321 -1.31408,1.31408l-0.51159,0.27084h-4.59425c-3.97232,0 -4.60428,-0.02006 -4.68453,-0.15047c-0.15047,-0.23072 -0.1304,-3.6413 0.02006,-3.79176c0.09028,-0.09028 0.98305,-0.12037 3.41058,-0.12037c3.21999,0 3.29021,0 3.29021,-0.20062c0,-0.20062 -0.07022,-0.20062 -3.6112,-0.20062h-3.6112v2.40747v2.40747h5.75786c5.10584,0 5.77793,0.02006 5.91836,0.1605c0.1304,0.1304 0.1605,0.46143 0.1605,2.08647c0,1.36423 -0.03009,1.95607 -0.12037,2.04635c-0.09028,0.09028 -1.82566,0.12037 -7.17225,0.12037c-6.91144,0 -7.06191,0 -7.49325,-0.21065c-0.53165,-0.24075 -1.10342,-0.80249 -1.39433,-1.34417c-0.21065,-0.39121 -0.22068,-0.51159 -0.25078,-5.05568c-0.03009,-5.39674 -0.04012,-5.31649 0.83258,-6.1892c0.37115,-0.37115 0.67209,-0.57177 1.01314,-0.68212c0.73227,-0.22068 11.89691,-0.23072 12.63921,-0.01003zM275.18008,171.21149c-3.28018,-0.01003 -6.11898,0.02006 -6.28951,0.07022c-0.60187,0.14044 -1.11345,0.5818 -1.44448,1.23383c-0.19059,0.36112 -0.19059,0.59184 -0.17053,5.1259l0.03009,4.74472l0.30093,0.43134c0.1605,0.23072 0.47146,0.55171 0.69215,0.69215l0.40124,0.26081l7.00172,0.03009l7.00172,0.02006v-1.70529v-1.70529h-5.91836h-5.91836v-2.90902v-2.90902h4.11276h4.11276v0.70218v0.70218h-3.41058h-3.41058v1.50467v1.50467h4.41369c4.15288,0 4.44379,-0.01003 4.79488,-0.19059c0.48149,-0.25078 0.87271,-0.66205 1.0633,-1.13352c0.23072,-0.54168 0.23072,-4.53407 0,-5.07575c-0.18056,-0.43134 -0.66205,-0.97302 -1.09339,-1.20373c-0.27084,-0.15047 -0.91283,-0.17053 -6.26945,-0.19059z"/><path d="M291.83174,170.70993l6.57038,0.02006l0.48149,0.25078c0.57177,0.2909 1.11345,0.86268 1.38429,1.44448c0.1605,0.36112 0.19059,0.67209 0.19059,2.71843c0,2.56797 -0.06019,2.83881 -0.73227,3.54099c-0.38118,0.40124 -1.16361,0.82255 -1.52473,0.82255c-0.14044,0 -0.25078,0.02006 -0.25078,0.04012c0,0.05016 1.47457,2.10654 4.61432,6.42995c2.21688,3.05949 2.06641,2.79868 1.86579,3.10965l-0.1605,0.25078h-2.16672c-1.21377,0 -2.23694,-0.04012 -2.34728,-0.10031c-0.10031,-0.05016 -1.79557,-2.23694 -3.7717,-4.86509l-3.58111,-4.76478h-1.49464h-1.48461v2.23694c0,1.60498 -0.03009,2.26703 -0.12037,2.35731c-0.09028,0.09028 -0.70218,0.12037 -2.14666,0.12037c-1.71532,0 -2.05638,-0.02006 -2.18678,-0.1605c-0.14044,-0.1304 -0.1605,-0.66205 -0.1605,-4.21307c0,-2.60809 0.04012,-4.13282 0.10031,-4.26323c0.10031,-0.18056 0.27084,-0.19059 5.51712,-0.19059c5.34659,0 5.4168,0 5.4168,-0.20062c0,-0.20062 -0.07022,-0.20062 -5.4168,-0.20062c-5.24628,0 -5.4168,-0.01003 -5.51712,-0.19059c-0.11034,-0.22068 -0.14044,-3.81183 -0.02006,-3.98235c0.04012,-0.06019 0.14044,-0.14044 0.22068,-0.17053c0.08025,-0.03009 3.10965,-0.05016 6.72085,-0.04012zM291.93205,171.20145c-3.56105,-0.02006 -6.5102,0 -6.55032,0.04012c-0.04012,0.04012 -0.07022,0.81252 -0.07022,1.71532v1.63507h5.51712h5.51712v0.70218v0.70218h-5.51712h-5.51712v3.91214v3.91214h1.8056h1.8056v-2.40747v-2.40747h1.83569h1.82566l3.70148,4.91525l3.70148,4.91525h1.99619c1.57489,0 1.98616,-0.03009 1.92598,-0.1304c-0.05016,-0.06019 -1.62504,-2.257 -3.52092,-4.86509c-1.89588,-2.60809 -3.44067,-4.76478 -3.44067,-4.78484c0,-0.03009 0.31096,-0.05016 0.69215,-0.05016c0.82255,0 1.07333,-0.08025 1.55482,-0.51159c0.72224,-0.63196 0.76237,-0.80249 0.76237,-3.35039c0,-1.88585 -0.03009,-2.31719 -0.1605,-2.58803c-0.21065,-0.41128 -0.71221,-0.94293 -1.09339,-1.15358c-0.27084,-0.15047 -0.95296,-0.17053 -6.77101,-0.20062z"/></g></g></g></svg>