<svg version="1.1" xmlns="http://www.w3.org/2000/svg" xmlns:xlink="http://www.w3.org/1999/xlink" width="202.5653" height="198.56575" viewBox="0,0,202.5653,198.56575"><g transform="translate(-138.71735,-80.71713)"><g data-paper-data="{&quot;isPaintingLayer&quot;:true}" fill="none" fill-rule="nonzero" stroke-width="1" stroke-linecap="butt" stroke-linejoin="miter" stroke-miterlimit="10" stroke-dasharray="" stroke-dashoffset="0" style="mix-blend-mode: normal"><path d="M335.67709,181.215c3.42598,0.67464 5.65714,3.99495 4.98656,7.41685l-2.49938,12.72855c-0.69089,3.52351 -4.18597,5.78312 -7.71353,4.91747c-3.30406,-0.80873 -5.30762,-4.18597 -4.65333,-7.52252l0.06909,-0.34138l-16.4756,0.75184c-0.49582,0.02032 -0.9266,0.34952 -1.08102,0.82499c-1.60935,4.86058 -3.72673,9.49359 -6.29111,13.82583c-0.26011,0.4389 -0.21945,0.9957 0.10972,1.38585l7.28681,8.6564c1.44679,-1.3777 3.33657,-2.09297 5.24667,-2.09297c1.60935,0 3.23496,0.50802 4.61267,1.56466c3.33657,2.55221 3.97055,7.32744 1.41833,10.66807l-2.11332,2.75946c-2.47906,3.24308 -7.09988,4.11279 -10.46488,1.79223c-2.89765,-1.99545 -3.94618,-5.58399 -2.89765,-8.70108l-10.4974,-4.61267c-0.4755,-0.20728 -1.02413,-0.08535 -1.36959,0.29666c-4.86058,5.33608 -10.51772,9.92843 -16.78445,13.59418c-0.43078,0.25197 -0.66243,0.73967 -0.58114,1.2314l2.68631,16.38619l2.32462,-0.93066c3.33657,-1.33298 7.13236,0.37389 8.32313,3.80799c1.11353,3.21465 -0.63397,6.73004 -3.79173,7.98987l-11.87916,4.75491c-3.33252,1.33298 -7.12831,-0.37389 -8.31908,-3.80799c-1.11353,-3.21465 0.63397,-6.73004 3.79173,-7.99396l0.32106,-0.12598l-9.583,-13.42756c-0.28854,-0.40641 -0.79656,-0.58523 -1.28018,-0.45924c-5.72623,1.48337 -11.73286,2.27993 -17.92645,2.27993c-4.90121,0 -9.68052,-0.49988 -14.30133,-1.44274c-0.4877,-0.09755 -0.98755,0.10972 -1.25578,0.52834l-9.58706,15.04097l0.33732,0.12193c3.12118,1.13794 5.05565,4.08436 5.05565,7.22177c0,0.87783 -0.15039,1.76785 -0.46736,2.63757c0,4.49889 -3.4585,6.92106 -7.68507,5.37671l-11.78164,-4.2957c-3.94212,-1.43459 -5.99851,-5.76281 -4.63704,-9.7171c1.39802,-4.07622 6.0432,-6.13261 10.09099,-4.65739l0.27228,0.09755l1.95073,-17.62571c0.05689,-0.49582 -0.20319,-0.96723 -0.64618,-1.19889c-7.46157,-3.85271 -14.15503,-8.98557 -19.79183,-15.11007c-0.34138,-0.36984 -0.87377,-0.49173 -1.33707,-0.30074l-14.37854,5.8969c1.62561,3.03989 0.71121,6.8926 -2.25553,8.84333c-3.09678,2.03608 -7.27866,1.08916 -9.39198,-1.95073l-3.68201,-5.30356c-2.06045,-2.96268 -1.58092,-7.09173 1.25578,-9.32694c3.02363,-2.38151 7.33558,-1.7638 9.59923,1.2314l10.12756,-11.44432c0.33732,-0.38201 0.39421,-0.93475 0.1463,-1.3777c-4.15751,-7.49406 -7.00232,-15.81722 -8.22558,-24.65649c-0.06909,-0.49582 -0.43078,-0.89814 -0.9144,-1.00787l-16.18297,-3.73893l-0.01626,1.89789c-0.01626,1.89789 -0.79656,3.617 -2.05234,4.85652c-1.25172,1.2436 -2.97488,2.00762 -4.87684,2.00762c-3.77956,0 -6.83977,-3.08461 -6.80319,-6.86414l0.10567,-11.75723c0.03252,-3.84457 3.21059,-7.08362 7.0511,-6.98201c3.72673,0.09755 6.70158,3.16182 6.68126,6.90074l16.06513,-3.76736c0.4877,-0.11378 0.8494,-0.51613 0.9144,-1.01195c1.25986,-9.34726 4.33633,-18.12152 8.85959,-25.95696c0.25197,-0.4389 0.20728,-0.98755 -0.12193,-1.3777l-7.6607,-8.99777l-0.66649,0.87783c-2.06451,2.73103 -6.00666,3.20653 -8.6686,0.99164c-2.49532,-2.0808 -2.80012,-5.81158 -0.84125,-8.40034l5.10443,-6.7463c1.18671,-1.56466 2.98706,-2.38966 4.8118,-2.38966c1.26392,0 2.54001,0.39827 3.62917,1.2192c2.52375,1.90604 3.11713,5.40923 1.45085,8.03459l10.71279,4.63301c0.47142,0.20319 1.01601,0.08129 1.3655,-0.29666c5.05565,-5.54333 10.97696,-10.28201 17.55256,-14.0087c0.43078,-0.24791 0.67058,-0.73153 0.59743,-1.22326l-2.46686,-16.42276l-2.34088,0.90223c-3.34875,1.28829 -7.12425,-0.47142 -8.26624,-3.91772c-1.0729,-3.23091 0.72338,-6.7219 3.8974,-7.94113l11.94014,-4.59235c3.35283,-1.28829 7.12425,0.46736 8.26624,3.91772c1.0729,3.22685 -0.71933,6.71784 -3.8974,7.94113l-0.32106,0.12193l9.39604,13.54949c0.28448,0.41047 0.78842,0.59743 1.27204,0.47956c5.45392,-1.33707 11.14763,-2.04419 17.01205,-2.04419h0.00814c0.51208,0 0.97129,-0.31294 1.14199,-0.79656l3.11304,-8.70514c-3.6048,-1.12979 -6.00666,-4.68585 -5.54741,-8.5629c0.52425,-4.39322 4.73054,-7.5144 9.12375,-6.96169l4.27535,0.53645c4.35664,0.54865 7.62413,4.45011 7.14862,8.81895c-0.37389,3.40161 -2.82044,6.05135 -5.92536,6.86414l1.08102,9.43667c0.05689,0.50802 0.43484,0.92255 0.93877,1.03227c7.22586,1.58904 14.04122,4.27535 20.25921,7.87204c0.43484,0.24791 0.97129,0.21133 1.35739,-0.10567l12.89517,-10.46488l-1.95887,-1.55652c-2.81635,-2.23521 -3.21465,-6.37646 -0.82499,-9.11155c2.23521,-2.56439 6.15701,-2.79198 8.81895,-0.67464l10.01784,7.9533c2.81635,2.23116 3.21465,6.37646 0.82499,9.11155c-2.23521,2.56036 -6.15701,2.78792 -8.81895,0.67464l-0.27228,-0.21539l-6.9048,14.99223c-0.21133,0.4511 -0.11378,0.98349 0.23571,1.34113c4.86058,4.97845 8.99777,10.66807 12.24085,16.89418c0.23571,0.4511 0.72747,0.70715 1.2314,0.63806l9.79025,-1.36959c-1.43868,-4.01527 0.69495,-8.46538 4.79963,-9.81056c3.91366,-1.28424 8.13215,0.89003 9.5708,4.75085l2.25553,6.04729c1.42242,3.82425 -0.28448,8.20121 -4.02338,9.82682c-3.58448,1.55652 -7.62818,0.15039 -9.55454,-3.02772l-8.124,5.51081c-0.42673,0.28854 -0.61775,0.81688 -0.47956,1.31267c1.6703,6.0554 2.56439,12.42781 2.56439,19.01152c0,1.10136 -0.02437,2.19458 -0.07721,3.27968c-0.02032,0.49988 0.26011,0.95912 0.71527,1.15825l15.23199,6.65283l0.47956,-2.45875c0.67464,-3.42598 3.99495,-5.65714 7.41685,-4.98656z" stroke="#f79595"/><path d="M261.53453,142.48477c0,-4.6459 4.50443,-8.41213 10.06092,-8.41213c5.55648,0 10.06092,3.76622 10.06092,8.41213c0,4.6459 -4.50443,8.41213 -10.06092,8.41213c-5.55648,0 -10.06092,-3.76622 -10.06092,-8.41213z" stroke="#ee6161"/><path d="M224.29176,194.87054c0,-6.07339 4.92346,-10.99686 10.99686,-10.99686c6.07339,0 10.99686,4.92346 10.99686,10.99686c0,6.07339 -4.92346,10.99686 -10.99686,10.99686c-6.07339,0 -10.99686,-4.92346 -10.99686,-10.99686z" stroke="#ee6161"/><path d="M270.27302,189.14148c0,-4.3485 3.52515,-7.87365 7.87365,-7.87365c4.3485,0 7.87365,3.52515 7.87365,7.87365c0,4.3485 -3.52515,7.87365 -7.87365,7.87365c-4.3485,0 -7.87365,-3.52515 -7.87365,-7.87365z" stroke="#f9b1b1"/><path d="M241.41269,227.56607c0,-4.22774 3.42727,-7.655 7.655,-7.655c4.22774,0 7.655,3.42727 7.655,7.655c0,4.22774 -3.42727,7.655 -7.655,7.655c-4.22774,0 -7.655,-3.42727 -7.655,-7.655z" stroke="#f9b1b1"/><path d="M242.38807,248.81161c-0.57344,0.01342 -1.15948,0.02073 -1.73614,0.02073c-4.90121,0 -9.68052,-0.49988 -14.30133,-1.44274c-0.4877,-0.09755 -0.98755,0.10972 -1.25578,0.52834l-9.58706,15.04097l0.33732,0.12193c3.12118,1.13794 5.05565,4.08436 5.05565,7.22177c0,0.87783 -0.15039,1.76785 -0.46736,2.63757c0,4.49889 -3.4585,6.92106 -7.68507,5.37671l-11.78164,-4.2957c-3.94212,-1.43459 -5.99851,-5.76281 -4.63704,-9.7171c1.39802,-4.07622 6.0432,-6.13261 10.09099,-4.65739l0.27228,0.09755l1.95073,-17.62571c0.05689,-0.49582 -0.20319,-0.96723 -0.64618,-1.19889c-7.46157,-3.85271 -14.15503,-8.98557 -19.79183,-15.11007c-0.34138,-0.36984 -0.87377,-0.49173 -1.33707,-0.30074l-14.37854,5.8969c1.62561,3.03989 0.71121,6.8926 -2.25553,8.84333c-3.09678,2.03608 -7.27866,1.08916 -9.39198,-1.95073l-3.68201,-5.30356c-2.06045,-2.96268 -1.58092,-7.09173 1.25578,-9.32694c3.02363,-2.38151 7.33558,-1.7638 9.59923,1.2314l10.12756,-11.44432c0.33732,-0.38201 0.39421,-0.93475 0.1463,-1.3777c-4.15751,-7.49406 -7.00232,-15.81722 -8.22558,-24.65649c-0.06909,-0.49582 -0.43078,-0.89814 -0.9144,-1.00787l-16.18297,-3.73893l-0.01626,1.89789c-0.01626,1.89789 -0.79656,3.617 -2.05234,4.85652c-1.25172,1.2436 -2.97488,2.00762 -4.87684,2.00762c-3.77956,0 -6.83977,-3.08461 -6.80319,-6.86414l0.10567,-11.75723c0.03252,-3.84457 3.21059,-7.08362 7.0511,-6.98201c3.72673,0.09755 6.70158,3.16182 6.68126,6.90074l16.06513,-3.76736c0.4877,-0.11378 0.8494,-0.51613 0.9144,-1.01195c1.25986,-9.34726 4.33633,-18.12152 8.85959,-25.95696c0.25197,-0.4389 0.20728,-0.98755 -0.12193,-1.3777l-7.6607,-8.99777l-0.66649,0.87783c-2.06451,2.73103 -6.00666,3.20653 -8.6686,0.99164c-2.49532,-2.0808 -2.80012,-5.81158 -0.84125,-8.40034l5.10443,-6.7463c1.18671,-1.56466 2.98706,-2.38966 4.8118,-2.38966c1.26392,0 2.54001,0.39827 3.62917,1.2192c2.52375,1.90604 3.11713,5.40923 1.45085,8.03459l10.71279,4.63301c0.47142,0.20319 1.01601,0.08129 1.3655,-0.29666c5.05565,-5.54333 10.97696,-10.28201 17.55256,-14.0087c0.43078,-0.24791 0.67058,-0.73153 0.59743,-1.22326l-2.46686,-16.42276l-2.34088,0.90223c-3.34875,1.28829 -7.12425,-0.47142 -8.26624,-3.91772c-1.0729,-3.23091 0.72338,-6.7219 3.8974,-7.94113l11.94014,-4.59235c3.35283,-1.28829 7.12425,0.46736 8.26624,3.91772c1.0729,3.22685 -0.71933,6.71784 -3.8974,7.94113l-0.32106,0.12193l9.39604,13.54949c0.28448,0.41047 0.78842,0.59743 1.27204,0.47956c2.28315,-0.56002 4.61553,-1.01031 6.97795,-1.34357c-20.23439,15.40633 -33.3031,39.75435 -33.3031,67.14918c0,32.3952 18.28041,60.52642 45.07337,74.65505z" stroke="#f37c7c"/><path d="M193.19419,209.25478c0,-4.40417 3.57028,-7.97445 7.97445,-7.97445c4.40417,0 7.97445,3.57028 7.97445,7.97445c0,4.40417 -3.57028,7.97445 -7.97445,7.97445c-4.40417,0 -7.97445,-3.57028 -7.97445,-7.97445z" stroke="#ee6161"/><path d="M260.18732,174.15659h-2.69446c-1.68373,0 -3.04803,-1.3647 -3.04803,-3.04803c0,-1.68334 1.36431,-3.04803 3.04803,-3.04803h2.69446c1.68373,0 3.04803,1.3647 3.04803,3.04803c0,1.68334 -1.36431,3.04803 -3.04803,3.04803z" stroke="#f9b1b1"/><path d="M224.29134,227.43603h-2.76841c-1.68373,0 -3.04803,-1.3647 -3.04803,-3.04803c0,-1.68334 1.36431,-3.04803 3.04803,-3.04803h2.76841c1.68373,0 3.04803,1.3647 3.04803,3.04803c0,1.68334 -1.36431,3.04803 -3.04803,3.04803z" stroke="#f9b1b1"/><path d="M195.8606,183.04786h-2.66683c-1.68373,0 -3.04803,-1.3647 -3.04803,-3.04803c0,-1.68334 1.36431,-3.04803 3.04803,-3.04803h2.66683c1.68373,0 3.04803,1.3647 3.04803,3.04803c0,1.68334 -1.36431,3.04803 -3.04803,3.04803z" stroke="#ee6161"/><path d="M249.99633,129.72087h-3.71127c-1.68373,0 -3.04803,-1.3647 -3.04803,-3.04803c0,-1.68334 1.36431,-3.04803 3.04803,-3.04803h3.71127c1.68373,0 3.04803,1.3647 3.04803,3.04803c0,1.68334 -1.36431,3.04803 -3.04803,3.04803z" stroke="#f9b1b1"/><path d="M274.3712,217.51372h-4.09817c-1.68373,0 -3.04803,-1.3647 -3.04803,-3.04803c0,-1.68334 1.36431,-3.04803 3.04803,-3.04803h4.09817c1.68373,0 3.04803,1.3647 3.04803,3.04803c0,1.68334 -1.3647,3.04803 -3.04803,3.04803z" stroke="#ee6161"/><path d="M200.54994,163.87211c-5.9935,-7.60083 -3.47431,-19.58022 5.6268,-26.75674c9.10108,-7.17655 21.33769,-6.83261 27.3312,0.76822c5.9935,7.60083 3.47431,19.58022 -5.6268,26.75674c-9.10108,7.17655 -21.33769,6.83261 -27.3312,-0.76822z" stroke="#ee6161"/></g></g></svg>